%TF.GenerationSoftware,KiCad,Pcbnew,7.0.10*%
%TF.CreationDate,2024-05-28T16:21:34+05:30*%
%TF.ProjectId,pro1,70726f31-2e6b-4696-9361-645f70636258,rev?*%
%TF.SameCoordinates,Original*%
%TF.FileFunction,Drillmap*%
%TF.FilePolarity,Positive*%
%FSLAX45Y45*%
G04 Gerber Fmt 4.5, Leading zero omitted, Abs format (unit mm)*
G04 Created by KiCad (PCBNEW 7.0.10) date 2024-05-28 16:21:34*
%MOMM*%
%LPD*%
G01*
G04 APERTURE LIST*
%ADD10C,0.100000*%
%ADD11C,0.200000*%
%ADD12C,0.430000*%
G04 APERTURE END LIST*
D10*
X12640000Y-2730000D02*
X12620000Y-9390000D01*
X17980000Y-2730000D02*
X17980000Y-9380000D01*
X17980000Y-9380000D02*
X12620000Y-9390000D01*
X12640000Y-2730000D02*
X17980000Y-2730000D01*
D11*
D12*
X12865000Y-8705000D02*
X13295000Y-9135000D01*
X13295000Y-8705000D02*
X12865000Y-9135000D01*
X12877000Y-2991000D02*
X13307000Y-3421000D01*
X13307000Y-2991000D02*
X12877000Y-3421000D01*
X17275000Y-8685000D02*
X17705000Y-9115000D01*
X17705000Y-8685000D02*
X17275000Y-9115000D01*
X17305000Y-2985000D02*
X17735000Y-3415000D01*
X17735000Y-2985000D02*
X17305000Y-3415000D01*
D11*
X12875777Y-9706484D02*
X12875777Y-9506484D01*
X12875777Y-9506484D02*
X12923396Y-9506484D01*
X12923396Y-9506484D02*
X12951967Y-9516008D01*
X12951967Y-9516008D02*
X12971015Y-9535055D01*
X12971015Y-9535055D02*
X12980539Y-9554103D01*
X12980539Y-9554103D02*
X12990062Y-9592198D01*
X12990062Y-9592198D02*
X12990062Y-9620770D01*
X12990062Y-9620770D02*
X12980539Y-9658865D01*
X12980539Y-9658865D02*
X12971015Y-9677912D01*
X12971015Y-9677912D02*
X12951967Y-9696960D01*
X12951967Y-9696960D02*
X12923396Y-9706484D01*
X12923396Y-9706484D02*
X12875777Y-9706484D01*
X13075777Y-9706484D02*
X13075777Y-9573150D01*
X13075777Y-9611246D02*
X13085301Y-9592198D01*
X13085301Y-9592198D02*
X13094824Y-9582674D01*
X13094824Y-9582674D02*
X13113872Y-9573150D01*
X13113872Y-9573150D02*
X13132920Y-9573150D01*
X13199586Y-9706484D02*
X13199586Y-9573150D01*
X13199586Y-9506484D02*
X13190062Y-9516008D01*
X13190062Y-9516008D02*
X13199586Y-9525531D01*
X13199586Y-9525531D02*
X13209110Y-9516008D01*
X13209110Y-9516008D02*
X13199586Y-9506484D01*
X13199586Y-9506484D02*
X13199586Y-9525531D01*
X13323396Y-9706484D02*
X13304348Y-9696960D01*
X13304348Y-9696960D02*
X13294824Y-9677912D01*
X13294824Y-9677912D02*
X13294824Y-9506484D01*
X13428158Y-9706484D02*
X13409110Y-9696960D01*
X13409110Y-9696960D02*
X13399586Y-9677912D01*
X13399586Y-9677912D02*
X13399586Y-9506484D01*
X13656729Y-9706484D02*
X13656729Y-9506484D01*
X13656729Y-9506484D02*
X13723396Y-9649341D01*
X13723396Y-9649341D02*
X13790062Y-9506484D01*
X13790062Y-9506484D02*
X13790062Y-9706484D01*
X13971015Y-9706484D02*
X13971015Y-9601722D01*
X13971015Y-9601722D02*
X13961491Y-9582674D01*
X13961491Y-9582674D02*
X13942443Y-9573150D01*
X13942443Y-9573150D02*
X13904348Y-9573150D01*
X13904348Y-9573150D02*
X13885301Y-9582674D01*
X13971015Y-9696960D02*
X13951967Y-9706484D01*
X13951967Y-9706484D02*
X13904348Y-9706484D01*
X13904348Y-9706484D02*
X13885301Y-9696960D01*
X13885301Y-9696960D02*
X13875777Y-9677912D01*
X13875777Y-9677912D02*
X13875777Y-9658865D01*
X13875777Y-9658865D02*
X13885301Y-9639817D01*
X13885301Y-9639817D02*
X13904348Y-9630293D01*
X13904348Y-9630293D02*
X13951967Y-9630293D01*
X13951967Y-9630293D02*
X13971015Y-9620770D01*
X14066253Y-9573150D02*
X14066253Y-9773150D01*
X14066253Y-9582674D02*
X14085301Y-9573150D01*
X14085301Y-9573150D02*
X14123396Y-9573150D01*
X14123396Y-9573150D02*
X14142443Y-9582674D01*
X14142443Y-9582674D02*
X14151967Y-9592198D01*
X14151967Y-9592198D02*
X14161491Y-9611246D01*
X14161491Y-9611246D02*
X14161491Y-9668389D01*
X14161491Y-9668389D02*
X14151967Y-9687436D01*
X14151967Y-9687436D02*
X14142443Y-9696960D01*
X14142443Y-9696960D02*
X14123396Y-9706484D01*
X14123396Y-9706484D02*
X14085301Y-9706484D01*
X14085301Y-9706484D02*
X14066253Y-9696960D01*
X14247205Y-9687436D02*
X14256729Y-9696960D01*
X14256729Y-9696960D02*
X14247205Y-9706484D01*
X14247205Y-9706484D02*
X14237682Y-9696960D01*
X14237682Y-9696960D02*
X14247205Y-9687436D01*
X14247205Y-9687436D02*
X14247205Y-9706484D01*
X14247205Y-9582674D02*
X14256729Y-9592198D01*
X14256729Y-9592198D02*
X14247205Y-9601722D01*
X14247205Y-9601722D02*
X14237682Y-9592198D01*
X14237682Y-9592198D02*
X14247205Y-9582674D01*
X14247205Y-9582674D02*
X14247205Y-9601722D01*
X12415000Y-9935000D02*
X12615000Y-10135000D01*
X12615000Y-9935000D02*
X12415000Y-10135000D01*
X12961491Y-9993150D02*
X12961491Y-10126484D01*
X12913872Y-9916960D02*
X12866253Y-10059817D01*
X12866253Y-10059817D02*
X12990062Y-10059817D01*
X13066253Y-10107436D02*
X13075777Y-10116960D01*
X13075777Y-10116960D02*
X13066253Y-10126484D01*
X13066253Y-10126484D02*
X13056729Y-10116960D01*
X13056729Y-10116960D02*
X13066253Y-10107436D01*
X13066253Y-10107436D02*
X13066253Y-10126484D01*
X13142443Y-9926484D02*
X13266253Y-9926484D01*
X13266253Y-9926484D02*
X13199586Y-10002674D01*
X13199586Y-10002674D02*
X13228158Y-10002674D01*
X13228158Y-10002674D02*
X13247205Y-10012198D01*
X13247205Y-10012198D02*
X13256729Y-10021722D01*
X13256729Y-10021722D02*
X13266253Y-10040770D01*
X13266253Y-10040770D02*
X13266253Y-10088389D01*
X13266253Y-10088389D02*
X13256729Y-10107436D01*
X13256729Y-10107436D02*
X13247205Y-10116960D01*
X13247205Y-10116960D02*
X13228158Y-10126484D01*
X13228158Y-10126484D02*
X13171015Y-10126484D01*
X13171015Y-10126484D02*
X13151967Y-10116960D01*
X13151967Y-10116960D02*
X13142443Y-10107436D01*
X13390062Y-9926484D02*
X13409110Y-9926484D01*
X13409110Y-9926484D02*
X13428158Y-9936008D01*
X13428158Y-9936008D02*
X13437682Y-9945531D01*
X13437682Y-9945531D02*
X13447205Y-9964579D01*
X13447205Y-9964579D02*
X13456729Y-10002674D01*
X13456729Y-10002674D02*
X13456729Y-10050293D01*
X13456729Y-10050293D02*
X13447205Y-10088389D01*
X13447205Y-10088389D02*
X13437682Y-10107436D01*
X13437682Y-10107436D02*
X13428158Y-10116960D01*
X13428158Y-10116960D02*
X13409110Y-10126484D01*
X13409110Y-10126484D02*
X13390062Y-10126484D01*
X13390062Y-10126484D02*
X13371015Y-10116960D01*
X13371015Y-10116960D02*
X13361491Y-10107436D01*
X13361491Y-10107436D02*
X13351967Y-10088389D01*
X13351967Y-10088389D02*
X13342443Y-10050293D01*
X13342443Y-10050293D02*
X13342443Y-10002674D01*
X13342443Y-10002674D02*
X13351967Y-9964579D01*
X13351967Y-9964579D02*
X13361491Y-9945531D01*
X13361491Y-9945531D02*
X13371015Y-9936008D01*
X13371015Y-9936008D02*
X13390062Y-9926484D01*
X13580539Y-9926484D02*
X13599586Y-9926484D01*
X13599586Y-9926484D02*
X13618634Y-9936008D01*
X13618634Y-9936008D02*
X13628158Y-9945531D01*
X13628158Y-9945531D02*
X13637682Y-9964579D01*
X13637682Y-9964579D02*
X13647205Y-10002674D01*
X13647205Y-10002674D02*
X13647205Y-10050293D01*
X13647205Y-10050293D02*
X13637682Y-10088389D01*
X13637682Y-10088389D02*
X13628158Y-10107436D01*
X13628158Y-10107436D02*
X13618634Y-10116960D01*
X13618634Y-10116960D02*
X13599586Y-10126484D01*
X13599586Y-10126484D02*
X13580539Y-10126484D01*
X13580539Y-10126484D02*
X13561491Y-10116960D01*
X13561491Y-10116960D02*
X13551967Y-10107436D01*
X13551967Y-10107436D02*
X13542443Y-10088389D01*
X13542443Y-10088389D02*
X13532920Y-10050293D01*
X13532920Y-10050293D02*
X13532920Y-10002674D01*
X13532920Y-10002674D02*
X13542443Y-9964579D01*
X13542443Y-9964579D02*
X13551967Y-9945531D01*
X13551967Y-9945531D02*
X13561491Y-9936008D01*
X13561491Y-9936008D02*
X13580539Y-9926484D01*
X13732920Y-10126484D02*
X13732920Y-9993150D01*
X13732920Y-10012198D02*
X13742443Y-10002674D01*
X13742443Y-10002674D02*
X13761491Y-9993150D01*
X13761491Y-9993150D02*
X13790063Y-9993150D01*
X13790063Y-9993150D02*
X13809110Y-10002674D01*
X13809110Y-10002674D02*
X13818634Y-10021722D01*
X13818634Y-10021722D02*
X13818634Y-10126484D01*
X13818634Y-10021722D02*
X13828158Y-10002674D01*
X13828158Y-10002674D02*
X13847205Y-9993150D01*
X13847205Y-9993150D02*
X13875777Y-9993150D01*
X13875777Y-9993150D02*
X13894824Y-10002674D01*
X13894824Y-10002674D02*
X13904348Y-10021722D01*
X13904348Y-10021722D02*
X13904348Y-10126484D01*
X13999586Y-10126484D02*
X13999586Y-9993150D01*
X13999586Y-10012198D02*
X14009110Y-10002674D01*
X14009110Y-10002674D02*
X14028158Y-9993150D01*
X14028158Y-9993150D02*
X14056729Y-9993150D01*
X14056729Y-9993150D02*
X14075777Y-10002674D01*
X14075777Y-10002674D02*
X14085301Y-10021722D01*
X14085301Y-10021722D02*
X14085301Y-10126484D01*
X14085301Y-10021722D02*
X14094824Y-10002674D01*
X14094824Y-10002674D02*
X14113872Y-9993150D01*
X14113872Y-9993150D02*
X14142443Y-9993150D01*
X14142443Y-9993150D02*
X14161491Y-10002674D01*
X14161491Y-10002674D02*
X14171015Y-10021722D01*
X14171015Y-10021722D02*
X14171015Y-10126484D01*
X14561491Y-9916960D02*
X14390063Y-10174103D01*
X14818634Y-9926484D02*
X14837682Y-9926484D01*
X14837682Y-9926484D02*
X14856729Y-9936008D01*
X14856729Y-9936008D02*
X14866253Y-9945531D01*
X14866253Y-9945531D02*
X14875777Y-9964579D01*
X14875777Y-9964579D02*
X14885301Y-10002674D01*
X14885301Y-10002674D02*
X14885301Y-10050293D01*
X14885301Y-10050293D02*
X14875777Y-10088389D01*
X14875777Y-10088389D02*
X14866253Y-10107436D01*
X14866253Y-10107436D02*
X14856729Y-10116960D01*
X14856729Y-10116960D02*
X14837682Y-10126484D01*
X14837682Y-10126484D02*
X14818634Y-10126484D01*
X14818634Y-10126484D02*
X14799586Y-10116960D01*
X14799586Y-10116960D02*
X14790063Y-10107436D01*
X14790063Y-10107436D02*
X14780539Y-10088389D01*
X14780539Y-10088389D02*
X14771015Y-10050293D01*
X14771015Y-10050293D02*
X14771015Y-10002674D01*
X14771015Y-10002674D02*
X14780539Y-9964579D01*
X14780539Y-9964579D02*
X14790063Y-9945531D01*
X14790063Y-9945531D02*
X14799586Y-9936008D01*
X14799586Y-9936008D02*
X14818634Y-9926484D01*
X14971015Y-10107436D02*
X14980539Y-10116960D01*
X14980539Y-10116960D02*
X14971015Y-10126484D01*
X14971015Y-10126484D02*
X14961491Y-10116960D01*
X14961491Y-10116960D02*
X14971015Y-10107436D01*
X14971015Y-10107436D02*
X14971015Y-10126484D01*
X15171015Y-10126484D02*
X15056729Y-10126484D01*
X15113872Y-10126484D02*
X15113872Y-9926484D01*
X15113872Y-9926484D02*
X15094825Y-9955055D01*
X15094825Y-9955055D02*
X15075777Y-9974103D01*
X15075777Y-9974103D02*
X15056729Y-9983627D01*
X15342444Y-9926484D02*
X15304348Y-9926484D01*
X15304348Y-9926484D02*
X15285301Y-9936008D01*
X15285301Y-9936008D02*
X15275777Y-9945531D01*
X15275777Y-9945531D02*
X15256729Y-9974103D01*
X15256729Y-9974103D02*
X15247206Y-10012198D01*
X15247206Y-10012198D02*
X15247206Y-10088389D01*
X15247206Y-10088389D02*
X15256729Y-10107436D01*
X15256729Y-10107436D02*
X15266253Y-10116960D01*
X15266253Y-10116960D02*
X15285301Y-10126484D01*
X15285301Y-10126484D02*
X15323396Y-10126484D01*
X15323396Y-10126484D02*
X15342444Y-10116960D01*
X15342444Y-10116960D02*
X15351967Y-10107436D01*
X15351967Y-10107436D02*
X15361491Y-10088389D01*
X15361491Y-10088389D02*
X15361491Y-10040770D01*
X15361491Y-10040770D02*
X15351967Y-10021722D01*
X15351967Y-10021722D02*
X15342444Y-10012198D01*
X15342444Y-10012198D02*
X15323396Y-10002674D01*
X15323396Y-10002674D02*
X15285301Y-10002674D01*
X15285301Y-10002674D02*
X15266253Y-10012198D01*
X15266253Y-10012198D02*
X15256729Y-10021722D01*
X15256729Y-10021722D02*
X15247206Y-10040770D01*
X15456729Y-10126484D02*
X15494825Y-10126484D01*
X15494825Y-10126484D02*
X15513872Y-10116960D01*
X15513872Y-10116960D02*
X15523396Y-10107436D01*
X15523396Y-10107436D02*
X15542444Y-10078865D01*
X15542444Y-10078865D02*
X15551967Y-10040770D01*
X15551967Y-10040770D02*
X15551967Y-9964579D01*
X15551967Y-9964579D02*
X15542444Y-9945531D01*
X15542444Y-9945531D02*
X15532920Y-9936008D01*
X15532920Y-9936008D02*
X15513872Y-9926484D01*
X15513872Y-9926484D02*
X15475777Y-9926484D01*
X15475777Y-9926484D02*
X15456729Y-9936008D01*
X15456729Y-9936008D02*
X15447206Y-9945531D01*
X15447206Y-9945531D02*
X15437682Y-9964579D01*
X15437682Y-9964579D02*
X15437682Y-10012198D01*
X15437682Y-10012198D02*
X15447206Y-10031246D01*
X15447206Y-10031246D02*
X15456729Y-10040770D01*
X15456729Y-10040770D02*
X15475777Y-10050293D01*
X15475777Y-10050293D02*
X15513872Y-10050293D01*
X15513872Y-10050293D02*
X15532920Y-10040770D01*
X15532920Y-10040770D02*
X15542444Y-10031246D01*
X15542444Y-10031246D02*
X15551967Y-10012198D01*
X15618634Y-9926484D02*
X15742444Y-9926484D01*
X15742444Y-9926484D02*
X15675777Y-10002674D01*
X15675777Y-10002674D02*
X15704348Y-10002674D01*
X15704348Y-10002674D02*
X15723396Y-10012198D01*
X15723396Y-10012198D02*
X15732920Y-10021722D01*
X15732920Y-10021722D02*
X15742444Y-10040770D01*
X15742444Y-10040770D02*
X15742444Y-10088389D01*
X15742444Y-10088389D02*
X15732920Y-10107436D01*
X15732920Y-10107436D02*
X15723396Y-10116960D01*
X15723396Y-10116960D02*
X15704348Y-10126484D01*
X15704348Y-10126484D02*
X15647206Y-10126484D01*
X15647206Y-10126484D02*
X15628158Y-10116960D01*
X15628158Y-10116960D02*
X15618634Y-10107436D01*
X15818634Y-9926484D02*
X15818634Y-9964579D01*
X15894825Y-9926484D02*
X15894825Y-9964579D01*
X16190063Y-10202674D02*
X16180539Y-10193150D01*
X16180539Y-10193150D02*
X16161491Y-10164579D01*
X16161491Y-10164579D02*
X16151968Y-10145531D01*
X16151968Y-10145531D02*
X16142444Y-10116960D01*
X16142444Y-10116960D02*
X16132920Y-10069341D01*
X16132920Y-10069341D02*
X16132920Y-10031246D01*
X16132920Y-10031246D02*
X16142444Y-9983627D01*
X16142444Y-9983627D02*
X16151968Y-9955055D01*
X16151968Y-9955055D02*
X16161491Y-9936008D01*
X16161491Y-9936008D02*
X16180539Y-9907436D01*
X16180539Y-9907436D02*
X16190063Y-9897912D01*
X16351968Y-9993150D02*
X16351968Y-10126484D01*
X16304348Y-9916960D02*
X16256729Y-10059817D01*
X16256729Y-10059817D02*
X16380539Y-10059817D01*
X16609110Y-10126484D02*
X16609110Y-9926484D01*
X16694825Y-10126484D02*
X16694825Y-10021722D01*
X16694825Y-10021722D02*
X16685301Y-10002674D01*
X16685301Y-10002674D02*
X16666253Y-9993150D01*
X16666253Y-9993150D02*
X16637682Y-9993150D01*
X16637682Y-9993150D02*
X16618634Y-10002674D01*
X16618634Y-10002674D02*
X16609110Y-10012198D01*
X16818634Y-10126484D02*
X16799587Y-10116960D01*
X16799587Y-10116960D02*
X16790063Y-10107436D01*
X16790063Y-10107436D02*
X16780539Y-10088389D01*
X16780539Y-10088389D02*
X16780539Y-10031246D01*
X16780539Y-10031246D02*
X16790063Y-10012198D01*
X16790063Y-10012198D02*
X16799587Y-10002674D01*
X16799587Y-10002674D02*
X16818634Y-9993150D01*
X16818634Y-9993150D02*
X16847206Y-9993150D01*
X16847206Y-9993150D02*
X16866253Y-10002674D01*
X16866253Y-10002674D02*
X16875777Y-10012198D01*
X16875777Y-10012198D02*
X16885301Y-10031246D01*
X16885301Y-10031246D02*
X16885301Y-10088389D01*
X16885301Y-10088389D02*
X16875777Y-10107436D01*
X16875777Y-10107436D02*
X16866253Y-10116960D01*
X16866253Y-10116960D02*
X16847206Y-10126484D01*
X16847206Y-10126484D02*
X16818634Y-10126484D01*
X16999587Y-10126484D02*
X16980539Y-10116960D01*
X16980539Y-10116960D02*
X16971015Y-10097912D01*
X16971015Y-10097912D02*
X16971015Y-9926484D01*
X17151968Y-10116960D02*
X17132920Y-10126484D01*
X17132920Y-10126484D02*
X17094825Y-10126484D01*
X17094825Y-10126484D02*
X17075777Y-10116960D01*
X17075777Y-10116960D02*
X17066253Y-10097912D01*
X17066253Y-10097912D02*
X17066253Y-10021722D01*
X17066253Y-10021722D02*
X17075777Y-10002674D01*
X17075777Y-10002674D02*
X17094825Y-9993150D01*
X17094825Y-9993150D02*
X17132920Y-9993150D01*
X17132920Y-9993150D02*
X17151968Y-10002674D01*
X17151968Y-10002674D02*
X17161492Y-10021722D01*
X17161492Y-10021722D02*
X17161492Y-10040770D01*
X17161492Y-10040770D02*
X17066253Y-10059817D01*
X17237682Y-10116960D02*
X17256730Y-10126484D01*
X17256730Y-10126484D02*
X17294825Y-10126484D01*
X17294825Y-10126484D02*
X17313873Y-10116960D01*
X17313873Y-10116960D02*
X17323396Y-10097912D01*
X17323396Y-10097912D02*
X17323396Y-10088389D01*
X17323396Y-10088389D02*
X17313873Y-10069341D01*
X17313873Y-10069341D02*
X17294825Y-10059817D01*
X17294825Y-10059817D02*
X17266253Y-10059817D01*
X17266253Y-10059817D02*
X17247206Y-10050293D01*
X17247206Y-10050293D02*
X17237682Y-10031246D01*
X17237682Y-10031246D02*
X17237682Y-10021722D01*
X17237682Y-10021722D02*
X17247206Y-10002674D01*
X17247206Y-10002674D02*
X17266253Y-9993150D01*
X17266253Y-9993150D02*
X17294825Y-9993150D01*
X17294825Y-9993150D02*
X17313873Y-10002674D01*
X17390063Y-10202674D02*
X17399587Y-10193150D01*
X17399587Y-10193150D02*
X17418634Y-10164579D01*
X17418634Y-10164579D02*
X17428158Y-10145531D01*
X17428158Y-10145531D02*
X17437682Y-10116960D01*
X17437682Y-10116960D02*
X17447206Y-10069341D01*
X17447206Y-10069341D02*
X17447206Y-10031246D01*
X17447206Y-10031246D02*
X17437682Y-9983627D01*
X17437682Y-9983627D02*
X17428158Y-9955055D01*
X17428158Y-9955055D02*
X17418634Y-9936008D01*
X17418634Y-9936008D02*
X17399587Y-9907436D01*
X17399587Y-9907436D02*
X17390063Y-9897912D01*
X17751968Y-10202674D02*
X17742444Y-10193150D01*
X17742444Y-10193150D02*
X17723396Y-10164579D01*
X17723396Y-10164579D02*
X17713873Y-10145531D01*
X17713873Y-10145531D02*
X17704349Y-10116960D01*
X17704349Y-10116960D02*
X17694825Y-10069341D01*
X17694825Y-10069341D02*
X17694825Y-10031246D01*
X17694825Y-10031246D02*
X17704349Y-9983627D01*
X17704349Y-9983627D02*
X17713873Y-9955055D01*
X17713873Y-9955055D02*
X17723396Y-9936008D01*
X17723396Y-9936008D02*
X17742444Y-9907436D01*
X17742444Y-9907436D02*
X17751968Y-9897912D01*
X17828158Y-9993150D02*
X17828158Y-10126484D01*
X17828158Y-10012198D02*
X17837682Y-10002674D01*
X17837682Y-10002674D02*
X17856730Y-9993150D01*
X17856730Y-9993150D02*
X17885301Y-9993150D01*
X17885301Y-9993150D02*
X17904349Y-10002674D01*
X17904349Y-10002674D02*
X17913873Y-10021722D01*
X17913873Y-10021722D02*
X17913873Y-10126484D01*
X18037682Y-10126484D02*
X18018634Y-10116960D01*
X18018634Y-10116960D02*
X18009111Y-10107436D01*
X18009111Y-10107436D02*
X17999587Y-10088389D01*
X17999587Y-10088389D02*
X17999587Y-10031246D01*
X17999587Y-10031246D02*
X18009111Y-10012198D01*
X18009111Y-10012198D02*
X18018634Y-10002674D01*
X18018634Y-10002674D02*
X18037682Y-9993150D01*
X18037682Y-9993150D02*
X18066254Y-9993150D01*
X18066254Y-9993150D02*
X18085301Y-10002674D01*
X18085301Y-10002674D02*
X18094825Y-10012198D01*
X18094825Y-10012198D02*
X18104349Y-10031246D01*
X18104349Y-10031246D02*
X18104349Y-10088389D01*
X18104349Y-10088389D02*
X18094825Y-10107436D01*
X18094825Y-10107436D02*
X18085301Y-10116960D01*
X18085301Y-10116960D02*
X18066254Y-10126484D01*
X18066254Y-10126484D02*
X18037682Y-10126484D01*
X18161492Y-9993150D02*
X18237682Y-9993150D01*
X18190063Y-9926484D02*
X18190063Y-10097912D01*
X18190063Y-10097912D02*
X18199587Y-10116960D01*
X18199587Y-10116960D02*
X18218634Y-10126484D01*
X18218634Y-10126484D02*
X18237682Y-10126484D01*
X18456730Y-9993150D02*
X18456730Y-10193150D01*
X18456730Y-10002674D02*
X18475777Y-9993150D01*
X18475777Y-9993150D02*
X18513873Y-9993150D01*
X18513873Y-9993150D02*
X18532920Y-10002674D01*
X18532920Y-10002674D02*
X18542444Y-10012198D01*
X18542444Y-10012198D02*
X18551968Y-10031246D01*
X18551968Y-10031246D02*
X18551968Y-10088389D01*
X18551968Y-10088389D02*
X18542444Y-10107436D01*
X18542444Y-10107436D02*
X18532920Y-10116960D01*
X18532920Y-10116960D02*
X18513873Y-10126484D01*
X18513873Y-10126484D02*
X18475777Y-10126484D01*
X18475777Y-10126484D02*
X18456730Y-10116960D01*
X18666254Y-10126484D02*
X18647206Y-10116960D01*
X18647206Y-10116960D02*
X18637682Y-10097912D01*
X18637682Y-10097912D02*
X18637682Y-9926484D01*
X18828158Y-10126484D02*
X18828158Y-10021722D01*
X18828158Y-10021722D02*
X18818635Y-10002674D01*
X18818635Y-10002674D02*
X18799587Y-9993150D01*
X18799587Y-9993150D02*
X18761492Y-9993150D01*
X18761492Y-9993150D02*
X18742444Y-10002674D01*
X18828158Y-10116960D02*
X18809111Y-10126484D01*
X18809111Y-10126484D02*
X18761492Y-10126484D01*
X18761492Y-10126484D02*
X18742444Y-10116960D01*
X18742444Y-10116960D02*
X18732920Y-10097912D01*
X18732920Y-10097912D02*
X18732920Y-10078865D01*
X18732920Y-10078865D02*
X18742444Y-10059817D01*
X18742444Y-10059817D02*
X18761492Y-10050293D01*
X18761492Y-10050293D02*
X18809111Y-10050293D01*
X18809111Y-10050293D02*
X18828158Y-10040770D01*
X18894825Y-9993150D02*
X18971015Y-9993150D01*
X18923396Y-9926484D02*
X18923396Y-10097912D01*
X18923396Y-10097912D02*
X18932920Y-10116960D01*
X18932920Y-10116960D02*
X18951968Y-10126484D01*
X18951968Y-10126484D02*
X18971015Y-10126484D01*
X19113873Y-10116960D02*
X19094825Y-10126484D01*
X19094825Y-10126484D02*
X19056730Y-10126484D01*
X19056730Y-10126484D02*
X19037682Y-10116960D01*
X19037682Y-10116960D02*
X19028158Y-10097912D01*
X19028158Y-10097912D02*
X19028158Y-10021722D01*
X19028158Y-10021722D02*
X19037682Y-10002674D01*
X19037682Y-10002674D02*
X19056730Y-9993150D01*
X19056730Y-9993150D02*
X19094825Y-9993150D01*
X19094825Y-9993150D02*
X19113873Y-10002674D01*
X19113873Y-10002674D02*
X19123396Y-10021722D01*
X19123396Y-10021722D02*
X19123396Y-10040770D01*
X19123396Y-10040770D02*
X19028158Y-10059817D01*
X19294825Y-10126484D02*
X19294825Y-9926484D01*
X19294825Y-10116960D02*
X19275777Y-10126484D01*
X19275777Y-10126484D02*
X19237682Y-10126484D01*
X19237682Y-10126484D02*
X19218635Y-10116960D01*
X19218635Y-10116960D02*
X19209111Y-10107436D01*
X19209111Y-10107436D02*
X19199587Y-10088389D01*
X19199587Y-10088389D02*
X19199587Y-10031246D01*
X19199587Y-10031246D02*
X19209111Y-10012198D01*
X19209111Y-10012198D02*
X19218635Y-10002674D01*
X19218635Y-10002674D02*
X19237682Y-9993150D01*
X19237682Y-9993150D02*
X19275777Y-9993150D01*
X19275777Y-9993150D02*
X19294825Y-10002674D01*
X19371016Y-10202674D02*
X19380539Y-10193150D01*
X19380539Y-10193150D02*
X19399587Y-10164579D01*
X19399587Y-10164579D02*
X19409111Y-10145531D01*
X19409111Y-10145531D02*
X19418635Y-10116960D01*
X19418635Y-10116960D02*
X19428158Y-10069341D01*
X19428158Y-10069341D02*
X19428158Y-10031246D01*
X19428158Y-10031246D02*
X19418635Y-9983627D01*
X19418635Y-9983627D02*
X19409111Y-9955055D01*
X19409111Y-9955055D02*
X19399587Y-9936008D01*
X19399587Y-9936008D02*
X19380539Y-9907436D01*
X19380539Y-9907436D02*
X19371016Y-9897912D01*
M02*
