%TF.GenerationSoftware,KiCad,Pcbnew,7.0.10*%
%TF.CreationDate,2024-05-28T16:21:34+05:30*%
%TF.ProjectId,pro1,70726f31-2e6b-4696-9361-645f70636258,rev?*%
%TF.SameCoordinates,Original*%
%TF.FileFunction,Drillmap*%
%TF.FilePolarity,Positive*%
%FSLAX45Y45*%
G04 Gerber Fmt 4.5, Leading zero omitted, Abs format (unit mm)*
G04 Created by KiCad (PCBNEW 7.0.10) date 2024-05-28 16:21:34*
%MOMM*%
%LPD*%
G01*
G04 APERTURE LIST*
%ADD10C,0.100000*%
%ADD11C,0.200000*%
%ADD12C,0.152000*%
G04 APERTURE END LIST*
D10*
X12640000Y-2730000D02*
X12620000Y-9390000D01*
X17980000Y-2730000D02*
X17980000Y-9380000D01*
X17980000Y-9380000D02*
X12620000Y-9390000D01*
X12640000Y-2730000D02*
X17980000Y-2730000D01*
D11*
D10*
X13437620Y-5182720D02*
X13457620Y-5202720D01*
X13457620Y-5182720D02*
X13437620Y-5202720D01*
X13437620Y-5322720D02*
X13457620Y-5342720D01*
X13457620Y-5322720D02*
X13437620Y-5342720D01*
X13507620Y-5112720D02*
X13527620Y-5132720D01*
X13527620Y-5112720D02*
X13507620Y-5132720D01*
X13507620Y-5252720D02*
X13527620Y-5272720D01*
X13527620Y-5252720D02*
X13507620Y-5272720D01*
X13507620Y-5392720D02*
X13527620Y-5412720D01*
X13527620Y-5392720D02*
X13507620Y-5412720D01*
X13575120Y-5182720D02*
X13595120Y-5202720D01*
X13595120Y-5182720D02*
X13575120Y-5202720D01*
X13575120Y-5322720D02*
X13595120Y-5342720D01*
X13595120Y-5322720D02*
X13575120Y-5342720D01*
X13647620Y-5112720D02*
X13667620Y-5132720D01*
X13667620Y-5112720D02*
X13647620Y-5132720D01*
X13647620Y-5252720D02*
X13667620Y-5272720D01*
X13667620Y-5252720D02*
X13647620Y-5272720D01*
X13647620Y-5392720D02*
X13667620Y-5412720D01*
X13667620Y-5392720D02*
X13647620Y-5412720D01*
X13717620Y-5182720D02*
X13737620Y-5202720D01*
X13737620Y-5182720D02*
X13717620Y-5202720D01*
X13717620Y-5322720D02*
X13737620Y-5342720D01*
X13737620Y-5322720D02*
X13717620Y-5342720D01*
X7396000Y-4483000D02*
G75*
G03*
X7356000Y-4483000I-20000J0D01*
G01*
X7356000Y-4483000D02*
G75*
G03*
X7396000Y-4483000I20000J0D01*
G01*
X11768000Y-5018000D02*
G75*
G03*
X11728000Y-5018000I-20000J0D01*
G01*
X11728000Y-5018000D02*
G75*
G03*
X11768000Y-5018000I20000J0D01*
G01*
X11768000Y-5018000D02*
G75*
G03*
X11728000Y-5018000I-20000J0D01*
G01*
X11728000Y-5018000D02*
G75*
G03*
X11768000Y-5018000I20000J0D01*
G01*
X12900000Y-6570000D02*
G75*
G03*
X12860000Y-6570000I-20000J0D01*
G01*
X12860000Y-6570000D02*
G75*
G03*
X12900000Y-6570000I20000J0D01*
G01*
X12920000Y-8270000D02*
G75*
G03*
X12880000Y-8270000I-20000J0D01*
G01*
X12880000Y-8270000D02*
G75*
G03*
X12920000Y-8270000I20000J0D01*
G01*
X13015340Y-3591060D02*
G75*
G03*
X12975340Y-3591060I-20000J0D01*
G01*
X12975340Y-3591060D02*
G75*
G03*
X13015340Y-3591060I20000J0D01*
G01*
X13020000Y-7930000D02*
G75*
G03*
X12980000Y-7930000I-20000J0D01*
G01*
X12980000Y-7930000D02*
G75*
G03*
X13020000Y-7930000I20000J0D01*
G01*
X13120000Y-7440000D02*
G75*
G03*
X13080000Y-7440000I-20000J0D01*
G01*
X13080000Y-7440000D02*
G75*
G03*
X13120000Y-7440000I20000J0D01*
G01*
X13178340Y-3134060D02*
G75*
G03*
X13138340Y-3134060I-20000J0D01*
G01*
X13138340Y-3134060D02*
G75*
G03*
X13178340Y-3134060I20000J0D01*
G01*
X13207680Y-6136640D02*
G75*
G03*
X13167680Y-6136640I-20000J0D01*
G01*
X13167680Y-6136640D02*
G75*
G03*
X13207680Y-6136640I20000J0D01*
G01*
X13350000Y-5970000D02*
G75*
G03*
X13310000Y-5970000I-20000J0D01*
G01*
X13310000Y-5970000D02*
G75*
G03*
X13350000Y-5970000I20000J0D01*
G01*
X13450000Y-7640000D02*
G75*
G03*
X13410000Y-7640000I-20000J0D01*
G01*
X13410000Y-7640000D02*
G75*
G03*
X13450000Y-7640000I20000J0D01*
G01*
X13450000Y-8220000D02*
G75*
G03*
X13410000Y-8220000I-20000J0D01*
G01*
X13410000Y-8220000D02*
G75*
G03*
X13450000Y-8220000I20000J0D01*
G01*
X13460000Y-4930000D02*
G75*
G03*
X13420000Y-4930000I-20000J0D01*
G01*
X13420000Y-4930000D02*
G75*
G03*
X13460000Y-4930000I20000J0D01*
G01*
X13470000Y-7960000D02*
G75*
G03*
X13430000Y-7960000I-20000J0D01*
G01*
X13430000Y-7960000D02*
G75*
G03*
X13470000Y-7960000I20000J0D01*
G01*
X13930000Y-4930000D02*
G75*
G03*
X13890000Y-4930000I-20000J0D01*
G01*
X13890000Y-4930000D02*
G75*
G03*
X13930000Y-4930000I20000J0D01*
G01*
X13990000Y-6610000D02*
G75*
G03*
X13950000Y-6610000I-20000J0D01*
G01*
X13950000Y-6610000D02*
G75*
G03*
X13990000Y-6610000I20000J0D01*
G01*
X14190000Y-6010000D02*
G75*
G03*
X14150000Y-6010000I-20000J0D01*
G01*
X14150000Y-6010000D02*
G75*
G03*
X14190000Y-6010000I20000J0D01*
G01*
X14600000Y-7780000D02*
G75*
G03*
X14560000Y-7780000I-20000J0D01*
G01*
X14560000Y-7780000D02*
G75*
G03*
X14600000Y-7780000I20000J0D01*
G01*
X14810000Y-4830000D02*
G75*
G03*
X14770000Y-4830000I-20000J0D01*
G01*
X14770000Y-4830000D02*
G75*
G03*
X14810000Y-4830000I20000J0D01*
G01*
X14910000Y-6100000D02*
G75*
G03*
X14870000Y-6100000I-20000J0D01*
G01*
X14870000Y-6100000D02*
G75*
G03*
X14910000Y-6100000I20000J0D01*
G01*
X14920000Y-7270000D02*
G75*
G03*
X14880000Y-7270000I-20000J0D01*
G01*
X14880000Y-7270000D02*
G75*
G03*
X14920000Y-7270000I20000J0D01*
G01*
X14930000Y-5310000D02*
G75*
G03*
X14890000Y-5310000I-20000J0D01*
G01*
X14890000Y-5310000D02*
G75*
G03*
X14930000Y-5310000I20000J0D01*
G01*
X15000000Y-6780000D02*
G75*
G03*
X14960000Y-6780000I-20000J0D01*
G01*
X14960000Y-6780000D02*
G75*
G03*
X15000000Y-6780000I20000J0D01*
G01*
X15100000Y-4700000D02*
G75*
G03*
X15060000Y-4700000I-20000J0D01*
G01*
X15060000Y-4700000D02*
G75*
G03*
X15100000Y-4700000I20000J0D01*
G01*
X15200000Y-7470000D02*
G75*
G03*
X15160000Y-7470000I-20000J0D01*
G01*
X15160000Y-7470000D02*
G75*
G03*
X15200000Y-7470000I20000J0D01*
G01*
X15220000Y-5320000D02*
G75*
G03*
X15180000Y-5320000I-20000J0D01*
G01*
X15180000Y-5320000D02*
G75*
G03*
X15220000Y-5320000I20000J0D01*
G01*
X15260000Y-4820000D02*
G75*
G03*
X15220000Y-4820000I-20000J0D01*
G01*
X15220000Y-4820000D02*
G75*
G03*
X15260000Y-4820000I20000J0D01*
G01*
X15280000Y-5870000D02*
G75*
G03*
X15240000Y-5870000I-20000J0D01*
G01*
X15240000Y-5870000D02*
G75*
G03*
X15280000Y-5870000I20000J0D01*
G01*
X15330000Y-6300000D02*
G75*
G03*
X15290000Y-6300000I-20000J0D01*
G01*
X15290000Y-6300000D02*
G75*
G03*
X15330000Y-6300000I20000J0D01*
G01*
X15332000Y-7145000D02*
G75*
G03*
X15292000Y-7145000I-20000J0D01*
G01*
X15292000Y-7145000D02*
G75*
G03*
X15332000Y-7145000I20000J0D01*
G01*
X15380000Y-6070000D02*
G75*
G03*
X15340000Y-6070000I-20000J0D01*
G01*
X15340000Y-6070000D02*
G75*
G03*
X15380000Y-6070000I20000J0D01*
G01*
X15390000Y-7270000D02*
G75*
G03*
X15350000Y-7270000I-20000J0D01*
G01*
X15350000Y-7270000D02*
G75*
G03*
X15390000Y-7270000I20000J0D01*
G01*
X15500000Y-7370000D02*
G75*
G03*
X15460000Y-7370000I-20000J0D01*
G01*
X15460000Y-7370000D02*
G75*
G03*
X15500000Y-7370000I20000J0D01*
G01*
X15590000Y-6100000D02*
G75*
G03*
X15550000Y-6100000I-20000J0D01*
G01*
X15550000Y-6100000D02*
G75*
G03*
X15590000Y-6100000I20000J0D01*
G01*
X15644000Y-6946000D02*
G75*
G03*
X15604000Y-6946000I-20000J0D01*
G01*
X15604000Y-6946000D02*
G75*
G03*
X15644000Y-6946000I20000J0D01*
G01*
X15657735Y-7079735D02*
G75*
G03*
X15617735Y-7079735I-20000J0D01*
G01*
X15617735Y-7079735D02*
G75*
G03*
X15657735Y-7079735I20000J0D01*
G01*
X15660000Y-7800000D02*
G75*
G03*
X15620000Y-7800000I-20000J0D01*
G01*
X15620000Y-7800000D02*
G75*
G03*
X15660000Y-7800000I20000J0D01*
G01*
X15810000Y-8270000D02*
G75*
G03*
X15770000Y-8270000I-20000J0D01*
G01*
X15770000Y-8270000D02*
G75*
G03*
X15810000Y-8270000I20000J0D01*
G01*
X15850952Y-7267579D02*
G75*
G03*
X15810952Y-7267579I-20000J0D01*
G01*
X15810952Y-7267579D02*
G75*
G03*
X15850952Y-7267579I20000J0D01*
G01*
X15870000Y-6560000D02*
G75*
G03*
X15830000Y-6560000I-20000J0D01*
G01*
X15830000Y-6560000D02*
G75*
G03*
X15870000Y-6560000I20000J0D01*
G01*
X15893750Y-8030000D02*
G75*
G03*
X15853750Y-8030000I-20000J0D01*
G01*
X15853750Y-8030000D02*
G75*
G03*
X15893750Y-8030000I20000J0D01*
G01*
X15900000Y-4630000D02*
G75*
G03*
X15860000Y-4630000I-20000J0D01*
G01*
X15860000Y-4630000D02*
G75*
G03*
X15900000Y-4630000I20000J0D01*
G01*
X15953480Y-7267581D02*
G75*
G03*
X15913480Y-7267581I-20000J0D01*
G01*
X15913480Y-7267581D02*
G75*
G03*
X15953480Y-7267581I20000J0D01*
G01*
X16020000Y-7640000D02*
G75*
G03*
X15980000Y-7640000I-20000J0D01*
G01*
X15980000Y-7640000D02*
G75*
G03*
X16020000Y-7640000I20000J0D01*
G01*
X16080000Y-5580000D02*
G75*
G03*
X16040000Y-5580000I-20000J0D01*
G01*
X16040000Y-5580000D02*
G75*
G03*
X16080000Y-5580000I20000J0D01*
G01*
X16190000Y-5190000D02*
G75*
G03*
X16150000Y-5190000I-20000J0D01*
G01*
X16150000Y-5190000D02*
G75*
G03*
X16190000Y-5190000I20000J0D01*
G01*
X16247500Y-7020000D02*
G75*
G03*
X16207500Y-7020000I-20000J0D01*
G01*
X16207500Y-7020000D02*
G75*
G03*
X16247500Y-7020000I20000J0D01*
G01*
X16410000Y-6930000D02*
G75*
G03*
X16370000Y-6930000I-20000J0D01*
G01*
X16370000Y-6930000D02*
G75*
G03*
X16410000Y-6930000I20000J0D01*
G01*
X16460000Y-6530000D02*
G75*
G03*
X16420000Y-6530000I-20000J0D01*
G01*
X16420000Y-6530000D02*
G75*
G03*
X16460000Y-6530000I20000J0D01*
G01*
X16470000Y-6710000D02*
G75*
G03*
X16430000Y-6710000I-20000J0D01*
G01*
X16430000Y-6710000D02*
G75*
G03*
X16470000Y-6710000I20000J0D01*
G01*
X16480000Y-7110000D02*
G75*
G03*
X16440000Y-7110000I-20000J0D01*
G01*
X16440000Y-7110000D02*
G75*
G03*
X16480000Y-7110000I20000J0D01*
G01*
X16590000Y-5390000D02*
G75*
G03*
X16550000Y-5390000I-20000J0D01*
G01*
X16550000Y-5390000D02*
G75*
G03*
X16590000Y-5390000I20000J0D01*
G01*
X16690000Y-7380000D02*
G75*
G03*
X16650000Y-7380000I-20000J0D01*
G01*
X16650000Y-7380000D02*
G75*
G03*
X16690000Y-7380000I20000J0D01*
G01*
X16690000Y-7810000D02*
G75*
G03*
X16650000Y-7810000I-20000J0D01*
G01*
X16650000Y-7810000D02*
G75*
G03*
X16690000Y-7810000I20000J0D01*
G01*
X16770000Y-6880000D02*
G75*
G03*
X16730000Y-6880000I-20000J0D01*
G01*
X16730000Y-6880000D02*
G75*
G03*
X16770000Y-6880000I20000J0D01*
G01*
X16880000Y-6190000D02*
G75*
G03*
X16840000Y-6190000I-20000J0D01*
G01*
X16840000Y-6190000D02*
G75*
G03*
X16880000Y-6190000I20000J0D01*
G01*
X16890000Y-6490000D02*
G75*
G03*
X16850000Y-6490000I-20000J0D01*
G01*
X16850000Y-6490000D02*
G75*
G03*
X16890000Y-6490000I20000J0D01*
G01*
X16900000Y-7170000D02*
G75*
G03*
X16860000Y-7170000I-20000J0D01*
G01*
X16860000Y-7170000D02*
G75*
G03*
X16900000Y-7170000I20000J0D01*
G01*
X16920000Y-7520000D02*
G75*
G03*
X16880000Y-7520000I-20000J0D01*
G01*
X16880000Y-7520000D02*
G75*
G03*
X16920000Y-7520000I20000J0D01*
G01*
X17040000Y-7760000D02*
G75*
G03*
X17000000Y-7760000I-20000J0D01*
G01*
X17000000Y-7760000D02*
G75*
G03*
X17040000Y-7760000I20000J0D01*
G01*
X17258000Y-4855000D02*
G75*
G03*
X17218000Y-4855000I-20000J0D01*
G01*
X17218000Y-4855000D02*
G75*
G03*
X17258000Y-4855000I20000J0D01*
G01*
X17270000Y-6080000D02*
G75*
G03*
X17230000Y-6080000I-20000J0D01*
G01*
X17230000Y-6080000D02*
G75*
G03*
X17270000Y-6080000I20000J0D01*
G01*
X17270000Y-7320000D02*
G75*
G03*
X17230000Y-7320000I-20000J0D01*
G01*
X17230000Y-7320000D02*
G75*
G03*
X17270000Y-7320000I20000J0D01*
G01*
X17825000Y-4865000D02*
G75*
G03*
X17785000Y-4865000I-20000J0D01*
G01*
X17785000Y-4865000D02*
G75*
G03*
X17825000Y-4865000I20000J0D01*
G01*
X17500000Y-4002500D02*
X17500000Y-4097500D01*
X17452500Y-4050000D02*
X17547500Y-4050000D01*
X17500000Y-4252500D02*
X17500000Y-4347500D01*
X17452500Y-4300000D02*
X17547500Y-4300000D01*
X17500000Y-4502500D02*
X17500000Y-4597500D01*
X17452500Y-4550000D02*
X17547500Y-4550000D01*
X17500000Y-4752500D02*
X17500000Y-4847500D01*
X17452500Y-4800000D02*
X17547500Y-4800000D01*
X17500000Y-5002500D02*
X17500000Y-5097500D01*
X17452500Y-5050000D02*
X17547500Y-5050000D01*
X17500000Y-5252500D02*
X17500000Y-5347500D01*
X17452500Y-5300000D02*
X17547500Y-5300000D01*
X17500000Y-5502500D02*
X17500000Y-5597500D01*
X17452500Y-5550000D02*
X17547500Y-5550000D01*
X17510000Y-6522500D02*
X17510000Y-6617500D01*
X17462500Y-6570000D02*
X17557500Y-6570000D01*
X17510000Y-6772500D02*
X17510000Y-6867500D01*
X17462500Y-6820000D02*
X17557500Y-6820000D01*
X17510000Y-7022500D02*
X17510000Y-7117500D01*
X17462500Y-7070000D02*
X17557500Y-7070000D01*
X17510000Y-7272500D02*
X17510000Y-7367500D01*
X17462500Y-7320000D02*
X17557500Y-7320000D01*
X17510000Y-7367500D02*
X17510000Y-7367500D01*
X17510000Y-7367500D02*
G75*
G03*
X17510000Y-7272500I0J47500D01*
G01*
X17510000Y-7272500D02*
X17510000Y-7272500D01*
X17510000Y-7272500D02*
G75*
G03*
X17510000Y-7367500I0J-47500D01*
G01*
X17510000Y-7522500D02*
X17510000Y-7617500D01*
X17462500Y-7570000D02*
X17557500Y-7570000D01*
X17510000Y-7772500D02*
X17510000Y-7867500D01*
X17462500Y-7820000D02*
X17557500Y-7820000D01*
X17510000Y-8022500D02*
X17510000Y-8117500D01*
X17462500Y-8070000D02*
X17557500Y-8070000D01*
D12*
X15659741Y-8973741D02*
X15659741Y-8866259D01*
X15552259Y-8866259D01*
X15552259Y-8973741D01*
X15659741Y-8973741D01*
X16167741Y-8973741D02*
X16167741Y-8866259D01*
X16060259Y-8866259D01*
X16060259Y-8973741D01*
X16167741Y-8973741D01*
D11*
X12875777Y-9706484D02*
X12875777Y-9506484D01*
X12875777Y-9506484D02*
X12923396Y-9506484D01*
X12923396Y-9506484D02*
X12951967Y-9516008D01*
X12951967Y-9516008D02*
X12971015Y-9535055D01*
X12971015Y-9535055D02*
X12980539Y-9554103D01*
X12980539Y-9554103D02*
X12990062Y-9592198D01*
X12990062Y-9592198D02*
X12990062Y-9620770D01*
X12990062Y-9620770D02*
X12980539Y-9658865D01*
X12980539Y-9658865D02*
X12971015Y-9677912D01*
X12971015Y-9677912D02*
X12951967Y-9696960D01*
X12951967Y-9696960D02*
X12923396Y-9706484D01*
X12923396Y-9706484D02*
X12875777Y-9706484D01*
X13075777Y-9706484D02*
X13075777Y-9573150D01*
X13075777Y-9611246D02*
X13085301Y-9592198D01*
X13085301Y-9592198D02*
X13094824Y-9582674D01*
X13094824Y-9582674D02*
X13113872Y-9573150D01*
X13113872Y-9573150D02*
X13132920Y-9573150D01*
X13199586Y-9706484D02*
X13199586Y-9573150D01*
X13199586Y-9506484D02*
X13190062Y-9516008D01*
X13190062Y-9516008D02*
X13199586Y-9525531D01*
X13199586Y-9525531D02*
X13209110Y-9516008D01*
X13209110Y-9516008D02*
X13199586Y-9506484D01*
X13199586Y-9506484D02*
X13199586Y-9525531D01*
X13323396Y-9706484D02*
X13304348Y-9696960D01*
X13304348Y-9696960D02*
X13294824Y-9677912D01*
X13294824Y-9677912D02*
X13294824Y-9506484D01*
X13428158Y-9706484D02*
X13409110Y-9696960D01*
X13409110Y-9696960D02*
X13399586Y-9677912D01*
X13399586Y-9677912D02*
X13399586Y-9506484D01*
X13656729Y-9706484D02*
X13656729Y-9506484D01*
X13656729Y-9506484D02*
X13723396Y-9649341D01*
X13723396Y-9649341D02*
X13790062Y-9506484D01*
X13790062Y-9506484D02*
X13790062Y-9706484D01*
X13971015Y-9706484D02*
X13971015Y-9601722D01*
X13971015Y-9601722D02*
X13961491Y-9582674D01*
X13961491Y-9582674D02*
X13942443Y-9573150D01*
X13942443Y-9573150D02*
X13904348Y-9573150D01*
X13904348Y-9573150D02*
X13885301Y-9582674D01*
X13971015Y-9696960D02*
X13951967Y-9706484D01*
X13951967Y-9706484D02*
X13904348Y-9706484D01*
X13904348Y-9706484D02*
X13885301Y-9696960D01*
X13885301Y-9696960D02*
X13875777Y-9677912D01*
X13875777Y-9677912D02*
X13875777Y-9658865D01*
X13875777Y-9658865D02*
X13885301Y-9639817D01*
X13885301Y-9639817D02*
X13904348Y-9630293D01*
X13904348Y-9630293D02*
X13951967Y-9630293D01*
X13951967Y-9630293D02*
X13971015Y-9620770D01*
X14066253Y-9573150D02*
X14066253Y-9773150D01*
X14066253Y-9582674D02*
X14085301Y-9573150D01*
X14085301Y-9573150D02*
X14123396Y-9573150D01*
X14123396Y-9573150D02*
X14142443Y-9582674D01*
X14142443Y-9582674D02*
X14151967Y-9592198D01*
X14151967Y-9592198D02*
X14161491Y-9611246D01*
X14161491Y-9611246D02*
X14161491Y-9668389D01*
X14161491Y-9668389D02*
X14151967Y-9687436D01*
X14151967Y-9687436D02*
X14142443Y-9696960D01*
X14142443Y-9696960D02*
X14123396Y-9706484D01*
X14123396Y-9706484D02*
X14085301Y-9706484D01*
X14085301Y-9706484D02*
X14066253Y-9696960D01*
X14247205Y-9687436D02*
X14256729Y-9696960D01*
X14256729Y-9696960D02*
X14247205Y-9706484D01*
X14247205Y-9706484D02*
X14237682Y-9696960D01*
X14237682Y-9696960D02*
X14247205Y-9687436D01*
X14247205Y-9687436D02*
X14247205Y-9706484D01*
X14247205Y-9582674D02*
X14256729Y-9592198D01*
X14256729Y-9592198D02*
X14247205Y-9601722D01*
X14247205Y-9601722D02*
X14237682Y-9592198D01*
X14237682Y-9592198D02*
X14247205Y-9582674D01*
X14247205Y-9582674D02*
X14247205Y-9601722D01*
D10*
X12595000Y-10025000D02*
X12615000Y-10045000D01*
X12615000Y-10025000D02*
X12595000Y-10045000D01*
D11*
X12913872Y-9926484D02*
X12932920Y-9926484D01*
X12932920Y-9926484D02*
X12951967Y-9936008D01*
X12951967Y-9936008D02*
X12961491Y-9945531D01*
X12961491Y-9945531D02*
X12971015Y-9964579D01*
X12971015Y-9964579D02*
X12980539Y-10002674D01*
X12980539Y-10002674D02*
X12980539Y-10050293D01*
X12980539Y-10050293D02*
X12971015Y-10088389D01*
X12971015Y-10088389D02*
X12961491Y-10107436D01*
X12961491Y-10107436D02*
X12951967Y-10116960D01*
X12951967Y-10116960D02*
X12932920Y-10126484D01*
X12932920Y-10126484D02*
X12913872Y-10126484D01*
X12913872Y-10126484D02*
X12894824Y-10116960D01*
X12894824Y-10116960D02*
X12885301Y-10107436D01*
X12885301Y-10107436D02*
X12875777Y-10088389D01*
X12875777Y-10088389D02*
X12866253Y-10050293D01*
X12866253Y-10050293D02*
X12866253Y-10002674D01*
X12866253Y-10002674D02*
X12875777Y-9964579D01*
X12875777Y-9964579D02*
X12885301Y-9945531D01*
X12885301Y-9945531D02*
X12894824Y-9936008D01*
X12894824Y-9936008D02*
X12913872Y-9926484D01*
X13066253Y-10107436D02*
X13075777Y-10116960D01*
X13075777Y-10116960D02*
X13066253Y-10126484D01*
X13066253Y-10126484D02*
X13056729Y-10116960D01*
X13056729Y-10116960D02*
X13066253Y-10107436D01*
X13066253Y-10107436D02*
X13066253Y-10126484D01*
X13151967Y-9945531D02*
X13161491Y-9936008D01*
X13161491Y-9936008D02*
X13180539Y-9926484D01*
X13180539Y-9926484D02*
X13228158Y-9926484D01*
X13228158Y-9926484D02*
X13247205Y-9936008D01*
X13247205Y-9936008D02*
X13256729Y-9945531D01*
X13256729Y-9945531D02*
X13266253Y-9964579D01*
X13266253Y-9964579D02*
X13266253Y-9983627D01*
X13266253Y-9983627D02*
X13256729Y-10012198D01*
X13256729Y-10012198D02*
X13142443Y-10126484D01*
X13142443Y-10126484D02*
X13266253Y-10126484D01*
X13390062Y-9926484D02*
X13409110Y-9926484D01*
X13409110Y-9926484D02*
X13428158Y-9936008D01*
X13428158Y-9936008D02*
X13437682Y-9945531D01*
X13437682Y-9945531D02*
X13447205Y-9964579D01*
X13447205Y-9964579D02*
X13456729Y-10002674D01*
X13456729Y-10002674D02*
X13456729Y-10050293D01*
X13456729Y-10050293D02*
X13447205Y-10088389D01*
X13447205Y-10088389D02*
X13437682Y-10107436D01*
X13437682Y-10107436D02*
X13428158Y-10116960D01*
X13428158Y-10116960D02*
X13409110Y-10126484D01*
X13409110Y-10126484D02*
X13390062Y-10126484D01*
X13390062Y-10126484D02*
X13371015Y-10116960D01*
X13371015Y-10116960D02*
X13361491Y-10107436D01*
X13361491Y-10107436D02*
X13351967Y-10088389D01*
X13351967Y-10088389D02*
X13342443Y-10050293D01*
X13342443Y-10050293D02*
X13342443Y-10002674D01*
X13342443Y-10002674D02*
X13351967Y-9964579D01*
X13351967Y-9964579D02*
X13361491Y-9945531D01*
X13361491Y-9945531D02*
X13371015Y-9936008D01*
X13371015Y-9936008D02*
X13390062Y-9926484D01*
X13580539Y-9926484D02*
X13599586Y-9926484D01*
X13599586Y-9926484D02*
X13618634Y-9936008D01*
X13618634Y-9936008D02*
X13628158Y-9945531D01*
X13628158Y-9945531D02*
X13637682Y-9964579D01*
X13637682Y-9964579D02*
X13647205Y-10002674D01*
X13647205Y-10002674D02*
X13647205Y-10050293D01*
X13647205Y-10050293D02*
X13637682Y-10088389D01*
X13637682Y-10088389D02*
X13628158Y-10107436D01*
X13628158Y-10107436D02*
X13618634Y-10116960D01*
X13618634Y-10116960D02*
X13599586Y-10126484D01*
X13599586Y-10126484D02*
X13580539Y-10126484D01*
X13580539Y-10126484D02*
X13561491Y-10116960D01*
X13561491Y-10116960D02*
X13551967Y-10107436D01*
X13551967Y-10107436D02*
X13542443Y-10088389D01*
X13542443Y-10088389D02*
X13532920Y-10050293D01*
X13532920Y-10050293D02*
X13532920Y-10002674D01*
X13532920Y-10002674D02*
X13542443Y-9964579D01*
X13542443Y-9964579D02*
X13551967Y-9945531D01*
X13551967Y-9945531D02*
X13561491Y-9936008D01*
X13561491Y-9936008D02*
X13580539Y-9926484D01*
X13732920Y-10126484D02*
X13732920Y-9993150D01*
X13732920Y-10012198D02*
X13742443Y-10002674D01*
X13742443Y-10002674D02*
X13761491Y-9993150D01*
X13761491Y-9993150D02*
X13790063Y-9993150D01*
X13790063Y-9993150D02*
X13809110Y-10002674D01*
X13809110Y-10002674D02*
X13818634Y-10021722D01*
X13818634Y-10021722D02*
X13818634Y-10126484D01*
X13818634Y-10021722D02*
X13828158Y-10002674D01*
X13828158Y-10002674D02*
X13847205Y-9993150D01*
X13847205Y-9993150D02*
X13875777Y-9993150D01*
X13875777Y-9993150D02*
X13894824Y-10002674D01*
X13894824Y-10002674D02*
X13904348Y-10021722D01*
X13904348Y-10021722D02*
X13904348Y-10126484D01*
X13999586Y-10126484D02*
X13999586Y-9993150D01*
X13999586Y-10012198D02*
X14009110Y-10002674D01*
X14009110Y-10002674D02*
X14028158Y-9993150D01*
X14028158Y-9993150D02*
X14056729Y-9993150D01*
X14056729Y-9993150D02*
X14075777Y-10002674D01*
X14075777Y-10002674D02*
X14085301Y-10021722D01*
X14085301Y-10021722D02*
X14085301Y-10126484D01*
X14085301Y-10021722D02*
X14094824Y-10002674D01*
X14094824Y-10002674D02*
X14113872Y-9993150D01*
X14113872Y-9993150D02*
X14142443Y-9993150D01*
X14142443Y-9993150D02*
X14161491Y-10002674D01*
X14161491Y-10002674D02*
X14171015Y-10021722D01*
X14171015Y-10021722D02*
X14171015Y-10126484D01*
X14561491Y-9916960D02*
X14390063Y-10174103D01*
X14818634Y-9926484D02*
X14837682Y-9926484D01*
X14837682Y-9926484D02*
X14856729Y-9936008D01*
X14856729Y-9936008D02*
X14866253Y-9945531D01*
X14866253Y-9945531D02*
X14875777Y-9964579D01*
X14875777Y-9964579D02*
X14885301Y-10002674D01*
X14885301Y-10002674D02*
X14885301Y-10050293D01*
X14885301Y-10050293D02*
X14875777Y-10088389D01*
X14875777Y-10088389D02*
X14866253Y-10107436D01*
X14866253Y-10107436D02*
X14856729Y-10116960D01*
X14856729Y-10116960D02*
X14837682Y-10126484D01*
X14837682Y-10126484D02*
X14818634Y-10126484D01*
X14818634Y-10126484D02*
X14799586Y-10116960D01*
X14799586Y-10116960D02*
X14790063Y-10107436D01*
X14790063Y-10107436D02*
X14780539Y-10088389D01*
X14780539Y-10088389D02*
X14771015Y-10050293D01*
X14771015Y-10050293D02*
X14771015Y-10002674D01*
X14771015Y-10002674D02*
X14780539Y-9964579D01*
X14780539Y-9964579D02*
X14790063Y-9945531D01*
X14790063Y-9945531D02*
X14799586Y-9936008D01*
X14799586Y-9936008D02*
X14818634Y-9926484D01*
X14971015Y-10107436D02*
X14980539Y-10116960D01*
X14980539Y-10116960D02*
X14971015Y-10126484D01*
X14971015Y-10126484D02*
X14961491Y-10116960D01*
X14961491Y-10116960D02*
X14971015Y-10107436D01*
X14971015Y-10107436D02*
X14971015Y-10126484D01*
X15104348Y-9926484D02*
X15123396Y-9926484D01*
X15123396Y-9926484D02*
X15142444Y-9936008D01*
X15142444Y-9936008D02*
X15151967Y-9945531D01*
X15151967Y-9945531D02*
X15161491Y-9964579D01*
X15161491Y-9964579D02*
X15171015Y-10002674D01*
X15171015Y-10002674D02*
X15171015Y-10050293D01*
X15171015Y-10050293D02*
X15161491Y-10088389D01*
X15161491Y-10088389D02*
X15151967Y-10107436D01*
X15151967Y-10107436D02*
X15142444Y-10116960D01*
X15142444Y-10116960D02*
X15123396Y-10126484D01*
X15123396Y-10126484D02*
X15104348Y-10126484D01*
X15104348Y-10126484D02*
X15085301Y-10116960D01*
X15085301Y-10116960D02*
X15075777Y-10107436D01*
X15075777Y-10107436D02*
X15066253Y-10088389D01*
X15066253Y-10088389D02*
X15056729Y-10050293D01*
X15056729Y-10050293D02*
X15056729Y-10002674D01*
X15056729Y-10002674D02*
X15066253Y-9964579D01*
X15066253Y-9964579D02*
X15075777Y-9945531D01*
X15075777Y-9945531D02*
X15085301Y-9936008D01*
X15085301Y-9936008D02*
X15104348Y-9926484D01*
X15294825Y-9926484D02*
X15313872Y-9926484D01*
X15313872Y-9926484D02*
X15332920Y-9936008D01*
X15332920Y-9936008D02*
X15342444Y-9945531D01*
X15342444Y-9945531D02*
X15351967Y-9964579D01*
X15351967Y-9964579D02*
X15361491Y-10002674D01*
X15361491Y-10002674D02*
X15361491Y-10050293D01*
X15361491Y-10050293D02*
X15351967Y-10088389D01*
X15351967Y-10088389D02*
X15342444Y-10107436D01*
X15342444Y-10107436D02*
X15332920Y-10116960D01*
X15332920Y-10116960D02*
X15313872Y-10126484D01*
X15313872Y-10126484D02*
X15294825Y-10126484D01*
X15294825Y-10126484D02*
X15275777Y-10116960D01*
X15275777Y-10116960D02*
X15266253Y-10107436D01*
X15266253Y-10107436D02*
X15256729Y-10088389D01*
X15256729Y-10088389D02*
X15247206Y-10050293D01*
X15247206Y-10050293D02*
X15247206Y-10002674D01*
X15247206Y-10002674D02*
X15256729Y-9964579D01*
X15256729Y-9964579D02*
X15266253Y-9945531D01*
X15266253Y-9945531D02*
X15275777Y-9936008D01*
X15275777Y-9936008D02*
X15294825Y-9926484D01*
X15428158Y-9926484D02*
X15561491Y-9926484D01*
X15561491Y-9926484D02*
X15475777Y-10126484D01*
X15647206Y-10126484D02*
X15685301Y-10126484D01*
X15685301Y-10126484D02*
X15704348Y-10116960D01*
X15704348Y-10116960D02*
X15713872Y-10107436D01*
X15713872Y-10107436D02*
X15732920Y-10078865D01*
X15732920Y-10078865D02*
X15742444Y-10040770D01*
X15742444Y-10040770D02*
X15742444Y-9964579D01*
X15742444Y-9964579D02*
X15732920Y-9945531D01*
X15732920Y-9945531D02*
X15723396Y-9936008D01*
X15723396Y-9936008D02*
X15704348Y-9926484D01*
X15704348Y-9926484D02*
X15666253Y-9926484D01*
X15666253Y-9926484D02*
X15647206Y-9936008D01*
X15647206Y-9936008D02*
X15637682Y-9945531D01*
X15637682Y-9945531D02*
X15628158Y-9964579D01*
X15628158Y-9964579D02*
X15628158Y-10012198D01*
X15628158Y-10012198D02*
X15637682Y-10031246D01*
X15637682Y-10031246D02*
X15647206Y-10040770D01*
X15647206Y-10040770D02*
X15666253Y-10050293D01*
X15666253Y-10050293D02*
X15704348Y-10050293D01*
X15704348Y-10050293D02*
X15723396Y-10040770D01*
X15723396Y-10040770D02*
X15732920Y-10031246D01*
X15732920Y-10031246D02*
X15742444Y-10012198D01*
X15818634Y-9926484D02*
X15818634Y-9964579D01*
X15894825Y-9926484D02*
X15894825Y-9964579D01*
X16190063Y-10202674D02*
X16180539Y-10193150D01*
X16180539Y-10193150D02*
X16161491Y-10164579D01*
X16161491Y-10164579D02*
X16151968Y-10145531D01*
X16151968Y-10145531D02*
X16142444Y-10116960D01*
X16142444Y-10116960D02*
X16132920Y-10069341D01*
X16132920Y-10069341D02*
X16132920Y-10031246D01*
X16132920Y-10031246D02*
X16142444Y-9983627D01*
X16142444Y-9983627D02*
X16151968Y-9955055D01*
X16151968Y-9955055D02*
X16161491Y-9936008D01*
X16161491Y-9936008D02*
X16180539Y-9907436D01*
X16180539Y-9907436D02*
X16190063Y-9897912D01*
X16371015Y-10126484D02*
X16256729Y-10126484D01*
X16313872Y-10126484D02*
X16313872Y-9926484D01*
X16313872Y-9926484D02*
X16294825Y-9955055D01*
X16294825Y-9955055D02*
X16275777Y-9974103D01*
X16275777Y-9974103D02*
X16256729Y-9983627D01*
X16447206Y-9945531D02*
X16456729Y-9936008D01*
X16456729Y-9936008D02*
X16475777Y-9926484D01*
X16475777Y-9926484D02*
X16523396Y-9926484D01*
X16523396Y-9926484D02*
X16542444Y-9936008D01*
X16542444Y-9936008D02*
X16551968Y-9945531D01*
X16551968Y-9945531D02*
X16561491Y-9964579D01*
X16561491Y-9964579D02*
X16561491Y-9983627D01*
X16561491Y-9983627D02*
X16551968Y-10012198D01*
X16551968Y-10012198D02*
X16437682Y-10126484D01*
X16437682Y-10126484D02*
X16561491Y-10126484D01*
X16799587Y-10126484D02*
X16799587Y-9926484D01*
X16885301Y-10126484D02*
X16885301Y-10021722D01*
X16885301Y-10021722D02*
X16875777Y-10002674D01*
X16875777Y-10002674D02*
X16856730Y-9993150D01*
X16856730Y-9993150D02*
X16828158Y-9993150D01*
X16828158Y-9993150D02*
X16809111Y-10002674D01*
X16809111Y-10002674D02*
X16799587Y-10012198D01*
X17009111Y-10126484D02*
X16990063Y-10116960D01*
X16990063Y-10116960D02*
X16980539Y-10107436D01*
X16980539Y-10107436D02*
X16971015Y-10088389D01*
X16971015Y-10088389D02*
X16971015Y-10031246D01*
X16971015Y-10031246D02*
X16980539Y-10012198D01*
X16980539Y-10012198D02*
X16990063Y-10002674D01*
X16990063Y-10002674D02*
X17009111Y-9993150D01*
X17009111Y-9993150D02*
X17037682Y-9993150D01*
X17037682Y-9993150D02*
X17056730Y-10002674D01*
X17056730Y-10002674D02*
X17066253Y-10012198D01*
X17066253Y-10012198D02*
X17075777Y-10031246D01*
X17075777Y-10031246D02*
X17075777Y-10088389D01*
X17075777Y-10088389D02*
X17066253Y-10107436D01*
X17066253Y-10107436D02*
X17056730Y-10116960D01*
X17056730Y-10116960D02*
X17037682Y-10126484D01*
X17037682Y-10126484D02*
X17009111Y-10126484D01*
X17190063Y-10126484D02*
X17171015Y-10116960D01*
X17171015Y-10116960D02*
X17161492Y-10097912D01*
X17161492Y-10097912D02*
X17161492Y-9926484D01*
X17342444Y-10116960D02*
X17323396Y-10126484D01*
X17323396Y-10126484D02*
X17285301Y-10126484D01*
X17285301Y-10126484D02*
X17266253Y-10116960D01*
X17266253Y-10116960D02*
X17256730Y-10097912D01*
X17256730Y-10097912D02*
X17256730Y-10021722D01*
X17256730Y-10021722D02*
X17266253Y-10002674D01*
X17266253Y-10002674D02*
X17285301Y-9993150D01*
X17285301Y-9993150D02*
X17323396Y-9993150D01*
X17323396Y-9993150D02*
X17342444Y-10002674D01*
X17342444Y-10002674D02*
X17351968Y-10021722D01*
X17351968Y-10021722D02*
X17351968Y-10040770D01*
X17351968Y-10040770D02*
X17256730Y-10059817D01*
X17428158Y-10116960D02*
X17447206Y-10126484D01*
X17447206Y-10126484D02*
X17485301Y-10126484D01*
X17485301Y-10126484D02*
X17504349Y-10116960D01*
X17504349Y-10116960D02*
X17513873Y-10097912D01*
X17513873Y-10097912D02*
X17513873Y-10088389D01*
X17513873Y-10088389D02*
X17504349Y-10069341D01*
X17504349Y-10069341D02*
X17485301Y-10059817D01*
X17485301Y-10059817D02*
X17456730Y-10059817D01*
X17456730Y-10059817D02*
X17437682Y-10050293D01*
X17437682Y-10050293D02*
X17428158Y-10031246D01*
X17428158Y-10031246D02*
X17428158Y-10021722D01*
X17428158Y-10021722D02*
X17437682Y-10002674D01*
X17437682Y-10002674D02*
X17456730Y-9993150D01*
X17456730Y-9993150D02*
X17485301Y-9993150D01*
X17485301Y-9993150D02*
X17504349Y-10002674D01*
X17580539Y-10202674D02*
X17590063Y-10193150D01*
X17590063Y-10193150D02*
X17609111Y-10164579D01*
X17609111Y-10164579D02*
X17618634Y-10145531D01*
X17618634Y-10145531D02*
X17628158Y-10116960D01*
X17628158Y-10116960D02*
X17637682Y-10069341D01*
X17637682Y-10069341D02*
X17637682Y-10031246D01*
X17637682Y-10031246D02*
X17628158Y-9983627D01*
X17628158Y-9983627D02*
X17618634Y-9955055D01*
X17618634Y-9955055D02*
X17609111Y-9936008D01*
X17609111Y-9936008D02*
X17590063Y-9907436D01*
X17590063Y-9907436D02*
X17580539Y-9897912D01*
D10*
X12615000Y-10299000D02*
G75*
G03*
X12575000Y-10299000I-20000J0D01*
G01*
X12575000Y-10299000D02*
G75*
G03*
X12615000Y-10299000I20000J0D01*
G01*
D11*
X12913872Y-10190484D02*
X12932920Y-10190484D01*
X12932920Y-10190484D02*
X12951967Y-10200008D01*
X12951967Y-10200008D02*
X12961491Y-10209531D01*
X12961491Y-10209531D02*
X12971015Y-10228579D01*
X12971015Y-10228579D02*
X12980539Y-10266674D01*
X12980539Y-10266674D02*
X12980539Y-10314293D01*
X12980539Y-10314293D02*
X12971015Y-10352389D01*
X12971015Y-10352389D02*
X12961491Y-10371436D01*
X12961491Y-10371436D02*
X12951967Y-10380960D01*
X12951967Y-10380960D02*
X12932920Y-10390484D01*
X12932920Y-10390484D02*
X12913872Y-10390484D01*
X12913872Y-10390484D02*
X12894824Y-10380960D01*
X12894824Y-10380960D02*
X12885301Y-10371436D01*
X12885301Y-10371436D02*
X12875777Y-10352389D01*
X12875777Y-10352389D02*
X12866253Y-10314293D01*
X12866253Y-10314293D02*
X12866253Y-10266674D01*
X12866253Y-10266674D02*
X12875777Y-10228579D01*
X12875777Y-10228579D02*
X12885301Y-10209531D01*
X12885301Y-10209531D02*
X12894824Y-10200008D01*
X12894824Y-10200008D02*
X12913872Y-10190484D01*
X13066253Y-10371436D02*
X13075777Y-10380960D01*
X13075777Y-10380960D02*
X13066253Y-10390484D01*
X13066253Y-10390484D02*
X13056729Y-10380960D01*
X13056729Y-10380960D02*
X13066253Y-10371436D01*
X13066253Y-10371436D02*
X13066253Y-10390484D01*
X13247205Y-10257150D02*
X13247205Y-10390484D01*
X13199586Y-10180960D02*
X13151967Y-10323817D01*
X13151967Y-10323817D02*
X13275777Y-10323817D01*
X13390062Y-10190484D02*
X13409110Y-10190484D01*
X13409110Y-10190484D02*
X13428158Y-10200008D01*
X13428158Y-10200008D02*
X13437682Y-10209531D01*
X13437682Y-10209531D02*
X13447205Y-10228579D01*
X13447205Y-10228579D02*
X13456729Y-10266674D01*
X13456729Y-10266674D02*
X13456729Y-10314293D01*
X13456729Y-10314293D02*
X13447205Y-10352389D01*
X13447205Y-10352389D02*
X13437682Y-10371436D01*
X13437682Y-10371436D02*
X13428158Y-10380960D01*
X13428158Y-10380960D02*
X13409110Y-10390484D01*
X13409110Y-10390484D02*
X13390062Y-10390484D01*
X13390062Y-10390484D02*
X13371015Y-10380960D01*
X13371015Y-10380960D02*
X13361491Y-10371436D01*
X13361491Y-10371436D02*
X13351967Y-10352389D01*
X13351967Y-10352389D02*
X13342443Y-10314293D01*
X13342443Y-10314293D02*
X13342443Y-10266674D01*
X13342443Y-10266674D02*
X13351967Y-10228579D01*
X13351967Y-10228579D02*
X13361491Y-10209531D01*
X13361491Y-10209531D02*
X13371015Y-10200008D01*
X13371015Y-10200008D02*
X13390062Y-10190484D01*
X13580539Y-10190484D02*
X13599586Y-10190484D01*
X13599586Y-10190484D02*
X13618634Y-10200008D01*
X13618634Y-10200008D02*
X13628158Y-10209531D01*
X13628158Y-10209531D02*
X13637682Y-10228579D01*
X13637682Y-10228579D02*
X13647205Y-10266674D01*
X13647205Y-10266674D02*
X13647205Y-10314293D01*
X13647205Y-10314293D02*
X13637682Y-10352389D01*
X13637682Y-10352389D02*
X13628158Y-10371436D01*
X13628158Y-10371436D02*
X13618634Y-10380960D01*
X13618634Y-10380960D02*
X13599586Y-10390484D01*
X13599586Y-10390484D02*
X13580539Y-10390484D01*
X13580539Y-10390484D02*
X13561491Y-10380960D01*
X13561491Y-10380960D02*
X13551967Y-10371436D01*
X13551967Y-10371436D02*
X13542443Y-10352389D01*
X13542443Y-10352389D02*
X13532920Y-10314293D01*
X13532920Y-10314293D02*
X13532920Y-10266674D01*
X13532920Y-10266674D02*
X13542443Y-10228579D01*
X13542443Y-10228579D02*
X13551967Y-10209531D01*
X13551967Y-10209531D02*
X13561491Y-10200008D01*
X13561491Y-10200008D02*
X13580539Y-10190484D01*
X13732920Y-10390484D02*
X13732920Y-10257150D01*
X13732920Y-10276198D02*
X13742443Y-10266674D01*
X13742443Y-10266674D02*
X13761491Y-10257150D01*
X13761491Y-10257150D02*
X13790063Y-10257150D01*
X13790063Y-10257150D02*
X13809110Y-10266674D01*
X13809110Y-10266674D02*
X13818634Y-10285722D01*
X13818634Y-10285722D02*
X13818634Y-10390484D01*
X13818634Y-10285722D02*
X13828158Y-10266674D01*
X13828158Y-10266674D02*
X13847205Y-10257150D01*
X13847205Y-10257150D02*
X13875777Y-10257150D01*
X13875777Y-10257150D02*
X13894824Y-10266674D01*
X13894824Y-10266674D02*
X13904348Y-10285722D01*
X13904348Y-10285722D02*
X13904348Y-10390484D01*
X13999586Y-10390484D02*
X13999586Y-10257150D01*
X13999586Y-10276198D02*
X14009110Y-10266674D01*
X14009110Y-10266674D02*
X14028158Y-10257150D01*
X14028158Y-10257150D02*
X14056729Y-10257150D01*
X14056729Y-10257150D02*
X14075777Y-10266674D01*
X14075777Y-10266674D02*
X14085301Y-10285722D01*
X14085301Y-10285722D02*
X14085301Y-10390484D01*
X14085301Y-10285722D02*
X14094824Y-10266674D01*
X14094824Y-10266674D02*
X14113872Y-10257150D01*
X14113872Y-10257150D02*
X14142443Y-10257150D01*
X14142443Y-10257150D02*
X14161491Y-10266674D01*
X14161491Y-10266674D02*
X14171015Y-10285722D01*
X14171015Y-10285722D02*
X14171015Y-10390484D01*
X14561491Y-10180960D02*
X14390063Y-10438103D01*
X14818634Y-10190484D02*
X14837682Y-10190484D01*
X14837682Y-10190484D02*
X14856729Y-10200008D01*
X14856729Y-10200008D02*
X14866253Y-10209531D01*
X14866253Y-10209531D02*
X14875777Y-10228579D01*
X14875777Y-10228579D02*
X14885301Y-10266674D01*
X14885301Y-10266674D02*
X14885301Y-10314293D01*
X14885301Y-10314293D02*
X14875777Y-10352389D01*
X14875777Y-10352389D02*
X14866253Y-10371436D01*
X14866253Y-10371436D02*
X14856729Y-10380960D01*
X14856729Y-10380960D02*
X14837682Y-10390484D01*
X14837682Y-10390484D02*
X14818634Y-10390484D01*
X14818634Y-10390484D02*
X14799586Y-10380960D01*
X14799586Y-10380960D02*
X14790063Y-10371436D01*
X14790063Y-10371436D02*
X14780539Y-10352389D01*
X14780539Y-10352389D02*
X14771015Y-10314293D01*
X14771015Y-10314293D02*
X14771015Y-10266674D01*
X14771015Y-10266674D02*
X14780539Y-10228579D01*
X14780539Y-10228579D02*
X14790063Y-10209531D01*
X14790063Y-10209531D02*
X14799586Y-10200008D01*
X14799586Y-10200008D02*
X14818634Y-10190484D01*
X14971015Y-10371436D02*
X14980539Y-10380960D01*
X14980539Y-10380960D02*
X14971015Y-10390484D01*
X14971015Y-10390484D02*
X14961491Y-10380960D01*
X14961491Y-10380960D02*
X14971015Y-10371436D01*
X14971015Y-10371436D02*
X14971015Y-10390484D01*
X15104348Y-10190484D02*
X15123396Y-10190484D01*
X15123396Y-10190484D02*
X15142444Y-10200008D01*
X15142444Y-10200008D02*
X15151967Y-10209531D01*
X15151967Y-10209531D02*
X15161491Y-10228579D01*
X15161491Y-10228579D02*
X15171015Y-10266674D01*
X15171015Y-10266674D02*
X15171015Y-10314293D01*
X15171015Y-10314293D02*
X15161491Y-10352389D01*
X15161491Y-10352389D02*
X15151967Y-10371436D01*
X15151967Y-10371436D02*
X15142444Y-10380960D01*
X15142444Y-10380960D02*
X15123396Y-10390484D01*
X15123396Y-10390484D02*
X15104348Y-10390484D01*
X15104348Y-10390484D02*
X15085301Y-10380960D01*
X15085301Y-10380960D02*
X15075777Y-10371436D01*
X15075777Y-10371436D02*
X15066253Y-10352389D01*
X15066253Y-10352389D02*
X15056729Y-10314293D01*
X15056729Y-10314293D02*
X15056729Y-10266674D01*
X15056729Y-10266674D02*
X15066253Y-10228579D01*
X15066253Y-10228579D02*
X15075777Y-10209531D01*
X15075777Y-10209531D02*
X15085301Y-10200008D01*
X15085301Y-10200008D02*
X15104348Y-10190484D01*
X15361491Y-10390484D02*
X15247206Y-10390484D01*
X15304348Y-10390484D02*
X15304348Y-10190484D01*
X15304348Y-10190484D02*
X15285301Y-10219055D01*
X15285301Y-10219055D02*
X15266253Y-10238103D01*
X15266253Y-10238103D02*
X15247206Y-10247627D01*
X15542444Y-10190484D02*
X15447206Y-10190484D01*
X15447206Y-10190484D02*
X15437682Y-10285722D01*
X15437682Y-10285722D02*
X15447206Y-10276198D01*
X15447206Y-10276198D02*
X15466253Y-10266674D01*
X15466253Y-10266674D02*
X15513872Y-10266674D01*
X15513872Y-10266674D02*
X15532920Y-10276198D01*
X15532920Y-10276198D02*
X15542444Y-10285722D01*
X15542444Y-10285722D02*
X15551967Y-10304770D01*
X15551967Y-10304770D02*
X15551967Y-10352389D01*
X15551967Y-10352389D02*
X15542444Y-10371436D01*
X15542444Y-10371436D02*
X15532920Y-10380960D01*
X15532920Y-10380960D02*
X15513872Y-10390484D01*
X15513872Y-10390484D02*
X15466253Y-10390484D01*
X15466253Y-10390484D02*
X15447206Y-10380960D01*
X15447206Y-10380960D02*
X15437682Y-10371436D01*
X15618634Y-10190484D02*
X15751967Y-10190484D01*
X15751967Y-10190484D02*
X15666253Y-10390484D01*
X15818634Y-10190484D02*
X15818634Y-10228579D01*
X15894825Y-10190484D02*
X15894825Y-10228579D01*
X16190063Y-10466674D02*
X16180539Y-10457150D01*
X16180539Y-10457150D02*
X16161491Y-10428579D01*
X16161491Y-10428579D02*
X16151968Y-10409531D01*
X16151968Y-10409531D02*
X16142444Y-10380960D01*
X16142444Y-10380960D02*
X16132920Y-10333341D01*
X16132920Y-10333341D02*
X16132920Y-10295246D01*
X16132920Y-10295246D02*
X16142444Y-10247627D01*
X16142444Y-10247627D02*
X16151968Y-10219055D01*
X16151968Y-10219055D02*
X16161491Y-10200008D01*
X16161491Y-10200008D02*
X16180539Y-10171436D01*
X16180539Y-10171436D02*
X16190063Y-10161912D01*
X16351968Y-10190484D02*
X16313872Y-10190484D01*
X16313872Y-10190484D02*
X16294825Y-10200008D01*
X16294825Y-10200008D02*
X16285301Y-10209531D01*
X16285301Y-10209531D02*
X16266253Y-10238103D01*
X16266253Y-10238103D02*
X16256729Y-10276198D01*
X16256729Y-10276198D02*
X16256729Y-10352389D01*
X16256729Y-10352389D02*
X16266253Y-10371436D01*
X16266253Y-10371436D02*
X16275777Y-10380960D01*
X16275777Y-10380960D02*
X16294825Y-10390484D01*
X16294825Y-10390484D02*
X16332920Y-10390484D01*
X16332920Y-10390484D02*
X16351968Y-10380960D01*
X16351968Y-10380960D02*
X16361491Y-10371436D01*
X16361491Y-10371436D02*
X16371015Y-10352389D01*
X16371015Y-10352389D02*
X16371015Y-10304770D01*
X16371015Y-10304770D02*
X16361491Y-10285722D01*
X16361491Y-10285722D02*
X16351968Y-10276198D01*
X16351968Y-10276198D02*
X16332920Y-10266674D01*
X16332920Y-10266674D02*
X16294825Y-10266674D01*
X16294825Y-10266674D02*
X16275777Y-10276198D01*
X16275777Y-10276198D02*
X16266253Y-10285722D01*
X16266253Y-10285722D02*
X16256729Y-10304770D01*
X16551968Y-10190484D02*
X16456729Y-10190484D01*
X16456729Y-10190484D02*
X16447206Y-10285722D01*
X16447206Y-10285722D02*
X16456729Y-10276198D01*
X16456729Y-10276198D02*
X16475777Y-10266674D01*
X16475777Y-10266674D02*
X16523396Y-10266674D01*
X16523396Y-10266674D02*
X16542444Y-10276198D01*
X16542444Y-10276198D02*
X16551968Y-10285722D01*
X16551968Y-10285722D02*
X16561491Y-10304770D01*
X16561491Y-10304770D02*
X16561491Y-10352389D01*
X16561491Y-10352389D02*
X16551968Y-10371436D01*
X16551968Y-10371436D02*
X16542444Y-10380960D01*
X16542444Y-10380960D02*
X16523396Y-10390484D01*
X16523396Y-10390484D02*
X16475777Y-10390484D01*
X16475777Y-10390484D02*
X16456729Y-10380960D01*
X16456729Y-10380960D02*
X16447206Y-10371436D01*
X16799587Y-10390484D02*
X16799587Y-10190484D01*
X16885301Y-10390484D02*
X16885301Y-10285722D01*
X16885301Y-10285722D02*
X16875777Y-10266674D01*
X16875777Y-10266674D02*
X16856730Y-10257150D01*
X16856730Y-10257150D02*
X16828158Y-10257150D01*
X16828158Y-10257150D02*
X16809111Y-10266674D01*
X16809111Y-10266674D02*
X16799587Y-10276198D01*
X17009111Y-10390484D02*
X16990063Y-10380960D01*
X16990063Y-10380960D02*
X16980539Y-10371436D01*
X16980539Y-10371436D02*
X16971015Y-10352389D01*
X16971015Y-10352389D02*
X16971015Y-10295246D01*
X16971015Y-10295246D02*
X16980539Y-10276198D01*
X16980539Y-10276198D02*
X16990063Y-10266674D01*
X16990063Y-10266674D02*
X17009111Y-10257150D01*
X17009111Y-10257150D02*
X17037682Y-10257150D01*
X17037682Y-10257150D02*
X17056730Y-10266674D01*
X17056730Y-10266674D02*
X17066253Y-10276198D01*
X17066253Y-10276198D02*
X17075777Y-10295246D01*
X17075777Y-10295246D02*
X17075777Y-10352389D01*
X17075777Y-10352389D02*
X17066253Y-10371436D01*
X17066253Y-10371436D02*
X17056730Y-10380960D01*
X17056730Y-10380960D02*
X17037682Y-10390484D01*
X17037682Y-10390484D02*
X17009111Y-10390484D01*
X17190063Y-10390484D02*
X17171015Y-10380960D01*
X17171015Y-10380960D02*
X17161492Y-10361912D01*
X17161492Y-10361912D02*
X17161492Y-10190484D01*
X17342444Y-10380960D02*
X17323396Y-10390484D01*
X17323396Y-10390484D02*
X17285301Y-10390484D01*
X17285301Y-10390484D02*
X17266253Y-10380960D01*
X17266253Y-10380960D02*
X17256730Y-10361912D01*
X17256730Y-10361912D02*
X17256730Y-10285722D01*
X17256730Y-10285722D02*
X17266253Y-10266674D01*
X17266253Y-10266674D02*
X17285301Y-10257150D01*
X17285301Y-10257150D02*
X17323396Y-10257150D01*
X17323396Y-10257150D02*
X17342444Y-10266674D01*
X17342444Y-10266674D02*
X17351968Y-10285722D01*
X17351968Y-10285722D02*
X17351968Y-10304770D01*
X17351968Y-10304770D02*
X17256730Y-10323817D01*
X17428158Y-10380960D02*
X17447206Y-10390484D01*
X17447206Y-10390484D02*
X17485301Y-10390484D01*
X17485301Y-10390484D02*
X17504349Y-10380960D01*
X17504349Y-10380960D02*
X17513873Y-10361912D01*
X17513873Y-10361912D02*
X17513873Y-10352389D01*
X17513873Y-10352389D02*
X17504349Y-10333341D01*
X17504349Y-10333341D02*
X17485301Y-10323817D01*
X17485301Y-10323817D02*
X17456730Y-10323817D01*
X17456730Y-10323817D02*
X17437682Y-10314293D01*
X17437682Y-10314293D02*
X17428158Y-10295246D01*
X17428158Y-10295246D02*
X17428158Y-10285722D01*
X17428158Y-10285722D02*
X17437682Y-10266674D01*
X17437682Y-10266674D02*
X17456730Y-10257150D01*
X17456730Y-10257150D02*
X17485301Y-10257150D01*
X17485301Y-10257150D02*
X17504349Y-10266674D01*
X17580539Y-10466674D02*
X17590063Y-10457150D01*
X17590063Y-10457150D02*
X17609111Y-10428579D01*
X17609111Y-10428579D02*
X17618634Y-10409531D01*
X17618634Y-10409531D02*
X17628158Y-10380960D01*
X17628158Y-10380960D02*
X17637682Y-10333341D01*
X17637682Y-10333341D02*
X17637682Y-10295246D01*
X17637682Y-10295246D02*
X17628158Y-10247627D01*
X17628158Y-10247627D02*
X17618634Y-10219055D01*
X17618634Y-10219055D02*
X17609111Y-10200008D01*
X17609111Y-10200008D02*
X17590063Y-10171436D01*
X17590063Y-10171436D02*
X17580539Y-10161912D01*
D10*
X12567500Y-10515500D02*
X12567500Y-10610500D01*
X12520000Y-10563000D02*
X12615000Y-10563000D01*
D11*
X12913872Y-10454484D02*
X12932920Y-10454484D01*
X12932920Y-10454484D02*
X12951967Y-10464008D01*
X12951967Y-10464008D02*
X12961491Y-10473531D01*
X12961491Y-10473531D02*
X12971015Y-10492579D01*
X12971015Y-10492579D02*
X12980539Y-10530674D01*
X12980539Y-10530674D02*
X12980539Y-10578293D01*
X12980539Y-10578293D02*
X12971015Y-10616389D01*
X12971015Y-10616389D02*
X12961491Y-10635436D01*
X12961491Y-10635436D02*
X12951967Y-10644960D01*
X12951967Y-10644960D02*
X12932920Y-10654484D01*
X12932920Y-10654484D02*
X12913872Y-10654484D01*
X12913872Y-10654484D02*
X12894824Y-10644960D01*
X12894824Y-10644960D02*
X12885301Y-10635436D01*
X12885301Y-10635436D02*
X12875777Y-10616389D01*
X12875777Y-10616389D02*
X12866253Y-10578293D01*
X12866253Y-10578293D02*
X12866253Y-10530674D01*
X12866253Y-10530674D02*
X12875777Y-10492579D01*
X12875777Y-10492579D02*
X12885301Y-10473531D01*
X12885301Y-10473531D02*
X12894824Y-10464008D01*
X12894824Y-10464008D02*
X12913872Y-10454484D01*
X13066253Y-10635436D02*
X13075777Y-10644960D01*
X13075777Y-10644960D02*
X13066253Y-10654484D01*
X13066253Y-10654484D02*
X13056729Y-10644960D01*
X13056729Y-10644960D02*
X13066253Y-10635436D01*
X13066253Y-10635436D02*
X13066253Y-10654484D01*
X13171015Y-10654484D02*
X13209110Y-10654484D01*
X13209110Y-10654484D02*
X13228158Y-10644960D01*
X13228158Y-10644960D02*
X13237682Y-10635436D01*
X13237682Y-10635436D02*
X13256729Y-10606865D01*
X13256729Y-10606865D02*
X13266253Y-10568770D01*
X13266253Y-10568770D02*
X13266253Y-10492579D01*
X13266253Y-10492579D02*
X13256729Y-10473531D01*
X13256729Y-10473531D02*
X13247205Y-10464008D01*
X13247205Y-10464008D02*
X13228158Y-10454484D01*
X13228158Y-10454484D02*
X13190062Y-10454484D01*
X13190062Y-10454484D02*
X13171015Y-10464008D01*
X13171015Y-10464008D02*
X13161491Y-10473531D01*
X13161491Y-10473531D02*
X13151967Y-10492579D01*
X13151967Y-10492579D02*
X13151967Y-10540198D01*
X13151967Y-10540198D02*
X13161491Y-10559246D01*
X13161491Y-10559246D02*
X13171015Y-10568770D01*
X13171015Y-10568770D02*
X13190062Y-10578293D01*
X13190062Y-10578293D02*
X13228158Y-10578293D01*
X13228158Y-10578293D02*
X13247205Y-10568770D01*
X13247205Y-10568770D02*
X13256729Y-10559246D01*
X13256729Y-10559246D02*
X13266253Y-10540198D01*
X13447205Y-10454484D02*
X13351967Y-10454484D01*
X13351967Y-10454484D02*
X13342443Y-10549722D01*
X13342443Y-10549722D02*
X13351967Y-10540198D01*
X13351967Y-10540198D02*
X13371015Y-10530674D01*
X13371015Y-10530674D02*
X13418634Y-10530674D01*
X13418634Y-10530674D02*
X13437682Y-10540198D01*
X13437682Y-10540198D02*
X13447205Y-10549722D01*
X13447205Y-10549722D02*
X13456729Y-10568770D01*
X13456729Y-10568770D02*
X13456729Y-10616389D01*
X13456729Y-10616389D02*
X13447205Y-10635436D01*
X13447205Y-10635436D02*
X13437682Y-10644960D01*
X13437682Y-10644960D02*
X13418634Y-10654484D01*
X13418634Y-10654484D02*
X13371015Y-10654484D01*
X13371015Y-10654484D02*
X13351967Y-10644960D01*
X13351967Y-10644960D02*
X13342443Y-10635436D01*
X13580539Y-10454484D02*
X13599586Y-10454484D01*
X13599586Y-10454484D02*
X13618634Y-10464008D01*
X13618634Y-10464008D02*
X13628158Y-10473531D01*
X13628158Y-10473531D02*
X13637682Y-10492579D01*
X13637682Y-10492579D02*
X13647205Y-10530674D01*
X13647205Y-10530674D02*
X13647205Y-10578293D01*
X13647205Y-10578293D02*
X13637682Y-10616389D01*
X13637682Y-10616389D02*
X13628158Y-10635436D01*
X13628158Y-10635436D02*
X13618634Y-10644960D01*
X13618634Y-10644960D02*
X13599586Y-10654484D01*
X13599586Y-10654484D02*
X13580539Y-10654484D01*
X13580539Y-10654484D02*
X13561491Y-10644960D01*
X13561491Y-10644960D02*
X13551967Y-10635436D01*
X13551967Y-10635436D02*
X13542443Y-10616389D01*
X13542443Y-10616389D02*
X13532920Y-10578293D01*
X13532920Y-10578293D02*
X13532920Y-10530674D01*
X13532920Y-10530674D02*
X13542443Y-10492579D01*
X13542443Y-10492579D02*
X13551967Y-10473531D01*
X13551967Y-10473531D02*
X13561491Y-10464008D01*
X13561491Y-10464008D02*
X13580539Y-10454484D01*
X13732920Y-10654484D02*
X13732920Y-10521150D01*
X13732920Y-10540198D02*
X13742443Y-10530674D01*
X13742443Y-10530674D02*
X13761491Y-10521150D01*
X13761491Y-10521150D02*
X13790063Y-10521150D01*
X13790063Y-10521150D02*
X13809110Y-10530674D01*
X13809110Y-10530674D02*
X13818634Y-10549722D01*
X13818634Y-10549722D02*
X13818634Y-10654484D01*
X13818634Y-10549722D02*
X13828158Y-10530674D01*
X13828158Y-10530674D02*
X13847205Y-10521150D01*
X13847205Y-10521150D02*
X13875777Y-10521150D01*
X13875777Y-10521150D02*
X13894824Y-10530674D01*
X13894824Y-10530674D02*
X13904348Y-10549722D01*
X13904348Y-10549722D02*
X13904348Y-10654484D01*
X13999586Y-10654484D02*
X13999586Y-10521150D01*
X13999586Y-10540198D02*
X14009110Y-10530674D01*
X14009110Y-10530674D02*
X14028158Y-10521150D01*
X14028158Y-10521150D02*
X14056729Y-10521150D01*
X14056729Y-10521150D02*
X14075777Y-10530674D01*
X14075777Y-10530674D02*
X14085301Y-10549722D01*
X14085301Y-10549722D02*
X14085301Y-10654484D01*
X14085301Y-10549722D02*
X14094824Y-10530674D01*
X14094824Y-10530674D02*
X14113872Y-10521150D01*
X14113872Y-10521150D02*
X14142443Y-10521150D01*
X14142443Y-10521150D02*
X14161491Y-10530674D01*
X14161491Y-10530674D02*
X14171015Y-10549722D01*
X14171015Y-10549722D02*
X14171015Y-10654484D01*
X14561491Y-10444960D02*
X14390063Y-10702103D01*
X14818634Y-10454484D02*
X14837682Y-10454484D01*
X14837682Y-10454484D02*
X14856729Y-10464008D01*
X14856729Y-10464008D02*
X14866253Y-10473531D01*
X14866253Y-10473531D02*
X14875777Y-10492579D01*
X14875777Y-10492579D02*
X14885301Y-10530674D01*
X14885301Y-10530674D02*
X14885301Y-10578293D01*
X14885301Y-10578293D02*
X14875777Y-10616389D01*
X14875777Y-10616389D02*
X14866253Y-10635436D01*
X14866253Y-10635436D02*
X14856729Y-10644960D01*
X14856729Y-10644960D02*
X14837682Y-10654484D01*
X14837682Y-10654484D02*
X14818634Y-10654484D01*
X14818634Y-10654484D02*
X14799586Y-10644960D01*
X14799586Y-10644960D02*
X14790063Y-10635436D01*
X14790063Y-10635436D02*
X14780539Y-10616389D01*
X14780539Y-10616389D02*
X14771015Y-10578293D01*
X14771015Y-10578293D02*
X14771015Y-10530674D01*
X14771015Y-10530674D02*
X14780539Y-10492579D01*
X14780539Y-10492579D02*
X14790063Y-10473531D01*
X14790063Y-10473531D02*
X14799586Y-10464008D01*
X14799586Y-10464008D02*
X14818634Y-10454484D01*
X14971015Y-10635436D02*
X14980539Y-10644960D01*
X14980539Y-10644960D02*
X14971015Y-10654484D01*
X14971015Y-10654484D02*
X14961491Y-10644960D01*
X14961491Y-10644960D02*
X14971015Y-10635436D01*
X14971015Y-10635436D02*
X14971015Y-10654484D01*
X15104348Y-10454484D02*
X15123396Y-10454484D01*
X15123396Y-10454484D02*
X15142444Y-10464008D01*
X15142444Y-10464008D02*
X15151967Y-10473531D01*
X15151967Y-10473531D02*
X15161491Y-10492579D01*
X15161491Y-10492579D02*
X15171015Y-10530674D01*
X15171015Y-10530674D02*
X15171015Y-10578293D01*
X15171015Y-10578293D02*
X15161491Y-10616389D01*
X15161491Y-10616389D02*
X15151967Y-10635436D01*
X15151967Y-10635436D02*
X15142444Y-10644960D01*
X15142444Y-10644960D02*
X15123396Y-10654484D01*
X15123396Y-10654484D02*
X15104348Y-10654484D01*
X15104348Y-10654484D02*
X15085301Y-10644960D01*
X15085301Y-10644960D02*
X15075777Y-10635436D01*
X15075777Y-10635436D02*
X15066253Y-10616389D01*
X15066253Y-10616389D02*
X15056729Y-10578293D01*
X15056729Y-10578293D02*
X15056729Y-10530674D01*
X15056729Y-10530674D02*
X15066253Y-10492579D01*
X15066253Y-10492579D02*
X15075777Y-10473531D01*
X15075777Y-10473531D02*
X15085301Y-10464008D01*
X15085301Y-10464008D02*
X15104348Y-10454484D01*
X15237682Y-10454484D02*
X15361491Y-10454484D01*
X15361491Y-10454484D02*
X15294825Y-10530674D01*
X15294825Y-10530674D02*
X15323396Y-10530674D01*
X15323396Y-10530674D02*
X15342444Y-10540198D01*
X15342444Y-10540198D02*
X15351967Y-10549722D01*
X15351967Y-10549722D02*
X15361491Y-10568770D01*
X15361491Y-10568770D02*
X15361491Y-10616389D01*
X15361491Y-10616389D02*
X15351967Y-10635436D01*
X15351967Y-10635436D02*
X15342444Y-10644960D01*
X15342444Y-10644960D02*
X15323396Y-10654484D01*
X15323396Y-10654484D02*
X15266253Y-10654484D01*
X15266253Y-10654484D02*
X15247206Y-10644960D01*
X15247206Y-10644960D02*
X15237682Y-10635436D01*
X15428158Y-10454484D02*
X15561491Y-10454484D01*
X15561491Y-10454484D02*
X15475777Y-10654484D01*
X15723396Y-10521150D02*
X15723396Y-10654484D01*
X15675777Y-10444960D02*
X15628158Y-10587817D01*
X15628158Y-10587817D02*
X15751967Y-10587817D01*
X15818634Y-10454484D02*
X15818634Y-10492579D01*
X15894825Y-10454484D02*
X15894825Y-10492579D01*
X16190063Y-10730674D02*
X16180539Y-10721150D01*
X16180539Y-10721150D02*
X16161491Y-10692579D01*
X16161491Y-10692579D02*
X16151968Y-10673531D01*
X16151968Y-10673531D02*
X16142444Y-10644960D01*
X16142444Y-10644960D02*
X16132920Y-10597341D01*
X16132920Y-10597341D02*
X16132920Y-10559246D01*
X16132920Y-10559246D02*
X16142444Y-10511627D01*
X16142444Y-10511627D02*
X16151968Y-10483055D01*
X16151968Y-10483055D02*
X16161491Y-10464008D01*
X16161491Y-10464008D02*
X16180539Y-10435436D01*
X16180539Y-10435436D02*
X16190063Y-10425912D01*
X16371015Y-10654484D02*
X16256729Y-10654484D01*
X16313872Y-10654484D02*
X16313872Y-10454484D01*
X16313872Y-10454484D02*
X16294825Y-10483055D01*
X16294825Y-10483055D02*
X16275777Y-10502103D01*
X16275777Y-10502103D02*
X16256729Y-10511627D01*
X16437682Y-10454484D02*
X16561491Y-10454484D01*
X16561491Y-10454484D02*
X16494825Y-10530674D01*
X16494825Y-10530674D02*
X16523396Y-10530674D01*
X16523396Y-10530674D02*
X16542444Y-10540198D01*
X16542444Y-10540198D02*
X16551968Y-10549722D01*
X16551968Y-10549722D02*
X16561491Y-10568770D01*
X16561491Y-10568770D02*
X16561491Y-10616389D01*
X16561491Y-10616389D02*
X16551968Y-10635436D01*
X16551968Y-10635436D02*
X16542444Y-10644960D01*
X16542444Y-10644960D02*
X16523396Y-10654484D01*
X16523396Y-10654484D02*
X16466253Y-10654484D01*
X16466253Y-10654484D02*
X16447206Y-10644960D01*
X16447206Y-10644960D02*
X16437682Y-10635436D01*
X16799587Y-10654484D02*
X16799587Y-10454484D01*
X16885301Y-10654484D02*
X16885301Y-10549722D01*
X16885301Y-10549722D02*
X16875777Y-10530674D01*
X16875777Y-10530674D02*
X16856730Y-10521150D01*
X16856730Y-10521150D02*
X16828158Y-10521150D01*
X16828158Y-10521150D02*
X16809111Y-10530674D01*
X16809111Y-10530674D02*
X16799587Y-10540198D01*
X17009111Y-10654484D02*
X16990063Y-10644960D01*
X16990063Y-10644960D02*
X16980539Y-10635436D01*
X16980539Y-10635436D02*
X16971015Y-10616389D01*
X16971015Y-10616389D02*
X16971015Y-10559246D01*
X16971015Y-10559246D02*
X16980539Y-10540198D01*
X16980539Y-10540198D02*
X16990063Y-10530674D01*
X16990063Y-10530674D02*
X17009111Y-10521150D01*
X17009111Y-10521150D02*
X17037682Y-10521150D01*
X17037682Y-10521150D02*
X17056730Y-10530674D01*
X17056730Y-10530674D02*
X17066253Y-10540198D01*
X17066253Y-10540198D02*
X17075777Y-10559246D01*
X17075777Y-10559246D02*
X17075777Y-10616389D01*
X17075777Y-10616389D02*
X17066253Y-10635436D01*
X17066253Y-10635436D02*
X17056730Y-10644960D01*
X17056730Y-10644960D02*
X17037682Y-10654484D01*
X17037682Y-10654484D02*
X17009111Y-10654484D01*
X17190063Y-10654484D02*
X17171015Y-10644960D01*
X17171015Y-10644960D02*
X17161492Y-10625912D01*
X17161492Y-10625912D02*
X17161492Y-10454484D01*
X17342444Y-10644960D02*
X17323396Y-10654484D01*
X17323396Y-10654484D02*
X17285301Y-10654484D01*
X17285301Y-10654484D02*
X17266253Y-10644960D01*
X17266253Y-10644960D02*
X17256730Y-10625912D01*
X17256730Y-10625912D02*
X17256730Y-10549722D01*
X17256730Y-10549722D02*
X17266253Y-10530674D01*
X17266253Y-10530674D02*
X17285301Y-10521150D01*
X17285301Y-10521150D02*
X17323396Y-10521150D01*
X17323396Y-10521150D02*
X17342444Y-10530674D01*
X17342444Y-10530674D02*
X17351968Y-10549722D01*
X17351968Y-10549722D02*
X17351968Y-10568770D01*
X17351968Y-10568770D02*
X17256730Y-10587817D01*
X17428158Y-10644960D02*
X17447206Y-10654484D01*
X17447206Y-10654484D02*
X17485301Y-10654484D01*
X17485301Y-10654484D02*
X17504349Y-10644960D01*
X17504349Y-10644960D02*
X17513873Y-10625912D01*
X17513873Y-10625912D02*
X17513873Y-10616389D01*
X17513873Y-10616389D02*
X17504349Y-10597341D01*
X17504349Y-10597341D02*
X17485301Y-10587817D01*
X17485301Y-10587817D02*
X17456730Y-10587817D01*
X17456730Y-10587817D02*
X17437682Y-10578293D01*
X17437682Y-10578293D02*
X17428158Y-10559246D01*
X17428158Y-10559246D02*
X17428158Y-10549722D01*
X17428158Y-10549722D02*
X17437682Y-10530674D01*
X17437682Y-10530674D02*
X17456730Y-10521150D01*
X17456730Y-10521150D02*
X17485301Y-10521150D01*
X17485301Y-10521150D02*
X17504349Y-10530674D01*
X17751968Y-10578293D02*
X17904349Y-10578293D01*
X17828158Y-10654484D02*
X17828158Y-10502103D01*
X18256730Y-10654484D02*
X18142444Y-10654484D01*
X18199587Y-10654484D02*
X18199587Y-10454484D01*
X18199587Y-10454484D02*
X18180539Y-10483055D01*
X18180539Y-10483055D02*
X18161492Y-10502103D01*
X18161492Y-10502103D02*
X18142444Y-10511627D01*
X18485301Y-10644960D02*
X18504349Y-10654484D01*
X18504349Y-10654484D02*
X18542444Y-10654484D01*
X18542444Y-10654484D02*
X18561492Y-10644960D01*
X18561492Y-10644960D02*
X18571016Y-10625912D01*
X18571016Y-10625912D02*
X18571016Y-10616389D01*
X18571016Y-10616389D02*
X18561492Y-10597341D01*
X18561492Y-10597341D02*
X18542444Y-10587817D01*
X18542444Y-10587817D02*
X18513873Y-10587817D01*
X18513873Y-10587817D02*
X18494825Y-10578293D01*
X18494825Y-10578293D02*
X18485301Y-10559246D01*
X18485301Y-10559246D02*
X18485301Y-10549722D01*
X18485301Y-10549722D02*
X18494825Y-10530674D01*
X18494825Y-10530674D02*
X18513873Y-10521150D01*
X18513873Y-10521150D02*
X18542444Y-10521150D01*
X18542444Y-10521150D02*
X18561492Y-10530674D01*
X18685301Y-10654484D02*
X18666254Y-10644960D01*
X18666254Y-10644960D02*
X18656730Y-10625912D01*
X18656730Y-10625912D02*
X18656730Y-10454484D01*
X18790063Y-10654484D02*
X18771016Y-10644960D01*
X18771016Y-10644960D02*
X18761492Y-10635436D01*
X18761492Y-10635436D02*
X18751968Y-10616389D01*
X18751968Y-10616389D02*
X18751968Y-10559246D01*
X18751968Y-10559246D02*
X18761492Y-10540198D01*
X18761492Y-10540198D02*
X18771016Y-10530674D01*
X18771016Y-10530674D02*
X18790063Y-10521150D01*
X18790063Y-10521150D02*
X18818635Y-10521150D01*
X18818635Y-10521150D02*
X18837682Y-10530674D01*
X18837682Y-10530674D02*
X18847206Y-10540198D01*
X18847206Y-10540198D02*
X18856730Y-10559246D01*
X18856730Y-10559246D02*
X18856730Y-10616389D01*
X18856730Y-10616389D02*
X18847206Y-10635436D01*
X18847206Y-10635436D02*
X18837682Y-10644960D01*
X18837682Y-10644960D02*
X18818635Y-10654484D01*
X18818635Y-10654484D02*
X18790063Y-10654484D01*
X18913873Y-10521150D02*
X18990063Y-10521150D01*
X18942444Y-10454484D02*
X18942444Y-10625912D01*
X18942444Y-10625912D02*
X18951968Y-10644960D01*
X18951968Y-10644960D02*
X18971016Y-10654484D01*
X18971016Y-10654484D02*
X18990063Y-10654484D01*
X19037682Y-10730674D02*
X19047206Y-10721150D01*
X19047206Y-10721150D02*
X19066254Y-10692579D01*
X19066254Y-10692579D02*
X19075777Y-10673531D01*
X19075777Y-10673531D02*
X19085301Y-10644960D01*
X19085301Y-10644960D02*
X19094825Y-10597341D01*
X19094825Y-10597341D02*
X19094825Y-10559246D01*
X19094825Y-10559246D02*
X19085301Y-10511627D01*
X19085301Y-10511627D02*
X19075777Y-10483055D01*
X19075777Y-10483055D02*
X19066254Y-10464008D01*
X19066254Y-10464008D02*
X19047206Y-10435436D01*
X19047206Y-10435436D02*
X19037682Y-10425912D01*
D12*
X12592741Y-10880741D02*
X12592741Y-10773259D01*
X12485259Y-10773259D01*
X12485259Y-10880741D01*
X12592741Y-10880741D01*
D11*
X12980539Y-10918484D02*
X12866253Y-10918484D01*
X12923396Y-10918484D02*
X12923396Y-10718484D01*
X12923396Y-10718484D02*
X12904348Y-10747055D01*
X12904348Y-10747055D02*
X12885301Y-10766103D01*
X12885301Y-10766103D02*
X12866253Y-10775627D01*
X13066253Y-10899436D02*
X13075777Y-10908960D01*
X13075777Y-10908960D02*
X13066253Y-10918484D01*
X13066253Y-10918484D02*
X13056729Y-10908960D01*
X13056729Y-10908960D02*
X13066253Y-10899436D01*
X13066253Y-10899436D02*
X13066253Y-10918484D01*
X13256729Y-10718484D02*
X13161491Y-10718484D01*
X13161491Y-10718484D02*
X13151967Y-10813722D01*
X13151967Y-10813722D02*
X13161491Y-10804198D01*
X13161491Y-10804198D02*
X13180539Y-10794674D01*
X13180539Y-10794674D02*
X13228158Y-10794674D01*
X13228158Y-10794674D02*
X13247205Y-10804198D01*
X13247205Y-10804198D02*
X13256729Y-10813722D01*
X13256729Y-10813722D02*
X13266253Y-10832770D01*
X13266253Y-10832770D02*
X13266253Y-10880389D01*
X13266253Y-10880389D02*
X13256729Y-10899436D01*
X13256729Y-10899436D02*
X13247205Y-10908960D01*
X13247205Y-10908960D02*
X13228158Y-10918484D01*
X13228158Y-10918484D02*
X13180539Y-10918484D01*
X13180539Y-10918484D02*
X13161491Y-10908960D01*
X13161491Y-10908960D02*
X13151967Y-10899436D01*
X13342443Y-10737531D02*
X13351967Y-10728008D01*
X13351967Y-10728008D02*
X13371015Y-10718484D01*
X13371015Y-10718484D02*
X13418634Y-10718484D01*
X13418634Y-10718484D02*
X13437682Y-10728008D01*
X13437682Y-10728008D02*
X13447205Y-10737531D01*
X13447205Y-10737531D02*
X13456729Y-10756579D01*
X13456729Y-10756579D02*
X13456729Y-10775627D01*
X13456729Y-10775627D02*
X13447205Y-10804198D01*
X13447205Y-10804198D02*
X13332920Y-10918484D01*
X13332920Y-10918484D02*
X13456729Y-10918484D01*
X13580539Y-10718484D02*
X13599586Y-10718484D01*
X13599586Y-10718484D02*
X13618634Y-10728008D01*
X13618634Y-10728008D02*
X13628158Y-10737531D01*
X13628158Y-10737531D02*
X13637682Y-10756579D01*
X13637682Y-10756579D02*
X13647205Y-10794674D01*
X13647205Y-10794674D02*
X13647205Y-10842293D01*
X13647205Y-10842293D02*
X13637682Y-10880389D01*
X13637682Y-10880389D02*
X13628158Y-10899436D01*
X13628158Y-10899436D02*
X13618634Y-10908960D01*
X13618634Y-10908960D02*
X13599586Y-10918484D01*
X13599586Y-10918484D02*
X13580539Y-10918484D01*
X13580539Y-10918484D02*
X13561491Y-10908960D01*
X13561491Y-10908960D02*
X13551967Y-10899436D01*
X13551967Y-10899436D02*
X13542443Y-10880389D01*
X13542443Y-10880389D02*
X13532920Y-10842293D01*
X13532920Y-10842293D02*
X13532920Y-10794674D01*
X13532920Y-10794674D02*
X13542443Y-10756579D01*
X13542443Y-10756579D02*
X13551967Y-10737531D01*
X13551967Y-10737531D02*
X13561491Y-10728008D01*
X13561491Y-10728008D02*
X13580539Y-10718484D01*
X13732920Y-10918484D02*
X13732920Y-10785150D01*
X13732920Y-10804198D02*
X13742443Y-10794674D01*
X13742443Y-10794674D02*
X13761491Y-10785150D01*
X13761491Y-10785150D02*
X13790063Y-10785150D01*
X13790063Y-10785150D02*
X13809110Y-10794674D01*
X13809110Y-10794674D02*
X13818634Y-10813722D01*
X13818634Y-10813722D02*
X13818634Y-10918484D01*
X13818634Y-10813722D02*
X13828158Y-10794674D01*
X13828158Y-10794674D02*
X13847205Y-10785150D01*
X13847205Y-10785150D02*
X13875777Y-10785150D01*
X13875777Y-10785150D02*
X13894824Y-10794674D01*
X13894824Y-10794674D02*
X13904348Y-10813722D01*
X13904348Y-10813722D02*
X13904348Y-10918484D01*
X13999586Y-10918484D02*
X13999586Y-10785150D01*
X13999586Y-10804198D02*
X14009110Y-10794674D01*
X14009110Y-10794674D02*
X14028158Y-10785150D01*
X14028158Y-10785150D02*
X14056729Y-10785150D01*
X14056729Y-10785150D02*
X14075777Y-10794674D01*
X14075777Y-10794674D02*
X14085301Y-10813722D01*
X14085301Y-10813722D02*
X14085301Y-10918484D01*
X14085301Y-10813722D02*
X14094824Y-10794674D01*
X14094824Y-10794674D02*
X14113872Y-10785150D01*
X14113872Y-10785150D02*
X14142443Y-10785150D01*
X14142443Y-10785150D02*
X14161491Y-10794674D01*
X14161491Y-10794674D02*
X14171015Y-10813722D01*
X14171015Y-10813722D02*
X14171015Y-10918484D01*
X14561491Y-10708960D02*
X14390063Y-10966103D01*
X14818634Y-10718484D02*
X14837682Y-10718484D01*
X14837682Y-10718484D02*
X14856729Y-10728008D01*
X14856729Y-10728008D02*
X14866253Y-10737531D01*
X14866253Y-10737531D02*
X14875777Y-10756579D01*
X14875777Y-10756579D02*
X14885301Y-10794674D01*
X14885301Y-10794674D02*
X14885301Y-10842293D01*
X14885301Y-10842293D02*
X14875777Y-10880389D01*
X14875777Y-10880389D02*
X14866253Y-10899436D01*
X14866253Y-10899436D02*
X14856729Y-10908960D01*
X14856729Y-10908960D02*
X14837682Y-10918484D01*
X14837682Y-10918484D02*
X14818634Y-10918484D01*
X14818634Y-10918484D02*
X14799586Y-10908960D01*
X14799586Y-10908960D02*
X14790063Y-10899436D01*
X14790063Y-10899436D02*
X14780539Y-10880389D01*
X14780539Y-10880389D02*
X14771015Y-10842293D01*
X14771015Y-10842293D02*
X14771015Y-10794674D01*
X14771015Y-10794674D02*
X14780539Y-10756579D01*
X14780539Y-10756579D02*
X14790063Y-10737531D01*
X14790063Y-10737531D02*
X14799586Y-10728008D01*
X14799586Y-10728008D02*
X14818634Y-10718484D01*
X14971015Y-10899436D02*
X14980539Y-10908960D01*
X14980539Y-10908960D02*
X14971015Y-10918484D01*
X14971015Y-10918484D02*
X14961491Y-10908960D01*
X14961491Y-10908960D02*
X14971015Y-10899436D01*
X14971015Y-10899436D02*
X14971015Y-10918484D01*
X15104348Y-10718484D02*
X15123396Y-10718484D01*
X15123396Y-10718484D02*
X15142444Y-10728008D01*
X15142444Y-10728008D02*
X15151967Y-10737531D01*
X15151967Y-10737531D02*
X15161491Y-10756579D01*
X15161491Y-10756579D02*
X15171015Y-10794674D01*
X15171015Y-10794674D02*
X15171015Y-10842293D01*
X15171015Y-10842293D02*
X15161491Y-10880389D01*
X15161491Y-10880389D02*
X15151967Y-10899436D01*
X15151967Y-10899436D02*
X15142444Y-10908960D01*
X15142444Y-10908960D02*
X15123396Y-10918484D01*
X15123396Y-10918484D02*
X15104348Y-10918484D01*
X15104348Y-10918484D02*
X15085301Y-10908960D01*
X15085301Y-10908960D02*
X15075777Y-10899436D01*
X15075777Y-10899436D02*
X15066253Y-10880389D01*
X15066253Y-10880389D02*
X15056729Y-10842293D01*
X15056729Y-10842293D02*
X15056729Y-10794674D01*
X15056729Y-10794674D02*
X15066253Y-10756579D01*
X15066253Y-10756579D02*
X15075777Y-10737531D01*
X15075777Y-10737531D02*
X15085301Y-10728008D01*
X15085301Y-10728008D02*
X15104348Y-10718484D01*
X15351967Y-10718484D02*
X15256729Y-10718484D01*
X15256729Y-10718484D02*
X15247206Y-10813722D01*
X15247206Y-10813722D02*
X15256729Y-10804198D01*
X15256729Y-10804198D02*
X15275777Y-10794674D01*
X15275777Y-10794674D02*
X15323396Y-10794674D01*
X15323396Y-10794674D02*
X15342444Y-10804198D01*
X15342444Y-10804198D02*
X15351967Y-10813722D01*
X15351967Y-10813722D02*
X15361491Y-10832770D01*
X15361491Y-10832770D02*
X15361491Y-10880389D01*
X15361491Y-10880389D02*
X15351967Y-10899436D01*
X15351967Y-10899436D02*
X15342444Y-10908960D01*
X15342444Y-10908960D02*
X15323396Y-10918484D01*
X15323396Y-10918484D02*
X15275777Y-10918484D01*
X15275777Y-10918484D02*
X15256729Y-10908960D01*
X15256729Y-10908960D02*
X15247206Y-10899436D01*
X15456729Y-10918484D02*
X15494825Y-10918484D01*
X15494825Y-10918484D02*
X15513872Y-10908960D01*
X15513872Y-10908960D02*
X15523396Y-10899436D01*
X15523396Y-10899436D02*
X15542444Y-10870865D01*
X15542444Y-10870865D02*
X15551967Y-10832770D01*
X15551967Y-10832770D02*
X15551967Y-10756579D01*
X15551967Y-10756579D02*
X15542444Y-10737531D01*
X15542444Y-10737531D02*
X15532920Y-10728008D01*
X15532920Y-10728008D02*
X15513872Y-10718484D01*
X15513872Y-10718484D02*
X15475777Y-10718484D01*
X15475777Y-10718484D02*
X15456729Y-10728008D01*
X15456729Y-10728008D02*
X15447206Y-10737531D01*
X15447206Y-10737531D02*
X15437682Y-10756579D01*
X15437682Y-10756579D02*
X15437682Y-10804198D01*
X15437682Y-10804198D02*
X15447206Y-10823246D01*
X15447206Y-10823246D02*
X15456729Y-10832770D01*
X15456729Y-10832770D02*
X15475777Y-10842293D01*
X15475777Y-10842293D02*
X15513872Y-10842293D01*
X15513872Y-10842293D02*
X15532920Y-10832770D01*
X15532920Y-10832770D02*
X15542444Y-10823246D01*
X15542444Y-10823246D02*
X15551967Y-10804198D01*
X15666253Y-10804198D02*
X15647206Y-10794674D01*
X15647206Y-10794674D02*
X15637682Y-10785150D01*
X15637682Y-10785150D02*
X15628158Y-10766103D01*
X15628158Y-10766103D02*
X15628158Y-10756579D01*
X15628158Y-10756579D02*
X15637682Y-10737531D01*
X15637682Y-10737531D02*
X15647206Y-10728008D01*
X15647206Y-10728008D02*
X15666253Y-10718484D01*
X15666253Y-10718484D02*
X15704348Y-10718484D01*
X15704348Y-10718484D02*
X15723396Y-10728008D01*
X15723396Y-10728008D02*
X15732920Y-10737531D01*
X15732920Y-10737531D02*
X15742444Y-10756579D01*
X15742444Y-10756579D02*
X15742444Y-10766103D01*
X15742444Y-10766103D02*
X15732920Y-10785150D01*
X15732920Y-10785150D02*
X15723396Y-10794674D01*
X15723396Y-10794674D02*
X15704348Y-10804198D01*
X15704348Y-10804198D02*
X15666253Y-10804198D01*
X15666253Y-10804198D02*
X15647206Y-10813722D01*
X15647206Y-10813722D02*
X15637682Y-10823246D01*
X15637682Y-10823246D02*
X15628158Y-10842293D01*
X15628158Y-10842293D02*
X15628158Y-10880389D01*
X15628158Y-10880389D02*
X15637682Y-10899436D01*
X15637682Y-10899436D02*
X15647206Y-10908960D01*
X15647206Y-10908960D02*
X15666253Y-10918484D01*
X15666253Y-10918484D02*
X15704348Y-10918484D01*
X15704348Y-10918484D02*
X15723396Y-10908960D01*
X15723396Y-10908960D02*
X15732920Y-10899436D01*
X15732920Y-10899436D02*
X15742444Y-10880389D01*
X15742444Y-10880389D02*
X15742444Y-10842293D01*
X15742444Y-10842293D02*
X15732920Y-10823246D01*
X15732920Y-10823246D02*
X15723396Y-10813722D01*
X15723396Y-10813722D02*
X15704348Y-10804198D01*
X15818634Y-10718484D02*
X15818634Y-10756579D01*
X15894825Y-10718484D02*
X15894825Y-10756579D01*
X16190063Y-10994674D02*
X16180539Y-10985150D01*
X16180539Y-10985150D02*
X16161491Y-10956579D01*
X16161491Y-10956579D02*
X16151968Y-10937531D01*
X16151968Y-10937531D02*
X16142444Y-10908960D01*
X16142444Y-10908960D02*
X16132920Y-10861341D01*
X16132920Y-10861341D02*
X16132920Y-10823246D01*
X16132920Y-10823246D02*
X16142444Y-10775627D01*
X16142444Y-10775627D02*
X16151968Y-10747055D01*
X16151968Y-10747055D02*
X16161491Y-10728008D01*
X16161491Y-10728008D02*
X16180539Y-10699436D01*
X16180539Y-10699436D02*
X16190063Y-10689912D01*
X16256729Y-10737531D02*
X16266253Y-10728008D01*
X16266253Y-10728008D02*
X16285301Y-10718484D01*
X16285301Y-10718484D02*
X16332920Y-10718484D01*
X16332920Y-10718484D02*
X16351968Y-10728008D01*
X16351968Y-10728008D02*
X16361491Y-10737531D01*
X16361491Y-10737531D02*
X16371015Y-10756579D01*
X16371015Y-10756579D02*
X16371015Y-10775627D01*
X16371015Y-10775627D02*
X16361491Y-10804198D01*
X16361491Y-10804198D02*
X16247206Y-10918484D01*
X16247206Y-10918484D02*
X16371015Y-10918484D01*
X16609110Y-10918484D02*
X16609110Y-10718484D01*
X16694825Y-10918484D02*
X16694825Y-10813722D01*
X16694825Y-10813722D02*
X16685301Y-10794674D01*
X16685301Y-10794674D02*
X16666253Y-10785150D01*
X16666253Y-10785150D02*
X16637682Y-10785150D01*
X16637682Y-10785150D02*
X16618634Y-10794674D01*
X16618634Y-10794674D02*
X16609110Y-10804198D01*
X16818634Y-10918484D02*
X16799587Y-10908960D01*
X16799587Y-10908960D02*
X16790063Y-10899436D01*
X16790063Y-10899436D02*
X16780539Y-10880389D01*
X16780539Y-10880389D02*
X16780539Y-10823246D01*
X16780539Y-10823246D02*
X16790063Y-10804198D01*
X16790063Y-10804198D02*
X16799587Y-10794674D01*
X16799587Y-10794674D02*
X16818634Y-10785150D01*
X16818634Y-10785150D02*
X16847206Y-10785150D01*
X16847206Y-10785150D02*
X16866253Y-10794674D01*
X16866253Y-10794674D02*
X16875777Y-10804198D01*
X16875777Y-10804198D02*
X16885301Y-10823246D01*
X16885301Y-10823246D02*
X16885301Y-10880389D01*
X16885301Y-10880389D02*
X16875777Y-10899436D01*
X16875777Y-10899436D02*
X16866253Y-10908960D01*
X16866253Y-10908960D02*
X16847206Y-10918484D01*
X16847206Y-10918484D02*
X16818634Y-10918484D01*
X16999587Y-10918484D02*
X16980539Y-10908960D01*
X16980539Y-10908960D02*
X16971015Y-10889912D01*
X16971015Y-10889912D02*
X16971015Y-10718484D01*
X17151968Y-10908960D02*
X17132920Y-10918484D01*
X17132920Y-10918484D02*
X17094825Y-10918484D01*
X17094825Y-10918484D02*
X17075777Y-10908960D01*
X17075777Y-10908960D02*
X17066253Y-10889912D01*
X17066253Y-10889912D02*
X17066253Y-10813722D01*
X17066253Y-10813722D02*
X17075777Y-10794674D01*
X17075777Y-10794674D02*
X17094825Y-10785150D01*
X17094825Y-10785150D02*
X17132920Y-10785150D01*
X17132920Y-10785150D02*
X17151968Y-10794674D01*
X17151968Y-10794674D02*
X17161492Y-10813722D01*
X17161492Y-10813722D02*
X17161492Y-10832770D01*
X17161492Y-10832770D02*
X17066253Y-10851817D01*
X17237682Y-10908960D02*
X17256730Y-10918484D01*
X17256730Y-10918484D02*
X17294825Y-10918484D01*
X17294825Y-10918484D02*
X17313873Y-10908960D01*
X17313873Y-10908960D02*
X17323396Y-10889912D01*
X17323396Y-10889912D02*
X17323396Y-10880389D01*
X17323396Y-10880389D02*
X17313873Y-10861341D01*
X17313873Y-10861341D02*
X17294825Y-10851817D01*
X17294825Y-10851817D02*
X17266253Y-10851817D01*
X17266253Y-10851817D02*
X17247206Y-10842293D01*
X17247206Y-10842293D02*
X17237682Y-10823246D01*
X17237682Y-10823246D02*
X17237682Y-10813722D01*
X17237682Y-10813722D02*
X17247206Y-10794674D01*
X17247206Y-10794674D02*
X17266253Y-10785150D01*
X17266253Y-10785150D02*
X17294825Y-10785150D01*
X17294825Y-10785150D02*
X17313873Y-10794674D01*
X17390063Y-10994674D02*
X17399587Y-10985150D01*
X17399587Y-10985150D02*
X17418634Y-10956579D01*
X17418634Y-10956579D02*
X17428158Y-10937531D01*
X17428158Y-10937531D02*
X17437682Y-10908960D01*
X17437682Y-10908960D02*
X17447206Y-10861341D01*
X17447206Y-10861341D02*
X17447206Y-10823246D01*
X17447206Y-10823246D02*
X17437682Y-10775627D01*
X17437682Y-10775627D02*
X17428158Y-10747055D01*
X17428158Y-10747055D02*
X17418634Y-10728008D01*
X17418634Y-10728008D02*
X17399587Y-10699436D01*
X17399587Y-10699436D02*
X17390063Y-10689912D01*
M02*
