%TF.GenerationSoftware,KiCad,Pcbnew,7.0.10*%
%TF.CreationDate,2024-05-28T16:22:07+05:30*%
%TF.ProjectId,pro1,70726f31-2e6b-4696-9361-645f70636258,rev?*%
%TF.SameCoordinates,Original*%
%TF.FileFunction,Legend,Top*%
%TF.FilePolarity,Positive*%
%FSLAX46Y46*%
G04 Gerber Fmt 4.6, Leading zero omitted, Abs format (unit mm)*
G04 Created by KiCad (PCBNEW 7.0.10) date 2024-05-28 16:22:07*
%MOMM*%
%LPD*%
G01*
G04 APERTURE LIST*
%ADD10C,0.150000*%
%ADD11C,0.125000*%
%ADD12C,0.120000*%
%ADD13C,0.100000*%
%ADD14O,1.950000X1.700000*%
G04 APERTURE END LIST*
D10*
X161136779Y-84688866D02*
X161898684Y-84688866D01*
X155436779Y-84588866D02*
X156198684Y-84588866D01*
X155817731Y-84969819D02*
X155817731Y-84207914D01*
D11*
X171374809Y-74246666D02*
X171731952Y-74246666D01*
X171731952Y-74246666D02*
X171803380Y-74270475D01*
X171803380Y-74270475D02*
X171851000Y-74318094D01*
X171851000Y-74318094D02*
X171874809Y-74389523D01*
X171874809Y-74389523D02*
X171874809Y-74437142D01*
X171374809Y-74056190D02*
X171374809Y-73746666D01*
X171374809Y-73746666D02*
X171565285Y-73913333D01*
X171565285Y-73913333D02*
X171565285Y-73841904D01*
X171565285Y-73841904D02*
X171589095Y-73794285D01*
X171589095Y-73794285D02*
X171612904Y-73770476D01*
X171612904Y-73770476D02*
X171660523Y-73746666D01*
X171660523Y-73746666D02*
X171779571Y-73746666D01*
X171779571Y-73746666D02*
X171827190Y-73770476D01*
X171827190Y-73770476D02*
X171851000Y-73794285D01*
X171851000Y-73794285D02*
X171874809Y-73841904D01*
X171874809Y-73841904D02*
X171874809Y-73984761D01*
X171874809Y-73984761D02*
X171851000Y-74032380D01*
X171851000Y-74032380D02*
X171827190Y-74056190D01*
X159103333Y-84354809D02*
X159103333Y-84711952D01*
X159103333Y-84711952D02*
X159079524Y-84783380D01*
X159079524Y-84783380D02*
X159031905Y-84831000D01*
X159031905Y-84831000D02*
X158960476Y-84854809D01*
X158960476Y-84854809D02*
X158912857Y-84854809D01*
X159579523Y-84354809D02*
X159341428Y-84354809D01*
X159341428Y-84354809D02*
X159317619Y-84592904D01*
X159317619Y-84592904D02*
X159341428Y-84569095D01*
X159341428Y-84569095D02*
X159389047Y-84545285D01*
X159389047Y-84545285D02*
X159508095Y-84545285D01*
X159508095Y-84545285D02*
X159555714Y-84569095D01*
X159555714Y-84569095D02*
X159579523Y-84592904D01*
X159579523Y-84592904D02*
X159603333Y-84640523D01*
X159603333Y-84640523D02*
X159603333Y-84759571D01*
X159603333Y-84759571D02*
X159579523Y-84807190D01*
X159579523Y-84807190D02*
X159555714Y-84831000D01*
X159555714Y-84831000D02*
X159508095Y-84854809D01*
X159508095Y-84854809D02*
X159389047Y-84854809D01*
X159389047Y-84854809D02*
X159341428Y-84831000D01*
X159341428Y-84831000D02*
X159317619Y-84807190D01*
D10*
X168638095Y-32754819D02*
X168638095Y-31754819D01*
X168638095Y-32231009D02*
X169209523Y-32231009D01*
X169209523Y-32754819D02*
X169209523Y-31754819D01*
X169590476Y-31754819D02*
X170209523Y-31754819D01*
X170209523Y-31754819D02*
X169876190Y-32135771D01*
X169876190Y-32135771D02*
X170019047Y-32135771D01*
X170019047Y-32135771D02*
X170114285Y-32183390D01*
X170114285Y-32183390D02*
X170161904Y-32231009D01*
X170161904Y-32231009D02*
X170209523Y-32326247D01*
X170209523Y-32326247D02*
X170209523Y-32564342D01*
X170209523Y-32564342D02*
X170161904Y-32659580D01*
X170161904Y-32659580D02*
X170114285Y-32707200D01*
X170114285Y-32707200D02*
X170019047Y-32754819D01*
X170019047Y-32754819D02*
X169733333Y-32754819D01*
X169733333Y-32754819D02*
X169638095Y-32707200D01*
X169638095Y-32707200D02*
X169590476Y-32659580D01*
D11*
X156296666Y-50924809D02*
X156130000Y-50686714D01*
X156010952Y-50924809D02*
X156010952Y-50424809D01*
X156010952Y-50424809D02*
X156201428Y-50424809D01*
X156201428Y-50424809D02*
X156249047Y-50448619D01*
X156249047Y-50448619D02*
X156272857Y-50472428D01*
X156272857Y-50472428D02*
X156296666Y-50520047D01*
X156296666Y-50520047D02*
X156296666Y-50591476D01*
X156296666Y-50591476D02*
X156272857Y-50639095D01*
X156272857Y-50639095D02*
X156249047Y-50662904D01*
X156249047Y-50662904D02*
X156201428Y-50686714D01*
X156201428Y-50686714D02*
X156010952Y-50686714D01*
X156772857Y-50924809D02*
X156487143Y-50924809D01*
X156630000Y-50924809D02*
X156630000Y-50424809D01*
X156630000Y-50424809D02*
X156582381Y-50496238D01*
X156582381Y-50496238D02*
X156534762Y-50543857D01*
X156534762Y-50543857D02*
X156487143Y-50567666D01*
X171464809Y-53426666D02*
X171821952Y-53426666D01*
X171821952Y-53426666D02*
X171893380Y-53450475D01*
X171893380Y-53450475D02*
X171941000Y-53498094D01*
X171941000Y-53498094D02*
X171964809Y-53569523D01*
X171964809Y-53569523D02*
X171964809Y-53617142D01*
X171512428Y-53212380D02*
X171488619Y-53188571D01*
X171488619Y-53188571D02*
X171464809Y-53140952D01*
X171464809Y-53140952D02*
X171464809Y-53021904D01*
X171464809Y-53021904D02*
X171488619Y-52974285D01*
X171488619Y-52974285D02*
X171512428Y-52950476D01*
X171512428Y-52950476D02*
X171560047Y-52926666D01*
X171560047Y-52926666D02*
X171607666Y-52926666D01*
X171607666Y-52926666D02*
X171679095Y-52950476D01*
X171679095Y-52950476D02*
X171964809Y-53236190D01*
X171964809Y-53236190D02*
X171964809Y-52926666D01*
D10*
X133198095Y-31504819D02*
X133198095Y-30504819D01*
X133198095Y-30981009D02*
X133769523Y-30981009D01*
X133769523Y-31504819D02*
X133769523Y-30504819D01*
X134674285Y-30838152D02*
X134674285Y-31504819D01*
X134436190Y-30457200D02*
X134198095Y-31171485D01*
X134198095Y-31171485D02*
X134817142Y-31171485D01*
D11*
X147324809Y-77769047D02*
X146824809Y-77769047D01*
X146824809Y-77769047D02*
X146824809Y-77649999D01*
X146824809Y-77649999D02*
X146848619Y-77578571D01*
X146848619Y-77578571D02*
X146896238Y-77530952D01*
X146896238Y-77530952D02*
X146943857Y-77507142D01*
X146943857Y-77507142D02*
X147039095Y-77483333D01*
X147039095Y-77483333D02*
X147110523Y-77483333D01*
X147110523Y-77483333D02*
X147205761Y-77507142D01*
X147205761Y-77507142D02*
X147253380Y-77530952D01*
X147253380Y-77530952D02*
X147301000Y-77578571D01*
X147301000Y-77578571D02*
X147324809Y-77649999D01*
X147324809Y-77649999D02*
X147324809Y-77769047D01*
X146824809Y-77316666D02*
X146824809Y-77007142D01*
X146824809Y-77007142D02*
X147015285Y-77173809D01*
X147015285Y-77173809D02*
X147015285Y-77102380D01*
X147015285Y-77102380D02*
X147039095Y-77054761D01*
X147039095Y-77054761D02*
X147062904Y-77030952D01*
X147062904Y-77030952D02*
X147110523Y-77007142D01*
X147110523Y-77007142D02*
X147229571Y-77007142D01*
X147229571Y-77007142D02*
X147277190Y-77030952D01*
X147277190Y-77030952D02*
X147301000Y-77054761D01*
X147301000Y-77054761D02*
X147324809Y-77102380D01*
X147324809Y-77102380D02*
X147324809Y-77245237D01*
X147324809Y-77245237D02*
X147301000Y-77292856D01*
X147301000Y-77292856D02*
X147277190Y-77316666D01*
D12*
X156236666Y-47357450D02*
X156212857Y-47381260D01*
X156212857Y-47381260D02*
X156141428Y-47405069D01*
X156141428Y-47405069D02*
X156093809Y-47405069D01*
X156093809Y-47405069D02*
X156022381Y-47381260D01*
X156022381Y-47381260D02*
X155974762Y-47333640D01*
X155974762Y-47333640D02*
X155950952Y-47286021D01*
X155950952Y-47286021D02*
X155927143Y-47190783D01*
X155927143Y-47190783D02*
X155927143Y-47119355D01*
X155927143Y-47119355D02*
X155950952Y-47024117D01*
X155950952Y-47024117D02*
X155974762Y-46976498D01*
X155974762Y-46976498D02*
X156022381Y-46928879D01*
X156022381Y-46928879D02*
X156093809Y-46905069D01*
X156093809Y-46905069D02*
X156141428Y-46905069D01*
X156141428Y-46905069D02*
X156212857Y-46928879D01*
X156212857Y-46928879D02*
X156236666Y-46952688D01*
X156403333Y-46905069D02*
X156712857Y-46905069D01*
X156712857Y-46905069D02*
X156546190Y-47095545D01*
X156546190Y-47095545D02*
X156617619Y-47095545D01*
X156617619Y-47095545D02*
X156665238Y-47119355D01*
X156665238Y-47119355D02*
X156689047Y-47143164D01*
X156689047Y-47143164D02*
X156712857Y-47190783D01*
X156712857Y-47190783D02*
X156712857Y-47309831D01*
X156712857Y-47309831D02*
X156689047Y-47357450D01*
X156689047Y-47357450D02*
X156665238Y-47381260D01*
X156665238Y-47381260D02*
X156617619Y-47405069D01*
X156617619Y-47405069D02*
X156474762Y-47405069D01*
X156474762Y-47405069D02*
X156427143Y-47381260D01*
X156427143Y-47381260D02*
X156403333Y-47357450D01*
D11*
X157026666Y-54277190D02*
X157002857Y-54301000D01*
X157002857Y-54301000D02*
X156931428Y-54324809D01*
X156931428Y-54324809D02*
X156883809Y-54324809D01*
X156883809Y-54324809D02*
X156812381Y-54301000D01*
X156812381Y-54301000D02*
X156764762Y-54253380D01*
X156764762Y-54253380D02*
X156740952Y-54205761D01*
X156740952Y-54205761D02*
X156717143Y-54110523D01*
X156717143Y-54110523D02*
X156717143Y-54039095D01*
X156717143Y-54039095D02*
X156740952Y-53943857D01*
X156740952Y-53943857D02*
X156764762Y-53896238D01*
X156764762Y-53896238D02*
X156812381Y-53848619D01*
X156812381Y-53848619D02*
X156883809Y-53824809D01*
X156883809Y-53824809D02*
X156931428Y-53824809D01*
X156931428Y-53824809D02*
X157002857Y-53848619D01*
X157002857Y-53848619D02*
X157026666Y-53872428D01*
X157502857Y-54324809D02*
X157217143Y-54324809D01*
X157360000Y-54324809D02*
X157360000Y-53824809D01*
X157360000Y-53824809D02*
X157312381Y-53896238D01*
X157312381Y-53896238D02*
X157264762Y-53943857D01*
X157264762Y-53943857D02*
X157217143Y-53967666D01*
X150550952Y-68674809D02*
X150550952Y-68174809D01*
X150550952Y-68174809D02*
X150670000Y-68174809D01*
X150670000Y-68174809D02*
X150741428Y-68198619D01*
X150741428Y-68198619D02*
X150789047Y-68246238D01*
X150789047Y-68246238D02*
X150812857Y-68293857D01*
X150812857Y-68293857D02*
X150836666Y-68389095D01*
X150836666Y-68389095D02*
X150836666Y-68460523D01*
X150836666Y-68460523D02*
X150812857Y-68555761D01*
X150812857Y-68555761D02*
X150789047Y-68603380D01*
X150789047Y-68603380D02*
X150741428Y-68651000D01*
X150741428Y-68651000D02*
X150670000Y-68674809D01*
X150670000Y-68674809D02*
X150550952Y-68674809D01*
X151312857Y-68674809D02*
X151027143Y-68674809D01*
X151170000Y-68674809D02*
X151170000Y-68174809D01*
X151170000Y-68174809D02*
X151122381Y-68246238D01*
X151122381Y-68246238D02*
X151074762Y-68293857D01*
X151074762Y-68293857D02*
X151027143Y-68317666D01*
X156626666Y-61684809D02*
X156460000Y-61446714D01*
X156340952Y-61684809D02*
X156340952Y-61184809D01*
X156340952Y-61184809D02*
X156531428Y-61184809D01*
X156531428Y-61184809D02*
X156579047Y-61208619D01*
X156579047Y-61208619D02*
X156602857Y-61232428D01*
X156602857Y-61232428D02*
X156626666Y-61280047D01*
X156626666Y-61280047D02*
X156626666Y-61351476D01*
X156626666Y-61351476D02*
X156602857Y-61399095D01*
X156602857Y-61399095D02*
X156579047Y-61422904D01*
X156579047Y-61422904D02*
X156531428Y-61446714D01*
X156531428Y-61446714D02*
X156340952Y-61446714D01*
X156793333Y-61184809D02*
X157102857Y-61184809D01*
X157102857Y-61184809D02*
X156936190Y-61375285D01*
X156936190Y-61375285D02*
X157007619Y-61375285D01*
X157007619Y-61375285D02*
X157055238Y-61399095D01*
X157055238Y-61399095D02*
X157079047Y-61422904D01*
X157079047Y-61422904D02*
X157102857Y-61470523D01*
X157102857Y-61470523D02*
X157102857Y-61589571D01*
X157102857Y-61589571D02*
X157079047Y-61637190D01*
X157079047Y-61637190D02*
X157055238Y-61661000D01*
X157055238Y-61661000D02*
X157007619Y-61684809D01*
X157007619Y-61684809D02*
X156864762Y-61684809D01*
X156864762Y-61684809D02*
X156817143Y-61661000D01*
X156817143Y-61661000D02*
X156793333Y-61637190D01*
D13*
X156086666Y-44358490D02*
X156062857Y-44382300D01*
X156062857Y-44382300D02*
X155991428Y-44406109D01*
X155991428Y-44406109D02*
X155943809Y-44406109D01*
X155943809Y-44406109D02*
X155872381Y-44382300D01*
X155872381Y-44382300D02*
X155824762Y-44334680D01*
X155824762Y-44334680D02*
X155800952Y-44287061D01*
X155800952Y-44287061D02*
X155777143Y-44191823D01*
X155777143Y-44191823D02*
X155777143Y-44120395D01*
X155777143Y-44120395D02*
X155800952Y-44025157D01*
X155800952Y-44025157D02*
X155824762Y-43977538D01*
X155824762Y-43977538D02*
X155872381Y-43929919D01*
X155872381Y-43929919D02*
X155943809Y-43906109D01*
X155943809Y-43906109D02*
X155991428Y-43906109D01*
X155991428Y-43906109D02*
X156062857Y-43929919D01*
X156062857Y-43929919D02*
X156086666Y-43953728D01*
X156277143Y-43953728D02*
X156300952Y-43929919D01*
X156300952Y-43929919D02*
X156348571Y-43906109D01*
X156348571Y-43906109D02*
X156467619Y-43906109D01*
X156467619Y-43906109D02*
X156515238Y-43929919D01*
X156515238Y-43929919D02*
X156539047Y-43953728D01*
X156539047Y-43953728D02*
X156562857Y-44001347D01*
X156562857Y-44001347D02*
X156562857Y-44048966D01*
X156562857Y-44048966D02*
X156539047Y-44120395D01*
X156539047Y-44120395D02*
X156253333Y-44406109D01*
X156253333Y-44406109D02*
X156562857Y-44406109D01*
D11*
X156526666Y-57894809D02*
X156360000Y-57656714D01*
X156240952Y-57894809D02*
X156240952Y-57394809D01*
X156240952Y-57394809D02*
X156431428Y-57394809D01*
X156431428Y-57394809D02*
X156479047Y-57418619D01*
X156479047Y-57418619D02*
X156502857Y-57442428D01*
X156502857Y-57442428D02*
X156526666Y-57490047D01*
X156526666Y-57490047D02*
X156526666Y-57561476D01*
X156526666Y-57561476D02*
X156502857Y-57609095D01*
X156502857Y-57609095D02*
X156479047Y-57632904D01*
X156479047Y-57632904D02*
X156431428Y-57656714D01*
X156431428Y-57656714D02*
X156240952Y-57656714D01*
X156717143Y-57442428D02*
X156740952Y-57418619D01*
X156740952Y-57418619D02*
X156788571Y-57394809D01*
X156788571Y-57394809D02*
X156907619Y-57394809D01*
X156907619Y-57394809D02*
X156955238Y-57418619D01*
X156955238Y-57418619D02*
X156979047Y-57442428D01*
X156979047Y-57442428D02*
X157002857Y-57490047D01*
X157002857Y-57490047D02*
X157002857Y-57537666D01*
X157002857Y-57537666D02*
X156979047Y-57609095D01*
X156979047Y-57609095D02*
X156693333Y-57894809D01*
X156693333Y-57894809D02*
X157002857Y-57894809D01*
X133844047Y-84774809D02*
X133844047Y-85179571D01*
X133844047Y-85179571D02*
X133867857Y-85227190D01*
X133867857Y-85227190D02*
X133891666Y-85251000D01*
X133891666Y-85251000D02*
X133939285Y-85274809D01*
X133939285Y-85274809D02*
X134034523Y-85274809D01*
X134034523Y-85274809D02*
X134082142Y-85251000D01*
X134082142Y-85251000D02*
X134105952Y-85227190D01*
X134105952Y-85227190D02*
X134129761Y-85179571D01*
X134129761Y-85179571D02*
X134129761Y-84774809D01*
X134320238Y-84774809D02*
X134629762Y-84774809D01*
X134629762Y-84774809D02*
X134463095Y-84965285D01*
X134463095Y-84965285D02*
X134534524Y-84965285D01*
X134534524Y-84965285D02*
X134582143Y-84989095D01*
X134582143Y-84989095D02*
X134605952Y-85012904D01*
X134605952Y-85012904D02*
X134629762Y-85060523D01*
X134629762Y-85060523D02*
X134629762Y-85179571D01*
X134629762Y-85179571D02*
X134605952Y-85227190D01*
X134605952Y-85227190D02*
X134582143Y-85251000D01*
X134582143Y-85251000D02*
X134534524Y-85274809D01*
X134534524Y-85274809D02*
X134391667Y-85274809D01*
X134391667Y-85274809D02*
X134344048Y-85251000D01*
X134344048Y-85251000D02*
X134320238Y-85227190D01*
D12*
%TO.C,J3*%
X172350000Y-83550000D02*
X173600000Y-83550000D01*
X172640000Y-83260000D02*
X178610000Y-83260000D01*
X178610000Y-83260000D02*
X178610000Y-63140000D01*
X172650000Y-83250000D02*
X173400000Y-83250000D01*
X173400000Y-83250000D02*
X173400000Y-81450000D01*
X174900000Y-83250000D02*
X174900000Y-82500000D01*
X174900000Y-82500000D02*
X177850000Y-82500000D01*
X177850000Y-82500000D02*
X177850000Y-73200000D01*
X172350000Y-82300000D02*
X172350000Y-83550000D01*
X172650000Y-81450000D02*
X172650000Y-83250000D01*
X173400000Y-81450000D02*
X172650000Y-81450000D01*
X172650000Y-79950000D02*
X173400000Y-79950000D01*
X173400000Y-79950000D02*
X173400000Y-66450000D01*
X172650000Y-66450000D02*
X172650000Y-79950000D01*
X173400000Y-66450000D02*
X172650000Y-66450000D01*
X172650000Y-64950000D02*
X173400000Y-64950000D01*
X173400000Y-64950000D02*
X173400000Y-63150000D01*
X174900000Y-63900000D02*
X177850000Y-63900000D01*
X177850000Y-63900000D02*
X177850000Y-73200000D01*
X172650000Y-63150000D02*
X172650000Y-64950000D01*
X173400000Y-63150000D02*
X172650000Y-63150000D01*
X174900000Y-63150000D02*
X174900000Y-63900000D01*
X172640000Y-63140000D02*
X172640000Y-83260000D01*
X178610000Y-63140000D02*
X172640000Y-63140000D01*
%TO.C,J5*%
X153520000Y-85390000D02*
X153520000Y-93010000D01*
X153520000Y-93010000D02*
X163680000Y-93010000D01*
X163680000Y-85390000D02*
X153520000Y-85390000D01*
X163680000Y-91740000D02*
X153520000Y-91740000D01*
X163680000Y-93010000D02*
X163680000Y-85390000D01*
%TO.C,R1*%
X155522936Y-51190000D02*
X156977064Y-51190000D01*
X155522936Y-53010000D02*
X156977064Y-53010000D01*
%TO.C,J2*%
X178510000Y-37940000D02*
X172540000Y-37940000D01*
X172540000Y-37940000D02*
X172540000Y-58060000D01*
X174800000Y-37950000D02*
X174800000Y-38700000D01*
X173300000Y-37950000D02*
X172550000Y-37950000D01*
X172550000Y-37950000D02*
X172550000Y-39750000D01*
X177750000Y-38700000D02*
X177750000Y-48000000D01*
X174800000Y-38700000D02*
X177750000Y-38700000D01*
X173300000Y-39750000D02*
X173300000Y-37950000D01*
X172550000Y-39750000D02*
X173300000Y-39750000D01*
X173300000Y-41250000D02*
X172550000Y-41250000D01*
X172550000Y-41250000D02*
X172550000Y-54750000D01*
X173300000Y-54750000D02*
X173300000Y-41250000D01*
X172550000Y-54750000D02*
X173300000Y-54750000D01*
X173300000Y-56250000D02*
X172550000Y-56250000D01*
X172550000Y-56250000D02*
X172550000Y-58050000D01*
X172250000Y-57100000D02*
X172250000Y-58350000D01*
X177750000Y-57300000D02*
X177750000Y-48000000D01*
X174800000Y-57300000D02*
X177750000Y-57300000D01*
X174800000Y-58050000D02*
X174800000Y-57300000D01*
X173300000Y-58050000D02*
X173300000Y-56250000D01*
X172550000Y-58050000D02*
X173300000Y-58050000D01*
X178510000Y-58060000D02*
X178510000Y-37940000D01*
X172540000Y-58060000D02*
X178510000Y-58060000D01*
X172250000Y-58350000D02*
X173500000Y-58350000D01*
%TO.C,D3*%
X147565000Y-79672500D02*
X149835000Y-79672500D01*
X149835000Y-79672500D02*
X149835000Y-75612500D01*
X147565000Y-75612500D02*
X147565000Y-79672500D01*
%TO.C,C3*%
X155526248Y-49610000D02*
X156948752Y-49610000D01*
X155526248Y-47790000D02*
X156948752Y-47790000D01*
%TO.C,C1*%
X155626248Y-54690000D02*
X157048752Y-54690000D01*
X155626248Y-56510000D02*
X157048752Y-56510000D01*
%TO.C,D1*%
X147852500Y-68865000D02*
X147852500Y-71135000D01*
X147852500Y-71135000D02*
X151912500Y-71135000D01*
X151912500Y-68865000D02*
X147852500Y-68865000D01*
%TO.C,R3*%
X155922936Y-61990000D02*
X157377064Y-61990000D01*
X155922936Y-63810000D02*
X157377064Y-63810000D01*
%TO.C,C2*%
X155526248Y-46510000D02*
X156948752Y-46510000D01*
X155526248Y-44690000D02*
X156948752Y-44690000D01*
%TO.C,U1*%
X128256200Y-37297200D02*
X128256200Y-43712200D01*
X128256200Y-37297200D02*
X146496200Y-37297200D01*
X128256200Y-43712200D02*
X127876200Y-43712200D01*
X128256200Y-62257200D02*
X128256200Y-63037200D01*
X128256200Y-63037200D02*
X129256200Y-63037200D01*
X146496200Y-37297200D02*
X146496200Y-43712200D01*
X146496200Y-62257200D02*
X146496200Y-63037200D01*
X146496200Y-63037200D02*
X145496200Y-63037200D01*
%TO.C,R2*%
X157377064Y-60110000D02*
X155922936Y-60110000D01*
X157377064Y-58290000D02*
X155922936Y-58290000D01*
%TO.C,U3*%
X139050000Y-83600000D02*
X139050000Y-81790000D01*
X139050000Y-81790000D02*
X144175000Y-81790000D01*
X139050000Y-75010000D02*
X140150000Y-75010000D01*
X139050000Y-73200000D02*
X139050000Y-75010000D01*
X137550000Y-83600000D02*
X139050000Y-83600000D01*
X137550000Y-73200000D02*
X139050000Y-73200000D01*
%TD*%
D14*
%TO.C,J3*%
X175100000Y-73200000D03*
%TD*%
M02*
