M48
; DRILL file {KiCad 7.0.10} date Tue May 28 16:21:49 2024
; FORMAT={-:-/ absolute / inch / decimal}
; #@! TF.CreationDate,2024-05-28T16:21:49+05:30
; #@! TF.GenerationSoftware,Kicad,Pcbnew,7.0.10
; #@! TF.FileFunction,Plated,1,2,PTH
FMAT,2
INCH
; #@! TA.AperFunction,Plated,PTH,ComponentDrill
T1C0.0079
; #@! TA.AperFunction,Plated,PTH,ViaDrill
T2C0.0157
; #@! TA.AperFunction,Plated,PTH,ComponentDrill
T3C0.0374
; #@! TA.AperFunction,Plated,PTH,ComponentDrill
T4C0.0598
%
G90
G05
T1
X5.2943Y-2.0444
X5.2943Y-2.0995
X5.3219Y-2.0168
X5.3219Y-2.0719
X5.3219Y-2.1271
X5.3485Y-2.0444
X5.3485Y-2.0995
X5.377Y-2.0168
X5.377Y-2.0719
X5.377Y-2.1271
X5.4046Y-2.0444
X5.4046Y-2.0995
T2
X2.9039Y-1.765
X4.6252Y-1.9756
X4.6252Y-1.9756
X5.0709Y-2.5866
X5.0787Y-3.2559
X5.1163Y-1.4138
X5.1181Y-3.122
X5.1575Y-2.9291
X5.1804Y-1.2339
X5.192Y-2.416
X5.248Y-2.3504
X5.2874Y-3.0079
X5.2874Y-3.2362
X5.2913Y-1.9409
X5.2953Y-3.1339
X5.4764Y-1.9409
X5.5Y-2.6024
X5.5787Y-2.3661
X5.7402Y-3.063
X5.8228Y-1.9016
X5.8622Y-2.4016
X5.8661Y-2.8622
X5.8701Y-2.0906
X5.8976Y-2.6693
X5.937Y-1.8504
X5.9764Y-2.9409
X5.9843Y-2.0945
X6.0Y-1.8976
X6.0079Y-2.311
X6.0276Y-2.4803
X6.0283Y-2.813
X6.0472Y-2.3898
X6.0512Y-2.8622
X6.0945Y-2.9016
X6.1299Y-2.4016
X6.1512Y-2.7346
X6.1566Y-2.7873
X6.1575Y-3.0709
X6.2165Y-3.2559
X6.2327Y-2.8613
X6.2402Y-2.5827
X6.2495Y-3.1614
X6.252Y-1.8228
X6.273Y-2.8613
X6.2992Y-3.0079
X6.3228Y-2.1969
X6.3661Y-2.0433
X6.3888Y-2.7638
X6.4528Y-2.7283
X6.4724Y-2.5709
X6.4764Y-2.6417
X6.4803Y-2.7992
X6.5236Y-2.122
X6.563Y-2.9055
X6.563Y-3.0748
X6.5945Y-2.7087
X6.6378Y-2.437
X6.6417Y-2.5551
X6.6457Y-2.8228
X6.6535Y-2.9606
X6.7008Y-3.0551
X6.7866Y-1.9114
X6.7913Y-2.3937
X6.7913Y-2.8819
X7.0098Y-1.9154
T3
X6.8898Y-1.5945
X6.8898Y-1.6929
X6.8898Y-1.7913
X6.8898Y-1.8898
X6.8898Y-1.9882
X6.8898Y-2.0866
X6.8898Y-2.185
X6.8937Y-2.5866
X6.8937Y-2.685
X6.8937Y-2.7835
X6.8937Y-2.9803
X6.8937Y-3.0787
X6.8937Y-3.1772
T4
X6.1441Y-3.5118
X6.3441Y-3.5118
T3
G00X6.8937Y-2.8819
M15
G01X6.8937Y-2.8819
M16
G05
M30
