%TF.GenerationSoftware,KiCad,Pcbnew,7.0.10*%
%TF.CreationDate,2024-05-28T16:22:07+05:30*%
%TF.ProjectId,pro1,70726f31-2e6b-4696-9361-645f70636258,rev?*%
%TF.SameCoordinates,Original*%
%TF.FileFunction,Copper,L1,Top*%
%TF.FilePolarity,Positive*%
%FSLAX46Y46*%
G04 Gerber Fmt 4.6, Leading zero omitted, Abs format (unit mm)*
G04 Created by KiCad (PCBNEW 7.0.10) date 2024-05-28 16:22:07*
%MOMM*%
%LPD*%
G01*
G04 APERTURE LIST*
G04 Aperture macros list*
%AMRoundRect*
0 Rectangle with rounded corners*
0 $1 Rounding radius*
0 $2 $3 $4 $5 $6 $7 $8 $9 X,Y pos of 4 corners*
0 Add a 4 corners polygon primitive as box body*
4,1,4,$2,$3,$4,$5,$6,$7,$8,$9,$2,$3,0*
0 Add four circle primitives for the rounded corners*
1,1,$1+$1,$2,$3*
1,1,$1+$1,$4,$5*
1,1,$1+$1,$6,$7*
1,1,$1+$1,$8,$9*
0 Add four rect primitives between the rounded corners*
20,1,$1+$1,$2,$3,$4,$5,0*
20,1,$1+$1,$4,$5,$6,$7,0*
20,1,$1+$1,$6,$7,$8,$9,0*
20,1,$1+$1,$8,$9,$2,$3,0*%
G04 Aperture macros list end*
%TA.AperFunction,ComponentPad*%
%ADD10RoundRect,0.250000X0.725000X-0.600000X0.725000X0.600000X-0.725000X0.600000X-0.725000X-0.600000X0*%
%TD*%
%TA.AperFunction,ComponentPad*%
%ADD11O,1.950000X1.700000*%
%TD*%
%TA.AperFunction,ComponentPad*%
%ADD12R,3.000000X3.000000*%
%TD*%
%TA.AperFunction,ComponentPad*%
%ADD13C,3.000000*%
%TD*%
%TA.AperFunction,SMDPad,CuDef*%
%ADD14RoundRect,0.250000X-0.400000X-0.625000X0.400000X-0.625000X0.400000X0.625000X-0.400000X0.625000X0*%
%TD*%
%TA.AperFunction,SMDPad,CuDef*%
%ADD15RoundRect,0.250001X0.624999X-0.462499X0.624999X0.462499X-0.624999X0.462499X-0.624999X-0.462499X0*%
%TD*%
%TA.AperFunction,SMDPad,CuDef*%
%ADD16RoundRect,0.250000X-0.412500X-0.650000X0.412500X-0.650000X0.412500X0.650000X-0.412500X0.650000X0*%
%TD*%
%TA.AperFunction,SMDPad,CuDef*%
%ADD17RoundRect,0.250001X-0.462499X-0.624999X0.462499X-0.624999X0.462499X0.624999X-0.462499X0.624999X0*%
%TD*%
%TA.AperFunction,SMDPad,CuDef*%
%ADD18R,1.500000X0.900000*%
%TD*%
%TA.AperFunction,SMDPad,CuDef*%
%ADD19R,0.900000X1.500000*%
%TD*%
%TA.AperFunction,SMDPad,CuDef*%
%ADD20R,0.900000X0.900000*%
%TD*%
%TA.AperFunction,HeatsinkPad*%
%ADD21C,0.600000*%
%TD*%
%TA.AperFunction,SMDPad,CuDef*%
%ADD22R,3.800000X3.800000*%
%TD*%
%TA.AperFunction,SMDPad,CuDef*%
%ADD23RoundRect,0.250000X0.400000X0.625000X-0.400000X0.625000X-0.400000X-0.625000X0.400000X-0.625000X0*%
%TD*%
%TA.AperFunction,SMDPad,CuDef*%
%ADD24RoundRect,0.250000X2.050000X0.300000X-2.050000X0.300000X-2.050000X-0.300000X2.050000X-0.300000X0*%
%TD*%
%TA.AperFunction,SMDPad,CuDef*%
%ADD25RoundRect,0.250000X2.025000X2.375000X-2.025000X2.375000X-2.025000X-2.375000X2.025000X-2.375000X0*%
%TD*%
%TA.AperFunction,SMDPad,CuDef*%
%ADD26RoundRect,0.250002X4.449998X5.149998X-4.449998X5.149998X-4.449998X-5.149998X4.449998X-5.149998X0*%
%TD*%
%TA.AperFunction,ViaPad*%
%ADD27C,0.800000*%
%TD*%
%TA.AperFunction,Conductor*%
%ADD28C,0.250000*%
%TD*%
G04 APERTURE END LIST*
D10*
%TO.P,J3,1,Pin_1*%
%TO.N,+5V*%
X175100000Y-80700000D03*
D11*
%TO.P,J3,2,Pin_2*%
%TO.N,+3.3V*%
X175100000Y-78200000D03*
%TO.P,J3,3,Pin_3*%
%TO.N,/OUT*%
X175100000Y-75700000D03*
%TO.P,J3,4,Pin_4*%
%TO.N,GND*%
X175100000Y-73200000D03*
%TO.P,J3,5,Pin_5*%
%TO.N,/SDA*%
X175100000Y-70700000D03*
%TO.P,J3,6,Pin_6*%
%TO.N,/SCL*%
X175100000Y-68200000D03*
%TO.P,J3,7,Pin_7*%
%TO.N,/DIR*%
X175100000Y-65700000D03*
%TD*%
D12*
%TO.P,J5,1,Pin_1*%
%TO.N,+24V*%
X156060000Y-89200000D03*
D13*
%TO.P,J5,2,Pin_2*%
%TO.N,GND*%
X161140000Y-89200000D03*
%TD*%
D14*
%TO.P,R1,1*%
%TO.N,+3.3V*%
X154700000Y-52100000D03*
%TO.P,R1,2*%
%TO.N,GND*%
X157800000Y-52100000D03*
%TD*%
D11*
%TO.P,J2,7,Pin_7*%
%TO.N,/TX*%
X175000000Y-40500000D03*
%TO.P,J2,6,Pin_6*%
%TO.N,/RX*%
X175000000Y-43000000D03*
%TO.P,J2,5,Pin_5*%
%TO.N,GND*%
X175000000Y-45500000D03*
%TO.P,J2,4,Pin_4*%
%TO.N,+3.3V*%
X175000000Y-48000000D03*
%TO.P,J2,3,Pin_3*%
%TO.N,/IO0*%
X175000000Y-50500000D03*
%TO.P,J2,2,Pin_2*%
%TO.N,+3.3V*%
X175000000Y-53000000D03*
D10*
%TO.P,J2,1,Pin_1*%
%TO.N,unconnected-(J2-Pin_1-Pad1)*%
X175000000Y-55500000D03*
%TD*%
D15*
%TO.P,D3,1,K*%
%TO.N,+5V*%
X148700000Y-78700000D03*
%TO.P,D3,2,A*%
%TO.N,Net-(D3-A)*%
X148700000Y-75725000D03*
%TD*%
D16*
%TO.P,C3,2*%
%TO.N,GND*%
X157800000Y-48700000D03*
%TO.P,C3,1*%
%TO.N,+3.3V*%
X154675000Y-48700000D03*
%TD*%
%TO.P,C1,1*%
%TO.N,+3.3V*%
X154775000Y-55600000D03*
%TO.P,C1,2*%
%TO.N,GND*%
X157900000Y-55600000D03*
%TD*%
D17*
%TO.P,D1,1,K*%
%TO.N,GND*%
X148825000Y-70000000D03*
%TO.P,D1,2,A*%
%TO.N,Net-(D1-A)*%
X151800000Y-70000000D03*
%TD*%
D14*
%TO.P,R3,1*%
%TO.N,+3.3V*%
X155100000Y-62900000D03*
%TO.P,R3,2*%
%TO.N,Net-(D1-A)*%
X158200000Y-62900000D03*
%TD*%
D16*
%TO.P,C2,2*%
%TO.N,GND*%
X157800000Y-45600000D03*
%TO.P,C2,1*%
%TO.N,+3.3V*%
X154675000Y-45600000D03*
%TD*%
D18*
%TO.P,U1,1,GND*%
%TO.N,GND*%
X128626200Y-44907200D03*
%TO.P,U1,2,VDD*%
%TO.N,+3.3V*%
X128626200Y-46177200D03*
%TO.P,U1,3,EN*%
X128626200Y-47447200D03*
%TO.P,U1,4,SENSOR_VP*%
%TO.N,unconnected-(U1-SENSOR_VP-Pad4)*%
X128626200Y-48717200D03*
%TO.P,U1,5,SENSOR_VN*%
%TO.N,unconnected-(U1-SENSOR_VN-Pad5)*%
X128626200Y-49987200D03*
%TO.P,U1,6,IO34*%
%TO.N,unconnected-(U1-IO34-Pad6)*%
X128626200Y-51257200D03*
%TO.P,U1,7,IO35*%
%TO.N,unconnected-(U1-IO35-Pad7)*%
X128626200Y-52527200D03*
%TO.P,U1,8,IO32*%
%TO.N,unconnected-(U1-IO32-Pad8)*%
X128626200Y-53797200D03*
%TO.P,U1,9,IO33*%
%TO.N,unconnected-(U1-IO33-Pad9)*%
X128626200Y-55067200D03*
%TO.P,U1,10,IO25*%
%TO.N,unconnected-(U1-IO25-Pad10)*%
X128626200Y-56337200D03*
%TO.P,U1,11,IO26*%
%TO.N,unconnected-(U1-IO26-Pad11)*%
X128626200Y-57607200D03*
%TO.P,U1,12,IO27*%
%TO.N,/DIR*%
X128626200Y-58877200D03*
%TO.P,U1,13,IO14*%
%TO.N,unconnected-(U1-IO14-Pad13)*%
X128626200Y-60147200D03*
%TO.P,U1,14,IO12*%
%TO.N,unconnected-(U1-IO12-Pad14)*%
X128626200Y-61417200D03*
D19*
%TO.P,U1,15,GND*%
%TO.N,GND*%
X131666200Y-62667200D03*
%TO.P,U1,16,IO13*%
%TO.N,unconnected-(U1-IO13-Pad16)*%
X132936200Y-62667200D03*
%TO.P,U1,17,SHD/SD2*%
%TO.N,unconnected-(U1-SHD{slash}SD2-Pad17)*%
X134206200Y-62667200D03*
%TO.P,U1,18,SWP/SD3*%
%TO.N,unconnected-(U1-SWP{slash}SD3-Pad18)*%
X135476200Y-62667200D03*
%TO.P,U1,19,SCS/CMD*%
%TO.N,unconnected-(U1-SCS{slash}CMD-Pad19)*%
X136746200Y-62667200D03*
%TO.P,U1,20,SCK/CLK*%
%TO.N,unconnected-(U1-SCK{slash}CLK-Pad20)*%
X138016200Y-62667200D03*
%TO.P,U1,21,SDO/SD0*%
%TO.N,unconnected-(U1-SDO{slash}SD0-Pad21)*%
X139286200Y-62667200D03*
%TO.P,U1,22,SDI/SD1*%
%TO.N,unconnected-(U1-SDI{slash}SD1-Pad22)*%
X140556200Y-62667200D03*
%TO.P,U1,23,IO15*%
%TO.N,unconnected-(U1-IO15-Pad23)*%
X141826200Y-62667200D03*
%TO.P,U1,24,IO2*%
%TO.N,unconnected-(U1-IO2-Pad24)*%
X143096200Y-62667200D03*
D18*
%TO.P,U1,25,IO0*%
%TO.N,/IO0*%
X146126200Y-61417200D03*
%TO.P,U1,26,IO4*%
%TO.N,unconnected-(U1-IO4-Pad26)*%
X146126200Y-60147200D03*
%TO.P,U1,27,IO16*%
%TO.N,unconnected-(U1-IO16-Pad27)*%
X146126200Y-58877200D03*
%TO.P,U1,28,IO17*%
%TO.N,unconnected-(U1-IO17-Pad28)*%
X146126200Y-57607200D03*
%TO.P,U1,29,IO5*%
%TO.N,unconnected-(U1-IO5-Pad29)*%
X146126200Y-56337200D03*
%TO.P,U1,30,IO18*%
%TO.N,unconnected-(U1-IO18-Pad30)*%
X146126200Y-55067200D03*
%TO.P,U1,31,IO19*%
%TO.N,unconnected-(U1-IO19-Pad31)*%
X146126200Y-53797200D03*
%TO.P,U1,32,NC*%
%TO.N,unconnected-(U1-NC-Pad32)*%
X146126200Y-52527200D03*
%TO.P,U1,33,IO21*%
%TO.N,/SDA*%
X146126200Y-51257200D03*
%TO.P,U1,34,RXD0/IO3*%
%TO.N,/RX*%
X146126200Y-49987200D03*
%TO.P,U1,35,TXD0/IO1*%
%TO.N,/TX*%
X146126200Y-48717200D03*
%TO.P,U1,36,IO22*%
%TO.N,/SCL*%
X146126200Y-47447200D03*
%TO.P,U1,37,IO23*%
%TO.N,/PWM*%
X146126200Y-46177200D03*
%TO.P,U1,38,GND*%
%TO.N,GND*%
X146126200Y-44907200D03*
D20*
%TO.P,U1,39,GND*%
X134476200Y-51227200D03*
D21*
X134476200Y-51927200D03*
D20*
X134476200Y-52627200D03*
D21*
X134476200Y-53327200D03*
D20*
X134476200Y-54027200D03*
D21*
X135176200Y-51227200D03*
X135176200Y-52627200D03*
X135176200Y-54027200D03*
X135851200Y-51927200D03*
X135851200Y-53327200D03*
D20*
X135876200Y-51227200D03*
X135876200Y-52627200D03*
D22*
X135876200Y-52627200D03*
D20*
X135876200Y-54027200D03*
D21*
X136576200Y-51227200D03*
X136576200Y-52627200D03*
X136576200Y-54027200D03*
D20*
X137276200Y-51227200D03*
D21*
X137276200Y-51927200D03*
D20*
X137276200Y-52627200D03*
D21*
X137276200Y-53327200D03*
D20*
X137276200Y-54027200D03*
%TD*%
D23*
%TO.P,R2,1*%
%TO.N,/IO0*%
X158200000Y-59200000D03*
%TO.P,R2,2*%
%TO.N,+3.3V*%
X155100000Y-59200000D03*
%TD*%
D24*
%TO.P,U3,1,VI*%
%TO.N,Net-(D2-K)*%
X141875000Y-80940000D03*
D25*
%TO.P,U3,2,GND*%
%TO.N,GND*%
X135150000Y-81175000D03*
X135150000Y-75625000D03*
D26*
X132725000Y-78400000D03*
D25*
X130300000Y-81175000D03*
X130300000Y-75625000D03*
D24*
%TO.P,U3,3,VO*%
%TO.N,Net-(D3-A)*%
X141875000Y-75860000D03*
%TD*%
D27*
%TO.N,GND*%
X156240000Y-69460000D03*
X153120000Y-71450000D03*
%TO.N,*%
X73760000Y-44830000D03*
X129953400Y-35910600D03*
X131583400Y-31340600D03*
X117480000Y-50180000D03*
X117480000Y-50180000D03*
%TO.N,GND*%
X178050000Y-48650000D03*
X172380000Y-48550000D03*
X131876800Y-61366400D03*
X152600000Y-58700000D03*
X145800000Y-77800000D03*
X156400000Y-78000000D03*
X166700000Y-73800000D03*
X166700000Y-78100000D03*
X151800000Y-74700000D03*
X158800000Y-46300000D03*
%TO.N,/DIR*%
X158309520Y-72675786D03*
X153700000Y-72700000D03*
X149000000Y-72700000D03*
X163900000Y-69300000D03*
X164500000Y-67100000D03*
%TO.N,/OUT*%
X170200000Y-77600000D03*
X159334798Y-72675815D03*
X156377347Y-70797347D03*
%TO.N,GND*%
X169000000Y-75200000D03*
X172500000Y-73200000D03*
%TO.N,+3.3V*%
X168800000Y-71700000D03*
X167500000Y-68800000D03*
X153100000Y-63000000D03*
X139700000Y-66100000D03*
X160600000Y-55800000D03*
%TO.N,+5V*%
X158500000Y-65600000D03*
X154800000Y-73700000D03*
X165700000Y-53900000D03*
%TO.N,Net-(D2-K)*%
X164400000Y-65300000D03*
X160000000Y-76400000D03*
X158737500Y-80300000D03*
%TO.N,Net-(D3-A)*%
X149800000Y-67800000D03*
%TO.N,/IO0*%
X153600000Y-60700000D03*
X155700000Y-61000000D03*
%TO.N,/RX*%
X152400000Y-48200000D03*
%TO.N,/TX*%
X150800000Y-47000000D03*
%TO.N,/SDA*%
X164600000Y-71100000D03*
X162275000Y-70200000D03*
X149100000Y-53100000D03*
%TO.N,/SCL*%
X147900000Y-48300000D03*
%TO.N,+24V*%
X157900000Y-82700000D03*
%TO.N,GND*%
X128800000Y-65700000D03*
X172500000Y-60800000D03*
X134300000Y-82200000D03*
X168700000Y-64900000D03*
X161700000Y-51900000D03*
X148900000Y-61000000D03*
X168600000Y-61900000D03*
X134500000Y-79600000D03*
X134400000Y-49300000D03*
X133300000Y-59700000D03*
X152000000Y-53200000D03*
X129000000Y-82700000D03*
X131000000Y-74400000D03*
X141700000Y-60100000D03*
X130000000Y-79300000D03*
X139100000Y-49300000D03*
X134300000Y-76400000D03*
%TD*%
D28*
%TO.N,+5V*%
X165700000Y-54440000D02*
X165700000Y-53900000D01*
X159800000Y-60340000D02*
X165700000Y-54440000D01*
X159800000Y-65100000D02*
X159800000Y-60340000D01*
X159300000Y-65600000D02*
X159800000Y-65100000D01*
X158500000Y-65600000D02*
X159300000Y-65600000D01*
%TO.N,/SDA*%
X146399000Y-51530000D02*
X146126200Y-51257200D01*
X149100000Y-52730000D02*
X147900000Y-51530000D01*
X147900000Y-51530000D02*
X146399000Y-51530000D01*
X149100000Y-53100000D02*
X149100000Y-52730000D01*
%TO.N,Net-(D3-A)*%
X149950000Y-74475000D02*
X148700000Y-75725000D01*
X149950000Y-67950000D02*
X149950000Y-74475000D01*
X149800000Y-67800000D02*
X149950000Y-67950000D01*
%TO.N,+3.3V*%
X154775000Y-55600000D02*
X156195000Y-54180000D01*
X156195000Y-54180000D02*
X158980000Y-54180000D01*
X158980000Y-54180000D02*
X160600000Y-55800000D01*
X130891200Y-65191200D02*
X130891200Y-48712200D01*
X131800000Y-66100000D02*
X130891200Y-65191200D01*
X130891200Y-48712200D02*
X129626200Y-47447200D01*
X139700000Y-66100000D02*
X131800000Y-66100000D01*
X129626200Y-47447200D02*
X128626200Y-47447200D01*
%TO.N,/OUT*%
X156110000Y-71064694D02*
X156377347Y-70797347D01*
X156393908Y-71950786D02*
X156110000Y-71666878D01*
X158609769Y-71950786D02*
X156393908Y-71950786D01*
X159334798Y-72675815D02*
X158609769Y-71950786D01*
X156110000Y-71666878D02*
X156110000Y-71064694D01*
%TO.N,/DIR*%
X158085306Y-72900000D02*
X153900000Y-72900000D01*
X158309520Y-72675786D02*
X158085306Y-72900000D01*
X153900000Y-72900000D02*
X153700000Y-72700000D01*
%TO.N,+3.3V*%
X168080000Y-69380000D02*
X167500000Y-68800000D01*
X168080000Y-70980000D02*
X168080000Y-69380000D01*
X168800000Y-71700000D02*
X168080000Y-70980000D01*
%TO.N,/DIR*%
X147600000Y-71300000D02*
X149000000Y-72700000D01*
X131900000Y-71400000D02*
X135945100Y-71400000D01*
X129910000Y-69410000D02*
X131900000Y-71400000D01*
X135945100Y-71400000D02*
X136045100Y-71300000D01*
X129910000Y-59581000D02*
X129910000Y-69410000D01*
X129206200Y-58877200D02*
X129910000Y-59581000D01*
X136045100Y-71300000D02*
X147600000Y-71300000D01*
%TO.N,/RX*%
X146330000Y-49650000D02*
X150950000Y-49650000D01*
X152400000Y-48200000D02*
X150950000Y-49650000D01*
%TO.N,/TX*%
X148516800Y-49025000D02*
X146434000Y-49025000D01*
X148645900Y-49154100D02*
X148516800Y-49025000D01*
X148645900Y-49154100D02*
X150800000Y-47000000D01*
%TO.N,/SCL*%
X147820000Y-48380000D02*
X147900000Y-48300000D01*
X146887200Y-47447200D02*
X147820000Y-48380000D01*
X146126200Y-47447200D02*
X146887200Y-47447200D01*
%TO.N,+3.3V*%
X128626200Y-47447200D02*
X128626200Y-46177200D01*
%TO.N,/IO0*%
X146880000Y-62400000D02*
X146130000Y-61650000D01*
X150200000Y-62400000D02*
X146880000Y-62400000D01*
X150250000Y-62350000D02*
X150200000Y-62400000D01*
%TO.N,+24V*%
X156060000Y-87740000D02*
X157900000Y-85900000D01*
X157900000Y-85900000D02*
X157900000Y-82700000D01*
X156060000Y-89200000D02*
X156060000Y-87740000D01*
%TO.N,Net-(D1-A)*%
X156400000Y-64700000D02*
X158200000Y-62900000D01*
X153800000Y-64700000D02*
X156400000Y-64700000D01*
X151375000Y-67125000D02*
X153800000Y-64700000D01*
X151375000Y-70100000D02*
X151375000Y-67125000D01*
%TO.N,/OUT*%
X170800000Y-75700000D02*
X175100000Y-75700000D01*
X170200000Y-76300000D02*
X170800000Y-75700000D01*
X170200000Y-77600000D02*
X170200000Y-76300000D01*
%TO.N,Net-(D2-K)*%
X158437500Y-80000000D02*
X158737500Y-80300000D01*
X142815000Y-80000000D02*
X158437500Y-80000000D01*
X141875000Y-80940000D02*
X142815000Y-80000000D01*
%TO.N,/DIR*%
X164200000Y-67400000D02*
X164500000Y-67100000D01*
X164200000Y-69000000D02*
X164200000Y-67400000D01*
X163900000Y-69300000D02*
X164200000Y-69000000D01*
%TO.N,/IO0*%
X151900000Y-60700000D02*
X150250000Y-62350000D01*
X153600000Y-60700000D02*
X151900000Y-60700000D01*
%TO.N,Net-(D2-K)*%
X161800000Y-74600000D02*
X160000000Y-76400000D01*
X161400000Y-70400000D02*
X161800000Y-70800000D01*
X161400000Y-66200000D02*
X161400000Y-70400000D01*
X162300000Y-65300000D02*
X161400000Y-66200000D01*
X161800000Y-70800000D02*
X161800000Y-74600000D01*
X164400000Y-65300000D02*
X162300000Y-65300000D01*
%TO.N,/SDA*%
X162275000Y-70200000D02*
X162475000Y-70400000D01*
X162475000Y-70400000D02*
X163900000Y-70400000D01*
X163900000Y-70400000D02*
X164600000Y-71100000D01*
%TO.N,+3.3V*%
X176800000Y-49800000D02*
X176800000Y-53000000D01*
X175000000Y-48000000D02*
X176800000Y-49800000D01*
%TO.N,+5V*%
X154800000Y-76600000D02*
X154800000Y-73700000D01*
X152700000Y-78700000D02*
X154800000Y-76600000D01*
X148700000Y-78700000D02*
X152700000Y-78700000D01*
%TO.N,+3.3V*%
X154775000Y-55600000D02*
X154775000Y-58875000D01*
X154775000Y-55600000D02*
X154775000Y-52175000D01*
X177800000Y-54000000D02*
X177800000Y-76700000D01*
X175000000Y-53000000D02*
X176800000Y-53000000D01*
X176800000Y-53000000D02*
X177800000Y-54000000D01*
X153100000Y-63000000D02*
X155000000Y-63000000D01*
X177800000Y-76700000D02*
X176300000Y-78200000D01*
X176300000Y-78200000D02*
X175100000Y-78200000D01*
X154675000Y-45600000D02*
X154675000Y-48700000D01*
X154700000Y-52100000D02*
X154700000Y-48725000D01*
X154600000Y-62400000D02*
X154600000Y-59700000D01*
%TO.N,Net-(D3-A)*%
X148700000Y-75725000D02*
X142010000Y-75725000D01*
%TO.N,/IO0*%
X158200000Y-60400000D02*
X158200000Y-59200000D01*
X157600000Y-61000000D02*
X158200000Y-60400000D01*
X163500000Y-50500000D02*
X175000000Y-50500000D01*
X163300000Y-56100000D02*
X163300000Y-50700000D01*
X160200000Y-59200000D02*
X163300000Y-56100000D01*
X158200000Y-59200000D02*
X160200000Y-59200000D01*
X155700000Y-61000000D02*
X157600000Y-61000000D01*
X163300000Y-50700000D02*
X163500000Y-50500000D01*
%TD*%
%TA.AperFunction,Conductor*%
%TO.N,GND*%
G36*
X153442711Y-48363322D02*
G01*
X153494187Y-48410566D01*
X153512000Y-48474600D01*
X153512000Y-49400001D01*
X153512001Y-49400018D01*
X153522500Y-49502796D01*
X153522501Y-49502799D01*
X153564187Y-49628597D01*
X153577686Y-49669334D01*
X153669788Y-49818656D01*
X153793844Y-49942712D01*
X153942427Y-50034358D01*
X153943168Y-50034815D01*
X153947463Y-50036238D01*
X153989502Y-50050168D01*
X154046947Y-50089938D01*
X154073772Y-50154453D01*
X154074500Y-50167874D01*
X154074500Y-50669551D01*
X154054815Y-50736590D01*
X154002011Y-50782345D01*
X153989507Y-50787256D01*
X153980667Y-50790185D01*
X153831342Y-50882289D01*
X153707289Y-51006342D01*
X153615187Y-51155663D01*
X153615185Y-51155668D01*
X153615115Y-51155880D01*
X153560001Y-51322203D01*
X153560001Y-51322204D01*
X153560000Y-51322204D01*
X153549500Y-51424983D01*
X153549500Y-52775001D01*
X153549501Y-52775018D01*
X153560000Y-52877796D01*
X153560001Y-52877799D01*
X153613370Y-53038855D01*
X153615186Y-53044334D01*
X153707288Y-53193656D01*
X153831344Y-53317712D01*
X153980666Y-53409814D01*
X154064505Y-53437595D01*
X154121948Y-53477366D01*
X154148772Y-53541882D01*
X154149500Y-53555300D01*
X154149500Y-54140409D01*
X154129815Y-54207448D01*
X154077011Y-54253203D01*
X154064506Y-54258114D01*
X154043168Y-54265184D01*
X153893842Y-54357289D01*
X153769789Y-54481342D01*
X153677687Y-54630663D01*
X153677685Y-54630668D01*
X153676389Y-54634579D01*
X153622501Y-54797203D01*
X153622501Y-54797204D01*
X153622500Y-54797204D01*
X153612000Y-54899983D01*
X153612000Y-56300001D01*
X153612001Y-56300018D01*
X153622500Y-56402796D01*
X153622501Y-56402799D01*
X153627981Y-56419336D01*
X153677686Y-56569334D01*
X153769788Y-56718656D01*
X153893844Y-56842712D01*
X154043166Y-56934814D01*
X154064501Y-56941883D01*
X154121946Y-56981653D01*
X154148771Y-57046167D01*
X154149500Y-57059590D01*
X154149500Y-58012770D01*
X154129815Y-58079809D01*
X154113181Y-58100451D01*
X154107289Y-58106342D01*
X154015187Y-58255663D01*
X154015185Y-58255668D01*
X153993961Y-58319718D01*
X153960001Y-58422203D01*
X153960001Y-58422204D01*
X153960000Y-58422204D01*
X153949500Y-58524983D01*
X153949500Y-59700543D01*
X153929815Y-59767582D01*
X153877011Y-59813337D01*
X153807853Y-59823281D01*
X153799720Y-59821834D01*
X153694646Y-59799500D01*
X153505354Y-59799500D01*
X153472897Y-59806398D01*
X153320197Y-59838855D01*
X153320192Y-59838857D01*
X153147270Y-59915848D01*
X153147265Y-59915851D01*
X152994130Y-60027110D01*
X152994126Y-60027114D01*
X152988400Y-60033474D01*
X152928913Y-60070121D01*
X152896252Y-60074500D01*
X151982737Y-60074500D01*
X151967120Y-60072776D01*
X151967093Y-60073062D01*
X151959331Y-60072327D01*
X151892144Y-60074439D01*
X151888250Y-60074500D01*
X151860650Y-60074500D01*
X151856962Y-60074965D01*
X151856649Y-60075005D01*
X151845031Y-60075918D01*
X151801372Y-60077290D01*
X151801369Y-60077291D01*
X151782126Y-60082881D01*
X151763083Y-60086825D01*
X151743204Y-60089336D01*
X151743203Y-60089337D01*
X151702593Y-60105415D01*
X151691548Y-60109197D01*
X151649608Y-60121383D01*
X151649604Y-60121385D01*
X151632365Y-60131580D01*
X151614898Y-60140137D01*
X151596269Y-60147512D01*
X151596267Y-60147514D01*
X151560926Y-60173189D01*
X151551168Y-60179599D01*
X151513580Y-60201828D01*
X151499408Y-60216000D01*
X151484623Y-60228628D01*
X151468412Y-60240407D01*
X151440571Y-60274059D01*
X151432711Y-60282696D01*
X149977228Y-61738181D01*
X149915905Y-61771666D01*
X149889547Y-61774500D01*
X147500700Y-61774500D01*
X147433661Y-61754815D01*
X147387906Y-61702011D01*
X147376700Y-61650500D01*
X147376699Y-60919329D01*
X147376698Y-60919323D01*
X147376697Y-60919316D01*
X147370291Y-60859717D01*
X147357540Y-60825532D01*
X147352557Y-60755842D01*
X147357540Y-60738869D01*
X147370291Y-60704683D01*
X147376700Y-60645073D01*
X147376699Y-59649328D01*
X147370291Y-59589717D01*
X147357540Y-59555532D01*
X147352557Y-59485842D01*
X147357540Y-59468869D01*
X147370291Y-59434683D01*
X147376700Y-59375073D01*
X147376699Y-58379328D01*
X147370291Y-58319717D01*
X147357540Y-58285532D01*
X147352557Y-58215842D01*
X147357540Y-58198869D01*
X147370291Y-58164683D01*
X147376700Y-58105073D01*
X147376699Y-57109328D01*
X147370291Y-57049717D01*
X147357540Y-57015532D01*
X147352557Y-56945842D01*
X147357540Y-56928869D01*
X147370291Y-56894683D01*
X147376700Y-56835073D01*
X147376699Y-55839328D01*
X147370291Y-55779717D01*
X147357540Y-55745532D01*
X147352557Y-55675842D01*
X147357540Y-55658869D01*
X147370291Y-55624683D01*
X147376700Y-55565073D01*
X147376699Y-54569328D01*
X147370291Y-54509717D01*
X147357540Y-54475532D01*
X147352557Y-54405842D01*
X147357540Y-54388869D01*
X147370291Y-54354683D01*
X147376700Y-54295073D01*
X147376699Y-53299328D01*
X147370291Y-53239717D01*
X147357540Y-53205532D01*
X147352557Y-53135842D01*
X147357540Y-53118869D01*
X147370291Y-53084683D01*
X147376700Y-53025073D01*
X147376699Y-52279499D01*
X147396383Y-52212461D01*
X147449187Y-52166706D01*
X147500699Y-52155500D01*
X147589548Y-52155500D01*
X147656587Y-52175185D01*
X147677229Y-52191819D01*
X148205431Y-52720021D01*
X148238916Y-52781344D01*
X148235681Y-52846019D01*
X148214326Y-52911744D01*
X148194540Y-53100000D01*
X148214326Y-53288256D01*
X148214327Y-53288259D01*
X148272818Y-53468277D01*
X148272821Y-53468284D01*
X148367467Y-53632216D01*
X148457647Y-53732371D01*
X148494129Y-53772888D01*
X148647265Y-53884148D01*
X148647270Y-53884151D01*
X148820192Y-53961142D01*
X148820197Y-53961144D01*
X149005354Y-54000500D01*
X149005355Y-54000500D01*
X149194644Y-54000500D01*
X149194646Y-54000500D01*
X149379803Y-53961144D01*
X149552730Y-53884151D01*
X149705871Y-53772888D01*
X149832533Y-53632216D01*
X149927179Y-53468284D01*
X149985674Y-53288256D01*
X150005460Y-53100000D01*
X149985674Y-52911744D01*
X149927179Y-52731716D01*
X149832533Y-52567784D01*
X149782922Y-52512686D01*
X149705876Y-52427116D01*
X149705871Y-52427112D01*
X149621835Y-52366055D01*
X149604003Y-52348777D01*
X149603686Y-52349095D01*
X149584005Y-52329414D01*
X149571368Y-52314619D01*
X149559594Y-52298413D01*
X149559591Y-52298411D01*
X149559591Y-52298410D01*
X149525945Y-52270576D01*
X149517304Y-52262713D01*
X148400803Y-51146212D01*
X148390980Y-51133950D01*
X148390759Y-51134134D01*
X148385786Y-51128122D01*
X148336776Y-51082099D01*
X148333977Y-51079386D01*
X148314477Y-51059885D01*
X148314471Y-51059880D01*
X148311286Y-51057409D01*
X148302434Y-51049848D01*
X148270582Y-51019938D01*
X148270580Y-51019936D01*
X148270577Y-51019935D01*
X148253029Y-51010288D01*
X148236763Y-50999604D01*
X148220932Y-50987324D01*
X148180849Y-50969978D01*
X148170363Y-50964841D01*
X148132094Y-50943803D01*
X148132092Y-50943802D01*
X148112693Y-50938822D01*
X148094281Y-50932518D01*
X148075898Y-50924562D01*
X148075892Y-50924560D01*
X148032760Y-50917729D01*
X148021322Y-50915361D01*
X147979020Y-50904500D01*
X147979019Y-50904500D01*
X147958984Y-50904500D01*
X147939586Y-50902973D01*
X147932162Y-50901797D01*
X147919805Y-50899840D01*
X147919804Y-50899840D01*
X147876325Y-50903950D01*
X147864656Y-50904500D01*
X147500699Y-50904500D01*
X147433660Y-50884815D01*
X147387905Y-50832011D01*
X147376699Y-50780500D01*
X147376699Y-50759329D01*
X147376698Y-50759323D01*
X147376697Y-50759316D01*
X147370291Y-50699717D01*
X147357540Y-50665532D01*
X147352557Y-50595842D01*
X147357540Y-50578869D01*
X147370291Y-50544683D01*
X147376700Y-50485073D01*
X147376700Y-50399500D01*
X147396385Y-50332461D01*
X147449189Y-50286706D01*
X147500700Y-50275500D01*
X150867257Y-50275500D01*
X150882877Y-50277224D01*
X150882904Y-50276939D01*
X150890660Y-50277671D01*
X150890667Y-50277673D01*
X150957873Y-50275561D01*
X150961768Y-50275500D01*
X150989346Y-50275500D01*
X150989350Y-50275500D01*
X150993324Y-50274997D01*
X151004963Y-50274080D01*
X151048627Y-50272709D01*
X151067869Y-50267117D01*
X151086912Y-50263174D01*
X151106792Y-50260664D01*
X151147401Y-50244585D01*
X151158444Y-50240803D01*
X151200390Y-50228618D01*
X151217629Y-50218422D01*
X151235103Y-50209862D01*
X151253727Y-50202488D01*
X151253727Y-50202487D01*
X151253732Y-50202486D01*
X151289083Y-50176800D01*
X151298814Y-50170408D01*
X151336420Y-50148170D01*
X151350589Y-50133999D01*
X151365379Y-50121368D01*
X151381587Y-50109594D01*
X151409438Y-50075926D01*
X151417279Y-50067309D01*
X152347771Y-49136819D01*
X152409094Y-49103334D01*
X152435452Y-49100500D01*
X152494644Y-49100500D01*
X152494646Y-49100500D01*
X152679803Y-49061144D01*
X152852730Y-48984151D01*
X153005871Y-48872888D01*
X153132533Y-48732216D01*
X153227179Y-48568284D01*
X153270069Y-48436281D01*
X153309506Y-48378607D01*
X153373865Y-48351408D01*
X153442711Y-48363322D01*
G37*
%TD.AperFunction*%
%TA.AperFunction,Conductor*%
G36*
X179742539Y-27320185D02*
G01*
X179788294Y-27372989D01*
X179799500Y-27424500D01*
X179799500Y-93675731D01*
X179779815Y-93742770D01*
X179727011Y-93788525D01*
X179675731Y-93799731D01*
X126325105Y-93899265D01*
X126258029Y-93879705D01*
X126212176Y-93826987D01*
X126200875Y-93774893D01*
X126200972Y-93742770D01*
X126214614Y-89200000D01*
X126644495Y-89200000D01*
X126664505Y-89607311D01*
X126664505Y-89607316D01*
X126664506Y-89607320D01*
X126724341Y-90010695D01*
X126823430Y-90406279D01*
X126957190Y-90780116D01*
X126960814Y-90790243D01*
X127135172Y-91158891D01*
X127162874Y-91205109D01*
X127344822Y-91508672D01*
X127587755Y-91836229D01*
X127861613Y-92138386D01*
X127943109Y-92212249D01*
X128163776Y-92412249D01*
X128491325Y-92655176D01*
X128841109Y-92864828D01*
X129209757Y-93039186D01*
X129593721Y-93176570D01*
X129989301Y-93275658D01*
X130392689Y-93335495D01*
X130698121Y-93350500D01*
X130698135Y-93350500D01*
X130901865Y-93350500D01*
X130901879Y-93350500D01*
X131207311Y-93335495D01*
X131610699Y-93275658D01*
X132006279Y-93176570D01*
X132390243Y-93039186D01*
X132758891Y-92864828D01*
X133108675Y-92655176D01*
X133436224Y-92412249D01*
X133738386Y-92138386D01*
X134012249Y-91836224D01*
X134255176Y-91508675D01*
X134464828Y-91158891D01*
X134639186Y-90790243D01*
X134654347Y-90747870D01*
X154059500Y-90747870D01*
X154059501Y-90747876D01*
X154065908Y-90807483D01*
X154116202Y-90942328D01*
X154116206Y-90942335D01*
X154202452Y-91057544D01*
X154202455Y-91057547D01*
X154317664Y-91143793D01*
X154317671Y-91143797D01*
X154452517Y-91194091D01*
X154452516Y-91194091D01*
X154459444Y-91194835D01*
X154512127Y-91200500D01*
X157607872Y-91200499D01*
X157667483Y-91194091D01*
X157802331Y-91143796D01*
X157917546Y-91057546D01*
X158003796Y-90942331D01*
X158054091Y-90807483D01*
X158060500Y-90747873D01*
X158060500Y-89200001D01*
X159134891Y-89200001D01*
X159155300Y-89485362D01*
X159216109Y-89764895D01*
X159316091Y-90032958D01*
X159453191Y-90284038D01*
X159453196Y-90284046D01*
X159559882Y-90426561D01*
X159559883Y-90426562D01*
X160455195Y-89531250D01*
X160477340Y-89582587D01*
X160583433Y-89725094D01*
X160719530Y-89839294D01*
X160809216Y-89884335D01*
X159913436Y-90780115D01*
X160055960Y-90886807D01*
X160055961Y-90886808D01*
X160307042Y-91023908D01*
X160307041Y-91023908D01*
X160575104Y-91123890D01*
X160854637Y-91184699D01*
X161139999Y-91205109D01*
X161140001Y-91205109D01*
X161425362Y-91184699D01*
X161704895Y-91123890D01*
X161972958Y-91023908D01*
X162224047Y-90886803D01*
X162366561Y-90780116D01*
X162366562Y-90780115D01*
X161473748Y-89887300D01*
X161483409Y-89883784D01*
X161631844Y-89786157D01*
X161753764Y-89656930D01*
X161825768Y-89532215D01*
X162720115Y-90426562D01*
X162720116Y-90426561D01*
X162826803Y-90284047D01*
X162963908Y-90032958D01*
X163063890Y-89764895D01*
X163124699Y-89485362D01*
X163145109Y-89200001D01*
X163145109Y-89199998D01*
X163130804Y-89000000D01*
X170744495Y-89000000D01*
X170764505Y-89407311D01*
X170764505Y-89407316D01*
X170764506Y-89407320D01*
X170824341Y-89810695D01*
X170923430Y-90206279D01*
X170951252Y-90284038D01*
X171060814Y-90590243D01*
X171235172Y-90958891D01*
X171235174Y-90958894D01*
X171444822Y-91308672D01*
X171687755Y-91636229D01*
X171961613Y-91938386D01*
X172263770Y-92212244D01*
X172263776Y-92212249D01*
X172591325Y-92455176D01*
X172941109Y-92664828D01*
X173309757Y-92839186D01*
X173693721Y-92976570D01*
X174089301Y-93075658D01*
X174492689Y-93135495D01*
X174798121Y-93150500D01*
X174798135Y-93150500D01*
X175001865Y-93150500D01*
X175001879Y-93150500D01*
X175307311Y-93135495D01*
X175710699Y-93075658D01*
X176106279Y-92976570D01*
X176490243Y-92839186D01*
X176858891Y-92664828D01*
X177208675Y-92455176D01*
X177536224Y-92212249D01*
X177838386Y-91938386D01*
X178112249Y-91636224D01*
X178355176Y-91308675D01*
X178564828Y-90958891D01*
X178739186Y-90590243D01*
X178876570Y-90206279D01*
X178975658Y-89810699D01*
X179035495Y-89407311D01*
X179055505Y-89000000D01*
X179035495Y-88592689D01*
X178975658Y-88189301D01*
X178876570Y-87793721D01*
X178739186Y-87409757D01*
X178564828Y-87041109D01*
X178355176Y-86691325D01*
X178112249Y-86363776D01*
X178085252Y-86333989D01*
X177838386Y-86061613D01*
X177536229Y-85787755D01*
X177478343Y-85744824D01*
X177208675Y-85544824D01*
X176858891Y-85335172D01*
X176490243Y-85160814D01*
X176490241Y-85160813D01*
X176106279Y-85023430D01*
X175710695Y-84924341D01*
X175307320Y-84864506D01*
X175307316Y-84864505D01*
X175307311Y-84864505D01*
X175001879Y-84849500D01*
X174798121Y-84849500D01*
X174492689Y-84864505D01*
X174492683Y-84864505D01*
X174492679Y-84864506D01*
X174089304Y-84924341D01*
X173693720Y-85023430D01*
X173309758Y-85160813D01*
X173309756Y-85160814D01*
X172941105Y-85335174D01*
X172591327Y-85544822D01*
X172263770Y-85787755D01*
X171961613Y-86061613D01*
X171687755Y-86363770D01*
X171444822Y-86691327D01*
X171235174Y-87041105D01*
X171060814Y-87409756D01*
X171060813Y-87409758D01*
X170923430Y-87793720D01*
X170824341Y-88189304D01*
X170769249Y-88560706D01*
X170764505Y-88592689D01*
X170744495Y-89000000D01*
X163130804Y-89000000D01*
X163124699Y-88914637D01*
X163063890Y-88635104D01*
X162963908Y-88367041D01*
X162826808Y-88115961D01*
X162826807Y-88115960D01*
X162720115Y-87973436D01*
X161824803Y-88868747D01*
X161802660Y-88817413D01*
X161696567Y-88674906D01*
X161560470Y-88560706D01*
X161470782Y-88515663D01*
X162366562Y-87619883D01*
X162366561Y-87619882D01*
X162224046Y-87513196D01*
X162224038Y-87513191D01*
X161972957Y-87376091D01*
X161972958Y-87376091D01*
X161704895Y-87276109D01*
X161425362Y-87215300D01*
X161140001Y-87194891D01*
X161139999Y-87194891D01*
X160854637Y-87215300D01*
X160575104Y-87276109D01*
X160307041Y-87376091D01*
X160055961Y-87513191D01*
X160055953Y-87513196D01*
X159913437Y-87619882D01*
X159913436Y-87619883D01*
X160806252Y-88512699D01*
X160796591Y-88516216D01*
X160648156Y-88613843D01*
X160526236Y-88743070D01*
X160454231Y-88867784D01*
X159559883Y-87973436D01*
X159559882Y-87973437D01*
X159453196Y-88115953D01*
X159453191Y-88115961D01*
X159316091Y-88367041D01*
X159216109Y-88635104D01*
X159155300Y-88914637D01*
X159134891Y-89199998D01*
X159134891Y-89200001D01*
X158060500Y-89200001D01*
X158060499Y-87652128D01*
X158054091Y-87592517D01*
X158024506Y-87513196D01*
X158003797Y-87457671D01*
X158003793Y-87457664D01*
X157917547Y-87342455D01*
X157917544Y-87342452D01*
X157802335Y-87256206D01*
X157802328Y-87256202D01*
X157710753Y-87222047D01*
X157654819Y-87180176D01*
X157630402Y-87114711D01*
X157645254Y-87046438D01*
X157666402Y-87018187D01*
X158283788Y-86400801D01*
X158296042Y-86390986D01*
X158295859Y-86390764D01*
X158301868Y-86385791D01*
X158301877Y-86385786D01*
X158347949Y-86336722D01*
X158350566Y-86334023D01*
X158370120Y-86314471D01*
X158372576Y-86311303D01*
X158380156Y-86302427D01*
X158410062Y-86270582D01*
X158419715Y-86253020D01*
X158430389Y-86236770D01*
X158442673Y-86220936D01*
X158460019Y-86180850D01*
X158465157Y-86170362D01*
X158486196Y-86132093D01*
X158486197Y-86132092D01*
X158491177Y-86112691D01*
X158497478Y-86094288D01*
X158505438Y-86075896D01*
X158512272Y-86032741D01*
X158514635Y-86021331D01*
X158525500Y-85979019D01*
X158525500Y-85958983D01*
X158527027Y-85939582D01*
X158530160Y-85919804D01*
X158526050Y-85876324D01*
X158525500Y-85864655D01*
X158525500Y-83398687D01*
X158545185Y-83331648D01*
X158557350Y-83315715D01*
X158575891Y-83295122D01*
X158632533Y-83232216D01*
X158727179Y-83068284D01*
X158785674Y-82888256D01*
X158805460Y-82700000D01*
X158785674Y-82511744D01*
X158727179Y-82331716D01*
X158632533Y-82167784D01*
X158505871Y-82027112D01*
X158455479Y-81990500D01*
X158352734Y-81915851D01*
X158352729Y-81915848D01*
X158179807Y-81838857D01*
X158179802Y-81838855D01*
X158034001Y-81807865D01*
X157994646Y-81799500D01*
X157805354Y-81799500D01*
X157772897Y-81806398D01*
X157620197Y-81838855D01*
X157620192Y-81838857D01*
X157447270Y-81915848D01*
X157447265Y-81915851D01*
X157294129Y-82027111D01*
X157167466Y-82167785D01*
X157072821Y-82331715D01*
X157072818Y-82331722D01*
X157014327Y-82511740D01*
X157014326Y-82511744D01*
X156994540Y-82700000D01*
X157014326Y-82888256D01*
X157014327Y-82888259D01*
X157072818Y-83068277D01*
X157072821Y-83068284D01*
X157167467Y-83232216D01*
X157210772Y-83280310D01*
X157242650Y-83315715D01*
X157272880Y-83378706D01*
X157274500Y-83398687D01*
X157274500Y-85589546D01*
X157254815Y-85656585D01*
X157238181Y-85677227D01*
X155752226Y-87163181D01*
X155690903Y-87196666D01*
X155664545Y-87199500D01*
X154512129Y-87199500D01*
X154512123Y-87199501D01*
X154452516Y-87205908D01*
X154317671Y-87256202D01*
X154317664Y-87256206D01*
X154202455Y-87342452D01*
X154202452Y-87342455D01*
X154116206Y-87457664D01*
X154116202Y-87457671D01*
X154065908Y-87592517D01*
X154059501Y-87652116D01*
X154059501Y-87652123D01*
X154059500Y-87652135D01*
X154059500Y-90747870D01*
X134654347Y-90747870D01*
X134776570Y-90406279D01*
X134875658Y-90010699D01*
X134935495Y-89607311D01*
X134955505Y-89200000D01*
X134935495Y-88792689D01*
X134875658Y-88389301D01*
X134776570Y-87993721D01*
X134639186Y-87609757D01*
X134464828Y-87241109D01*
X134255176Y-86891325D01*
X134012249Y-86563776D01*
X134012244Y-86563770D01*
X133738386Y-86261613D01*
X133436229Y-85987755D01*
X133397434Y-85958983D01*
X133108675Y-85744824D01*
X132758891Y-85535172D01*
X132390243Y-85360814D01*
X132390241Y-85360813D01*
X132006279Y-85223430D01*
X131610695Y-85124341D01*
X131207320Y-85064506D01*
X131207316Y-85064505D01*
X131207311Y-85064505D01*
X130901879Y-85049500D01*
X130698121Y-85049500D01*
X130392689Y-85064505D01*
X130392683Y-85064505D01*
X130392679Y-85064506D01*
X129989304Y-85124341D01*
X129593720Y-85223430D01*
X129209758Y-85360813D01*
X129209756Y-85360814D01*
X128841105Y-85535174D01*
X128491327Y-85744822D01*
X128163770Y-85987755D01*
X127861613Y-86261613D01*
X127587755Y-86563770D01*
X127344822Y-86891327D01*
X127135174Y-87241105D01*
X126960814Y-87609756D01*
X126960813Y-87609758D01*
X126823430Y-87993720D01*
X126724341Y-88389304D01*
X126681976Y-88674906D01*
X126664505Y-88792689D01*
X126644495Y-89200000D01*
X126214614Y-89200000D01*
X126237963Y-81425000D01*
X127525001Y-81425000D01*
X127525001Y-83599986D01*
X127535494Y-83702697D01*
X127590641Y-83869119D01*
X127590643Y-83869124D01*
X127682684Y-84018345D01*
X127806654Y-84142315D01*
X127955875Y-84234356D01*
X127955880Y-84234358D01*
X128122302Y-84289505D01*
X128122310Y-84289506D01*
X128206954Y-84298154D01*
X128214263Y-84299999D01*
X128218695Y-84299999D01*
X128231310Y-84300642D01*
X128238462Y-84301373D01*
X128246420Y-84299999D01*
X130049999Y-84299999D01*
X130050000Y-84299998D01*
X130050000Y-81425000D01*
X130550000Y-81425000D01*
X130550000Y-84299999D01*
X132475000Y-84299999D01*
X132475000Y-81425000D01*
X132975000Y-81425000D01*
X132975000Y-84299999D01*
X134899999Y-84299999D01*
X134900000Y-84299998D01*
X134900000Y-81425000D01*
X135400000Y-81425000D01*
X135400000Y-84299999D01*
X137224972Y-84299999D01*
X137224986Y-84299998D01*
X137327697Y-84289505D01*
X137494119Y-84234358D01*
X137494124Y-84234356D01*
X137643345Y-84142315D01*
X137767315Y-84018345D01*
X137859356Y-83869124D01*
X137859358Y-83869119D01*
X137914505Y-83702697D01*
X137914506Y-83702690D01*
X137924999Y-83599986D01*
X137925000Y-83599973D01*
X137925000Y-81425000D01*
X135400000Y-81425000D01*
X134900000Y-81425000D01*
X132975000Y-81425000D01*
X132475000Y-81425000D01*
X130550000Y-81425000D01*
X130050000Y-81425000D01*
X127525001Y-81425000D01*
X126237963Y-81425000D01*
X126238368Y-81290001D01*
X139074500Y-81290001D01*
X139074501Y-81290019D01*
X139085000Y-81392796D01*
X139085001Y-81392799D01*
X139140185Y-81559331D01*
X139140186Y-81559334D01*
X139232288Y-81708656D01*
X139356344Y-81832712D01*
X139505666Y-81924814D01*
X139672203Y-81979999D01*
X139774991Y-81990500D01*
X143975008Y-81990499D01*
X144077797Y-81979999D01*
X144244334Y-81924814D01*
X144393656Y-81832712D01*
X144517712Y-81708656D01*
X144609814Y-81559334D01*
X144664999Y-81392797D01*
X144675500Y-81290009D01*
X144675499Y-80749499D01*
X144695183Y-80682461D01*
X144747987Y-80636706D01*
X144799499Y-80625500D01*
X157814028Y-80625500D01*
X157881067Y-80645185D01*
X157921415Y-80687500D01*
X158004965Y-80832214D01*
X158131629Y-80972888D01*
X158284765Y-81084148D01*
X158284770Y-81084151D01*
X158457692Y-81161142D01*
X158457697Y-81161144D01*
X158642854Y-81200500D01*
X158642855Y-81200500D01*
X158832144Y-81200500D01*
X158832146Y-81200500D01*
X159017303Y-81161144D01*
X159190230Y-81084151D01*
X159343371Y-80972888D01*
X159470033Y-80832216D01*
X159564679Y-80668284D01*
X159623174Y-80488256D01*
X159642960Y-80300000D01*
X159623174Y-80111744D01*
X159564679Y-79931716D01*
X159470033Y-79767784D01*
X159343371Y-79627112D01*
X159282239Y-79582697D01*
X159190234Y-79515851D01*
X159190229Y-79515848D01*
X159017307Y-79438857D01*
X159017302Y-79438855D01*
X158870089Y-79407565D01*
X158832146Y-79399500D01*
X158648041Y-79399500D01*
X158621119Y-79395668D01*
X158621101Y-79395782D01*
X158613867Y-79394636D01*
X158613444Y-79394576D01*
X158613397Y-79394562D01*
X158613396Y-79394562D01*
X158613394Y-79394561D01*
X158613392Y-79394561D01*
X158570259Y-79387729D01*
X158558822Y-79385361D01*
X158516520Y-79374500D01*
X158516519Y-79374500D01*
X158496484Y-79374500D01*
X158477086Y-79372973D01*
X158469662Y-79371797D01*
X158457305Y-79369840D01*
X158457304Y-79369840D01*
X158413825Y-79373950D01*
X158402156Y-79374500D01*
X153215924Y-79374500D01*
X153148885Y-79354815D01*
X153103130Y-79302011D01*
X153093186Y-79232853D01*
X153122211Y-79169297D01*
X153131041Y-79160107D01*
X153131582Y-79159596D01*
X153131587Y-79159594D01*
X153159438Y-79125926D01*
X153167279Y-79117309D01*
X155183788Y-77100801D01*
X155196042Y-77090986D01*
X155195859Y-77090764D01*
X155201868Y-77085791D01*
X155201877Y-77085786D01*
X155247949Y-77036722D01*
X155250566Y-77034023D01*
X155270120Y-77014471D01*
X155272576Y-77011303D01*
X155280156Y-77002427D01*
X155310062Y-76970582D01*
X155319713Y-76953024D01*
X155330396Y-76936761D01*
X155342673Y-76920936D01*
X155360021Y-76880844D01*
X155365151Y-76870371D01*
X155386197Y-76832092D01*
X155391180Y-76812680D01*
X155397481Y-76794280D01*
X155405437Y-76775896D01*
X155412270Y-76732748D01*
X155414633Y-76721338D01*
X155425500Y-76679019D01*
X155425500Y-76658983D01*
X155427027Y-76639582D01*
X155430160Y-76619804D01*
X155426050Y-76576324D01*
X155425500Y-76564655D01*
X155425500Y-76400000D01*
X159094540Y-76400000D01*
X159114326Y-76588256D01*
X159114327Y-76588259D01*
X159172818Y-76768277D01*
X159172821Y-76768284D01*
X159267467Y-76932216D01*
X159341530Y-77014471D01*
X159394129Y-77072888D01*
X159547265Y-77184148D01*
X159547270Y-77184151D01*
X159720192Y-77261142D01*
X159720197Y-77261144D01*
X159905354Y-77300500D01*
X159905355Y-77300500D01*
X160094644Y-77300500D01*
X160094646Y-77300500D01*
X160279803Y-77261144D01*
X160452730Y-77184151D01*
X160605871Y-77072888D01*
X160732533Y-76932216D01*
X160827179Y-76768284D01*
X160885674Y-76588256D01*
X160903321Y-76420344D01*
X160929904Y-76355734D01*
X160938951Y-76345638D01*
X162183788Y-75100801D01*
X162196042Y-75090986D01*
X162195859Y-75090764D01*
X162201868Y-75085791D01*
X162201877Y-75085786D01*
X162247949Y-75036722D01*
X162250566Y-75034023D01*
X162270120Y-75014471D01*
X162272576Y-75011303D01*
X162280156Y-75002427D01*
X162310062Y-74970582D01*
X162319713Y-74953024D01*
X162330396Y-74936761D01*
X162342673Y-74920936D01*
X162360021Y-74880844D01*
X162365151Y-74870371D01*
X162386197Y-74832092D01*
X162391180Y-74812680D01*
X162397481Y-74794280D01*
X162405437Y-74775896D01*
X162412270Y-74732748D01*
X162414633Y-74721338D01*
X162425500Y-74679019D01*
X162425500Y-74658983D01*
X162427027Y-74639582D01*
X162430160Y-74619804D01*
X162426050Y-74576324D01*
X162425500Y-74564655D01*
X162425500Y-71189041D01*
X162445185Y-71122002D01*
X162497989Y-71076247D01*
X162523719Y-71067751D01*
X162537996Y-71064716D01*
X162554803Y-71061144D01*
X162554805Y-71061142D01*
X162554808Y-71061142D01*
X162610781Y-71036221D01*
X162661217Y-71025500D01*
X163575060Y-71025500D01*
X163642099Y-71045185D01*
X163687854Y-71097989D01*
X163698379Y-71136534D01*
X163714326Y-71288256D01*
X163714327Y-71288259D01*
X163772818Y-71468277D01*
X163772821Y-71468284D01*
X163867467Y-71632216D01*
X163978590Y-71755630D01*
X163994129Y-71772888D01*
X164147265Y-71884148D01*
X164147270Y-71884151D01*
X164320192Y-71961142D01*
X164320197Y-71961144D01*
X164505354Y-72000500D01*
X164505355Y-72000500D01*
X164694644Y-72000500D01*
X164694646Y-72000500D01*
X164879803Y-71961144D01*
X165052730Y-71884151D01*
X165205871Y-71772888D01*
X165332533Y-71632216D01*
X165427179Y-71468284D01*
X165485674Y-71288256D01*
X165505460Y-71100000D01*
X165485674Y-70911744D01*
X165427179Y-70731716D01*
X165332533Y-70567784D01*
X165205871Y-70427112D01*
X165205870Y-70427111D01*
X165052734Y-70315851D01*
X165052729Y-70315848D01*
X164879807Y-70238857D01*
X164879802Y-70238855D01*
X164734001Y-70207865D01*
X164694646Y-70199500D01*
X164694645Y-70199500D01*
X164635453Y-70199500D01*
X164568414Y-70179815D01*
X164547772Y-70163181D01*
X164518769Y-70134178D01*
X164485284Y-70072855D01*
X164490268Y-70003163D01*
X164514298Y-69963528D01*
X164632533Y-69832216D01*
X164727179Y-69668284D01*
X164785674Y-69488256D01*
X164805460Y-69300000D01*
X164798361Y-69232457D01*
X164805769Y-69184121D01*
X164803260Y-69183393D01*
X164805435Y-69175900D01*
X164805438Y-69175896D01*
X164812272Y-69132741D01*
X164814635Y-69121331D01*
X164825500Y-69079019D01*
X164825500Y-69058983D01*
X164827027Y-69039582D01*
X164830160Y-69019804D01*
X164826050Y-68976324D01*
X164825500Y-68964655D01*
X164825500Y-68800000D01*
X166594540Y-68800000D01*
X166614326Y-68988256D01*
X166614327Y-68988259D01*
X166672818Y-69168277D01*
X166672821Y-69168284D01*
X166767467Y-69332216D01*
X166886997Y-69464967D01*
X166894129Y-69472888D01*
X167047265Y-69584148D01*
X167047270Y-69584151D01*
X167220192Y-69661142D01*
X167220193Y-69661142D01*
X167220197Y-69661144D01*
X167337287Y-69686032D01*
X167356280Y-69690069D01*
X167417762Y-69723261D01*
X167451539Y-69784424D01*
X167454500Y-69811359D01*
X167454500Y-70897255D01*
X167452775Y-70912872D01*
X167453061Y-70912899D01*
X167452326Y-70920665D01*
X167454439Y-70987872D01*
X167454500Y-70991767D01*
X167454500Y-71019357D01*
X167455003Y-71023335D01*
X167455918Y-71034967D01*
X167457290Y-71078624D01*
X167457291Y-71078627D01*
X167462880Y-71097867D01*
X167466824Y-71116911D01*
X167467468Y-71122002D01*
X167469336Y-71136792D01*
X167485414Y-71177403D01*
X167489197Y-71188452D01*
X167501381Y-71230388D01*
X167511580Y-71247634D01*
X167520138Y-71265103D01*
X167527514Y-71283732D01*
X167553181Y-71319060D01*
X167559593Y-71328821D01*
X167581828Y-71366417D01*
X167581833Y-71366424D01*
X167595990Y-71380580D01*
X167608628Y-71395376D01*
X167620405Y-71411586D01*
X167620406Y-71411587D01*
X167654057Y-71439425D01*
X167662698Y-71447288D01*
X167861038Y-71645628D01*
X167894523Y-71706951D01*
X167896678Y-71720347D01*
X167902201Y-71772888D01*
X167914326Y-71888256D01*
X167914327Y-71888259D01*
X167972818Y-72068277D01*
X167972821Y-72068284D01*
X168067467Y-72232216D01*
X168157063Y-72331722D01*
X168194129Y-72372888D01*
X168347265Y-72484148D01*
X168347270Y-72484151D01*
X168520192Y-72561142D01*
X168520197Y-72561144D01*
X168705354Y-72600500D01*
X168705355Y-72600500D01*
X168894644Y-72600500D01*
X168894646Y-72600500D01*
X169079803Y-72561144D01*
X169252730Y-72484151D01*
X169405871Y-72372888D01*
X169532533Y-72232216D01*
X169627179Y-72068284D01*
X169685674Y-71888256D01*
X169705460Y-71700000D01*
X169685674Y-71511744D01*
X169627179Y-71331716D01*
X169532533Y-71167784D01*
X169405871Y-71027112D01*
X169405870Y-71027111D01*
X169252734Y-70915851D01*
X169252729Y-70915848D01*
X169079807Y-70838857D01*
X169079802Y-70838855D01*
X168932208Y-70807484D01*
X168894646Y-70799500D01*
X168894645Y-70799500D01*
X168835453Y-70799500D01*
X168768414Y-70779815D01*
X168747772Y-70763181D01*
X168741819Y-70757228D01*
X168708334Y-70695905D01*
X168705500Y-70669547D01*
X168705500Y-69462742D01*
X168707224Y-69447122D01*
X168706939Y-69447096D01*
X168707671Y-69439340D01*
X168707673Y-69439333D01*
X168705561Y-69372126D01*
X168705500Y-69368231D01*
X168705500Y-69340654D01*
X168705500Y-69340650D01*
X168704996Y-69336665D01*
X168704080Y-69325021D01*
X168704080Y-69325014D01*
X168702709Y-69281373D01*
X168697122Y-69262144D01*
X168693174Y-69243084D01*
X168690664Y-69223208D01*
X168690663Y-69223206D01*
X168690663Y-69223204D01*
X168674588Y-69182604D01*
X168670804Y-69171552D01*
X168658618Y-69129609D01*
X168658616Y-69129606D01*
X168648423Y-69112371D01*
X168639861Y-69094894D01*
X168632487Y-69076269D01*
X168617515Y-69055662D01*
X168606811Y-69040930D01*
X168600405Y-69031177D01*
X168578170Y-68993580D01*
X168578168Y-68993578D01*
X168578165Y-68993574D01*
X168564006Y-68979415D01*
X168551368Y-68964619D01*
X168539594Y-68948413D01*
X168519409Y-68931715D01*
X168505946Y-68920577D01*
X168497305Y-68912714D01*
X168438960Y-68854369D01*
X168405475Y-68793046D01*
X168403323Y-68779668D01*
X168385674Y-68611744D01*
X168327179Y-68431716D01*
X168232533Y-68267784D01*
X168105871Y-68127112D01*
X168105870Y-68127111D01*
X167952734Y-68015851D01*
X167952729Y-68015848D01*
X167779807Y-67938857D01*
X167779802Y-67938855D01*
X167634001Y-67907865D01*
X167594646Y-67899500D01*
X167405354Y-67899500D01*
X167372897Y-67906398D01*
X167220197Y-67938855D01*
X167220192Y-67938857D01*
X167047270Y-68015848D01*
X167047265Y-68015851D01*
X166894129Y-68127111D01*
X166767466Y-68267785D01*
X166672821Y-68431715D01*
X166672818Y-68431722D01*
X166616577Y-68604815D01*
X166614326Y-68611744D01*
X166594540Y-68800000D01*
X164825500Y-68800000D01*
X164825500Y-68021323D01*
X164845185Y-67954284D01*
X164897989Y-67908529D01*
X164898842Y-67908143D01*
X164952730Y-67884151D01*
X165105871Y-67772888D01*
X165232533Y-67632216D01*
X165327179Y-67468284D01*
X165385674Y-67288256D01*
X165405460Y-67100000D01*
X165385674Y-66911744D01*
X165327179Y-66731716D01*
X165232533Y-66567784D01*
X165105871Y-66427112D01*
X165105870Y-66427111D01*
X164952734Y-66315851D01*
X164952732Y-66315850D01*
X164890762Y-66288259D01*
X164889196Y-66287561D01*
X164835961Y-66242311D01*
X164815640Y-66175462D01*
X164834686Y-66108239D01*
X164866744Y-66073969D01*
X165005871Y-65972888D01*
X165132533Y-65832216D01*
X165227179Y-65668284D01*
X165285674Y-65488256D01*
X165305460Y-65300000D01*
X165285674Y-65111744D01*
X165227179Y-64931716D01*
X165132533Y-64767784D01*
X165005871Y-64627112D01*
X165005870Y-64627111D01*
X164852734Y-64515851D01*
X164852729Y-64515848D01*
X164679807Y-64438857D01*
X164679802Y-64438855D01*
X164534001Y-64407865D01*
X164494646Y-64399500D01*
X164305354Y-64399500D01*
X164272897Y-64406398D01*
X164120197Y-64438855D01*
X164120192Y-64438857D01*
X163947270Y-64515848D01*
X163947265Y-64515851D01*
X163794130Y-64627110D01*
X163794126Y-64627114D01*
X163788400Y-64633474D01*
X163728913Y-64670121D01*
X163696252Y-64674500D01*
X162382737Y-64674500D01*
X162367120Y-64672776D01*
X162367093Y-64673062D01*
X162359331Y-64672327D01*
X162292144Y-64674439D01*
X162288250Y-64674500D01*
X162260650Y-64674500D01*
X162256962Y-64674965D01*
X162256649Y-64675005D01*
X162245031Y-64675918D01*
X162201373Y-64677290D01*
X162201372Y-64677290D01*
X162182129Y-64682881D01*
X162163079Y-64686825D01*
X162143211Y-64689334D01*
X162143210Y-64689335D01*
X162102600Y-64705413D01*
X162091553Y-64709195D01*
X162049610Y-64721381D01*
X162049609Y-64721382D01*
X162032367Y-64731579D01*
X162014899Y-64740137D01*
X161996269Y-64747513D01*
X161996266Y-64747515D01*
X161960939Y-64773181D01*
X161951180Y-64779592D01*
X161913579Y-64801830D01*
X161899408Y-64816000D01*
X161884623Y-64828628D01*
X161868412Y-64840407D01*
X161840571Y-64874059D01*
X161832711Y-64882696D01*
X161016208Y-65699199D01*
X161003951Y-65709020D01*
X161004134Y-65709241D01*
X160998122Y-65714214D01*
X160952098Y-65763223D01*
X160949391Y-65766016D01*
X160929889Y-65785517D01*
X160929875Y-65785534D01*
X160927407Y-65788715D01*
X160919843Y-65797570D01*
X160889937Y-65829418D01*
X160889936Y-65829420D01*
X160880284Y-65846976D01*
X160869610Y-65863226D01*
X160857329Y-65879061D01*
X160857324Y-65879068D01*
X160839975Y-65919158D01*
X160834838Y-65929644D01*
X160813803Y-65967906D01*
X160808822Y-65987307D01*
X160802521Y-66005710D01*
X160794562Y-66024102D01*
X160794561Y-66024105D01*
X160787728Y-66067243D01*
X160785360Y-66078674D01*
X160774501Y-66120971D01*
X160774500Y-66120982D01*
X160774500Y-66141016D01*
X160772973Y-66160413D01*
X160772458Y-66163664D01*
X160769840Y-66180194D01*
X160769840Y-66180195D01*
X160773950Y-66223674D01*
X160774500Y-66235343D01*
X160774500Y-70317255D01*
X160772775Y-70332872D01*
X160773061Y-70332899D01*
X160772326Y-70340665D01*
X160774439Y-70407872D01*
X160774500Y-70411767D01*
X160774500Y-70439357D01*
X160775003Y-70443335D01*
X160775918Y-70454967D01*
X160777290Y-70498624D01*
X160777291Y-70498627D01*
X160782880Y-70517867D01*
X160786824Y-70536911D01*
X160788541Y-70550500D01*
X160789336Y-70556792D01*
X160805414Y-70597403D01*
X160809197Y-70608452D01*
X160821381Y-70650388D01*
X160831580Y-70667634D01*
X160840136Y-70685100D01*
X160840815Y-70686814D01*
X160847514Y-70703732D01*
X160873181Y-70739060D01*
X160879593Y-70748821D01*
X160901828Y-70786417D01*
X160901833Y-70786424D01*
X160915990Y-70800580D01*
X160928628Y-70815376D01*
X160940405Y-70831586D01*
X160940406Y-70831587D01*
X160974057Y-70859425D01*
X160982698Y-70867288D01*
X161138181Y-71022771D01*
X161171666Y-71084094D01*
X161174500Y-71110452D01*
X161174500Y-74289547D01*
X161154815Y-74356586D01*
X161138181Y-74377228D01*
X160052228Y-75463181D01*
X159990905Y-75496666D01*
X159964547Y-75499500D01*
X159905354Y-75499500D01*
X159872897Y-75506398D01*
X159720197Y-75538855D01*
X159720192Y-75538857D01*
X159547270Y-75615848D01*
X159547265Y-75615851D01*
X159394129Y-75727111D01*
X159267466Y-75867785D01*
X159172821Y-76031715D01*
X159172818Y-76031722D01*
X159125071Y-76178674D01*
X159114326Y-76211744D01*
X159094540Y-76400000D01*
X155425500Y-76400000D01*
X155425500Y-74398687D01*
X155445185Y-74331648D01*
X155457350Y-74315715D01*
X155480911Y-74289547D01*
X155532533Y-74232216D01*
X155627179Y-74068284D01*
X155685674Y-73888256D01*
X155705460Y-73700000D01*
X155701514Y-73662459D01*
X155714083Y-73593732D01*
X155761815Y-73542708D01*
X155824835Y-73525500D01*
X157977687Y-73525500D01*
X158023434Y-73535223D01*
X158023533Y-73534921D01*
X158026413Y-73535856D01*
X158028122Y-73536220D01*
X158029717Y-73536930D01*
X158214874Y-73576286D01*
X158214875Y-73576286D01*
X158404164Y-73576286D01*
X158404166Y-73576286D01*
X158589323Y-73536930D01*
X158762250Y-73459937D01*
X158762250Y-73459936D01*
X158768186Y-73457294D01*
X158768955Y-73459022D01*
X158828009Y-73444684D01*
X158875546Y-73458637D01*
X158876132Y-73457323D01*
X159054990Y-73536957D01*
X159054995Y-73536959D01*
X159240152Y-73576315D01*
X159240153Y-73576315D01*
X159429442Y-73576315D01*
X159429444Y-73576315D01*
X159614601Y-73536959D01*
X159787528Y-73459966D01*
X159940669Y-73348703D01*
X160067331Y-73208031D01*
X160161977Y-73044099D01*
X160220472Y-72864071D01*
X160240258Y-72675815D01*
X160220472Y-72487559D01*
X160161977Y-72307531D01*
X160067331Y-72143599D01*
X159940669Y-72002927D01*
X159933175Y-71997482D01*
X159787532Y-71891666D01*
X159787527Y-71891663D01*
X159614605Y-71814672D01*
X159614600Y-71814670D01*
X159450615Y-71779815D01*
X159429444Y-71775315D01*
X159429443Y-71775315D01*
X159370251Y-71775315D01*
X159303212Y-71755630D01*
X159282570Y-71738996D01*
X159110572Y-71566998D01*
X159100749Y-71554736D01*
X159100528Y-71554920D01*
X159095555Y-71548908D01*
X159046545Y-71502885D01*
X159043746Y-71500172D01*
X159024246Y-71480671D01*
X159024240Y-71480666D01*
X159021055Y-71478195D01*
X159012203Y-71470634D01*
X158980351Y-71440724D01*
X158980349Y-71440722D01*
X158980346Y-71440721D01*
X158962798Y-71431074D01*
X158946532Y-71420390D01*
X158935183Y-71411587D01*
X158930705Y-71408113D01*
X158930704Y-71408112D01*
X158930701Y-71408110D01*
X158890618Y-71390764D01*
X158880132Y-71385627D01*
X158841863Y-71364589D01*
X158841861Y-71364588D01*
X158822462Y-71359608D01*
X158804050Y-71353304D01*
X158785667Y-71345348D01*
X158785661Y-71345346D01*
X158742529Y-71338515D01*
X158731091Y-71336147D01*
X158688789Y-71325286D01*
X158688788Y-71325286D01*
X158668753Y-71325286D01*
X158649355Y-71323759D01*
X158641931Y-71322583D01*
X158629574Y-71320626D01*
X158629573Y-71320626D01*
X158586094Y-71324736D01*
X158574425Y-71325286D01*
X157323323Y-71325286D01*
X157256284Y-71305601D01*
X157210529Y-71252797D01*
X157200585Y-71183639D01*
X157205392Y-71162968D01*
X157238476Y-71061144D01*
X157263021Y-70985603D01*
X157282807Y-70797347D01*
X157263021Y-70609091D01*
X157204526Y-70429063D01*
X157109880Y-70265131D01*
X156983218Y-70124459D01*
X156983217Y-70124458D01*
X156830081Y-70013198D01*
X156830076Y-70013195D01*
X156657154Y-69936204D01*
X156657149Y-69936202D01*
X156511348Y-69905212D01*
X156471993Y-69896847D01*
X156282701Y-69896847D01*
X156250244Y-69903745D01*
X156097544Y-69936202D01*
X156097539Y-69936204D01*
X155924617Y-70013195D01*
X155924612Y-70013198D01*
X155771476Y-70124458D01*
X155644813Y-70265132D01*
X155550168Y-70429062D01*
X155550165Y-70429069D01*
X155491674Y-70609087D01*
X155491673Y-70609091D01*
X155474288Y-70774500D01*
X155471887Y-70797347D01*
X155487262Y-70943647D01*
X155484752Y-70977846D01*
X155485477Y-70977938D01*
X155484500Y-70985672D01*
X155484500Y-71005710D01*
X155482973Y-71025109D01*
X155479840Y-71044888D01*
X155479840Y-71044889D01*
X155483950Y-71088368D01*
X155484500Y-71100037D01*
X155484500Y-71584133D01*
X155482775Y-71599750D01*
X155483061Y-71599777D01*
X155482326Y-71607543D01*
X155484439Y-71674750D01*
X155484500Y-71678645D01*
X155484500Y-71706235D01*
X155485003Y-71710213D01*
X155485918Y-71721845D01*
X155487290Y-71765502D01*
X155487291Y-71765505D01*
X155492880Y-71784745D01*
X155496824Y-71803789D01*
X155498433Y-71816520D01*
X155499336Y-71823670D01*
X155515414Y-71864281D01*
X155519197Y-71875330D01*
X155530969Y-71915849D01*
X155531382Y-71917268D01*
X155537613Y-71927805D01*
X155541580Y-71934512D01*
X155550136Y-71951978D01*
X155553321Y-71960021D01*
X155557514Y-71970610D01*
X155583181Y-72005938D01*
X155589593Y-72015699D01*
X155611828Y-72053295D01*
X155611833Y-72053302D01*
X155621348Y-72062816D01*
X155654835Y-72124138D01*
X155649853Y-72193830D01*
X155607984Y-72249765D01*
X155542520Y-72274184D01*
X155533670Y-72274500D01*
X154565737Y-72274500D01*
X154498698Y-72254815D01*
X154458350Y-72212500D01*
X154447483Y-72193679D01*
X154432533Y-72167784D01*
X154305871Y-72027112D01*
X154305633Y-72026939D01*
X154152734Y-71915851D01*
X154152729Y-71915848D01*
X153979807Y-71838857D01*
X153979802Y-71838855D01*
X153814857Y-71803796D01*
X153794646Y-71799500D01*
X153605354Y-71799500D01*
X153585143Y-71803796D01*
X153420197Y-71838855D01*
X153420192Y-71838857D01*
X153247270Y-71915848D01*
X153247265Y-71915851D01*
X153094129Y-72027111D01*
X152967466Y-72167785D01*
X152872821Y-72331715D01*
X152872818Y-72331722D01*
X152814732Y-72510493D01*
X152814326Y-72511744D01*
X152794540Y-72700000D01*
X152814326Y-72888256D01*
X152814327Y-72888259D01*
X152872818Y-73068277D01*
X152872821Y-73068284D01*
X152967467Y-73232216D01*
X152999953Y-73268295D01*
X153094129Y-73372888D01*
X153247265Y-73484148D01*
X153247270Y-73484151D01*
X153420192Y-73561142D01*
X153420197Y-73561144D01*
X153605354Y-73600500D01*
X153605355Y-73600500D01*
X153772432Y-73600500D01*
X153839471Y-73620185D01*
X153885226Y-73672989D01*
X153895752Y-73711535D01*
X153914326Y-73888256D01*
X153914327Y-73888259D01*
X153972818Y-74068277D01*
X153972821Y-74068284D01*
X154067467Y-74232216D01*
X154110772Y-74280310D01*
X154142650Y-74315715D01*
X154172880Y-74378706D01*
X154174500Y-74398687D01*
X154174500Y-76289547D01*
X154154815Y-76356586D01*
X154138181Y-76377228D01*
X152477228Y-78038181D01*
X152415905Y-78071666D01*
X152389547Y-78074500D01*
X150151159Y-78074500D01*
X150084120Y-78054815D01*
X150038365Y-78002011D01*
X150033453Y-77989504D01*
X150025196Y-77964586D01*
X150009814Y-77918166D01*
X150009810Y-77918160D01*
X150009809Y-77918157D01*
X149917713Y-77768848D01*
X149917710Y-77768844D01*
X149793655Y-77644789D01*
X149793651Y-77644786D01*
X149644337Y-77552687D01*
X149644335Y-77552686D01*
X149552228Y-77522165D01*
X149477797Y-77497501D01*
X149477795Y-77497500D01*
X149375015Y-77487000D01*
X149375008Y-77487000D01*
X148024992Y-77487000D01*
X148024984Y-77487000D01*
X147922204Y-77497500D01*
X147922203Y-77497501D01*
X147755664Y-77552686D01*
X147755662Y-77552687D01*
X147606348Y-77644786D01*
X147606344Y-77644789D01*
X147482289Y-77768844D01*
X147482286Y-77768848D01*
X147390187Y-77918162D01*
X147390186Y-77918164D01*
X147335001Y-78084703D01*
X147335000Y-78084704D01*
X147324500Y-78187484D01*
X147324500Y-78187492D01*
X147324500Y-79212508D01*
X147326578Y-79232853D01*
X147327094Y-79237896D01*
X147314325Y-79306589D01*
X147266446Y-79357474D01*
X147203736Y-79374500D01*
X142897743Y-79374500D01*
X142882122Y-79372775D01*
X142882095Y-79373061D01*
X142874333Y-79372326D01*
X142807113Y-79374439D01*
X142803219Y-79374500D01*
X142775650Y-79374500D01*
X142771673Y-79375002D01*
X142760042Y-79375917D01*
X142716374Y-79377289D01*
X142716368Y-79377290D01*
X142697126Y-79382880D01*
X142678087Y-79386823D01*
X142658217Y-79389334D01*
X142658203Y-79389337D01*
X142617598Y-79405413D01*
X142606554Y-79409194D01*
X142564614Y-79421379D01*
X142564610Y-79421381D01*
X142547366Y-79431579D01*
X142529905Y-79440133D01*
X142511274Y-79447510D01*
X142511262Y-79447517D01*
X142475933Y-79473185D01*
X142466173Y-79479596D01*
X142428580Y-79501829D01*
X142414414Y-79515995D01*
X142399624Y-79528627D01*
X142383414Y-79540404D01*
X142383411Y-79540407D01*
X142355573Y-79574058D01*
X142347711Y-79582697D01*
X142077227Y-79853181D01*
X142015904Y-79886666D01*
X141989546Y-79889500D01*
X139774998Y-79889500D01*
X139774981Y-79889501D01*
X139672203Y-79900000D01*
X139672200Y-79900001D01*
X139505668Y-79955185D01*
X139505663Y-79955187D01*
X139356342Y-80047289D01*
X139232289Y-80171342D01*
X139140187Y-80320663D01*
X139140186Y-80320666D01*
X139085001Y-80487203D01*
X139085001Y-80487204D01*
X139085000Y-80487204D01*
X139074500Y-80589983D01*
X139074500Y-81290001D01*
X126238368Y-81290001D01*
X126246296Y-78650000D01*
X127525000Y-78650000D01*
X127525000Y-80925000D01*
X130050000Y-80925000D01*
X130050000Y-78650000D01*
X130550000Y-78650000D01*
X130550000Y-80925000D01*
X132475000Y-80925000D01*
X132475000Y-78650000D01*
X132975000Y-78650000D01*
X132975000Y-80925000D01*
X134900000Y-80925000D01*
X134900000Y-78650000D01*
X135400000Y-78650000D01*
X135400000Y-80925000D01*
X137924999Y-80925000D01*
X137924999Y-78650000D01*
X135400000Y-78650000D01*
X134900000Y-78650000D01*
X132975000Y-78650000D01*
X132475000Y-78650000D01*
X130550000Y-78650000D01*
X130050000Y-78650000D01*
X127525000Y-78650000D01*
X126246296Y-78650000D01*
X126254629Y-75875000D01*
X127525000Y-75875000D01*
X127525000Y-78150000D01*
X130050000Y-78150000D01*
X130050000Y-75875000D01*
X130550000Y-75875000D01*
X130550000Y-78150000D01*
X132475000Y-78150000D01*
X132475000Y-75875000D01*
X132975000Y-75875000D01*
X132975000Y-78150000D01*
X134900000Y-78150000D01*
X134900000Y-75875000D01*
X135400000Y-75875000D01*
X135400000Y-78150000D01*
X137924999Y-78150000D01*
X137924999Y-78056113D01*
X137925000Y-78056092D01*
X137925000Y-75875000D01*
X135400000Y-75875000D01*
X134900000Y-75875000D01*
X132975000Y-75875000D01*
X132475000Y-75875000D01*
X130550000Y-75875000D01*
X130050000Y-75875000D01*
X127525000Y-75875000D01*
X126254629Y-75875000D01*
X126256130Y-75375000D01*
X127525000Y-75375000D01*
X130050000Y-75375000D01*
X130050000Y-72500000D01*
X130550000Y-72500000D01*
X130550000Y-75375000D01*
X132475000Y-75375000D01*
X132475000Y-72500000D01*
X132975000Y-72500000D01*
X132975000Y-75375000D01*
X134900000Y-75375000D01*
X134900000Y-72500000D01*
X135400000Y-72500000D01*
X135400000Y-75375000D01*
X137924999Y-75375000D01*
X137924999Y-73200028D01*
X137924998Y-73200013D01*
X137914505Y-73097302D01*
X137859358Y-72930880D01*
X137859356Y-72930875D01*
X137767315Y-72781654D01*
X137643345Y-72657684D01*
X137494124Y-72565643D01*
X137494119Y-72565641D01*
X137327697Y-72510494D01*
X137327690Y-72510493D01*
X137224986Y-72500000D01*
X135400000Y-72500000D01*
X134900000Y-72500000D01*
X132975000Y-72500000D01*
X132475000Y-72500000D01*
X130550000Y-72500000D01*
X130050000Y-72500000D01*
X128225028Y-72500000D01*
X128225012Y-72500001D01*
X128122302Y-72510494D01*
X127955880Y-72565641D01*
X127955875Y-72565643D01*
X127806654Y-72657684D01*
X127682684Y-72781654D01*
X127590643Y-72930875D01*
X127590641Y-72930880D01*
X127535494Y-73097301D01*
X127535023Y-73100221D01*
X127534852Y-73103589D01*
X127525000Y-73200015D01*
X127525000Y-75375000D01*
X126256130Y-75375000D01*
X126266105Y-72053295D01*
X126296550Y-61915070D01*
X127375700Y-61915070D01*
X127375701Y-61915076D01*
X127382108Y-61974683D01*
X127432402Y-62109528D01*
X127432406Y-62109535D01*
X127518652Y-62224744D01*
X127518655Y-62224747D01*
X127633864Y-62310993D01*
X127633871Y-62310997D01*
X127768717Y-62361291D01*
X127768716Y-62361291D01*
X127775644Y-62362035D01*
X127828327Y-62367700D01*
X129160500Y-62367699D01*
X129227539Y-62387384D01*
X129273294Y-62440187D01*
X129284500Y-62491699D01*
X129284500Y-69327255D01*
X129282775Y-69342872D01*
X129283061Y-69342899D01*
X129282326Y-69350665D01*
X129284439Y-69417872D01*
X129284500Y-69421767D01*
X129284500Y-69449357D01*
X129285003Y-69453335D01*
X129285918Y-69464967D01*
X129287290Y-69508624D01*
X129287291Y-69508627D01*
X129292880Y-69527867D01*
X129296824Y-69546911D01*
X129297414Y-69551575D01*
X129299336Y-69566792D01*
X129315414Y-69607403D01*
X129319197Y-69618452D01*
X129331382Y-69660390D01*
X129336050Y-69668284D01*
X129341580Y-69677634D01*
X129350138Y-69695103D01*
X129357514Y-69713732D01*
X129383181Y-69749060D01*
X129389593Y-69758821D01*
X129411828Y-69796417D01*
X129411833Y-69796424D01*
X129425990Y-69810580D01*
X129438628Y-69825376D01*
X129450405Y-69841586D01*
X129450406Y-69841587D01*
X129484057Y-69869425D01*
X129492698Y-69877288D01*
X131399197Y-71783788D01*
X131409022Y-71796051D01*
X131409243Y-71795869D01*
X131414211Y-71801874D01*
X131463222Y-71847899D01*
X131466021Y-71850612D01*
X131485522Y-71870114D01*
X131485526Y-71870117D01*
X131485529Y-71870120D01*
X131488702Y-71872581D01*
X131497574Y-71880159D01*
X131529418Y-71910062D01*
X131546976Y-71919714D01*
X131563233Y-71930393D01*
X131579064Y-71942673D01*
X131608803Y-71955542D01*
X131619152Y-71960021D01*
X131629641Y-71965160D01*
X131639555Y-71970610D01*
X131667908Y-71986197D01*
X131680523Y-71989435D01*
X131687305Y-71991177D01*
X131705719Y-71997481D01*
X131724104Y-72005438D01*
X131767261Y-72012273D01*
X131778656Y-72014632D01*
X131820981Y-72025500D01*
X131841016Y-72025500D01*
X131860413Y-72027026D01*
X131880196Y-72030160D01*
X131923675Y-72026050D01*
X131935344Y-72025500D01*
X135862357Y-72025500D01*
X135877977Y-72027224D01*
X135878004Y-72026939D01*
X135885760Y-72027671D01*
X135885767Y-72027673D01*
X135952973Y-72025561D01*
X135956868Y-72025500D01*
X135984446Y-72025500D01*
X135984450Y-72025500D01*
X135988424Y-72024997D01*
X136000063Y-72024080D01*
X136043727Y-72022709D01*
X136062969Y-72017117D01*
X136082012Y-72013174D01*
X136101892Y-72010664D01*
X136142501Y-71994585D01*
X136153544Y-71990803D01*
X136195490Y-71978618D01*
X136212729Y-71968422D01*
X136230196Y-71959864D01*
X136248832Y-71952486D01*
X136253377Y-71949184D01*
X136319182Y-71925702D01*
X136326265Y-71925500D01*
X147289548Y-71925500D01*
X147356587Y-71945185D01*
X147377229Y-71961819D01*
X148061038Y-72645629D01*
X148094523Y-72706952D01*
X148096678Y-72720348D01*
X148098697Y-72739554D01*
X148114326Y-72888256D01*
X148114327Y-72888259D01*
X148172818Y-73068277D01*
X148172821Y-73068284D01*
X148267467Y-73232216D01*
X148299953Y-73268295D01*
X148394129Y-73372888D01*
X148547265Y-73484148D01*
X148547270Y-73484151D01*
X148720192Y-73561142D01*
X148720197Y-73561144D01*
X148905354Y-73600500D01*
X148905355Y-73600500D01*
X149094644Y-73600500D01*
X149094646Y-73600500D01*
X149174719Y-73583480D01*
X149244386Y-73588796D01*
X149300120Y-73630933D01*
X149324225Y-73696513D01*
X149324500Y-73704770D01*
X149324500Y-74164547D01*
X149304815Y-74231586D01*
X149288181Y-74252228D01*
X149064729Y-74475681D01*
X149003406Y-74509166D01*
X148977048Y-74512000D01*
X148024984Y-74512000D01*
X147922204Y-74522500D01*
X147922203Y-74522501D01*
X147755664Y-74577686D01*
X147755662Y-74577687D01*
X147606348Y-74669786D01*
X147606344Y-74669789D01*
X147482289Y-74793844D01*
X147482286Y-74793848D01*
X147390190Y-74943157D01*
X147390185Y-74943168D01*
X147366547Y-75014504D01*
X147326774Y-75071949D01*
X147262258Y-75098772D01*
X147248841Y-75099500D01*
X144577230Y-75099500D01*
X144510191Y-75079815D01*
X144489549Y-75063181D01*
X144393657Y-74967289D01*
X144393656Y-74967288D01*
X144299138Y-74908989D01*
X144244336Y-74875187D01*
X144244331Y-74875185D01*
X144229755Y-74870355D01*
X144077797Y-74820001D01*
X144077795Y-74820000D01*
X143975010Y-74809500D01*
X139774998Y-74809500D01*
X139774981Y-74809501D01*
X139672203Y-74820000D01*
X139672200Y-74820001D01*
X139505668Y-74875185D01*
X139505663Y-74875187D01*
X139356342Y-74967289D01*
X139232289Y-75091342D01*
X139140187Y-75240663D01*
X139140185Y-75240668D01*
X139125345Y-75285452D01*
X139085001Y-75407203D01*
X139085001Y-75407204D01*
X139085000Y-75407204D01*
X139074500Y-75509983D01*
X139074500Y-76210001D01*
X139074501Y-76210019D01*
X139085000Y-76312796D01*
X139085001Y-76312799D01*
X139106552Y-76377834D01*
X139140186Y-76479334D01*
X139232288Y-76628656D01*
X139356344Y-76752712D01*
X139505666Y-76844814D01*
X139672203Y-76899999D01*
X139774991Y-76910500D01*
X143975008Y-76910499D01*
X144077797Y-76899999D01*
X144244334Y-76844814D01*
X144393656Y-76752712D01*
X144517712Y-76628656D01*
X144609814Y-76479334D01*
X144624340Y-76435495D01*
X144664113Y-76378051D01*
X144728628Y-76351228D01*
X144742046Y-76350500D01*
X147248841Y-76350500D01*
X147315880Y-76370185D01*
X147361635Y-76422989D01*
X147366547Y-76435496D01*
X147390185Y-76506831D01*
X147390190Y-76506842D01*
X147482286Y-76656151D01*
X147482289Y-76656155D01*
X147606344Y-76780210D01*
X147606348Y-76780213D01*
X147755662Y-76872312D01*
X147755664Y-76872313D01*
X147755666Y-76872314D01*
X147922203Y-76927499D01*
X148024992Y-76938000D01*
X148024997Y-76938000D01*
X149375003Y-76938000D01*
X149375008Y-76938000D01*
X149477797Y-76927499D01*
X149644334Y-76872314D01*
X149793655Y-76780211D01*
X149917711Y-76656155D01*
X150009814Y-76506834D01*
X150064999Y-76340297D01*
X150075500Y-76237508D01*
X150075500Y-75285452D01*
X150095185Y-75218413D01*
X150111819Y-75197771D01*
X150222765Y-75086825D01*
X150333788Y-74975801D01*
X150346042Y-74965986D01*
X150345859Y-74965764D01*
X150351868Y-74960791D01*
X150351877Y-74960786D01*
X150397949Y-74911722D01*
X150400566Y-74909023D01*
X150420120Y-74889471D01*
X150422576Y-74886303D01*
X150430156Y-74877427D01*
X150460062Y-74845582D01*
X150469715Y-74828020D01*
X150480389Y-74811770D01*
X150492673Y-74795936D01*
X150510019Y-74755850D01*
X150515157Y-74745362D01*
X150522080Y-74732771D01*
X150536197Y-74707092D01*
X150541177Y-74687691D01*
X150547478Y-74669288D01*
X150555438Y-74650896D01*
X150562272Y-74607741D01*
X150564635Y-74596331D01*
X150575500Y-74554019D01*
X150575500Y-74533983D01*
X150577027Y-74514582D01*
X150577885Y-74509166D01*
X150580160Y-74494804D01*
X150576050Y-74451324D01*
X150575500Y-74439655D01*
X150575500Y-71223728D01*
X150595185Y-71156689D01*
X150647989Y-71110934D01*
X150717147Y-71100990D01*
X150780703Y-71130015D01*
X150787181Y-71136047D01*
X150868844Y-71217710D01*
X150868848Y-71217713D01*
X151018162Y-71309812D01*
X151018164Y-71309813D01*
X151018166Y-71309814D01*
X151184703Y-71364999D01*
X151287492Y-71375500D01*
X151287497Y-71375500D01*
X152312503Y-71375500D01*
X152312508Y-71375500D01*
X152415297Y-71364999D01*
X152581834Y-71309814D01*
X152731155Y-71217711D01*
X152855211Y-71093655D01*
X152947314Y-70944334D01*
X153002499Y-70777797D01*
X153013000Y-70675008D01*
X153013000Y-69324992D01*
X153002499Y-69222203D01*
X152947314Y-69055666D01*
X152937393Y-69039582D01*
X152855213Y-68906348D01*
X152855210Y-68906344D01*
X152731155Y-68782289D01*
X152731151Y-68782286D01*
X152581837Y-68690187D01*
X152581835Y-68690186D01*
X152498565Y-68662593D01*
X152415297Y-68635001D01*
X152415295Y-68635000D01*
X152312515Y-68624500D01*
X152312508Y-68624500D01*
X152124500Y-68624500D01*
X152057461Y-68604815D01*
X152011706Y-68552011D01*
X152000500Y-68500500D01*
X152000500Y-67435452D01*
X152020185Y-67368413D01*
X152036819Y-67347771D01*
X154022772Y-65361819D01*
X154084095Y-65328334D01*
X154110453Y-65325500D01*
X156317257Y-65325500D01*
X156332877Y-65327224D01*
X156332904Y-65326939D01*
X156340660Y-65327671D01*
X156340667Y-65327673D01*
X156407873Y-65325561D01*
X156411768Y-65325500D01*
X156439346Y-65325500D01*
X156439350Y-65325500D01*
X156443324Y-65324997D01*
X156454963Y-65324080D01*
X156498627Y-65322709D01*
X156517869Y-65317117D01*
X156536912Y-65313174D01*
X156556792Y-65310664D01*
X156597401Y-65294585D01*
X156608444Y-65290803D01*
X156650390Y-65278618D01*
X156667629Y-65268422D01*
X156685103Y-65259862D01*
X156703727Y-65252488D01*
X156703727Y-65252487D01*
X156703732Y-65252486D01*
X156739083Y-65226800D01*
X156748814Y-65220408D01*
X156786420Y-65198170D01*
X156800589Y-65183999D01*
X156815379Y-65171368D01*
X156831587Y-65159594D01*
X156859438Y-65125926D01*
X156867279Y-65117309D01*
X157672772Y-64311816D01*
X157734093Y-64278333D01*
X157760441Y-64275499D01*
X158650008Y-64275499D01*
X158650016Y-64275498D01*
X158650019Y-64275498D01*
X158706302Y-64269748D01*
X158752797Y-64264999D01*
X158919334Y-64209814D01*
X158985404Y-64169061D01*
X159052796Y-64150622D01*
X159119459Y-64171545D01*
X159164229Y-64225187D01*
X159174500Y-64274601D01*
X159174500Y-64733610D01*
X159154815Y-64800649D01*
X159102011Y-64846404D01*
X159032853Y-64856348D01*
X158977616Y-64833929D01*
X158952733Y-64815850D01*
X158952729Y-64815848D01*
X158779807Y-64738857D01*
X158779802Y-64738855D01*
X158632594Y-64707566D01*
X158594646Y-64699500D01*
X158405354Y-64699500D01*
X158377535Y-64705413D01*
X158220197Y-64738855D01*
X158220192Y-64738857D01*
X158047270Y-64815848D01*
X158047265Y-64815851D01*
X157894129Y-64927111D01*
X157767466Y-65067785D01*
X157672821Y-65231715D01*
X157672818Y-65231722D01*
X157614327Y-65411740D01*
X157614326Y-65411744D01*
X157594540Y-65600000D01*
X157614326Y-65788256D01*
X157614327Y-65788259D01*
X157672818Y-65968277D01*
X157672821Y-65968284D01*
X157767467Y-66132216D01*
X157866597Y-66242311D01*
X157894129Y-66272888D01*
X158047265Y-66384148D01*
X158047270Y-66384151D01*
X158220192Y-66461142D01*
X158220197Y-66461144D01*
X158405354Y-66500500D01*
X158405355Y-66500500D01*
X158594644Y-66500500D01*
X158594646Y-66500500D01*
X158779803Y-66461144D01*
X158952730Y-66384151D01*
X159105871Y-66272888D01*
X159108788Y-66269647D01*
X159111600Y-66266526D01*
X159171087Y-66229879D01*
X159203748Y-66225500D01*
X159217257Y-66225500D01*
X159232877Y-66227224D01*
X159232904Y-66226939D01*
X159240660Y-66227671D01*
X159240667Y-66227673D01*
X159307873Y-66225561D01*
X159311768Y-66225500D01*
X159339346Y-66225500D01*
X159339350Y-66225500D01*
X159343324Y-66224997D01*
X159354963Y-66224080D01*
X159398627Y-66222709D01*
X159417869Y-66217117D01*
X159436912Y-66213174D01*
X159456792Y-66210664D01*
X159497401Y-66194585D01*
X159508444Y-66190803D01*
X159550390Y-66178618D01*
X159567629Y-66168422D01*
X159585103Y-66159862D01*
X159603727Y-66152488D01*
X159603727Y-66152487D01*
X159603732Y-66152486D01*
X159639083Y-66126800D01*
X159648814Y-66120408D01*
X159686420Y-66098170D01*
X159700589Y-66083999D01*
X159715379Y-66071368D01*
X159731587Y-66059594D01*
X159759438Y-66025926D01*
X159767279Y-66017309D01*
X160183786Y-65600802D01*
X160196048Y-65590980D01*
X160195865Y-65590759D01*
X160201868Y-65585791D01*
X160201877Y-65585786D01*
X160247934Y-65536739D01*
X160250582Y-65534006D01*
X160270120Y-65514470D01*
X160272584Y-65511292D01*
X160280154Y-65502429D01*
X160310062Y-65470582D01*
X160319713Y-65453024D01*
X160330396Y-65436761D01*
X160342673Y-65420936D01*
X160360018Y-65380849D01*
X160365152Y-65370371D01*
X160386197Y-65332092D01*
X160391178Y-65312687D01*
X160397482Y-65294279D01*
X160398987Y-65290801D01*
X160405438Y-65275895D01*
X160412270Y-65232748D01*
X160414639Y-65221316D01*
X160420582Y-65198170D01*
X160425500Y-65179019D01*
X160425500Y-65158983D01*
X160427027Y-65139582D01*
X160430160Y-65119804D01*
X160426050Y-65076324D01*
X160425500Y-65064655D01*
X160425500Y-60650452D01*
X160445185Y-60583413D01*
X160461819Y-60562771D01*
X163272579Y-57752011D01*
X166083788Y-54940801D01*
X166096042Y-54930986D01*
X166095859Y-54930764D01*
X166101868Y-54925791D01*
X166101877Y-54925786D01*
X166147949Y-54876722D01*
X166150566Y-54874023D01*
X166170120Y-54854471D01*
X166172576Y-54851303D01*
X166180156Y-54842427D01*
X166210062Y-54810582D01*
X166219715Y-54793020D01*
X166230389Y-54776770D01*
X166242673Y-54760936D01*
X166260019Y-54720850D01*
X166265157Y-54710362D01*
X166286196Y-54672093D01*
X166286197Y-54672092D01*
X166291177Y-54652691D01*
X166297478Y-54634288D01*
X166305438Y-54615896D01*
X166307864Y-54600573D01*
X166337790Y-54537439D01*
X166338068Y-54537128D01*
X166432533Y-54432216D01*
X166527179Y-54268284D01*
X166585674Y-54088256D01*
X166605460Y-53900000D01*
X166585674Y-53711744D01*
X166527179Y-53531716D01*
X166432533Y-53367784D01*
X166305871Y-53227112D01*
X166301102Y-53223647D01*
X166152734Y-53115851D01*
X166152729Y-53115848D01*
X165979807Y-53038857D01*
X165979802Y-53038855D01*
X165834001Y-53007865D01*
X165794646Y-52999500D01*
X165605354Y-52999500D01*
X165572897Y-53006398D01*
X165420197Y-53038855D01*
X165420192Y-53038857D01*
X165247270Y-53115848D01*
X165247265Y-53115851D01*
X165094129Y-53227111D01*
X164967468Y-53367783D01*
X164967466Y-53367784D01*
X164872821Y-53531715D01*
X164872818Y-53531722D01*
X164814930Y-53709885D01*
X164814326Y-53711744D01*
X164794540Y-53900000D01*
X164814326Y-54088256D01*
X164814327Y-54088259D01*
X164872820Y-54268282D01*
X164873372Y-54269522D01*
X164873476Y-54270303D01*
X164874829Y-54274465D01*
X164874067Y-54274712D01*
X164882655Y-54338772D01*
X164853025Y-54402048D01*
X164847772Y-54407636D01*
X164137181Y-55118228D01*
X164075858Y-55151713D01*
X164006167Y-55146729D01*
X163950233Y-55104858D01*
X163925816Y-55039393D01*
X163925500Y-55030547D01*
X163925500Y-51249500D01*
X163945185Y-51182461D01*
X163997989Y-51136706D01*
X164049500Y-51125500D01*
X173599773Y-51125500D01*
X173666812Y-51145185D01*
X173701348Y-51178377D01*
X173836505Y-51371402D01*
X174003597Y-51538494D01*
X174160595Y-51648425D01*
X174204220Y-51703002D01*
X174211414Y-51772500D01*
X174179891Y-51834855D01*
X174160595Y-51851575D01*
X174003597Y-51961505D01*
X173836506Y-52128597D01*
X173836501Y-52128604D01*
X173700967Y-52322165D01*
X173700965Y-52322169D01*
X173601098Y-52536335D01*
X173601094Y-52536344D01*
X173539938Y-52764586D01*
X173539936Y-52764596D01*
X173519341Y-52999999D01*
X173519341Y-53000000D01*
X173539936Y-53235403D01*
X173539938Y-53235413D01*
X173601094Y-53463655D01*
X173601096Y-53463659D01*
X173601097Y-53463663D01*
X173648520Y-53565361D01*
X173700964Y-53677828D01*
X173700965Y-53677830D01*
X173836505Y-53871402D01*
X173983704Y-54018601D01*
X174017189Y-54079924D01*
X174012205Y-54149616D01*
X173970333Y-54205549D01*
X173961120Y-54211820D01*
X173806347Y-54307285D01*
X173806343Y-54307288D01*
X173682289Y-54431342D01*
X173590187Y-54580663D01*
X173590185Y-54580668D01*
X173573617Y-54630668D01*
X173535001Y-54747203D01*
X173535001Y-54747204D01*
X173535000Y-54747204D01*
X173524500Y-54849983D01*
X173524500Y-56150001D01*
X173524501Y-56150018D01*
X173535000Y-56252796D01*
X173535001Y-56252799D01*
X173584706Y-56402796D01*
X173590186Y-56419334D01*
X173682288Y-56568656D01*
X173806344Y-56692712D01*
X173955666Y-56784814D01*
X174122203Y-56839999D01*
X174224991Y-56850500D01*
X175775008Y-56850499D01*
X175877797Y-56839999D01*
X176044334Y-56784814D01*
X176193656Y-56692712D01*
X176317712Y-56568656D01*
X176409814Y-56419334D01*
X176464999Y-56252797D01*
X176475500Y-56150009D01*
X176475499Y-54849992D01*
X176464999Y-54747203D01*
X176409814Y-54580666D01*
X176317712Y-54431344D01*
X176193656Y-54307288D01*
X176105970Y-54253203D01*
X176038879Y-54211821D01*
X175992155Y-54159873D01*
X175980932Y-54090910D01*
X176008776Y-54026828D01*
X176016295Y-54018601D01*
X176089867Y-53945029D01*
X176163495Y-53871401D01*
X176298652Y-53678377D01*
X176353229Y-53634752D01*
X176400227Y-53625500D01*
X176489548Y-53625500D01*
X176556587Y-53645185D01*
X176577229Y-53661819D01*
X177138181Y-54222771D01*
X177171666Y-54284094D01*
X177174500Y-54310452D01*
X177174500Y-76389546D01*
X177154815Y-76456585D01*
X177138181Y-76477227D01*
X176362833Y-77252574D01*
X176301510Y-77286059D01*
X176231818Y-77281075D01*
X176187471Y-77252574D01*
X176096403Y-77161506D01*
X176009713Y-77100806D01*
X175939401Y-77051573D01*
X175895778Y-76996999D01*
X175888584Y-76927500D01*
X175920106Y-76865145D01*
X175939398Y-76848428D01*
X176096401Y-76738495D01*
X176263495Y-76571401D01*
X176399035Y-76377830D01*
X176498903Y-76163663D01*
X176560063Y-75935408D01*
X176580659Y-75700000D01*
X176560063Y-75464592D01*
X176509010Y-75274059D01*
X176498905Y-75236344D01*
X176498904Y-75236343D01*
X176498903Y-75236337D01*
X176399035Y-75022171D01*
X176399034Y-75022169D01*
X176263494Y-74828597D01*
X176096403Y-74661506D01*
X175938967Y-74551269D01*
X175895342Y-74496692D01*
X175888148Y-74427194D01*
X175919671Y-74364839D01*
X175938967Y-74348119D01*
X176096073Y-74238113D01*
X176096079Y-74238108D01*
X176263105Y-74071082D01*
X176398600Y-73877578D01*
X176498429Y-73663492D01*
X176498432Y-73663486D01*
X176555636Y-73450000D01*
X175503969Y-73450000D01*
X175536519Y-73399351D01*
X175575000Y-73268295D01*
X175575000Y-73131705D01*
X175536519Y-73000649D01*
X175503969Y-72950000D01*
X176555636Y-72950000D01*
X176555635Y-72949999D01*
X176498432Y-72736513D01*
X176498429Y-72736507D01*
X176398600Y-72522422D01*
X176398599Y-72522420D01*
X176263113Y-72328926D01*
X176263108Y-72328920D01*
X176096079Y-72161891D01*
X176096073Y-72161886D01*
X175938967Y-72051880D01*
X175895342Y-71997303D01*
X175888148Y-71927805D01*
X175919671Y-71865450D01*
X175938960Y-71848735D01*
X176096401Y-71738495D01*
X176263495Y-71571401D01*
X176399035Y-71377830D01*
X176498903Y-71163663D01*
X176560063Y-70935408D01*
X176580659Y-70700000D01*
X176560063Y-70464592D01*
X176498903Y-70236337D01*
X176399035Y-70022171D01*
X176399034Y-70022169D01*
X176263494Y-69828597D01*
X176096403Y-69661506D01*
X176034915Y-69618452D01*
X175939401Y-69551573D01*
X175895778Y-69496999D01*
X175888584Y-69427500D01*
X175920106Y-69365145D01*
X175939398Y-69348428D01*
X176096401Y-69238495D01*
X176263495Y-69071401D01*
X176399035Y-68877830D01*
X176498903Y-68663663D01*
X176560063Y-68435408D01*
X176580659Y-68200000D01*
X176560063Y-67964592D01*
X176498903Y-67736337D01*
X176399035Y-67522171D01*
X176399034Y-67522169D01*
X176263494Y-67328597D01*
X176096403Y-67161506D01*
X176015983Y-67105196D01*
X175939401Y-67051573D01*
X175895778Y-66996999D01*
X175888584Y-66927500D01*
X175920106Y-66865145D01*
X175939398Y-66848428D01*
X176096401Y-66738495D01*
X176263495Y-66571401D01*
X176399035Y-66377830D01*
X176498903Y-66163663D01*
X176560063Y-65935408D01*
X176580659Y-65700000D01*
X176560063Y-65464592D01*
X176498903Y-65236337D01*
X176399035Y-65022171D01*
X176399034Y-65022169D01*
X176263494Y-64828597D01*
X176096402Y-64661505D01*
X175902830Y-64525965D01*
X175902828Y-64525964D01*
X175795746Y-64476031D01*
X175688663Y-64426097D01*
X175688659Y-64426096D01*
X175688655Y-64426094D01*
X175460413Y-64364938D01*
X175460403Y-64364936D01*
X175283967Y-64349500D01*
X175283966Y-64349500D01*
X174916034Y-64349500D01*
X174916033Y-64349500D01*
X174739596Y-64364936D01*
X174739586Y-64364938D01*
X174511344Y-64426094D01*
X174511335Y-64426098D01*
X174297171Y-64525964D01*
X174297169Y-64525965D01*
X174103597Y-64661505D01*
X173936506Y-64828597D01*
X173936501Y-64828604D01*
X173800967Y-65022165D01*
X173800965Y-65022169D01*
X173701098Y-65236335D01*
X173701094Y-65236344D01*
X173639938Y-65464586D01*
X173639936Y-65464596D01*
X173619341Y-65699999D01*
X173619341Y-65700000D01*
X173639936Y-65935403D01*
X173639938Y-65935413D01*
X173701094Y-66163655D01*
X173701096Y-66163659D01*
X173701097Y-66163663D01*
X173749063Y-66266526D01*
X173800964Y-66377828D01*
X173800965Y-66377830D01*
X173936505Y-66571402D01*
X174103597Y-66738494D01*
X174260595Y-66848425D01*
X174304220Y-66903002D01*
X174311414Y-66972500D01*
X174279891Y-67034855D01*
X174260595Y-67051575D01*
X174103597Y-67161505D01*
X173936506Y-67328597D01*
X173936501Y-67328604D01*
X173800967Y-67522165D01*
X173800965Y-67522169D01*
X173701098Y-67736335D01*
X173701094Y-67736344D01*
X173639938Y-67964586D01*
X173639936Y-67964596D01*
X173619341Y-68199999D01*
X173619341Y-68200000D01*
X173639936Y-68435403D01*
X173639938Y-68435413D01*
X173701094Y-68663655D01*
X173701096Y-68663659D01*
X173701097Y-68663663D01*
X173713678Y-68690643D01*
X173800964Y-68877828D01*
X173800965Y-68877830D01*
X173936505Y-69071402D01*
X174103597Y-69238494D01*
X174260595Y-69348425D01*
X174304220Y-69403002D01*
X174311414Y-69472500D01*
X174279891Y-69534855D01*
X174260595Y-69551575D01*
X174103597Y-69661505D01*
X173936506Y-69828597D01*
X173936501Y-69828604D01*
X173800967Y-70022165D01*
X173800965Y-70022169D01*
X173701098Y-70236335D01*
X173701094Y-70236344D01*
X173639938Y-70464586D01*
X173639936Y-70464596D01*
X173619341Y-70699999D01*
X173619341Y-70700000D01*
X173639936Y-70935403D01*
X173639938Y-70935413D01*
X173701094Y-71163655D01*
X173701096Y-71163659D01*
X173701097Y-71163663D01*
X173712931Y-71189041D01*
X173800964Y-71377828D01*
X173800965Y-71377830D01*
X173936505Y-71571402D01*
X174103597Y-71738494D01*
X174261031Y-71848730D01*
X174304656Y-71903307D01*
X174311850Y-71972805D01*
X174280327Y-72035160D01*
X174261032Y-72051880D01*
X174103922Y-72161890D01*
X174103920Y-72161891D01*
X173936894Y-72328917D01*
X173801399Y-72522421D01*
X173701570Y-72736507D01*
X173701567Y-72736513D01*
X173644364Y-72949999D01*
X173644364Y-72950000D01*
X174696031Y-72950000D01*
X174663481Y-73000649D01*
X174625000Y-73131705D01*
X174625000Y-73268295D01*
X174663481Y-73399351D01*
X174696031Y-73450000D01*
X173644364Y-73450000D01*
X173701567Y-73663486D01*
X173701570Y-73663492D01*
X173801399Y-73877577D01*
X173801400Y-73877579D01*
X173936886Y-74071073D01*
X173936891Y-74071079D01*
X174103920Y-74238108D01*
X174103926Y-74238113D01*
X174261031Y-74348119D01*
X174304656Y-74402696D01*
X174311850Y-74472194D01*
X174280327Y-74534549D01*
X174261032Y-74551269D01*
X174103594Y-74661508D01*
X173936506Y-74828597D01*
X173936501Y-74828603D01*
X173801348Y-75021623D01*
X173746771Y-75065248D01*
X173699773Y-75074500D01*
X170882738Y-75074500D01*
X170867121Y-75072776D01*
X170867094Y-75073062D01*
X170859332Y-75072327D01*
X170792145Y-75074439D01*
X170788251Y-75074500D01*
X170760650Y-75074500D01*
X170756962Y-75074965D01*
X170756649Y-75075005D01*
X170745031Y-75075918D01*
X170701373Y-75077290D01*
X170701372Y-75077290D01*
X170682129Y-75082881D01*
X170663079Y-75086825D01*
X170643211Y-75089334D01*
X170643210Y-75089335D01*
X170602600Y-75105413D01*
X170591553Y-75109195D01*
X170549610Y-75121381D01*
X170549609Y-75121382D01*
X170532367Y-75131579D01*
X170514899Y-75140137D01*
X170496269Y-75147513D01*
X170496266Y-75147515D01*
X170460939Y-75173181D01*
X170451180Y-75179592D01*
X170413579Y-75201830D01*
X170399408Y-75216000D01*
X170384623Y-75228628D01*
X170368412Y-75240407D01*
X170340571Y-75274059D01*
X170332711Y-75282696D01*
X169816208Y-75799199D01*
X169803951Y-75809020D01*
X169804134Y-75809241D01*
X169798122Y-75814214D01*
X169752098Y-75863223D01*
X169749391Y-75866016D01*
X169729889Y-75885517D01*
X169729875Y-75885534D01*
X169727407Y-75888715D01*
X169719843Y-75897570D01*
X169689937Y-75929418D01*
X169689936Y-75929420D01*
X169680284Y-75946976D01*
X169669610Y-75963226D01*
X169657329Y-75979061D01*
X169657324Y-75979068D01*
X169639975Y-76019158D01*
X169634838Y-76029644D01*
X169613803Y-76067906D01*
X169608822Y-76087307D01*
X169602521Y-76105710D01*
X169594562Y-76124102D01*
X169594561Y-76124105D01*
X169587728Y-76167243D01*
X169585360Y-76178674D01*
X169574501Y-76220971D01*
X169574500Y-76220982D01*
X169574500Y-76241016D01*
X169572973Y-76260415D01*
X169569840Y-76280194D01*
X169569840Y-76280195D01*
X169573950Y-76323674D01*
X169574500Y-76335343D01*
X169574500Y-76901312D01*
X169554815Y-76968351D01*
X169542650Y-76984284D01*
X169467466Y-77067784D01*
X169372821Y-77231715D01*
X169372818Y-77231722D01*
X169314327Y-77411740D01*
X169314326Y-77411744D01*
X169294540Y-77600000D01*
X169314326Y-77788256D01*
X169314327Y-77788259D01*
X169372818Y-77968277D01*
X169372821Y-77968284D01*
X169467467Y-78132216D01*
X169594129Y-78272888D01*
X169747265Y-78384148D01*
X169747270Y-78384151D01*
X169920192Y-78461142D01*
X169920197Y-78461144D01*
X170105354Y-78500500D01*
X170105355Y-78500500D01*
X170294644Y-78500500D01*
X170294646Y-78500500D01*
X170479803Y-78461144D01*
X170652730Y-78384151D01*
X170805871Y-78272888D01*
X170932533Y-78132216D01*
X171027179Y-77968284D01*
X171085674Y-77788256D01*
X171105460Y-77600000D01*
X171085674Y-77411744D01*
X171027179Y-77231716D01*
X170932533Y-77067784D01*
X170857350Y-76984284D01*
X170827120Y-76921292D01*
X170825500Y-76901312D01*
X170825500Y-76610452D01*
X170845185Y-76543413D01*
X170861814Y-76522775D01*
X171022773Y-76361816D01*
X171084095Y-76328334D01*
X171110453Y-76325500D01*
X173699773Y-76325500D01*
X173766812Y-76345185D01*
X173801348Y-76378377D01*
X173936505Y-76571402D01*
X174103597Y-76738494D01*
X174260595Y-76848425D01*
X174304220Y-76903002D01*
X174311414Y-76972500D01*
X174279891Y-77034855D01*
X174260595Y-77051575D01*
X174103597Y-77161505D01*
X173936506Y-77328597D01*
X173936501Y-77328604D01*
X173800967Y-77522165D01*
X173800965Y-77522169D01*
X173701098Y-77736335D01*
X173701094Y-77736344D01*
X173639938Y-77964586D01*
X173639936Y-77964596D01*
X173619341Y-78199999D01*
X173619341Y-78200000D01*
X173639936Y-78435403D01*
X173639938Y-78435413D01*
X173701094Y-78663655D01*
X173701096Y-78663659D01*
X173701097Y-78663663D01*
X173742516Y-78752486D01*
X173800964Y-78877828D01*
X173800965Y-78877830D01*
X173936505Y-79071402D01*
X174083704Y-79218601D01*
X174117189Y-79279924D01*
X174112205Y-79349616D01*
X174070333Y-79405549D01*
X174061120Y-79411820D01*
X173906347Y-79507285D01*
X173906343Y-79507288D01*
X173782289Y-79631342D01*
X173690187Y-79780663D01*
X173690186Y-79780666D01*
X173635001Y-79947203D01*
X173635001Y-79947204D01*
X173635000Y-79947204D01*
X173624500Y-80049983D01*
X173624500Y-81350001D01*
X173624501Y-81350018D01*
X173635000Y-81452796D01*
X173635001Y-81452799D01*
X173690185Y-81619331D01*
X173690186Y-81619334D01*
X173782288Y-81768656D01*
X173906344Y-81892712D01*
X174055666Y-81984814D01*
X174222203Y-82039999D01*
X174324991Y-82050500D01*
X175875008Y-82050499D01*
X175977797Y-82039999D01*
X176144334Y-81984814D01*
X176293656Y-81892712D01*
X176417712Y-81768656D01*
X176509814Y-81619334D01*
X176564999Y-81452797D01*
X176575500Y-81350009D01*
X176575499Y-80049992D01*
X176564999Y-79947203D01*
X176509814Y-79780666D01*
X176417712Y-79631344D01*
X176293656Y-79507288D01*
X176182711Y-79438857D01*
X176138879Y-79411821D01*
X176092155Y-79359873D01*
X176080932Y-79290910D01*
X176108776Y-79226828D01*
X176116295Y-79218601D01*
X176175302Y-79159594D01*
X176263495Y-79071401D01*
X176399035Y-78877830D01*
X176403513Y-78868224D01*
X176449683Y-78815786D01*
X176470245Y-78805337D01*
X176497401Y-78794585D01*
X176508444Y-78790803D01*
X176550390Y-78778618D01*
X176567629Y-78768422D01*
X176585103Y-78759862D01*
X176603727Y-78752488D01*
X176603727Y-78752487D01*
X176603732Y-78752486D01*
X176639083Y-78726800D01*
X176648814Y-78720408D01*
X176686420Y-78698170D01*
X176700589Y-78683999D01*
X176715379Y-78671368D01*
X176731587Y-78659594D01*
X176759438Y-78625926D01*
X176767279Y-78617309D01*
X178183787Y-77200802D01*
X178196042Y-77190986D01*
X178195859Y-77190764D01*
X178201868Y-77185791D01*
X178201877Y-77185786D01*
X178247949Y-77136722D01*
X178250566Y-77134023D01*
X178270120Y-77114471D01*
X178272576Y-77111303D01*
X178280156Y-77102427D01*
X178310062Y-77070582D01*
X178319713Y-77053024D01*
X178330396Y-77036761D01*
X178342673Y-77020936D01*
X178360021Y-76980844D01*
X178365151Y-76970371D01*
X178386197Y-76932092D01*
X178391180Y-76912680D01*
X178397481Y-76894280D01*
X178405437Y-76875896D01*
X178412270Y-76832748D01*
X178414633Y-76821338D01*
X178425500Y-76779019D01*
X178425500Y-76758983D01*
X178427027Y-76739582D01*
X178430160Y-76719804D01*
X178426050Y-76676324D01*
X178425500Y-76664655D01*
X178425500Y-54082742D01*
X178427224Y-54067122D01*
X178426939Y-54067095D01*
X178427673Y-54059333D01*
X178425561Y-53992112D01*
X178425500Y-53988218D01*
X178425500Y-53960656D01*
X178425500Y-53960650D01*
X178424996Y-53956668D01*
X178424081Y-53945029D01*
X178423521Y-53927200D01*
X178422710Y-53901373D01*
X178417119Y-53882130D01*
X178413173Y-53863078D01*
X178410664Y-53843208D01*
X178394579Y-53802583D01*
X178390806Y-53791562D01*
X178378618Y-53749610D01*
X178378617Y-53749609D01*
X178378617Y-53749607D01*
X178378616Y-53749606D01*
X178368423Y-53732371D01*
X178359861Y-53714894D01*
X178352487Y-53696269D01*
X178339089Y-53677829D01*
X178326811Y-53660930D01*
X178320405Y-53651177D01*
X178298170Y-53613580D01*
X178298168Y-53613578D01*
X178298165Y-53613574D01*
X178284006Y-53599415D01*
X178271368Y-53584619D01*
X178264060Y-53574560D01*
X178259594Y-53568413D01*
X178258767Y-53567729D01*
X178225940Y-53540572D01*
X178217299Y-53532709D01*
X177461819Y-52777228D01*
X177428334Y-52715905D01*
X177425500Y-52689547D01*
X177425500Y-49882737D01*
X177427224Y-49867123D01*
X177426938Y-49867096D01*
X177427672Y-49859333D01*
X177425561Y-49792143D01*
X177425500Y-49788249D01*
X177425500Y-49760651D01*
X177425500Y-49760650D01*
X177424997Y-49756670D01*
X177424080Y-49745021D01*
X177422709Y-49701374D01*
X177422709Y-49701372D01*
X177417120Y-49682137D01*
X177413174Y-49663084D01*
X177410664Y-49643208D01*
X177394578Y-49602581D01*
X177390803Y-49591554D01*
X177378617Y-49549610D01*
X177368421Y-49532369D01*
X177359860Y-49514893D01*
X177358308Y-49510975D01*
X177352486Y-49496268D01*
X177326809Y-49460926D01*
X177320412Y-49451190D01*
X177298170Y-49413579D01*
X177298167Y-49413576D01*
X177298165Y-49413573D01*
X177284005Y-49399413D01*
X177271370Y-49384620D01*
X177259593Y-49368412D01*
X177225945Y-49340576D01*
X177217304Y-49332713D01*
X176438822Y-48554231D01*
X176405337Y-48492908D01*
X176406727Y-48434459D01*
X176460063Y-48235408D01*
X176480659Y-48000000D01*
X176460063Y-47764592D01*
X176398903Y-47536337D01*
X176299035Y-47322171D01*
X176299034Y-47322169D01*
X176163494Y-47128597D01*
X175996403Y-46961506D01*
X175838967Y-46851269D01*
X175795342Y-46796692D01*
X175788148Y-46727194D01*
X175819671Y-46664839D01*
X175838967Y-46648119D01*
X175996073Y-46538113D01*
X175996079Y-46538108D01*
X176163105Y-46371082D01*
X176298600Y-46177578D01*
X176398429Y-45963492D01*
X176398432Y-45963486D01*
X176455636Y-45750000D01*
X175403969Y-45750000D01*
X175436519Y-45699351D01*
X175475000Y-45568295D01*
X175475000Y-45431705D01*
X175436519Y-45300649D01*
X175403969Y-45250000D01*
X176455636Y-45250000D01*
X176455635Y-45249999D01*
X176398432Y-45036513D01*
X176398429Y-45036507D01*
X176298600Y-44822422D01*
X176298599Y-44822420D01*
X176163113Y-44628926D01*
X176163108Y-44628920D01*
X175996079Y-44461891D01*
X175996073Y-44461886D01*
X175838967Y-44351880D01*
X175795342Y-44297303D01*
X175788148Y-44227805D01*
X175819671Y-44165450D01*
X175838960Y-44148735D01*
X175996401Y-44038495D01*
X176163495Y-43871401D01*
X176299035Y-43677830D01*
X176398903Y-43463663D01*
X176460063Y-43235408D01*
X176480659Y-43000000D01*
X176460063Y-42764592D01*
X176398903Y-42536337D01*
X176299035Y-42322171D01*
X176299034Y-42322169D01*
X176163494Y-42128597D01*
X175996403Y-41961506D01*
X175940187Y-41922144D01*
X175839401Y-41851573D01*
X175795778Y-41796999D01*
X175788584Y-41727500D01*
X175820106Y-41665145D01*
X175839398Y-41648428D01*
X175996401Y-41538495D01*
X176163495Y-41371401D01*
X176299035Y-41177830D01*
X176398903Y-40963663D01*
X176460063Y-40735408D01*
X176480659Y-40500000D01*
X176460063Y-40264592D01*
X176398903Y-40036337D01*
X176299035Y-39822171D01*
X176299034Y-39822169D01*
X176163494Y-39628597D01*
X175996402Y-39461505D01*
X175802830Y-39325965D01*
X175802828Y-39325964D01*
X175695746Y-39276031D01*
X175588663Y-39226097D01*
X175588659Y-39226096D01*
X175588655Y-39226094D01*
X175360413Y-39164938D01*
X175360403Y-39164936D01*
X175183967Y-39149500D01*
X175183966Y-39149500D01*
X174816034Y-39149500D01*
X174816033Y-39149500D01*
X174639596Y-39164936D01*
X174639586Y-39164938D01*
X174411344Y-39226094D01*
X174411335Y-39226098D01*
X174197171Y-39325964D01*
X174197169Y-39325965D01*
X174003597Y-39461505D01*
X173836506Y-39628597D01*
X173836501Y-39628604D01*
X173700967Y-39822165D01*
X173700965Y-39822169D01*
X173601098Y-40036335D01*
X173601094Y-40036344D01*
X173539938Y-40264586D01*
X173539936Y-40264596D01*
X173519341Y-40499999D01*
X173519341Y-40500000D01*
X173539936Y-40735403D01*
X173539938Y-40735413D01*
X173601094Y-40963655D01*
X173601096Y-40963659D01*
X173601097Y-40963663D01*
X173651031Y-41070746D01*
X173700964Y-41177828D01*
X173700965Y-41177830D01*
X173836505Y-41371402D01*
X174003597Y-41538494D01*
X174160595Y-41648425D01*
X174204220Y-41703002D01*
X174211414Y-41772500D01*
X174179891Y-41834855D01*
X174160595Y-41851575D01*
X174003597Y-41961505D01*
X173836506Y-42128597D01*
X173836501Y-42128604D01*
X173700967Y-42322165D01*
X173700965Y-42322169D01*
X173601098Y-42536335D01*
X173601094Y-42536344D01*
X173539938Y-42764586D01*
X173539936Y-42764596D01*
X173519341Y-42999999D01*
X173519341Y-43000000D01*
X173539936Y-43235403D01*
X173539938Y-43235413D01*
X173601094Y-43463655D01*
X173601096Y-43463659D01*
X173601097Y-43463663D01*
X173651031Y-43570746D01*
X173700964Y-43677828D01*
X173700965Y-43677830D01*
X173836505Y-43871402D01*
X174003597Y-44038494D01*
X174161031Y-44148730D01*
X174204656Y-44203307D01*
X174211850Y-44272805D01*
X174180327Y-44335160D01*
X174161032Y-44351880D01*
X174003922Y-44461890D01*
X174003920Y-44461891D01*
X173836894Y-44628917D01*
X173701399Y-44822421D01*
X173601570Y-45036507D01*
X173601567Y-45036513D01*
X173544364Y-45249999D01*
X173544364Y-45250000D01*
X174596031Y-45250000D01*
X174563481Y-45300649D01*
X174525000Y-45431705D01*
X174525000Y-45568295D01*
X174563481Y-45699351D01*
X174596031Y-45750000D01*
X173544364Y-45750000D01*
X173601567Y-45963486D01*
X173601570Y-45963492D01*
X173701399Y-46177577D01*
X173701400Y-46177579D01*
X173836886Y-46371073D01*
X173836891Y-46371079D01*
X174003920Y-46538108D01*
X174003926Y-46538113D01*
X174161031Y-46648119D01*
X174204656Y-46702696D01*
X174211850Y-46772194D01*
X174180327Y-46834549D01*
X174161032Y-46851269D01*
X174003594Y-46961508D01*
X173836506Y-47128597D01*
X173836501Y-47128604D01*
X173700967Y-47322165D01*
X173700965Y-47322169D01*
X173601098Y-47536335D01*
X173601094Y-47536344D01*
X173539938Y-47764586D01*
X173539936Y-47764596D01*
X173519341Y-47999999D01*
X173519341Y-48000000D01*
X173539936Y-48235403D01*
X173539938Y-48235413D01*
X173601094Y-48463655D01*
X173601096Y-48463659D01*
X173601097Y-48463663D01*
X173617204Y-48498204D01*
X173700964Y-48677828D01*
X173700965Y-48677830D01*
X173836505Y-48871402D01*
X174003597Y-49038494D01*
X174160595Y-49148425D01*
X174204220Y-49203002D01*
X174211414Y-49272500D01*
X174179891Y-49334855D01*
X174160595Y-49351575D01*
X174003597Y-49461505D01*
X173836506Y-49628597D01*
X173836501Y-49628603D01*
X173701348Y-49821623D01*
X173646771Y-49865248D01*
X173599773Y-49874500D01*
X163582743Y-49874500D01*
X163567122Y-49872775D01*
X163567095Y-49873061D01*
X163559333Y-49872326D01*
X163492113Y-49874439D01*
X163488219Y-49874500D01*
X163460650Y-49874500D01*
X163456673Y-49875002D01*
X163445042Y-49875917D01*
X163401374Y-49877289D01*
X163401368Y-49877290D01*
X163382126Y-49882880D01*
X163363087Y-49886823D01*
X163343217Y-49889334D01*
X163343203Y-49889337D01*
X163302598Y-49905413D01*
X163291554Y-49909194D01*
X163249614Y-49921379D01*
X163249610Y-49921381D01*
X163232366Y-49931579D01*
X163214905Y-49940133D01*
X163196274Y-49947510D01*
X163196262Y-49947517D01*
X163160933Y-49973185D01*
X163151173Y-49979596D01*
X163113580Y-50001829D01*
X163099414Y-50015995D01*
X163084624Y-50028627D01*
X163068414Y-50040404D01*
X163068411Y-50040407D01*
X163040578Y-50074052D01*
X163032716Y-50082692D01*
X162916204Y-50199203D01*
X162903944Y-50209027D01*
X162904126Y-50209248D01*
X162898119Y-50214216D01*
X162852096Y-50263225D01*
X162849389Y-50266018D01*
X162829889Y-50285517D01*
X162829875Y-50285534D01*
X162827407Y-50288715D01*
X162819843Y-50297570D01*
X162789937Y-50329418D01*
X162789936Y-50329420D01*
X162780284Y-50346976D01*
X162769610Y-50363226D01*
X162757329Y-50379061D01*
X162757324Y-50379068D01*
X162739975Y-50419158D01*
X162734838Y-50429644D01*
X162713803Y-50467906D01*
X162708822Y-50487307D01*
X162702521Y-50505710D01*
X162694562Y-50524102D01*
X162694561Y-50524105D01*
X162687728Y-50567243D01*
X162685360Y-50578674D01*
X162674501Y-50620971D01*
X162674500Y-50620982D01*
X162674500Y-50641016D01*
X162672973Y-50660415D01*
X162669840Y-50680194D01*
X162669840Y-50680195D01*
X162673950Y-50723674D01*
X162674500Y-50735343D01*
X162674500Y-55789547D01*
X162654815Y-55856586D01*
X162638181Y-55877228D01*
X159977228Y-58538181D01*
X159915905Y-58571666D01*
X159889547Y-58574500D01*
X159467535Y-58574500D01*
X159400496Y-58554815D01*
X159354741Y-58502011D01*
X159344177Y-58463102D01*
X159343663Y-58458071D01*
X159339999Y-58422203D01*
X159284814Y-58255666D01*
X159192712Y-58106344D01*
X159068656Y-57982288D01*
X158919334Y-57890186D01*
X158752797Y-57835001D01*
X158752795Y-57835000D01*
X158650010Y-57824500D01*
X157749998Y-57824500D01*
X157749980Y-57824501D01*
X157647203Y-57835000D01*
X157647200Y-57835001D01*
X157480668Y-57890185D01*
X157480663Y-57890187D01*
X157331342Y-57982289D01*
X157207289Y-58106342D01*
X157115187Y-58255663D01*
X157115185Y-58255668D01*
X157093961Y-58319718D01*
X157060001Y-58422203D01*
X157060001Y-58422204D01*
X157060000Y-58422204D01*
X157049500Y-58524983D01*
X157049500Y-59875001D01*
X157049501Y-59875018D01*
X157060000Y-59977796D01*
X157060001Y-59977799D01*
X157115185Y-60144331D01*
X157115187Y-60144336D01*
X157122385Y-60156006D01*
X157140518Y-60185404D01*
X157158958Y-60252796D01*
X157138035Y-60319459D01*
X157084393Y-60364229D01*
X157034979Y-60374500D01*
X156403748Y-60374500D01*
X156336709Y-60354815D01*
X156311600Y-60333474D01*
X156305873Y-60327114D01*
X156305869Y-60327110D01*
X156232821Y-60274038D01*
X156190155Y-60218708D01*
X156184176Y-60149095D01*
X156187995Y-60134732D01*
X156239999Y-59977797D01*
X156250500Y-59875009D01*
X156250499Y-58524992D01*
X156248151Y-58502011D01*
X156239999Y-58422203D01*
X156239998Y-58422200D01*
X156225792Y-58379329D01*
X156184814Y-58255666D01*
X156092712Y-58106344D01*
X155968656Y-57982288D01*
X155819334Y-57890186D01*
X155652797Y-57835001D01*
X155652795Y-57835000D01*
X155550016Y-57824500D01*
X155550009Y-57824500D01*
X155524500Y-57824500D01*
X155457461Y-57804815D01*
X155411706Y-57752011D01*
X155400500Y-57700500D01*
X155400500Y-57059590D01*
X155420185Y-56992551D01*
X155472989Y-56946796D01*
X155485485Y-56941887D01*
X155506834Y-56934814D01*
X155656156Y-56842712D01*
X155780212Y-56718656D01*
X155872314Y-56569334D01*
X155927499Y-56402797D01*
X155938000Y-56300009D01*
X155938000Y-55850000D01*
X156737501Y-55850000D01*
X156737501Y-56299986D01*
X156747994Y-56402697D01*
X156803141Y-56569119D01*
X156803143Y-56569124D01*
X156895184Y-56718345D01*
X157019154Y-56842315D01*
X157168375Y-56934356D01*
X157168380Y-56934358D01*
X157334802Y-56989505D01*
X157334809Y-56989506D01*
X157437519Y-56999999D01*
X157649999Y-56999999D01*
X157650000Y-56999998D01*
X157650000Y-55850000D01*
X158150000Y-55850000D01*
X158150000Y-56999999D01*
X158362472Y-56999999D01*
X158362486Y-56999998D01*
X158465197Y-56989505D01*
X158631619Y-56934358D01*
X158631624Y-56934356D01*
X158780845Y-56842315D01*
X158904815Y-56718345D01*
X158996856Y-56569124D01*
X158996858Y-56569119D01*
X159052005Y-56402697D01*
X159052006Y-56402690D01*
X159062499Y-56299986D01*
X159062500Y-56299973D01*
X159062500Y-55850000D01*
X158150000Y-55850000D01*
X157650000Y-55850000D01*
X156737501Y-55850000D01*
X155938000Y-55850000D01*
X155937999Y-55372952D01*
X155957683Y-55305914D01*
X155974318Y-55285272D01*
X156417772Y-54841819D01*
X156479095Y-54808334D01*
X156505453Y-54805500D01*
X156613500Y-54805500D01*
X156680539Y-54825185D01*
X156726294Y-54877989D01*
X156737500Y-54929500D01*
X156737500Y-55350000D01*
X159062498Y-55350000D01*
X159076272Y-55336226D01*
X159137595Y-55302740D01*
X159207286Y-55307724D01*
X159251633Y-55336224D01*
X159480473Y-55565064D01*
X159661038Y-55745629D01*
X159694523Y-55806952D01*
X159696678Y-55820348D01*
X159699795Y-55850000D01*
X159714326Y-55988256D01*
X159714327Y-55988259D01*
X159772818Y-56168277D01*
X159772821Y-56168284D01*
X159867467Y-56332216D01*
X159994129Y-56472888D01*
X160147265Y-56584148D01*
X160147270Y-56584151D01*
X160320192Y-56661142D01*
X160320197Y-56661144D01*
X160505354Y-56700500D01*
X160505355Y-56700500D01*
X160694644Y-56700500D01*
X160694646Y-56700500D01*
X160879803Y-56661144D01*
X161052730Y-56584151D01*
X161205871Y-56472888D01*
X161332533Y-56332216D01*
X161427179Y-56168284D01*
X161485674Y-55988256D01*
X161505460Y-55800000D01*
X161485674Y-55611744D01*
X161427179Y-55431716D01*
X161332533Y-55267784D01*
X161205871Y-55127112D01*
X161205870Y-55127111D01*
X161052734Y-55015851D01*
X161052729Y-55015848D01*
X160879807Y-54938857D01*
X160879802Y-54938855D01*
X160734001Y-54907865D01*
X160694646Y-54899500D01*
X160694645Y-54899500D01*
X160635452Y-54899500D01*
X160568413Y-54879815D01*
X160547771Y-54863181D01*
X160025340Y-54340750D01*
X159480803Y-53796212D01*
X159470980Y-53783950D01*
X159470759Y-53784134D01*
X159465786Y-53778122D01*
X159416776Y-53732099D01*
X159413977Y-53729386D01*
X159394477Y-53709885D01*
X159394471Y-53709880D01*
X159391286Y-53707409D01*
X159382434Y-53699848D01*
X159350582Y-53669938D01*
X159350580Y-53669936D01*
X159350577Y-53669935D01*
X159333029Y-53660288D01*
X159316763Y-53649604D01*
X159300932Y-53637324D01*
X159260849Y-53619978D01*
X159250363Y-53614841D01*
X159212094Y-53593803D01*
X159212092Y-53593802D01*
X159192693Y-53588822D01*
X159174281Y-53582518D01*
X159155898Y-53574562D01*
X159155892Y-53574560D01*
X159112760Y-53567729D01*
X159101322Y-53565361D01*
X159059020Y-53554500D01*
X159059019Y-53554500D01*
X159038984Y-53554500D01*
X159019586Y-53552973D01*
X159012162Y-53551797D01*
X158999805Y-53549840D01*
X158999804Y-53549840D01*
X158956325Y-53553950D01*
X158944656Y-53554500D01*
X158721047Y-53554500D01*
X158654008Y-53534815D01*
X158608253Y-53482011D01*
X158598309Y-53412853D01*
X158627334Y-53349297D01*
X158655951Y-53324961D01*
X158668343Y-53317317D01*
X158792315Y-53193345D01*
X158884356Y-53044124D01*
X158884358Y-53044119D01*
X158939505Y-52877697D01*
X158939506Y-52877690D01*
X158949999Y-52774986D01*
X158950000Y-52774973D01*
X158950000Y-52350000D01*
X156650001Y-52350000D01*
X156650001Y-52774986D01*
X156660494Y-52877697D01*
X156715641Y-53044119D01*
X156715643Y-53044124D01*
X156807684Y-53193345D01*
X156931656Y-53317317D01*
X156944049Y-53324961D01*
X156990774Y-53376908D01*
X157001997Y-53445871D01*
X156974154Y-53509953D01*
X156916085Y-53548810D01*
X156878953Y-53554500D01*
X156277737Y-53554500D01*
X156262120Y-53552776D01*
X156262093Y-53553062D01*
X156254331Y-53552327D01*
X156187144Y-53554439D01*
X156183250Y-53554500D01*
X156155650Y-53554500D01*
X156151962Y-53554965D01*
X156151649Y-53555005D01*
X156140031Y-53555918D01*
X156096373Y-53557290D01*
X156096372Y-53557290D01*
X156077129Y-53562881D01*
X156058079Y-53566825D01*
X156038211Y-53569334D01*
X156038210Y-53569335D01*
X155997600Y-53585413D01*
X155986553Y-53589195D01*
X155944610Y-53601381D01*
X155944609Y-53601382D01*
X155927367Y-53611579D01*
X155909899Y-53620137D01*
X155891269Y-53627513D01*
X155891266Y-53627515D01*
X155855939Y-53653181D01*
X155846180Y-53659592D01*
X155808579Y-53681830D01*
X155794408Y-53696000D01*
X155779623Y-53708628D01*
X155763412Y-53720407D01*
X155735571Y-53754059D01*
X155727711Y-53762696D01*
X155612180Y-53878227D01*
X155550859Y-53911712D01*
X155481167Y-53906728D01*
X155425233Y-53864857D01*
X155400816Y-53799393D01*
X155400500Y-53790546D01*
X155400500Y-53490638D01*
X155420185Y-53423599D01*
X155459401Y-53385100D01*
X155568656Y-53317712D01*
X155692712Y-53193656D01*
X155784814Y-53044334D01*
X155839999Y-52877797D01*
X155850500Y-52775009D01*
X155850499Y-51850000D01*
X156650000Y-51850000D01*
X157550000Y-51850000D01*
X157550000Y-50725000D01*
X158050000Y-50725000D01*
X158050000Y-51850000D01*
X158949999Y-51850000D01*
X158949999Y-51425028D01*
X158949998Y-51425013D01*
X158939505Y-51322302D01*
X158884358Y-51155880D01*
X158884356Y-51155875D01*
X158792315Y-51006654D01*
X158668345Y-50882684D01*
X158519124Y-50790643D01*
X158519119Y-50790641D01*
X158352697Y-50735494D01*
X158352690Y-50735493D01*
X158249986Y-50725000D01*
X158050000Y-50725000D01*
X157550000Y-50725000D01*
X157350029Y-50725000D01*
X157350012Y-50725001D01*
X157247302Y-50735494D01*
X157080880Y-50790641D01*
X157080875Y-50790643D01*
X156931654Y-50882684D01*
X156807684Y-51006654D01*
X156715643Y-51155875D01*
X156715641Y-51155880D01*
X156660494Y-51322302D01*
X156660493Y-51322309D01*
X156650000Y-51425013D01*
X156650000Y-51850000D01*
X155850499Y-51850000D01*
X155850499Y-51424992D01*
X155839999Y-51322203D01*
X155784814Y-51155666D01*
X155692712Y-51006344D01*
X155568656Y-50882288D01*
X155419334Y-50790186D01*
X155419333Y-50790185D01*
X155419332Y-50790185D01*
X155410493Y-50787256D01*
X155353049Y-50747482D01*
X155326228Y-50682965D01*
X155325500Y-50669551D01*
X155325500Y-50151307D01*
X155345185Y-50084268D01*
X155397989Y-50038513D01*
X155403781Y-50036238D01*
X155406828Y-50034817D01*
X155406831Y-50034814D01*
X155406834Y-50034814D01*
X155556156Y-49942712D01*
X155680212Y-49818656D01*
X155772314Y-49669334D01*
X155827499Y-49502797D01*
X155838000Y-49400009D01*
X155838000Y-48950000D01*
X156637501Y-48950000D01*
X156637501Y-49399986D01*
X156647994Y-49502697D01*
X156703141Y-49669119D01*
X156703143Y-49669124D01*
X156795184Y-49818345D01*
X156919154Y-49942315D01*
X157068375Y-50034356D01*
X157068380Y-50034358D01*
X157234802Y-50089505D01*
X157234809Y-50089506D01*
X157337519Y-50099999D01*
X157549999Y-50099999D01*
X157550000Y-50099998D01*
X157550000Y-48950000D01*
X158050000Y-48950000D01*
X158050000Y-50099999D01*
X158262472Y-50099999D01*
X158262486Y-50099998D01*
X158365197Y-50089505D01*
X158531619Y-50034358D01*
X158531624Y-50034356D01*
X158680845Y-49942315D01*
X158804815Y-49818345D01*
X158896856Y-49669124D01*
X158896858Y-49669119D01*
X158952005Y-49502697D01*
X158952006Y-49502690D01*
X158962499Y-49399986D01*
X158962500Y-49399973D01*
X158962500Y-48950000D01*
X158050000Y-48950000D01*
X157550000Y-48950000D01*
X156637501Y-48950000D01*
X155838000Y-48950000D01*
X155837999Y-48450000D01*
X156637500Y-48450000D01*
X157550000Y-48450000D01*
X157550000Y-47300000D01*
X158050000Y-47300000D01*
X158050000Y-48450000D01*
X158962499Y-48450000D01*
X158962499Y-48000028D01*
X158962498Y-48000013D01*
X158952005Y-47897302D01*
X158896858Y-47730880D01*
X158896856Y-47730875D01*
X158804815Y-47581654D01*
X158680845Y-47457684D01*
X158531624Y-47365643D01*
X158531619Y-47365641D01*
X158365197Y-47310494D01*
X158365190Y-47310493D01*
X158262486Y-47300000D01*
X158050000Y-47300000D01*
X157550000Y-47300000D01*
X157337529Y-47300000D01*
X157337512Y-47300001D01*
X157234802Y-47310494D01*
X157068380Y-47365641D01*
X157068375Y-47365643D01*
X156919154Y-47457684D01*
X156795184Y-47581654D01*
X156703143Y-47730875D01*
X156703141Y-47730880D01*
X156647994Y-47897302D01*
X156647993Y-47897309D01*
X156637500Y-48000013D01*
X156637500Y-48450000D01*
X155837999Y-48450000D01*
X155837999Y-47999992D01*
X155827499Y-47897203D01*
X155772314Y-47730666D01*
X155680212Y-47581344D01*
X155556156Y-47457288D01*
X155406834Y-47365186D01*
X155406832Y-47365185D01*
X155406830Y-47365184D01*
X155406831Y-47365184D01*
X155385494Y-47358114D01*
X155328050Y-47318341D01*
X155301228Y-47253825D01*
X155300500Y-47240409D01*
X155300500Y-47059590D01*
X155320185Y-46992551D01*
X155372989Y-46946796D01*
X155385485Y-46941887D01*
X155406834Y-46934814D01*
X155556156Y-46842712D01*
X155680212Y-46718656D01*
X155772314Y-46569334D01*
X155827499Y-46402797D01*
X155838000Y-46300009D01*
X155838000Y-45850000D01*
X156637501Y-45850000D01*
X156637501Y-46299986D01*
X156647994Y-46402697D01*
X156703141Y-46569119D01*
X156703143Y-46569124D01*
X156795184Y-46718345D01*
X156919154Y-46842315D01*
X157068375Y-46934356D01*
X157068380Y-46934358D01*
X157234802Y-46989505D01*
X157234809Y-46989506D01*
X157337519Y-46999999D01*
X157549999Y-46999999D01*
X157550000Y-46999998D01*
X157550000Y-45850000D01*
X158050000Y-45850000D01*
X158050000Y-46999999D01*
X158262472Y-46999999D01*
X158262486Y-46999998D01*
X158365197Y-46989505D01*
X158531619Y-46934358D01*
X158531624Y-46934356D01*
X158680845Y-46842315D01*
X158804815Y-46718345D01*
X158896856Y-46569124D01*
X158896858Y-46569119D01*
X158952005Y-46402697D01*
X158952006Y-46402690D01*
X158962499Y-46299986D01*
X158962500Y-46299973D01*
X158962500Y-45850000D01*
X158050000Y-45850000D01*
X157550000Y-45850000D01*
X156637501Y-45850000D01*
X155838000Y-45850000D01*
X155837999Y-45350000D01*
X156637500Y-45350000D01*
X157550000Y-45350000D01*
X157550000Y-44200000D01*
X158050000Y-44200000D01*
X158050000Y-45350000D01*
X158962499Y-45350000D01*
X158962499Y-44900028D01*
X158962498Y-44900013D01*
X158952005Y-44797302D01*
X158896858Y-44630880D01*
X158896856Y-44630875D01*
X158804815Y-44481654D01*
X158680845Y-44357684D01*
X158531624Y-44265643D01*
X158531619Y-44265641D01*
X158365197Y-44210494D01*
X158365190Y-44210493D01*
X158262486Y-44200000D01*
X158050000Y-44200000D01*
X157550000Y-44200000D01*
X157337529Y-44200000D01*
X157337512Y-44200001D01*
X157234802Y-44210494D01*
X157068380Y-44265641D01*
X157068375Y-44265643D01*
X156919154Y-44357684D01*
X156795184Y-44481654D01*
X156703143Y-44630875D01*
X156703141Y-44630880D01*
X156647994Y-44797302D01*
X156647993Y-44797309D01*
X156637500Y-44900013D01*
X156637500Y-45350000D01*
X155837999Y-45350000D01*
X155837999Y-44899992D01*
X155827499Y-44797203D01*
X155772314Y-44630666D01*
X155680212Y-44481344D01*
X155556156Y-44357288D01*
X155420967Y-44273903D01*
X155406836Y-44265187D01*
X155406831Y-44265185D01*
X155405362Y-44264698D01*
X155240297Y-44210001D01*
X155240295Y-44210000D01*
X155137510Y-44199500D01*
X154212498Y-44199500D01*
X154212480Y-44199501D01*
X154109703Y-44210000D01*
X154109700Y-44210001D01*
X153943168Y-44265185D01*
X153943163Y-44265187D01*
X153793842Y-44357289D01*
X153669789Y-44481342D01*
X153577687Y-44630663D01*
X153577685Y-44630668D01*
X153577615Y-44630880D01*
X153522501Y-44797203D01*
X153522501Y-44797204D01*
X153522500Y-44797204D01*
X153512000Y-44899983D01*
X153512000Y-46300001D01*
X153512001Y-46300018D01*
X153522500Y-46402796D01*
X153522501Y-46402799D01*
X153544036Y-46467785D01*
X153577686Y-46569334D01*
X153669788Y-46718656D01*
X153793844Y-46842712D01*
X153943166Y-46934814D01*
X153964501Y-46941883D01*
X154021946Y-46981653D01*
X154048771Y-47046167D01*
X154049500Y-47059590D01*
X154049500Y-47240409D01*
X154029815Y-47307448D01*
X153977011Y-47353203D01*
X153964506Y-47358114D01*
X153943168Y-47365184D01*
X153793842Y-47457289D01*
X153669789Y-47581342D01*
X153577687Y-47730663D01*
X153577685Y-47730668D01*
X153565386Y-47767784D01*
X153534451Y-47861142D01*
X153522501Y-47897204D01*
X153522500Y-47897205D01*
X153516664Y-47954333D01*
X153490267Y-48019025D01*
X153433086Y-48059176D01*
X153363275Y-48062039D01*
X153302999Y-48026704D01*
X153275375Y-47980048D01*
X153271742Y-47968868D01*
X153248458Y-47897205D01*
X153227181Y-47831721D01*
X153227178Y-47831715D01*
X153225023Y-47827982D01*
X153132533Y-47667784D01*
X153005871Y-47527112D01*
X152990369Y-47515849D01*
X152852734Y-47415851D01*
X152852729Y-47415848D01*
X152679807Y-47338857D01*
X152679802Y-47338855D01*
X152532039Y-47307448D01*
X152494646Y-47299500D01*
X152305354Y-47299500D01*
X152272897Y-47306398D01*
X152120197Y-47338855D01*
X152120192Y-47338857D01*
X151947270Y-47415848D01*
X151947265Y-47415851D01*
X151816782Y-47510653D01*
X151750976Y-47534133D01*
X151682922Y-47518307D01*
X151634227Y-47468201D01*
X151620352Y-47399723D01*
X151625966Y-47372017D01*
X151636741Y-47338855D01*
X151685674Y-47188256D01*
X151705460Y-47000000D01*
X151685674Y-46811744D01*
X151627179Y-46631716D01*
X151532533Y-46467784D01*
X151405871Y-46327112D01*
X151405870Y-46327111D01*
X151252734Y-46215851D01*
X151252729Y-46215848D01*
X151079807Y-46138857D01*
X151079802Y-46138855D01*
X150934001Y-46107865D01*
X150894646Y-46099500D01*
X150705354Y-46099500D01*
X150672897Y-46106398D01*
X150520197Y-46138855D01*
X150520192Y-46138857D01*
X150347270Y-46215848D01*
X150347265Y-46215851D01*
X150194129Y-46327111D01*
X150067466Y-46467785D01*
X149972821Y-46631715D01*
X149972818Y-46631722D01*
X149914327Y-46811740D01*
X149914326Y-46811744D01*
X149901439Y-46934358D01*
X149896679Y-46979649D01*
X149870094Y-47044263D01*
X149861039Y-47054368D01*
X148933168Y-47982239D01*
X148871845Y-48015724D01*
X148802153Y-48010740D01*
X148746220Y-47968868D01*
X148729997Y-47937582D01*
X148729825Y-47937659D01*
X148728537Y-47934768D01*
X148727555Y-47932873D01*
X148727180Y-47931720D01*
X148727179Y-47931716D01*
X148632533Y-47767784D01*
X148505871Y-47627112D01*
X148505870Y-47627111D01*
X148352734Y-47515851D01*
X148352729Y-47515848D01*
X148179807Y-47438857D01*
X148179802Y-47438855D01*
X147997840Y-47400179D01*
X147994646Y-47399500D01*
X147805354Y-47399500D01*
X147805347Y-47399500D01*
X147804177Y-47399749D01*
X147803484Y-47399696D01*
X147798888Y-47400179D01*
X147798799Y-47399338D01*
X147734510Y-47394425D01*
X147690728Y-47366137D01*
X147413018Y-47088427D01*
X147379533Y-47027104D01*
X147376699Y-47000746D01*
X147376699Y-46949329D01*
X147376698Y-46949323D01*
X147376697Y-46949316D01*
X147370291Y-46889717D01*
X147357540Y-46855532D01*
X147352557Y-46785842D01*
X147357540Y-46768869D01*
X147370291Y-46734683D01*
X147376700Y-46675073D01*
X147376699Y-45679328D01*
X147370291Y-45619717D01*
X147357273Y-45584816D01*
X147352290Y-45515126D01*
X147357275Y-45498149D01*
X147369797Y-45464575D01*
X147369798Y-45464572D01*
X147376199Y-45405044D01*
X147376200Y-45405027D01*
X147376200Y-45157200D01*
X144876200Y-45157200D01*
X144876200Y-45405044D01*
X144882601Y-45464572D01*
X144882603Y-45464579D01*
X144895125Y-45498152D01*
X144900109Y-45567843D01*
X144895125Y-45584817D01*
X144882109Y-45619714D01*
X144882108Y-45619716D01*
X144875701Y-45679316D01*
X144875701Y-45679323D01*
X144875700Y-45679335D01*
X144875700Y-46675070D01*
X144875701Y-46675076D01*
X144882108Y-46734681D01*
X144894859Y-46768869D01*
X144899842Y-46838561D01*
X144894859Y-46855531D01*
X144882108Y-46889718D01*
X144876500Y-46941882D01*
X144875701Y-46949323D01*
X144875700Y-46949335D01*
X144875700Y-47945070D01*
X144875701Y-47945076D01*
X144882108Y-48004681D01*
X144894859Y-48038869D01*
X144899842Y-48108561D01*
X144894859Y-48125531D01*
X144882108Y-48159718D01*
X144875701Y-48219316D01*
X144875700Y-48219335D01*
X144875700Y-49215070D01*
X144875701Y-49215076D01*
X144882108Y-49274681D01*
X144894859Y-49308869D01*
X144899842Y-49378561D01*
X144894859Y-49395531D01*
X144882108Y-49429718D01*
X144878691Y-49461505D01*
X144875701Y-49489323D01*
X144875700Y-49489335D01*
X144875700Y-50485070D01*
X144875701Y-50485076D01*
X144882108Y-50544681D01*
X144894859Y-50578869D01*
X144899842Y-50648561D01*
X144894859Y-50665531D01*
X144882108Y-50699718D01*
X144875725Y-50759092D01*
X144875701Y-50759323D01*
X144875700Y-50759335D01*
X144875700Y-51755070D01*
X144875701Y-51755076D01*
X144882108Y-51814681D01*
X144894859Y-51848869D01*
X144899842Y-51918561D01*
X144894859Y-51935531D01*
X144882108Y-51969718D01*
X144875701Y-52029316D01*
X144875701Y-52029323D01*
X144875700Y-52029335D01*
X144875700Y-53025070D01*
X144875701Y-53025072D01*
X144882108Y-53084681D01*
X144894859Y-53118869D01*
X144899842Y-53188561D01*
X144894859Y-53205531D01*
X144882108Y-53239718D01*
X144875701Y-53299316D01*
X144875701Y-53299323D01*
X144875700Y-53299335D01*
X144875700Y-54295070D01*
X144875701Y-54295076D01*
X144882108Y-54354681D01*
X144894859Y-54388869D01*
X144899842Y-54458561D01*
X144894859Y-54475531D01*
X144882108Y-54509718D01*
X144875952Y-54566981D01*
X144875701Y-54569323D01*
X144875700Y-54569335D01*
X144875700Y-55565070D01*
X144875701Y-55565076D01*
X144882108Y-55624681D01*
X144894859Y-55658869D01*
X144899842Y-55728561D01*
X144894859Y-55745531D01*
X144882108Y-55779718D01*
X144875701Y-55839316D01*
X144875701Y-55839323D01*
X144875700Y-55839335D01*
X144875700Y-56835070D01*
X144875701Y-56835076D01*
X144882108Y-56894681D01*
X144894859Y-56928869D01*
X144899842Y-56998561D01*
X144894859Y-57015531D01*
X144882108Y-57049718D01*
X144881047Y-57059590D01*
X144875701Y-57109323D01*
X144875700Y-57109335D01*
X144875700Y-58105070D01*
X144875701Y-58105076D01*
X144882108Y-58164681D01*
X144894859Y-58198869D01*
X144899842Y-58268561D01*
X144894859Y-58285531D01*
X144882108Y-58319718D01*
X144875701Y-58379316D01*
X144875701Y-58379323D01*
X144875700Y-58379335D01*
X144875700Y-59375070D01*
X144875701Y-59375076D01*
X144882108Y-59434681D01*
X144894859Y-59468869D01*
X144899842Y-59538561D01*
X144894859Y-59555531D01*
X144882108Y-59589718D01*
X144875701Y-59649316D01*
X144875701Y-59649323D01*
X144875700Y-59649335D01*
X144875700Y-60645070D01*
X144875701Y-60645076D01*
X144882108Y-60704681D01*
X144894859Y-60738869D01*
X144899842Y-60808561D01*
X144894859Y-60825531D01*
X144882108Y-60859718D01*
X144877691Y-60900806D01*
X144875701Y-60919323D01*
X144875700Y-60919335D01*
X144875700Y-61915070D01*
X144875701Y-61915076D01*
X144882108Y-61974683D01*
X144932402Y-62109528D01*
X144932406Y-62109535D01*
X145018652Y-62224744D01*
X145018655Y-62224747D01*
X145133864Y-62310993D01*
X145133871Y-62310997D01*
X145177073Y-62327110D01*
X145268717Y-62361291D01*
X145328327Y-62367700D01*
X145911746Y-62367699D01*
X145978785Y-62387383D01*
X145999427Y-62404018D01*
X146379197Y-62783788D01*
X146389022Y-62796051D01*
X146389243Y-62795869D01*
X146394211Y-62801874D01*
X146394213Y-62801876D01*
X146394214Y-62801877D01*
X146415043Y-62821437D01*
X146443222Y-62847899D01*
X146446021Y-62850612D01*
X146465522Y-62870114D01*
X146465526Y-62870117D01*
X146465529Y-62870120D01*
X146468702Y-62872581D01*
X146477574Y-62880159D01*
X146509418Y-62910062D01*
X146526976Y-62919714D01*
X146543235Y-62930395D01*
X146559064Y-62942673D01*
X146599155Y-62960021D01*
X146609626Y-62965151D01*
X146632180Y-62977550D01*
X146647902Y-62986194D01*
X146647904Y-62986195D01*
X146647908Y-62986197D01*
X146667316Y-62991180D01*
X146685719Y-62997481D01*
X146704101Y-63005436D01*
X146704102Y-63005436D01*
X146704104Y-63005437D01*
X146747250Y-63012270D01*
X146758672Y-63014636D01*
X146800981Y-63025500D01*
X146821016Y-63025500D01*
X146840414Y-63027026D01*
X146860194Y-63030159D01*
X146860195Y-63030160D01*
X146860195Y-63030159D01*
X146860196Y-63030160D01*
X146903675Y-63026050D01*
X146915344Y-63025500D01*
X150117257Y-63025500D01*
X150132877Y-63027224D01*
X150132904Y-63026939D01*
X150140660Y-63027671D01*
X150140667Y-63027673D01*
X150207873Y-63025561D01*
X150211768Y-63025500D01*
X150239346Y-63025500D01*
X150239350Y-63025500D01*
X150243324Y-63024997D01*
X150254963Y-63024080D01*
X150298627Y-63022709D01*
X150317869Y-63017117D01*
X150336912Y-63013174D01*
X150356792Y-63010664D01*
X150397401Y-62994585D01*
X150408444Y-62990803D01*
X150450390Y-62978618D01*
X150467629Y-62968422D01*
X150485103Y-62959862D01*
X150503727Y-62952488D01*
X150503727Y-62952487D01*
X150503732Y-62952486D01*
X150539083Y-62926800D01*
X150548814Y-62920408D01*
X150586420Y-62898170D01*
X150600589Y-62883999D01*
X150615379Y-62871368D01*
X150631587Y-62859594D01*
X150659438Y-62825926D01*
X150667270Y-62817318D01*
X150720120Y-62764470D01*
X150720119Y-62764470D01*
X150742732Y-62741856D01*
X150778702Y-62705888D01*
X150778703Y-62705885D01*
X152122772Y-61361819D01*
X152184095Y-61328334D01*
X152210453Y-61325500D01*
X152896252Y-61325500D01*
X152963291Y-61345185D01*
X152988400Y-61366526D01*
X152994126Y-61372885D01*
X152994130Y-61372889D01*
X153147265Y-61484148D01*
X153147270Y-61484151D01*
X153320192Y-61561142D01*
X153320197Y-61561144D01*
X153505354Y-61600500D01*
X153505355Y-61600500D01*
X153694644Y-61600500D01*
X153694646Y-61600500D01*
X153824720Y-61572852D01*
X153894386Y-61578168D01*
X153950120Y-61620305D01*
X153974225Y-61685885D01*
X153974500Y-61694142D01*
X153974500Y-62058437D01*
X153968206Y-62097441D01*
X153960001Y-62122201D01*
X153949500Y-62224983D01*
X153949500Y-62250500D01*
X153929815Y-62317539D01*
X153877011Y-62363294D01*
X153825500Y-62374500D01*
X153803748Y-62374500D01*
X153736709Y-62354815D01*
X153711600Y-62333474D01*
X153705873Y-62327114D01*
X153705869Y-62327110D01*
X153552734Y-62215851D01*
X153552729Y-62215848D01*
X153379807Y-62138857D01*
X153379802Y-62138855D01*
X153234001Y-62107865D01*
X153194646Y-62099500D01*
X153005354Y-62099500D01*
X152972897Y-62106398D01*
X152820197Y-62138855D01*
X152820192Y-62138857D01*
X152647270Y-62215848D01*
X152647265Y-62215851D01*
X152494129Y-62327111D01*
X152367466Y-62467785D01*
X152272821Y-62631715D01*
X152272818Y-62631722D01*
X152220264Y-62793469D01*
X152214326Y-62811744D01*
X152194540Y-63000000D01*
X152214326Y-63188256D01*
X152214327Y-63188259D01*
X152272818Y-63368277D01*
X152272821Y-63368284D01*
X152367467Y-63532216D01*
X152469185Y-63645185D01*
X152494129Y-63672888D01*
X152647265Y-63784148D01*
X152647270Y-63784151D01*
X152820192Y-63861142D01*
X152820197Y-63861144D01*
X153005354Y-63900500D01*
X153005355Y-63900500D01*
X153194644Y-63900500D01*
X153194646Y-63900500D01*
X153379803Y-63861144D01*
X153552730Y-63784151D01*
X153705871Y-63672888D01*
X153708788Y-63669647D01*
X153711600Y-63666526D01*
X153771087Y-63629879D01*
X153803748Y-63625500D01*
X153853130Y-63625500D01*
X153920169Y-63645185D01*
X153965924Y-63697989D01*
X153970836Y-63710495D01*
X154015186Y-63844334D01*
X154040518Y-63885404D01*
X154058958Y-63952796D01*
X154038035Y-64019459D01*
X153984393Y-64064229D01*
X153934979Y-64074500D01*
X153882743Y-64074500D01*
X153867122Y-64072775D01*
X153867096Y-64073061D01*
X153859334Y-64072327D01*
X153859333Y-64072327D01*
X153797109Y-64074282D01*
X153792127Y-64074439D01*
X153788232Y-64074500D01*
X153760647Y-64074500D01*
X153756661Y-64075003D01*
X153745033Y-64075918D01*
X153701373Y-64077290D01*
X153682129Y-64082881D01*
X153663079Y-64086825D01*
X153643211Y-64089334D01*
X153643210Y-64089334D01*
X153602599Y-64105413D01*
X153591554Y-64109194D01*
X153549614Y-64121379D01*
X153549610Y-64121381D01*
X153532366Y-64131579D01*
X153514905Y-64140133D01*
X153496274Y-64147510D01*
X153496262Y-64147517D01*
X153460933Y-64173185D01*
X153451173Y-64179596D01*
X153413580Y-64201829D01*
X153399414Y-64215995D01*
X153384624Y-64228627D01*
X153368414Y-64240404D01*
X153368411Y-64240407D01*
X153340573Y-64274058D01*
X153332711Y-64282697D01*
X150991208Y-66624199D01*
X150978951Y-66634020D01*
X150979134Y-66634241D01*
X150973122Y-66639214D01*
X150927098Y-66688223D01*
X150924391Y-66691016D01*
X150904889Y-66710517D01*
X150904875Y-66710534D01*
X150902407Y-66713715D01*
X150894843Y-66722570D01*
X150864937Y-66754418D01*
X150864936Y-66754420D01*
X150855284Y-66771976D01*
X150844610Y-66788226D01*
X150832329Y-66804061D01*
X150832324Y-66804068D01*
X150814975Y-66844158D01*
X150809838Y-66854644D01*
X150788803Y-66892906D01*
X150783822Y-66912307D01*
X150777521Y-66930710D01*
X150769562Y-66949102D01*
X150769561Y-66949105D01*
X150762728Y-66992243D01*
X150760360Y-67003674D01*
X150749501Y-67045971D01*
X150749500Y-67045982D01*
X150749500Y-67066016D01*
X150747973Y-67085415D01*
X150744840Y-67105194D01*
X150744840Y-67105195D01*
X150748950Y-67148674D01*
X150749500Y-67160343D01*
X150749500Y-67185719D01*
X150729815Y-67252758D01*
X150677011Y-67298513D01*
X150607853Y-67308457D01*
X150544297Y-67279432D01*
X150533350Y-67268691D01*
X150405870Y-67127111D01*
X150252734Y-67015851D01*
X150252729Y-67015848D01*
X150079807Y-66938857D01*
X150079802Y-66938855D01*
X149934001Y-66907865D01*
X149894646Y-66899500D01*
X149705354Y-66899500D01*
X149672897Y-66906398D01*
X149520197Y-66938855D01*
X149520192Y-66938857D01*
X149347270Y-67015848D01*
X149347265Y-67015851D01*
X149194129Y-67127111D01*
X149067466Y-67267785D01*
X148972821Y-67431715D01*
X148972818Y-67431722D01*
X148943430Y-67522171D01*
X148914326Y-67611744D01*
X148894540Y-67800000D01*
X148914326Y-67988256D01*
X148914327Y-67988259D01*
X148972818Y-68168277D01*
X148972821Y-68168284D01*
X149067467Y-68332216D01*
X149144733Y-68418028D01*
X149174963Y-68481019D01*
X149166338Y-68550354D01*
X149121597Y-68604020D01*
X149084230Y-68615769D01*
X149075000Y-68625000D01*
X149075000Y-71375000D01*
X149200500Y-71375000D01*
X149267539Y-71394685D01*
X149313294Y-71447489D01*
X149324500Y-71499000D01*
X149324500Y-71695230D01*
X149304815Y-71762269D01*
X149252011Y-71808024D01*
X149182853Y-71817968D01*
X149174719Y-71816520D01*
X149166025Y-71814672D01*
X149094646Y-71799500D01*
X149094645Y-71799500D01*
X149035452Y-71799500D01*
X148968413Y-71779815D01*
X148947771Y-71763181D01*
X148611319Y-71426729D01*
X148577834Y-71365406D01*
X148575000Y-71339048D01*
X148575000Y-70250000D01*
X147612500Y-70250000D01*
X147612500Y-70550500D01*
X147592815Y-70617539D01*
X147540011Y-70663294D01*
X147488500Y-70674500D01*
X136127837Y-70674500D01*
X136112220Y-70672776D01*
X136112193Y-70673062D01*
X136104431Y-70672327D01*
X136037244Y-70674439D01*
X136033350Y-70674500D01*
X136005750Y-70674500D01*
X136002062Y-70674965D01*
X136001749Y-70675005D01*
X135990131Y-70675918D01*
X135946472Y-70677290D01*
X135946469Y-70677291D01*
X135927226Y-70682881D01*
X135908183Y-70686825D01*
X135888304Y-70689336D01*
X135888303Y-70689337D01*
X135847693Y-70705415D01*
X135836648Y-70709197D01*
X135794708Y-70721383D01*
X135794706Y-70721384D01*
X135777465Y-70731580D01*
X135760000Y-70740136D01*
X135741371Y-70747511D01*
X135739569Y-70748821D01*
X135736820Y-70750817D01*
X135671017Y-70774298D01*
X135663936Y-70774500D01*
X132210452Y-70774500D01*
X132143413Y-70754815D01*
X132122771Y-70738181D01*
X131134591Y-69750000D01*
X147612500Y-69750000D01*
X148575000Y-69750000D01*
X148575000Y-68625000D01*
X148312514Y-68625000D01*
X148209810Y-68635493D01*
X148209803Y-68635494D01*
X148043381Y-68690641D01*
X148043376Y-68690643D01*
X147894155Y-68782684D01*
X147770184Y-68906655D01*
X147678143Y-69055876D01*
X147678141Y-69055881D01*
X147622994Y-69222303D01*
X147622993Y-69222310D01*
X147612500Y-69325014D01*
X147612500Y-69750000D01*
X131134591Y-69750000D01*
X130571819Y-69187228D01*
X130538334Y-69125905D01*
X130535500Y-69099547D01*
X130535500Y-66019452D01*
X130555185Y-65952413D01*
X130607989Y-65906658D01*
X130677147Y-65896714D01*
X130740703Y-65925739D01*
X130747177Y-65931767D01*
X131026071Y-66210662D01*
X131299197Y-66483788D01*
X131309022Y-66496051D01*
X131309243Y-66495869D01*
X131314211Y-66501874D01*
X131314213Y-66501876D01*
X131314214Y-66501877D01*
X131363222Y-66547899D01*
X131366021Y-66550612D01*
X131385522Y-66570114D01*
X131385526Y-66570117D01*
X131385529Y-66570120D01*
X131388702Y-66572581D01*
X131397574Y-66580159D01*
X131429418Y-66610062D01*
X131446976Y-66619714D01*
X131463235Y-66630395D01*
X131479064Y-66642673D01*
X131519155Y-66660021D01*
X131529626Y-66665151D01*
X131552180Y-66677550D01*
X131567902Y-66686194D01*
X131567904Y-66686195D01*
X131567908Y-66686197D01*
X131587316Y-66691180D01*
X131605719Y-66697481D01*
X131624101Y-66705436D01*
X131624102Y-66705436D01*
X131624104Y-66705437D01*
X131667250Y-66712270D01*
X131678672Y-66714636D01*
X131720981Y-66725500D01*
X131741016Y-66725500D01*
X131760414Y-66727026D01*
X131780194Y-66730159D01*
X131780195Y-66730160D01*
X131780195Y-66730159D01*
X131780196Y-66730160D01*
X131823675Y-66726050D01*
X131835344Y-66725500D01*
X138996252Y-66725500D01*
X139063291Y-66745185D01*
X139088400Y-66766526D01*
X139094126Y-66772885D01*
X139094130Y-66772889D01*
X139247265Y-66884148D01*
X139247270Y-66884151D01*
X139420192Y-66961142D01*
X139420197Y-66961144D01*
X139605354Y-67000500D01*
X139605355Y-67000500D01*
X139794644Y-67000500D01*
X139794646Y-67000500D01*
X139979803Y-66961144D01*
X140152730Y-66884151D01*
X140305871Y-66772888D01*
X140432533Y-66632216D01*
X140527179Y-66468284D01*
X140585674Y-66288256D01*
X140605460Y-66100000D01*
X140585674Y-65911744D01*
X140527179Y-65731716D01*
X140432533Y-65567784D01*
X140305871Y-65427112D01*
X140305870Y-65427111D01*
X140152734Y-65315851D01*
X140152729Y-65315848D01*
X139979807Y-65238857D01*
X139979802Y-65238855D01*
X139834001Y-65207865D01*
X139794646Y-65199500D01*
X139605354Y-65199500D01*
X139572897Y-65206398D01*
X139420197Y-65238855D01*
X139420192Y-65238857D01*
X139247270Y-65315848D01*
X139247265Y-65315851D01*
X139094130Y-65427110D01*
X139094126Y-65427114D01*
X139088400Y-65433474D01*
X139028913Y-65470121D01*
X138996252Y-65474500D01*
X132110453Y-65474500D01*
X132043414Y-65454815D01*
X132022772Y-65438181D01*
X131553019Y-64968428D01*
X131519534Y-64907105D01*
X131516700Y-64880747D01*
X131516700Y-63917200D01*
X131916200Y-63917200D01*
X132164028Y-63917200D01*
X132164044Y-63917199D01*
X132223572Y-63910798D01*
X132223575Y-63910797D01*
X132257149Y-63898275D01*
X132326840Y-63893289D01*
X132343819Y-63898275D01*
X132378711Y-63911289D01*
X132378712Y-63911289D01*
X132378717Y-63911291D01*
X132438327Y-63917700D01*
X133434072Y-63917699D01*
X133493683Y-63911291D01*
X133527867Y-63898540D01*
X133597558Y-63893557D01*
X133614527Y-63898538D01*
X133648717Y-63911291D01*
X133708327Y-63917700D01*
X134704072Y-63917699D01*
X134763683Y-63911291D01*
X134797867Y-63898540D01*
X134867558Y-63893557D01*
X134884527Y-63898538D01*
X134918717Y-63911291D01*
X134978327Y-63917700D01*
X135974072Y-63917699D01*
X136033683Y-63911291D01*
X136067867Y-63898540D01*
X136137558Y-63893557D01*
X136154527Y-63898538D01*
X136188717Y-63911291D01*
X136248327Y-63917700D01*
X137244072Y-63917699D01*
X137303683Y-63911291D01*
X137337867Y-63898540D01*
X137407558Y-63893557D01*
X137424527Y-63898538D01*
X137458717Y-63911291D01*
X137518327Y-63917700D01*
X138514072Y-63917699D01*
X138573683Y-63911291D01*
X138607867Y-63898540D01*
X138677558Y-63893557D01*
X138694527Y-63898538D01*
X138728717Y-63911291D01*
X138788327Y-63917700D01*
X139784072Y-63917699D01*
X139843683Y-63911291D01*
X139877867Y-63898540D01*
X139947558Y-63893557D01*
X139964527Y-63898538D01*
X139998717Y-63911291D01*
X140058327Y-63917700D01*
X141054072Y-63917699D01*
X141113683Y-63911291D01*
X141147867Y-63898540D01*
X141217558Y-63893557D01*
X141234527Y-63898538D01*
X141268717Y-63911291D01*
X141328327Y-63917700D01*
X142324072Y-63917699D01*
X142383683Y-63911291D01*
X142417867Y-63898540D01*
X142487558Y-63893557D01*
X142504527Y-63898538D01*
X142538717Y-63911291D01*
X142598327Y-63917700D01*
X143594072Y-63917699D01*
X143653683Y-63911291D01*
X143788531Y-63860996D01*
X143903746Y-63774746D01*
X143989996Y-63659531D01*
X144040291Y-63524683D01*
X144046700Y-63465073D01*
X144046699Y-61869328D01*
X144041499Y-61820957D01*
X144040291Y-61809716D01*
X143989997Y-61674871D01*
X143989993Y-61674864D01*
X143903747Y-61559655D01*
X143903744Y-61559652D01*
X143788535Y-61473406D01*
X143788528Y-61473402D01*
X143653682Y-61423108D01*
X143653683Y-61423108D01*
X143594083Y-61416701D01*
X143594081Y-61416700D01*
X143594073Y-61416700D01*
X143594064Y-61416700D01*
X142598329Y-61416700D01*
X142598323Y-61416701D01*
X142538718Y-61423108D01*
X142504531Y-61435859D01*
X142434839Y-61440842D01*
X142417869Y-61435859D01*
X142400340Y-61429321D01*
X142383683Y-61423109D01*
X142383682Y-61423108D01*
X142324083Y-61416701D01*
X142324081Y-61416700D01*
X142324073Y-61416700D01*
X142324064Y-61416700D01*
X141328329Y-61416700D01*
X141328323Y-61416701D01*
X141268718Y-61423108D01*
X141234531Y-61435859D01*
X141164839Y-61440842D01*
X141147869Y-61435859D01*
X141130340Y-61429321D01*
X141113683Y-61423109D01*
X141113682Y-61423108D01*
X141054083Y-61416701D01*
X141054081Y-61416700D01*
X141054073Y-61416700D01*
X141054064Y-61416700D01*
X140058329Y-61416700D01*
X140058323Y-61416701D01*
X139998718Y-61423108D01*
X139964531Y-61435859D01*
X139894839Y-61440842D01*
X139877869Y-61435859D01*
X139860340Y-61429321D01*
X139843683Y-61423109D01*
X139843682Y-61423108D01*
X139784083Y-61416701D01*
X139784081Y-61416700D01*
X139784073Y-61416700D01*
X139784064Y-61416700D01*
X138788329Y-61416700D01*
X138788323Y-61416701D01*
X138728718Y-61423108D01*
X138694531Y-61435859D01*
X138624839Y-61440842D01*
X138607869Y-61435859D01*
X138590340Y-61429321D01*
X138573683Y-61423109D01*
X138573682Y-61423108D01*
X138514083Y-61416701D01*
X138514081Y-61416700D01*
X138514073Y-61416700D01*
X138514064Y-61416700D01*
X137518329Y-61416700D01*
X137518323Y-61416701D01*
X137458718Y-61423108D01*
X137424531Y-61435859D01*
X137354839Y-61440842D01*
X137337869Y-61435859D01*
X137320340Y-61429321D01*
X137303683Y-61423109D01*
X137303682Y-61423108D01*
X137244083Y-61416701D01*
X137244081Y-61416700D01*
X137244073Y-61416700D01*
X137244064Y-61416700D01*
X136248329Y-61416700D01*
X136248323Y-61416701D01*
X136188718Y-61423108D01*
X136154531Y-61435859D01*
X136084839Y-61440842D01*
X136067869Y-61435859D01*
X136050340Y-61429321D01*
X136033683Y-61423109D01*
X136033682Y-61423108D01*
X135974083Y-61416701D01*
X135974081Y-61416700D01*
X135974073Y-61416700D01*
X135974064Y-61416700D01*
X134978329Y-61416700D01*
X134978323Y-61416701D01*
X134918718Y-61423108D01*
X134884531Y-61435859D01*
X134814839Y-61440842D01*
X134797869Y-61435859D01*
X134780340Y-61429321D01*
X134763683Y-61423109D01*
X134763682Y-61423108D01*
X134704083Y-61416701D01*
X134704081Y-61416700D01*
X134704073Y-61416700D01*
X134704064Y-61416700D01*
X133708329Y-61416700D01*
X133708323Y-61416701D01*
X133648718Y-61423108D01*
X133614531Y-61435859D01*
X133544839Y-61440842D01*
X133527869Y-61435859D01*
X133510340Y-61429321D01*
X133493683Y-61423109D01*
X133493682Y-61423108D01*
X133434083Y-61416701D01*
X133434081Y-61416700D01*
X133434073Y-61416700D01*
X133434064Y-61416700D01*
X132438329Y-61416700D01*
X132438323Y-61416701D01*
X132378720Y-61423108D01*
X132378717Y-61423108D01*
X132378717Y-61423109D01*
X132343820Y-61436125D01*
X132343817Y-61436126D01*
X132274125Y-61441109D01*
X132257152Y-61436125D01*
X132223579Y-61423603D01*
X132223572Y-61423601D01*
X132164044Y-61417200D01*
X131916200Y-61417200D01*
X131916200Y-63917200D01*
X131516700Y-63917200D01*
X131516700Y-52877200D01*
X133476200Y-52877200D01*
X133476200Y-54575044D01*
X133482601Y-54634572D01*
X133482603Y-54634579D01*
X133532845Y-54769286D01*
X133532849Y-54769293D01*
X133619009Y-54884387D01*
X133619012Y-54884390D01*
X133734106Y-54970550D01*
X133734113Y-54970554D01*
X133868820Y-55020796D01*
X133868827Y-55020798D01*
X133928355Y-55027199D01*
X133928372Y-55027200D01*
X135626200Y-55027200D01*
X136126200Y-55027200D01*
X137824028Y-55027200D01*
X137824044Y-55027199D01*
X137883572Y-55020798D01*
X137883579Y-55020796D01*
X138018286Y-54970554D01*
X138018293Y-54970550D01*
X138133387Y-54884390D01*
X138133390Y-54884387D01*
X138219550Y-54769293D01*
X138219554Y-54769286D01*
X138269796Y-54634579D01*
X138269798Y-54634572D01*
X138276199Y-54575044D01*
X138276200Y-54575027D01*
X138276200Y-52877200D01*
X137526200Y-52877200D01*
X137526200Y-53223647D01*
X137542072Y-53239519D01*
X137575557Y-53300842D01*
X137570573Y-53370534D01*
X137542072Y-53414881D01*
X137526200Y-53430752D01*
X137526200Y-54153200D01*
X137506515Y-54220239D01*
X137453711Y-54265994D01*
X137402200Y-54277200D01*
X136679752Y-54277200D01*
X136663881Y-54293072D01*
X136602558Y-54326557D01*
X136532866Y-54321573D01*
X136488519Y-54293072D01*
X136472647Y-54277200D01*
X136126200Y-54277200D01*
X136126200Y-55027200D01*
X135626200Y-55027200D01*
X135626200Y-54277200D01*
X135279752Y-54277200D01*
X135263881Y-54293072D01*
X135202558Y-54326557D01*
X135132866Y-54321573D01*
X135088519Y-54293072D01*
X135072647Y-54277200D01*
X134350200Y-54277200D01*
X134283161Y-54257515D01*
X134237406Y-54204711D01*
X134226200Y-54153200D01*
X134226200Y-54059692D01*
X135076200Y-54059692D01*
X135114397Y-54112265D01*
X135160362Y-54127200D01*
X135192038Y-54127200D01*
X135238003Y-54112265D01*
X135276200Y-54059692D01*
X136476200Y-54059692D01*
X136514397Y-54112265D01*
X136560362Y-54127200D01*
X136592038Y-54127200D01*
X136638003Y-54112265D01*
X136676200Y-54059692D01*
X136676200Y-53994708D01*
X136638003Y-53942135D01*
X136592038Y-53927200D01*
X136560362Y-53927200D01*
X136514397Y-53942135D01*
X136476200Y-53994708D01*
X136476200Y-54059692D01*
X135276200Y-54059692D01*
X135276200Y-53994708D01*
X135238003Y-53942135D01*
X135192038Y-53927200D01*
X135160362Y-53927200D01*
X135114397Y-53942135D01*
X135076200Y-53994708D01*
X135076200Y-54059692D01*
X134226200Y-54059692D01*
X134226200Y-53430753D01*
X134210328Y-53414881D01*
X134180192Y-53359692D01*
X134376200Y-53359692D01*
X134414397Y-53412265D01*
X134460362Y-53427200D01*
X134492038Y-53427200D01*
X134538003Y-53412265D01*
X134576200Y-53359692D01*
X134576200Y-53327199D01*
X134829753Y-53327199D01*
X134870338Y-53367783D01*
X134870339Y-53367785D01*
X135163700Y-53661146D01*
X135465154Y-53359692D01*
X135751200Y-53359692D01*
X135789397Y-53412265D01*
X135835362Y-53427200D01*
X135867038Y-53427200D01*
X135913003Y-53412265D01*
X135951200Y-53359692D01*
X135951200Y-53327200D01*
X136229753Y-53327200D01*
X136576198Y-53673646D01*
X136576199Y-53673646D01*
X136882062Y-53367784D01*
X136890154Y-53359692D01*
X137176200Y-53359692D01*
X137214397Y-53412265D01*
X137260362Y-53427200D01*
X137292038Y-53427200D01*
X137338003Y-53412265D01*
X137376200Y-53359692D01*
X137376200Y-53294708D01*
X137338003Y-53242135D01*
X137292038Y-53227200D01*
X137260362Y-53227200D01*
X137214397Y-53242135D01*
X137176200Y-53294708D01*
X137176200Y-53359692D01*
X136890154Y-53359692D01*
X136922646Y-53327200D01*
X136576199Y-52980753D01*
X136576198Y-52980753D01*
X136229753Y-53327199D01*
X136229753Y-53327200D01*
X135951200Y-53327200D01*
X135951200Y-53294708D01*
X135913003Y-53242135D01*
X135867038Y-53227200D01*
X135835362Y-53227200D01*
X135789397Y-53242135D01*
X135751200Y-53294708D01*
X135751200Y-53359692D01*
X135465154Y-53359692D01*
X135497646Y-53327200D01*
X135497646Y-53327199D01*
X135163700Y-52993253D01*
X135131882Y-53025072D01*
X135131880Y-53025073D01*
X134829753Y-53327199D01*
X134576200Y-53327199D01*
X134576200Y-53294708D01*
X134538003Y-53242135D01*
X134492038Y-53227200D01*
X134460362Y-53227200D01*
X134414397Y-53242135D01*
X134376200Y-53294708D01*
X134376200Y-53359692D01*
X134180192Y-53359692D01*
X134176843Y-53353558D01*
X134181827Y-53283866D01*
X134210328Y-53239519D01*
X134226199Y-53223647D01*
X134226200Y-53223646D01*
X134226200Y-52877200D01*
X133476200Y-52877200D01*
X131516700Y-52877200D01*
X131516700Y-52659692D01*
X135076200Y-52659692D01*
X135114397Y-52712265D01*
X135160362Y-52727200D01*
X135192038Y-52727200D01*
X135238003Y-52712265D01*
X135276200Y-52659692D01*
X136476200Y-52659692D01*
X136514397Y-52712265D01*
X136560362Y-52727200D01*
X136592038Y-52727200D01*
X136638003Y-52712265D01*
X136676200Y-52659692D01*
X136676200Y-52594708D01*
X136638003Y-52542135D01*
X136592038Y-52527200D01*
X136560362Y-52527200D01*
X136514397Y-52542135D01*
X136476200Y-52594708D01*
X136476200Y-52659692D01*
X135276200Y-52659692D01*
X135276200Y-52594708D01*
X135238003Y-52542135D01*
X135192038Y-52527200D01*
X135160362Y-52527200D01*
X135114397Y-52542135D01*
X135076200Y-52594708D01*
X135076200Y-52659692D01*
X131516700Y-52659692D01*
X131516700Y-52377200D01*
X133476200Y-52377200D01*
X134226200Y-52377200D01*
X134226200Y-52030753D01*
X134210328Y-52014881D01*
X134180192Y-51959692D01*
X134376200Y-51959692D01*
X134414397Y-52012265D01*
X134460362Y-52027200D01*
X134492038Y-52027200D01*
X134538003Y-52012265D01*
X134576200Y-51959692D01*
X134576200Y-51927200D01*
X134829753Y-51927200D01*
X134864045Y-51961492D01*
X134864060Y-51961506D01*
X135163700Y-52261146D01*
X135465154Y-51959692D01*
X135751200Y-51959692D01*
X135789397Y-52012265D01*
X135835362Y-52027200D01*
X135867038Y-52027200D01*
X135913003Y-52012265D01*
X135951200Y-51959692D01*
X135951200Y-51927200D01*
X136229753Y-51927200D01*
X136576198Y-52273646D01*
X136576199Y-52273646D01*
X136888341Y-51961505D01*
X136890154Y-51959692D01*
X137176200Y-51959692D01*
X137214397Y-52012265D01*
X137260362Y-52027200D01*
X137292038Y-52027200D01*
X137338003Y-52012265D01*
X137376200Y-51959692D01*
X137376200Y-51894708D01*
X137338003Y-51842135D01*
X137292038Y-51827200D01*
X137260362Y-51827200D01*
X137214397Y-51842135D01*
X137176200Y-51894708D01*
X137176200Y-51959692D01*
X136890154Y-51959692D01*
X136922646Y-51927200D01*
X136576199Y-51580753D01*
X136576198Y-51580753D01*
X136229753Y-51927199D01*
X136229753Y-51927200D01*
X135951200Y-51927200D01*
X135951200Y-51894708D01*
X135913003Y-51842135D01*
X135867038Y-51827200D01*
X135835362Y-51827200D01*
X135789397Y-51842135D01*
X135751200Y-51894708D01*
X135751200Y-51959692D01*
X135465154Y-51959692D01*
X135497646Y-51927200D01*
X135497646Y-51927199D01*
X135163700Y-51593253D01*
X135122756Y-51634199D01*
X135122754Y-51634200D01*
X134829753Y-51927200D01*
X134576200Y-51927200D01*
X134576200Y-51894708D01*
X134538003Y-51842135D01*
X134492038Y-51827200D01*
X134460362Y-51827200D01*
X134414397Y-51842135D01*
X134376200Y-51894708D01*
X134376200Y-51959692D01*
X134180192Y-51959692D01*
X134176843Y-51953558D01*
X134181827Y-51883866D01*
X134210328Y-51839519D01*
X134226199Y-51823647D01*
X134226200Y-51823646D01*
X134226200Y-51259692D01*
X135076200Y-51259692D01*
X135114397Y-51312265D01*
X135160362Y-51327200D01*
X135192038Y-51327200D01*
X135238003Y-51312265D01*
X135276200Y-51259692D01*
X136476200Y-51259692D01*
X136514397Y-51312265D01*
X136560362Y-51327200D01*
X136592038Y-51327200D01*
X136638003Y-51312265D01*
X136676200Y-51259692D01*
X136676200Y-51194708D01*
X136638003Y-51142135D01*
X136592038Y-51127200D01*
X136560362Y-51127200D01*
X136514397Y-51142135D01*
X136476200Y-51194708D01*
X136476200Y-51259692D01*
X135276200Y-51259692D01*
X135276200Y-51194708D01*
X135238003Y-51142135D01*
X135192038Y-51127200D01*
X135160362Y-51127200D01*
X135114397Y-51142135D01*
X135076200Y-51194708D01*
X135076200Y-51259692D01*
X134226200Y-51259692D01*
X134226200Y-51101200D01*
X134245885Y-51034161D01*
X134298689Y-50988406D01*
X134350200Y-50977200D01*
X135072647Y-50977200D01*
X135072647Y-50977199D01*
X135088519Y-50961328D01*
X135149842Y-50927843D01*
X135219534Y-50932827D01*
X135263881Y-50961328D01*
X135279753Y-50977200D01*
X135626200Y-50977200D01*
X135626200Y-50227200D01*
X136126200Y-50227200D01*
X136126200Y-50977200D01*
X136472647Y-50977200D01*
X136472647Y-50977199D01*
X136488519Y-50961328D01*
X136549842Y-50927843D01*
X136619534Y-50932827D01*
X136663881Y-50961328D01*
X136679753Y-50977200D01*
X137402200Y-50977200D01*
X137469239Y-50996885D01*
X137514994Y-51049689D01*
X137526200Y-51101200D01*
X137526200Y-51823647D01*
X137542072Y-51839519D01*
X137575557Y-51900842D01*
X137570573Y-51970534D01*
X137542072Y-52014881D01*
X137526200Y-52030752D01*
X137526200Y-52377200D01*
X138276200Y-52377200D01*
X138276200Y-50679372D01*
X138276199Y-50679355D01*
X138269798Y-50619827D01*
X138269796Y-50619820D01*
X138219554Y-50485113D01*
X138219550Y-50485106D01*
X138133390Y-50370012D01*
X138133387Y-50370009D01*
X138018293Y-50283849D01*
X138018286Y-50283845D01*
X137883579Y-50233603D01*
X137883572Y-50233601D01*
X137824044Y-50227200D01*
X136126200Y-50227200D01*
X135626200Y-50227200D01*
X133928355Y-50227200D01*
X133868827Y-50233601D01*
X133868820Y-50233603D01*
X133734113Y-50283845D01*
X133734106Y-50283849D01*
X133619012Y-50370009D01*
X133619009Y-50370012D01*
X133532849Y-50485106D01*
X133532845Y-50485113D01*
X133482603Y-50619820D01*
X133482601Y-50619827D01*
X133476200Y-50679355D01*
X133476200Y-52377200D01*
X131516700Y-52377200D01*
X131516700Y-48794938D01*
X131518424Y-48779324D01*
X131518138Y-48779297D01*
X131518872Y-48771534D01*
X131516761Y-48704344D01*
X131516700Y-48700450D01*
X131516700Y-48672851D01*
X131516700Y-48672850D01*
X131516197Y-48668870D01*
X131515280Y-48657221D01*
X131513909Y-48613573D01*
X131508322Y-48594344D01*
X131504374Y-48575284D01*
X131503489Y-48568278D01*
X131501864Y-48555408D01*
X131485785Y-48514797D01*
X131482004Y-48503752D01*
X131469819Y-48461812D01*
X131459618Y-48444563D01*
X131451060Y-48427094D01*
X131443686Y-48408468D01*
X131443683Y-48408464D01*
X131443683Y-48408463D01*
X131418016Y-48373135D01*
X131411603Y-48363372D01*
X131389372Y-48325783D01*
X131389370Y-48325779D01*
X131389366Y-48325775D01*
X131389363Y-48325771D01*
X131375205Y-48311613D01*
X131362570Y-48296820D01*
X131350793Y-48280612D01*
X131317145Y-48252776D01*
X131308504Y-48244913D01*
X130127003Y-47063412D01*
X130117180Y-47051150D01*
X130116959Y-47051334D01*
X130111986Y-47045322D01*
X130064274Y-47000518D01*
X130062975Y-46999298D01*
X130060177Y-46996586D01*
X130040677Y-46977085D01*
X130040671Y-46977080D01*
X130037486Y-46974609D01*
X130028634Y-46967048D01*
X129996782Y-46937138D01*
X129996780Y-46937136D01*
X129996777Y-46937135D01*
X129979229Y-46927488D01*
X129962963Y-46916804D01*
X129947132Y-46904524D01*
X129934519Y-46899066D01*
X129880812Y-46854375D01*
X129859793Y-46787742D01*
X129867588Y-46741929D01*
X129870291Y-46734683D01*
X129876700Y-46675073D01*
X129876699Y-45679328D01*
X129870291Y-45619717D01*
X129857273Y-45584816D01*
X129852290Y-45515126D01*
X129857275Y-45498149D01*
X129869797Y-45464575D01*
X129869798Y-45464572D01*
X129876199Y-45405044D01*
X129876200Y-45405027D01*
X129876200Y-45157200D01*
X127376200Y-45157200D01*
X127376200Y-45405044D01*
X127382601Y-45464572D01*
X127382603Y-45464579D01*
X127395125Y-45498152D01*
X127400109Y-45567843D01*
X127395125Y-45584817D01*
X127382109Y-45619714D01*
X127382108Y-45619716D01*
X127375701Y-45679316D01*
X127375701Y-45679323D01*
X127375700Y-45679335D01*
X127375700Y-46675070D01*
X127375701Y-46675076D01*
X127382108Y-46734681D01*
X127394859Y-46768869D01*
X127399842Y-46838561D01*
X127394859Y-46855531D01*
X127382108Y-46889718D01*
X127376500Y-46941882D01*
X127375701Y-46949323D01*
X127375700Y-46949335D01*
X127375700Y-47945070D01*
X127375701Y-47945076D01*
X127382108Y-48004681D01*
X127394859Y-48038869D01*
X127399842Y-48108561D01*
X127394859Y-48125531D01*
X127382108Y-48159718D01*
X127375701Y-48219316D01*
X127375700Y-48219335D01*
X127375700Y-49215070D01*
X127375701Y-49215076D01*
X127382108Y-49274681D01*
X127394859Y-49308869D01*
X127399842Y-49378561D01*
X127394859Y-49395531D01*
X127382108Y-49429718D01*
X127378691Y-49461505D01*
X127375701Y-49489323D01*
X127375700Y-49489335D01*
X127375700Y-50485070D01*
X127375701Y-50485076D01*
X127382108Y-50544681D01*
X127394859Y-50578869D01*
X127399842Y-50648561D01*
X127394859Y-50665531D01*
X127382108Y-50699718D01*
X127375725Y-50759092D01*
X127375701Y-50759323D01*
X127375700Y-50759335D01*
X127375700Y-51755070D01*
X127375701Y-51755076D01*
X127382108Y-51814681D01*
X127394859Y-51848869D01*
X127399842Y-51918561D01*
X127394859Y-51935531D01*
X127382108Y-51969718D01*
X127375701Y-52029316D01*
X127375701Y-52029323D01*
X127375700Y-52029335D01*
X127375700Y-53025070D01*
X127375701Y-53025072D01*
X127382108Y-53084681D01*
X127394859Y-53118869D01*
X127399842Y-53188561D01*
X127394859Y-53205531D01*
X127382108Y-53239718D01*
X127375701Y-53299316D01*
X127375701Y-53299323D01*
X127375700Y-53299335D01*
X127375700Y-54295070D01*
X127375701Y-54295076D01*
X127382108Y-54354681D01*
X127394859Y-54388869D01*
X127399842Y-54458561D01*
X127394859Y-54475531D01*
X127382108Y-54509718D01*
X127375952Y-54566981D01*
X127375701Y-54569323D01*
X127375700Y-54569335D01*
X127375700Y-55565070D01*
X127375701Y-55565076D01*
X127382108Y-55624681D01*
X127394859Y-55658869D01*
X127399842Y-55728561D01*
X127394859Y-55745531D01*
X127382108Y-55779718D01*
X127375701Y-55839316D01*
X127375701Y-55839323D01*
X127375700Y-55839335D01*
X127375700Y-56835070D01*
X127375701Y-56835076D01*
X127382108Y-56894681D01*
X127394859Y-56928869D01*
X127399842Y-56998561D01*
X127394859Y-57015531D01*
X127382108Y-57049718D01*
X127381047Y-57059590D01*
X127375701Y-57109323D01*
X127375700Y-57109335D01*
X127375700Y-58105070D01*
X127375701Y-58105076D01*
X127382108Y-58164681D01*
X127394859Y-58198869D01*
X127399842Y-58268561D01*
X127394859Y-58285531D01*
X127382108Y-58319718D01*
X127375701Y-58379316D01*
X127375701Y-58379323D01*
X127375700Y-58379335D01*
X127375700Y-59375070D01*
X127375701Y-59375076D01*
X127382108Y-59434681D01*
X127394859Y-59468869D01*
X127399842Y-59538561D01*
X127394859Y-59555531D01*
X127382108Y-59589718D01*
X127375701Y-59649316D01*
X127375701Y-59649323D01*
X127375700Y-59649335D01*
X127375700Y-60645070D01*
X127375701Y-60645076D01*
X127382108Y-60704681D01*
X127394859Y-60738869D01*
X127399842Y-60808561D01*
X127394859Y-60825531D01*
X127382108Y-60859718D01*
X127377691Y-60900806D01*
X127375701Y-60919323D01*
X127375700Y-60919335D01*
X127375700Y-61915070D01*
X126296550Y-61915070D01*
X126348376Y-44657200D01*
X127376200Y-44657200D01*
X128376200Y-44657200D01*
X128376200Y-43957200D01*
X128876200Y-43957200D01*
X128876200Y-44657200D01*
X129876200Y-44657200D01*
X144876200Y-44657200D01*
X145876200Y-44657200D01*
X145876200Y-43957200D01*
X146376200Y-43957200D01*
X146376200Y-44657200D01*
X147376200Y-44657200D01*
X147376200Y-44409372D01*
X147376199Y-44409355D01*
X147369798Y-44349827D01*
X147369796Y-44349820D01*
X147319554Y-44215113D01*
X147319550Y-44215106D01*
X147233390Y-44100012D01*
X147233387Y-44100009D01*
X147118293Y-44013849D01*
X147118286Y-44013845D01*
X146983579Y-43963603D01*
X146983572Y-43963601D01*
X146924044Y-43957200D01*
X146376200Y-43957200D01*
X145876200Y-43957200D01*
X145328355Y-43957200D01*
X145268827Y-43963601D01*
X145268820Y-43963603D01*
X145134113Y-44013845D01*
X145134106Y-44013849D01*
X145019012Y-44100009D01*
X145019009Y-44100012D01*
X144932849Y-44215106D01*
X144932845Y-44215113D01*
X144882603Y-44349820D01*
X144882601Y-44349827D01*
X144876200Y-44409355D01*
X144876200Y-44657200D01*
X129876200Y-44657200D01*
X129876200Y-44409372D01*
X129876199Y-44409355D01*
X129869798Y-44349827D01*
X129869796Y-44349820D01*
X129819554Y-44215113D01*
X129819550Y-44215106D01*
X129733390Y-44100012D01*
X129733387Y-44100009D01*
X129618293Y-44013849D01*
X129618286Y-44013845D01*
X129483579Y-43963603D01*
X129483572Y-43963601D01*
X129424044Y-43957200D01*
X128876200Y-43957200D01*
X128376200Y-43957200D01*
X127828355Y-43957200D01*
X127768827Y-43963601D01*
X127768820Y-43963603D01*
X127634113Y-44013845D01*
X127634106Y-44013849D01*
X127519012Y-44100009D01*
X127519009Y-44100012D01*
X127432849Y-44215106D01*
X127432845Y-44215113D01*
X127382603Y-44349820D01*
X127382601Y-44349827D01*
X127376200Y-44409355D01*
X127376200Y-44657200D01*
X126348376Y-44657200D01*
X126351158Y-43730828D01*
X126371043Y-43663848D01*
X126423984Y-43618251D01*
X126475157Y-43607200D01*
X161376200Y-43607200D01*
X161376200Y-32000000D01*
X171044495Y-32000000D01*
X171064505Y-32407311D01*
X171124342Y-32810699D01*
X171223430Y-33206279D01*
X171360814Y-33590243D01*
X171535172Y-33958891D01*
X171535174Y-33958894D01*
X171744822Y-34308672D01*
X171987755Y-34636229D01*
X172261613Y-34938386D01*
X172563770Y-35212244D01*
X172563776Y-35212249D01*
X172891325Y-35455176D01*
X173241109Y-35664828D01*
X173609757Y-35839186D01*
X173993721Y-35976570D01*
X174389301Y-36075658D01*
X174792689Y-36135495D01*
X175098121Y-36150500D01*
X175098135Y-36150500D01*
X175301865Y-36150500D01*
X175301879Y-36150500D01*
X175607311Y-36135495D01*
X176010699Y-36075658D01*
X176406279Y-35976570D01*
X176790243Y-35839186D01*
X177158891Y-35664828D01*
X177508675Y-35455176D01*
X177836224Y-35212249D01*
X178138386Y-34938386D01*
X178412249Y-34636224D01*
X178655176Y-34308675D01*
X178864828Y-33958891D01*
X179039186Y-33590243D01*
X179176570Y-33206279D01*
X179275658Y-32810699D01*
X179335495Y-32407311D01*
X179355505Y-32000000D01*
X179335495Y-31592689D01*
X179275658Y-31189301D01*
X179176570Y-30793721D01*
X179039186Y-30409757D01*
X178864828Y-30041109D01*
X178655176Y-29691325D01*
X178412249Y-29363776D01*
X178412244Y-29363770D01*
X178138386Y-29061613D01*
X177836229Y-28787755D01*
X177508672Y-28544822D01*
X177158894Y-28335174D01*
X177158895Y-28335174D01*
X177158891Y-28335172D01*
X176790243Y-28160814D01*
X176790241Y-28160813D01*
X176406279Y-28023430D01*
X176010695Y-27924341D01*
X175607320Y-27864506D01*
X175607316Y-27864505D01*
X175607311Y-27864505D01*
X175301879Y-27849500D01*
X175098121Y-27849500D01*
X174792689Y-27864505D01*
X174792683Y-27864505D01*
X174792679Y-27864506D01*
X174389304Y-27924341D01*
X173993720Y-28023430D01*
X173609758Y-28160813D01*
X173609756Y-28160814D01*
X173241105Y-28335174D01*
X172891327Y-28544822D01*
X172563770Y-28787755D01*
X172261613Y-29061613D01*
X171987755Y-29363770D01*
X171744822Y-29691327D01*
X171535174Y-30041105D01*
X171360814Y-30409756D01*
X171360813Y-30409758D01*
X171223430Y-30793720D01*
X171124341Y-31189304D01*
X171064506Y-31592679D01*
X171064505Y-31592689D01*
X171044495Y-32000000D01*
X161376200Y-32000000D01*
X161376200Y-27424500D01*
X161395885Y-27357461D01*
X161448689Y-27311706D01*
X161500200Y-27300500D01*
X179675500Y-27300500D01*
X179742539Y-27320185D01*
G37*
%TD.AperFunction*%
%TD*%
%TA.AperFunction,NonConductor*%
G36*
X163763291Y-65945185D02*
G01*
X163788400Y-65966526D01*
X163794126Y-65972885D01*
X163794130Y-65972889D01*
X163947265Y-66084148D01*
X163947266Y-66084148D01*
X163947270Y-66084151D01*
X164010801Y-66112437D01*
X164064038Y-66157687D01*
X164084359Y-66224536D01*
X164065314Y-66291760D01*
X164033251Y-66326034D01*
X163894127Y-66427113D01*
X163767466Y-66567785D01*
X163672821Y-66731715D01*
X163672818Y-66731722D01*
X163620446Y-66892908D01*
X163614326Y-66911744D01*
X163599630Y-67051575D01*
X163594540Y-67100001D01*
X163601638Y-67167544D01*
X163594245Y-67215889D01*
X163596738Y-67216614D01*
X163594561Y-67224104D01*
X163587728Y-67267243D01*
X163585360Y-67278674D01*
X163574501Y-67320971D01*
X163574500Y-67320982D01*
X163574500Y-67341016D01*
X163572973Y-67360415D01*
X163569840Y-67380194D01*
X163569840Y-67380195D01*
X163573950Y-67423674D01*
X163574500Y-67435343D01*
X163574500Y-68378675D01*
X163554815Y-68445714D01*
X163502011Y-68491469D01*
X163500937Y-68491954D01*
X163447267Y-68515849D01*
X163294129Y-68627111D01*
X163167466Y-68767785D01*
X163072821Y-68931715D01*
X163072818Y-68931722D01*
X163024960Y-69079016D01*
X163014326Y-69111744D01*
X162999467Y-69253120D01*
X162994540Y-69300000D01*
X163000669Y-69358320D01*
X162988099Y-69427050D01*
X162940366Y-69478073D01*
X162872626Y-69495190D01*
X162806384Y-69472967D01*
X162804463Y-69471598D01*
X162727734Y-69415851D01*
X162727729Y-69415848D01*
X162554807Y-69338857D01*
X162554802Y-69338855D01*
X162409001Y-69307865D01*
X162369646Y-69299500D01*
X162180354Y-69299500D01*
X162180349Y-69299500D01*
X162175276Y-69300578D01*
X162105609Y-69295259D01*
X162049877Y-69253120D01*
X162025775Y-69187539D01*
X162025500Y-69179287D01*
X162025500Y-66510452D01*
X162045185Y-66443413D01*
X162061819Y-66422771D01*
X162522772Y-65961819D01*
X162584095Y-65928334D01*
X162610453Y-65925500D01*
X163696252Y-65925500D01*
X163763291Y-65945185D01*
G37*
%TD.AperFunction*%
%TA.AperFunction,NonConductor*%
G36*
X151517076Y-47681691D02*
G01*
X151565771Y-47731797D01*
X151579647Y-47800275D01*
X151574033Y-47827982D01*
X151516621Y-48004681D01*
X151514326Y-48011744D01*
X151503816Y-48111744D01*
X151496679Y-48179649D01*
X151470094Y-48244263D01*
X151461039Y-48254368D01*
X150727228Y-48988181D01*
X150665905Y-49021666D01*
X150639547Y-49024500D01*
X149959452Y-49024500D01*
X149892413Y-49004815D01*
X149846658Y-48952011D01*
X149836714Y-48882853D01*
X149865739Y-48819297D01*
X149871771Y-48812819D01*
X150222779Y-48461812D01*
X150747772Y-47936819D01*
X150809095Y-47903334D01*
X150835453Y-47900500D01*
X150894644Y-47900500D01*
X150894646Y-47900500D01*
X151079803Y-47861144D01*
X151252730Y-47784151D01*
X151383220Y-47689344D01*
X151449022Y-47665866D01*
X151517076Y-47681691D01*
G37*
%TD.AperFunction*%
%TA.AperFunction,NonConductor*%
G36*
X176113350Y-51545098D02*
G01*
X176161163Y-51596047D01*
X176174500Y-51651990D01*
X176174500Y-51848009D01*
X176154815Y-51915048D01*
X176102011Y-51960803D01*
X176032853Y-51970747D01*
X175979377Y-51949584D01*
X175909417Y-51900598D01*
X175839401Y-51851573D01*
X175795778Y-51796999D01*
X175788584Y-51727501D01*
X175820106Y-51665146D01*
X175839398Y-51648428D01*
X175979377Y-51550414D01*
X176045583Y-51528088D01*
X176113350Y-51545098D01*
G37*
%TD.AperFunction*%
%TA.AperFunction,NonConductor*%
G36*
X130081901Y-48787938D02*
G01*
X130088380Y-48793970D01*
X130229381Y-48934971D01*
X130262866Y-48996294D01*
X130265700Y-49022652D01*
X130265700Y-58752747D01*
X130246015Y-58819786D01*
X130193211Y-58865541D01*
X130124053Y-58875485D01*
X130060497Y-58846460D01*
X130054019Y-58840428D01*
X129913018Y-58699427D01*
X129879533Y-58638104D01*
X129876699Y-58611746D01*
X129876699Y-58379329D01*
X129876698Y-58379323D01*
X129876697Y-58379316D01*
X129870291Y-58319717D01*
X129857540Y-58285532D01*
X129852557Y-58215842D01*
X129857540Y-58198869D01*
X129870291Y-58164683D01*
X129876700Y-58105073D01*
X129876699Y-57109328D01*
X129870291Y-57049717D01*
X129857540Y-57015532D01*
X129852557Y-56945842D01*
X129857540Y-56928869D01*
X129870291Y-56894683D01*
X129876700Y-56835073D01*
X129876699Y-55839328D01*
X129870291Y-55779717D01*
X129857540Y-55745532D01*
X129852557Y-55675842D01*
X129857540Y-55658869D01*
X129870291Y-55624683D01*
X129876700Y-55565073D01*
X129876699Y-54569328D01*
X129870291Y-54509717D01*
X129857540Y-54475532D01*
X129852557Y-54405842D01*
X129857540Y-54388869D01*
X129870291Y-54354683D01*
X129876700Y-54295073D01*
X129876699Y-53299328D01*
X129870291Y-53239717D01*
X129857540Y-53205532D01*
X129852557Y-53135842D01*
X129857540Y-53118869D01*
X129870291Y-53084683D01*
X129876700Y-53025073D01*
X129876699Y-52029328D01*
X129870291Y-51969717D01*
X129857540Y-51935532D01*
X129852557Y-51865842D01*
X129857540Y-51848869D01*
X129870291Y-51814683D01*
X129876700Y-51755073D01*
X129876699Y-50759328D01*
X129870291Y-50699717D01*
X129857540Y-50665532D01*
X129852557Y-50595842D01*
X129857540Y-50578869D01*
X129870291Y-50544683D01*
X129876700Y-50485073D01*
X129876699Y-49489328D01*
X129870291Y-49429717D01*
X129857540Y-49395532D01*
X129852557Y-49325842D01*
X129857540Y-49308869D01*
X129870291Y-49274683D01*
X129876700Y-49215073D01*
X129876699Y-48881649D01*
X129896383Y-48814612D01*
X129949187Y-48768857D01*
X130018346Y-48758913D01*
X130081901Y-48787938D01*
G37*
%TD.AperFunction*%
%TA.AperFunction,NonConductor*%
G36*
X159119459Y-60471545D02*
G01*
X159164229Y-60525187D01*
X159174500Y-60574601D01*
X159174500Y-61525398D01*
X159154815Y-61592437D01*
X159102011Y-61638192D01*
X159032853Y-61648136D01*
X158985404Y-61630937D01*
X158919340Y-61590190D01*
X158919334Y-61590186D01*
X158752797Y-61535001D01*
X158752795Y-61535000D01*
X158650016Y-61524500D01*
X158650009Y-61524500D01*
X158259451Y-61524500D01*
X158192412Y-61504815D01*
X158146657Y-61452011D01*
X158136713Y-61382853D01*
X158165738Y-61319297D01*
X158171770Y-61312819D01*
X158583787Y-60900802D01*
X158596042Y-60890986D01*
X158595859Y-60890764D01*
X158601868Y-60885791D01*
X158601877Y-60885786D01*
X158647949Y-60836722D01*
X158650566Y-60834023D01*
X158670120Y-60814471D01*
X158672576Y-60811303D01*
X158680156Y-60802427D01*
X158710062Y-60770582D01*
X158719713Y-60753024D01*
X158730396Y-60736761D01*
X158742673Y-60720936D01*
X158760021Y-60680844D01*
X158765151Y-60670371D01*
X158786197Y-60632092D01*
X158791180Y-60612680D01*
X158797516Y-60594199D01*
X158797727Y-60593711D01*
X158842456Y-60540037D01*
X158872486Y-60525337D01*
X158919334Y-60509814D01*
X158985404Y-60469061D01*
X159052796Y-60450622D01*
X159119459Y-60471545D01*
G37*
%TD.AperFunction*%
%TA.AperFunction,NonConductor*%
G36*
X157163698Y-61645185D02*
G01*
X157209453Y-61697989D01*
X157219397Y-61767147D01*
X157202198Y-61814596D01*
X157115189Y-61955659D01*
X157115186Y-61955666D01*
X157060001Y-62122203D01*
X157060001Y-62122204D01*
X157060000Y-62122204D01*
X157049500Y-62224983D01*
X157049500Y-63114546D01*
X157029815Y-63181585D01*
X157013181Y-63202227D01*
X156452598Y-63762810D01*
X156391275Y-63796295D01*
X156321583Y-63791311D01*
X156265650Y-63749439D01*
X156241233Y-63683975D01*
X156241559Y-63662526D01*
X156250499Y-63575016D01*
X156250500Y-63575009D01*
X156250499Y-62224992D01*
X156239999Y-62122203D01*
X156184814Y-61955666D01*
X156162182Y-61918973D01*
X156143742Y-61851581D01*
X156164665Y-61784917D01*
X156194836Y-61753559D01*
X156305871Y-61672888D01*
X156308788Y-61669647D01*
X156311600Y-61666526D01*
X156371087Y-61629879D01*
X156403748Y-61625500D01*
X157096659Y-61625500D01*
X157163698Y-61645185D01*
G37*
%TD.AperFunction*%
M02*
