%TF.GenerationSoftware,KiCad,Pcbnew,7.0.10*%
%TF.CreationDate,2024-05-28T16:22:07+05:30*%
%TF.ProjectId,pro1,70726f31-2e6b-4696-9361-645f70636258,rev?*%
%TF.SameCoordinates,Original*%
%TF.FileFunction,Paste,Top*%
%TF.FilePolarity,Positive*%
%FSLAX46Y46*%
G04 Gerber Fmt 4.6, Leading zero omitted, Abs format (unit mm)*
G04 Created by KiCad (PCBNEW 7.0.10) date 2024-05-28 16:22:07*
%MOMM*%
%LPD*%
G01*
G04 APERTURE LIST*
G04 Aperture macros list*
%AMRoundRect*
0 Rectangle with rounded corners*
0 $1 Rounding radius*
0 $2 $3 $4 $5 $6 $7 $8 $9 X,Y pos of 4 corners*
0 Add a 4 corners polygon primitive as box body*
4,1,4,$2,$3,$4,$5,$6,$7,$8,$9,$2,$3,0*
0 Add four circle primitives for the rounded corners*
1,1,$1+$1,$2,$3*
1,1,$1+$1,$4,$5*
1,1,$1+$1,$6,$7*
1,1,$1+$1,$8,$9*
0 Add four rect primitives between the rounded corners*
20,1,$1+$1,$2,$3,$4,$5,0*
20,1,$1+$1,$4,$5,$6,$7,0*
20,1,$1+$1,$6,$7,$8,$9,0*
20,1,$1+$1,$8,$9,$2,$3,0*%
G04 Aperture macros list end*
%ADD10RoundRect,0.250000X-0.400000X-0.625000X0.400000X-0.625000X0.400000X0.625000X-0.400000X0.625000X0*%
%ADD11RoundRect,0.250001X0.624999X-0.462499X0.624999X0.462499X-0.624999X0.462499X-0.624999X-0.462499X0*%
%ADD12RoundRect,0.250000X-0.412500X-0.650000X0.412500X-0.650000X0.412500X0.650000X-0.412500X0.650000X0*%
%ADD13RoundRect,0.250001X-0.462499X-0.624999X0.462499X-0.624999X0.462499X0.624999X-0.462499X0.624999X0*%
%ADD14R,1.500000X0.900000*%
%ADD15R,0.900000X1.500000*%
%ADD16R,0.900000X0.900000*%
%ADD17RoundRect,0.250000X0.400000X0.625000X-0.400000X0.625000X-0.400000X-0.625000X0.400000X-0.625000X0*%
%ADD18RoundRect,0.250000X2.050000X0.300000X-2.050000X0.300000X-2.050000X-0.300000X2.050000X-0.300000X0*%
%ADD19RoundRect,0.250000X2.025000X2.375000X-2.025000X2.375000X-2.025000X-2.375000X2.025000X-2.375000X0*%
G04 APERTURE END LIST*
D10*
%TO.C,R1*%
X154700000Y-52100000D03*
X157800000Y-52100000D03*
%TD*%
D11*
%TO.C,D3*%
X148700000Y-78700000D03*
X148700000Y-75725000D03*
%TD*%
D12*
%TO.C,C3*%
X157800000Y-48700000D03*
X154675000Y-48700000D03*
%TD*%
%TO.C,C1*%
X154775000Y-55600000D03*
X157900000Y-55600000D03*
%TD*%
D13*
%TO.C,D1*%
X148825000Y-70000000D03*
X151800000Y-70000000D03*
%TD*%
D10*
%TO.C,R3*%
X155100000Y-62900000D03*
X158200000Y-62900000D03*
%TD*%
D12*
%TO.C,C2*%
X157800000Y-45600000D03*
X154675000Y-45600000D03*
%TD*%
D14*
%TO.C,U1*%
X128626200Y-44907200D03*
X128626200Y-46177200D03*
X128626200Y-47447200D03*
X128626200Y-48717200D03*
X128626200Y-49987200D03*
X128626200Y-51257200D03*
X128626200Y-52527200D03*
X128626200Y-53797200D03*
X128626200Y-55067200D03*
X128626200Y-56337200D03*
X128626200Y-57607200D03*
X128626200Y-58877200D03*
X128626200Y-60147200D03*
X128626200Y-61417200D03*
D15*
X131666200Y-62667200D03*
X132936200Y-62667200D03*
X134206200Y-62667200D03*
X135476200Y-62667200D03*
X136746200Y-62667200D03*
X138016200Y-62667200D03*
X139286200Y-62667200D03*
X140556200Y-62667200D03*
X141826200Y-62667200D03*
X143096200Y-62667200D03*
D14*
X146126200Y-61417200D03*
X146126200Y-60147200D03*
X146126200Y-58877200D03*
X146126200Y-57607200D03*
X146126200Y-56337200D03*
X146126200Y-55067200D03*
X146126200Y-53797200D03*
X146126200Y-52527200D03*
X146126200Y-51257200D03*
X146126200Y-49987200D03*
X146126200Y-48717200D03*
X146126200Y-47447200D03*
X146126200Y-46177200D03*
X146126200Y-44907200D03*
D16*
X134476200Y-51227200D03*
X134476200Y-52627200D03*
X134476200Y-54027200D03*
X135876200Y-51227200D03*
X135876200Y-52627200D03*
X135876200Y-54027200D03*
X137276200Y-51227200D03*
X137276200Y-52627200D03*
X137276200Y-54027200D03*
%TD*%
D17*
%TO.C,R2*%
X158200000Y-59200000D03*
X155100000Y-59200000D03*
%TD*%
D18*
%TO.C,U3*%
X141875000Y-80940000D03*
D19*
X135150000Y-81175000D03*
X135150000Y-75625000D03*
X130300000Y-81175000D03*
X130300000Y-75625000D03*
D18*
X141875000Y-75860000D03*
%TD*%
M02*
