%TF.GenerationSoftware,KiCad,Pcbnew,7.0.10*%
%TF.CreationDate,2024-05-28T16:22:07+05:30*%
%TF.ProjectId,pro1,70726f31-2e6b-4696-9361-645f70636258,rev?*%
%TF.SameCoordinates,Original*%
%TF.FileFunction,Legend,Bot*%
%TF.FilePolarity,Positive*%
%FSLAX46Y46*%
G04 Gerber Fmt 4.6, Leading zero omitted, Abs format (unit mm)*
G04 Created by KiCad (PCBNEW 7.0.10) date 2024-05-28 16:22:07*
%MOMM*%
%LPD*%
G01*
G04 APERTURE LIST*
%ADD10C,0.125000*%
%ADD11C,0.150000*%
%ADD12C,0.120000*%
%ADD13O,1.950000X1.700000*%
G04 APERTURE END LIST*
D10*
X158579047Y-78544809D02*
X158579047Y-78044809D01*
X158579047Y-78044809D02*
X158459999Y-78044809D01*
X158459999Y-78044809D02*
X158388571Y-78068619D01*
X158388571Y-78068619D02*
X158340952Y-78116238D01*
X158340952Y-78116238D02*
X158317142Y-78163857D01*
X158317142Y-78163857D02*
X158293333Y-78259095D01*
X158293333Y-78259095D02*
X158293333Y-78330523D01*
X158293333Y-78330523D02*
X158317142Y-78425761D01*
X158317142Y-78425761D02*
X158340952Y-78473380D01*
X158340952Y-78473380D02*
X158388571Y-78521000D01*
X158388571Y-78521000D02*
X158459999Y-78544809D01*
X158459999Y-78544809D02*
X158579047Y-78544809D01*
X158102856Y-78092428D02*
X158079047Y-78068619D01*
X158079047Y-78068619D02*
X158031428Y-78044809D01*
X158031428Y-78044809D02*
X157912380Y-78044809D01*
X157912380Y-78044809D02*
X157864761Y-78068619D01*
X157864761Y-78068619D02*
X157840952Y-78092428D01*
X157840952Y-78092428D02*
X157817142Y-78140047D01*
X157817142Y-78140047D02*
X157817142Y-78187666D01*
X157817142Y-78187666D02*
X157840952Y-78259095D01*
X157840952Y-78259095D02*
X158126666Y-78544809D01*
X158126666Y-78544809D02*
X157817142Y-78544809D01*
X169600952Y-52654809D02*
X169600952Y-53059571D01*
X169600952Y-53059571D02*
X169577142Y-53107190D01*
X169577142Y-53107190D02*
X169553333Y-53131000D01*
X169553333Y-53131000D02*
X169505714Y-53154809D01*
X169505714Y-53154809D02*
X169410476Y-53154809D01*
X169410476Y-53154809D02*
X169362857Y-53131000D01*
X169362857Y-53131000D02*
X169339047Y-53107190D01*
X169339047Y-53107190D02*
X169315238Y-53059571D01*
X169315238Y-53059571D02*
X169315238Y-52654809D01*
X169100951Y-52702428D02*
X169077142Y-52678619D01*
X169077142Y-52678619D02*
X169029523Y-52654809D01*
X169029523Y-52654809D02*
X168910475Y-52654809D01*
X168910475Y-52654809D02*
X168862856Y-52678619D01*
X168862856Y-52678619D02*
X168839047Y-52702428D01*
X168839047Y-52702428D02*
X168815237Y-52750047D01*
X168815237Y-52750047D02*
X168815237Y-52797666D01*
X168815237Y-52797666D02*
X168839047Y-52869095D01*
X168839047Y-52869095D02*
X169124761Y-53154809D01*
X169124761Y-53154809D02*
X168815237Y-53154809D01*
X145233333Y-64937190D02*
X145257142Y-64961000D01*
X145257142Y-64961000D02*
X145328571Y-64984809D01*
X145328571Y-64984809D02*
X145376190Y-64984809D01*
X145376190Y-64984809D02*
X145447618Y-64961000D01*
X145447618Y-64961000D02*
X145495237Y-64913380D01*
X145495237Y-64913380D02*
X145519047Y-64865761D01*
X145519047Y-64865761D02*
X145542856Y-64770523D01*
X145542856Y-64770523D02*
X145542856Y-64699095D01*
X145542856Y-64699095D02*
X145519047Y-64603857D01*
X145519047Y-64603857D02*
X145495237Y-64556238D01*
X145495237Y-64556238D02*
X145447618Y-64508619D01*
X145447618Y-64508619D02*
X145376190Y-64484809D01*
X145376190Y-64484809D02*
X145328571Y-64484809D01*
X145328571Y-64484809D02*
X145257142Y-64508619D01*
X145257142Y-64508619D02*
X145233333Y-64532428D01*
X144995237Y-64984809D02*
X144899999Y-64984809D01*
X144899999Y-64984809D02*
X144852380Y-64961000D01*
X144852380Y-64961000D02*
X144828571Y-64937190D01*
X144828571Y-64937190D02*
X144780952Y-64865761D01*
X144780952Y-64865761D02*
X144757142Y-64770523D01*
X144757142Y-64770523D02*
X144757142Y-64580047D01*
X144757142Y-64580047D02*
X144780952Y-64532428D01*
X144780952Y-64532428D02*
X144804761Y-64508619D01*
X144804761Y-64508619D02*
X144852380Y-64484809D01*
X144852380Y-64484809D02*
X144947618Y-64484809D01*
X144947618Y-64484809D02*
X144995237Y-64508619D01*
X144995237Y-64508619D02*
X145019047Y-64532428D01*
X145019047Y-64532428D02*
X145042856Y-64580047D01*
X145042856Y-64580047D02*
X145042856Y-64699095D01*
X145042856Y-64699095D02*
X145019047Y-64746714D01*
X145019047Y-64746714D02*
X144995237Y-64770523D01*
X144995237Y-64770523D02*
X144947618Y-64794333D01*
X144947618Y-64794333D02*
X144852380Y-64794333D01*
X144852380Y-64794333D02*
X144804761Y-64770523D01*
X144804761Y-64770523D02*
X144780952Y-64746714D01*
X144780952Y-64746714D02*
X144757142Y-64699095D01*
D11*
X157649404Y-72469819D02*
X157649404Y-73279342D01*
X157649404Y-73279342D02*
X157601785Y-73374580D01*
X157601785Y-73374580D02*
X157554166Y-73422200D01*
X157554166Y-73422200D02*
X157458928Y-73469819D01*
X157458928Y-73469819D02*
X157268452Y-73469819D01*
X157268452Y-73469819D02*
X157173214Y-73422200D01*
X157173214Y-73422200D02*
X157125595Y-73374580D01*
X157125595Y-73374580D02*
X157077976Y-73279342D01*
X157077976Y-73279342D02*
X157077976Y-72469819D01*
X156173214Y-72803152D02*
X156173214Y-73469819D01*
X156411309Y-72422200D02*
X156649404Y-73136485D01*
X156649404Y-73136485D02*
X156030357Y-73136485D01*
D10*
X145443333Y-74744809D02*
X145609999Y-74506714D01*
X145729047Y-74744809D02*
X145729047Y-74244809D01*
X145729047Y-74244809D02*
X145538571Y-74244809D01*
X145538571Y-74244809D02*
X145490952Y-74268619D01*
X145490952Y-74268619D02*
X145467142Y-74292428D01*
X145467142Y-74292428D02*
X145443333Y-74340047D01*
X145443333Y-74340047D02*
X145443333Y-74411476D01*
X145443333Y-74411476D02*
X145467142Y-74459095D01*
X145467142Y-74459095D02*
X145490952Y-74482904D01*
X145490952Y-74482904D02*
X145538571Y-74506714D01*
X145538571Y-74506714D02*
X145729047Y-74506714D01*
X145276666Y-74244809D02*
X144943333Y-74244809D01*
X144943333Y-74244809D02*
X145157618Y-74744809D01*
X170717190Y-48256666D02*
X170741000Y-48232857D01*
X170741000Y-48232857D02*
X170764809Y-48161428D01*
X170764809Y-48161428D02*
X170764809Y-48113809D01*
X170764809Y-48113809D02*
X170741000Y-48042381D01*
X170741000Y-48042381D02*
X170693380Y-47994762D01*
X170693380Y-47994762D02*
X170645761Y-47970952D01*
X170645761Y-47970952D02*
X170550523Y-47947143D01*
X170550523Y-47947143D02*
X170479095Y-47947143D01*
X170479095Y-47947143D02*
X170383857Y-47970952D01*
X170383857Y-47970952D02*
X170336238Y-47994762D01*
X170336238Y-47994762D02*
X170288619Y-48042381D01*
X170288619Y-48042381D02*
X170264809Y-48113809D01*
X170264809Y-48113809D02*
X170264809Y-48161428D01*
X170264809Y-48161428D02*
X170288619Y-48232857D01*
X170288619Y-48232857D02*
X170312428Y-48256666D01*
X170264809Y-48685238D02*
X170264809Y-48590000D01*
X170264809Y-48590000D02*
X170288619Y-48542381D01*
X170288619Y-48542381D02*
X170312428Y-48518571D01*
X170312428Y-48518571D02*
X170383857Y-48470952D01*
X170383857Y-48470952D02*
X170479095Y-48447143D01*
X170479095Y-48447143D02*
X170669571Y-48447143D01*
X170669571Y-48447143D02*
X170717190Y-48470952D01*
X170717190Y-48470952D02*
X170741000Y-48494762D01*
X170741000Y-48494762D02*
X170764809Y-48542381D01*
X170764809Y-48542381D02*
X170764809Y-48637619D01*
X170764809Y-48637619D02*
X170741000Y-48685238D01*
X170741000Y-48685238D02*
X170717190Y-48709047D01*
X170717190Y-48709047D02*
X170669571Y-48732857D01*
X170669571Y-48732857D02*
X170550523Y-48732857D01*
X170550523Y-48732857D02*
X170502904Y-48709047D01*
X170502904Y-48709047D02*
X170479095Y-48685238D01*
X170479095Y-48685238D02*
X170455285Y-48637619D01*
X170455285Y-48637619D02*
X170455285Y-48542381D01*
X170455285Y-48542381D02*
X170479095Y-48494762D01*
X170479095Y-48494762D02*
X170502904Y-48470952D01*
X170502904Y-48470952D02*
X170550523Y-48447143D01*
X168553333Y-73724809D02*
X168719999Y-73486714D01*
X168839047Y-73724809D02*
X168839047Y-73224809D01*
X168839047Y-73224809D02*
X168648571Y-73224809D01*
X168648571Y-73224809D02*
X168600952Y-73248619D01*
X168600952Y-73248619D02*
X168577142Y-73272428D01*
X168577142Y-73272428D02*
X168553333Y-73320047D01*
X168553333Y-73320047D02*
X168553333Y-73391476D01*
X168553333Y-73391476D02*
X168577142Y-73439095D01*
X168577142Y-73439095D02*
X168600952Y-73462904D01*
X168600952Y-73462904D02*
X168648571Y-73486714D01*
X168648571Y-73486714D02*
X168839047Y-73486714D01*
X168100952Y-73224809D02*
X168339047Y-73224809D01*
X168339047Y-73224809D02*
X168362856Y-73462904D01*
X168362856Y-73462904D02*
X168339047Y-73439095D01*
X168339047Y-73439095D02*
X168291428Y-73415285D01*
X168291428Y-73415285D02*
X168172380Y-73415285D01*
X168172380Y-73415285D02*
X168124761Y-73439095D01*
X168124761Y-73439095D02*
X168100952Y-73462904D01*
X168100952Y-73462904D02*
X168077142Y-73510523D01*
X168077142Y-73510523D02*
X168077142Y-73629571D01*
X168077142Y-73629571D02*
X168100952Y-73677190D01*
X168100952Y-73677190D02*
X168124761Y-73701000D01*
X168124761Y-73701000D02*
X168172380Y-73724809D01*
X168172380Y-73724809D02*
X168291428Y-73724809D01*
X168291428Y-73724809D02*
X168339047Y-73701000D01*
X168339047Y-73701000D02*
X168362856Y-73677190D01*
X165857190Y-47586666D02*
X165881000Y-47562857D01*
X165881000Y-47562857D02*
X165904809Y-47491428D01*
X165904809Y-47491428D02*
X165904809Y-47443809D01*
X165904809Y-47443809D02*
X165881000Y-47372381D01*
X165881000Y-47372381D02*
X165833380Y-47324762D01*
X165833380Y-47324762D02*
X165785761Y-47300952D01*
X165785761Y-47300952D02*
X165690523Y-47277143D01*
X165690523Y-47277143D02*
X165619095Y-47277143D01*
X165619095Y-47277143D02*
X165523857Y-47300952D01*
X165523857Y-47300952D02*
X165476238Y-47324762D01*
X165476238Y-47324762D02*
X165428619Y-47372381D01*
X165428619Y-47372381D02*
X165404809Y-47443809D01*
X165404809Y-47443809D02*
X165404809Y-47491428D01*
X165404809Y-47491428D02*
X165428619Y-47562857D01*
X165428619Y-47562857D02*
X165452428Y-47586666D01*
X165571476Y-48015238D02*
X165904809Y-48015238D01*
X165381000Y-47896190D02*
X165738142Y-47777143D01*
X165738142Y-47777143D02*
X165738142Y-48086666D01*
X167533333Y-67224809D02*
X167699999Y-66986714D01*
X167819047Y-67224809D02*
X167819047Y-66724809D01*
X167819047Y-66724809D02*
X167628571Y-66724809D01*
X167628571Y-66724809D02*
X167580952Y-66748619D01*
X167580952Y-66748619D02*
X167557142Y-66772428D01*
X167557142Y-66772428D02*
X167533333Y-66820047D01*
X167533333Y-66820047D02*
X167533333Y-66891476D01*
X167533333Y-66891476D02*
X167557142Y-66939095D01*
X167557142Y-66939095D02*
X167580952Y-66962904D01*
X167580952Y-66962904D02*
X167628571Y-66986714D01*
X167628571Y-66986714D02*
X167819047Y-66986714D01*
X167104761Y-66891476D02*
X167104761Y-67224809D01*
X167223809Y-66701000D02*
X167342856Y-67058142D01*
X167342856Y-67058142D02*
X167033333Y-67058142D01*
X167113333Y-77224809D02*
X167279999Y-76986714D01*
X167399047Y-77224809D02*
X167399047Y-76724809D01*
X167399047Y-76724809D02*
X167208571Y-76724809D01*
X167208571Y-76724809D02*
X167160952Y-76748619D01*
X167160952Y-76748619D02*
X167137142Y-76772428D01*
X167137142Y-76772428D02*
X167113333Y-76820047D01*
X167113333Y-76820047D02*
X167113333Y-76891476D01*
X167113333Y-76891476D02*
X167137142Y-76939095D01*
X167137142Y-76939095D02*
X167160952Y-76962904D01*
X167160952Y-76962904D02*
X167208571Y-76986714D01*
X167208571Y-76986714D02*
X167399047Y-76986714D01*
X166684761Y-76724809D02*
X166779999Y-76724809D01*
X166779999Y-76724809D02*
X166827618Y-76748619D01*
X166827618Y-76748619D02*
X166851428Y-76772428D01*
X166851428Y-76772428D02*
X166899047Y-76843857D01*
X166899047Y-76843857D02*
X166922856Y-76939095D01*
X166922856Y-76939095D02*
X166922856Y-77129571D01*
X166922856Y-77129571D02*
X166899047Y-77177190D01*
X166899047Y-77177190D02*
X166875237Y-77201000D01*
X166875237Y-77201000D02*
X166827618Y-77224809D01*
X166827618Y-77224809D02*
X166732380Y-77224809D01*
X166732380Y-77224809D02*
X166684761Y-77201000D01*
X166684761Y-77201000D02*
X166660952Y-77177190D01*
X166660952Y-77177190D02*
X166637142Y-77129571D01*
X166637142Y-77129571D02*
X166637142Y-77010523D01*
X166637142Y-77010523D02*
X166660952Y-76962904D01*
X166660952Y-76962904D02*
X166684761Y-76939095D01*
X166684761Y-76939095D02*
X166732380Y-76915285D01*
X166732380Y-76915285D02*
X166827618Y-76915285D01*
X166827618Y-76915285D02*
X166875237Y-76939095D01*
X166875237Y-76939095D02*
X166899047Y-76962904D01*
X166899047Y-76962904D02*
X166922856Y-77010523D01*
X163203333Y-62137190D02*
X163227142Y-62161000D01*
X163227142Y-62161000D02*
X163298571Y-62184809D01*
X163298571Y-62184809D02*
X163346190Y-62184809D01*
X163346190Y-62184809D02*
X163417618Y-62161000D01*
X163417618Y-62161000D02*
X163465237Y-62113380D01*
X163465237Y-62113380D02*
X163489047Y-62065761D01*
X163489047Y-62065761D02*
X163512856Y-61970523D01*
X163512856Y-61970523D02*
X163512856Y-61899095D01*
X163512856Y-61899095D02*
X163489047Y-61803857D01*
X163489047Y-61803857D02*
X163465237Y-61756238D01*
X163465237Y-61756238D02*
X163417618Y-61708619D01*
X163417618Y-61708619D02*
X163346190Y-61684809D01*
X163346190Y-61684809D02*
X163298571Y-61684809D01*
X163298571Y-61684809D02*
X163227142Y-61708619D01*
X163227142Y-61708619D02*
X163203333Y-61732428D01*
X162917618Y-61899095D02*
X162965237Y-61875285D01*
X162965237Y-61875285D02*
X162989047Y-61851476D01*
X162989047Y-61851476D02*
X163012856Y-61803857D01*
X163012856Y-61803857D02*
X163012856Y-61780047D01*
X163012856Y-61780047D02*
X162989047Y-61732428D01*
X162989047Y-61732428D02*
X162965237Y-61708619D01*
X162965237Y-61708619D02*
X162917618Y-61684809D01*
X162917618Y-61684809D02*
X162822380Y-61684809D01*
X162822380Y-61684809D02*
X162774761Y-61708619D01*
X162774761Y-61708619D02*
X162750952Y-61732428D01*
X162750952Y-61732428D02*
X162727142Y-61780047D01*
X162727142Y-61780047D02*
X162727142Y-61803857D01*
X162727142Y-61803857D02*
X162750952Y-61851476D01*
X162750952Y-61851476D02*
X162774761Y-61875285D01*
X162774761Y-61875285D02*
X162822380Y-61899095D01*
X162822380Y-61899095D02*
X162917618Y-61899095D01*
X162917618Y-61899095D02*
X162965237Y-61922904D01*
X162965237Y-61922904D02*
X162989047Y-61946714D01*
X162989047Y-61946714D02*
X163012856Y-61994333D01*
X163012856Y-61994333D02*
X163012856Y-62089571D01*
X163012856Y-62089571D02*
X162989047Y-62137190D01*
X162989047Y-62137190D02*
X162965237Y-62161000D01*
X162965237Y-62161000D02*
X162917618Y-62184809D01*
X162917618Y-62184809D02*
X162822380Y-62184809D01*
X162822380Y-62184809D02*
X162774761Y-62161000D01*
X162774761Y-62161000D02*
X162750952Y-62137190D01*
X162750952Y-62137190D02*
X162727142Y-62089571D01*
X162727142Y-62089571D02*
X162727142Y-61994333D01*
X162727142Y-61994333D02*
X162750952Y-61946714D01*
X162750952Y-61946714D02*
X162774761Y-61922904D01*
X162774761Y-61922904D02*
X162822380Y-61899095D01*
X162017190Y-47736666D02*
X162041000Y-47712857D01*
X162041000Y-47712857D02*
X162064809Y-47641428D01*
X162064809Y-47641428D02*
X162064809Y-47593809D01*
X162064809Y-47593809D02*
X162041000Y-47522381D01*
X162041000Y-47522381D02*
X161993380Y-47474762D01*
X161993380Y-47474762D02*
X161945761Y-47450952D01*
X161945761Y-47450952D02*
X161850523Y-47427143D01*
X161850523Y-47427143D02*
X161779095Y-47427143D01*
X161779095Y-47427143D02*
X161683857Y-47450952D01*
X161683857Y-47450952D02*
X161636238Y-47474762D01*
X161636238Y-47474762D02*
X161588619Y-47522381D01*
X161588619Y-47522381D02*
X161564809Y-47593809D01*
X161564809Y-47593809D02*
X161564809Y-47641428D01*
X161564809Y-47641428D02*
X161588619Y-47712857D01*
X161588619Y-47712857D02*
X161612428Y-47736666D01*
X161564809Y-48189047D02*
X161564809Y-47950952D01*
X161564809Y-47950952D02*
X161802904Y-47927143D01*
X161802904Y-47927143D02*
X161779095Y-47950952D01*
X161779095Y-47950952D02*
X161755285Y-47998571D01*
X161755285Y-47998571D02*
X161755285Y-48117619D01*
X161755285Y-48117619D02*
X161779095Y-48165238D01*
X161779095Y-48165238D02*
X161802904Y-48189047D01*
X161802904Y-48189047D02*
X161850523Y-48212857D01*
X161850523Y-48212857D02*
X161969571Y-48212857D01*
X161969571Y-48212857D02*
X162017190Y-48189047D01*
X162017190Y-48189047D02*
X162041000Y-48165238D01*
X162041000Y-48165238D02*
X162064809Y-48117619D01*
X162064809Y-48117619D02*
X162064809Y-47998571D01*
X162064809Y-47998571D02*
X162041000Y-47950952D01*
X162041000Y-47950952D02*
X162017190Y-47927143D01*
X144823333Y-71467190D02*
X144847142Y-71491000D01*
X144847142Y-71491000D02*
X144918571Y-71514809D01*
X144918571Y-71514809D02*
X144966190Y-71514809D01*
X144966190Y-71514809D02*
X145037618Y-71491000D01*
X145037618Y-71491000D02*
X145085237Y-71443380D01*
X145085237Y-71443380D02*
X145109047Y-71395761D01*
X145109047Y-71395761D02*
X145132856Y-71300523D01*
X145132856Y-71300523D02*
X145132856Y-71229095D01*
X145132856Y-71229095D02*
X145109047Y-71133857D01*
X145109047Y-71133857D02*
X145085237Y-71086238D01*
X145085237Y-71086238D02*
X145037618Y-71038619D01*
X145037618Y-71038619D02*
X144966190Y-71014809D01*
X144966190Y-71014809D02*
X144918571Y-71014809D01*
X144918571Y-71014809D02*
X144847142Y-71038619D01*
X144847142Y-71038619D02*
X144823333Y-71062428D01*
X144656666Y-71014809D02*
X144323333Y-71014809D01*
X144323333Y-71014809D02*
X144537618Y-71514809D01*
D12*
%TO.C,D2*%
X161372500Y-81235000D02*
X157312500Y-81235000D01*
X161372500Y-78965000D02*
X161372500Y-81235000D01*
X157312500Y-78965000D02*
X161372500Y-78965000D01*
%TO.C,U2*%
X161950000Y-59310000D02*
X167960000Y-59310000D01*
X164200000Y-52490000D02*
X167960000Y-52490000D01*
X167960000Y-52490000D02*
X167960000Y-53750000D01*
X167960000Y-59310000D02*
X167960000Y-58050000D01*
%TO.C,C9*%
X145848752Y-67410000D02*
X144426248Y-67410000D01*
X145848752Y-65590000D02*
X144426248Y-65590000D01*
%TO.C,U4*%
X156887500Y-72175000D02*
X158387500Y-72175000D01*
X156887500Y-72175000D02*
X153962500Y-72175000D01*
X156887500Y-68955000D02*
X158387500Y-68955000D01*
X156887500Y-68955000D02*
X155387500Y-68955000D01*
%TO.C,R7*%
X144422936Y-73910000D02*
X145877064Y-73910000D01*
X144422936Y-72090000D02*
X145877064Y-72090000D01*
%TO.C,C6*%
X167790000Y-48548752D02*
X167790000Y-47126248D01*
X169610000Y-48548752D02*
X169610000Y-47126248D01*
%TO.C,R5*%
X167977064Y-72610000D02*
X166522936Y-72610000D01*
X167977064Y-70790000D02*
X166522936Y-70790000D01*
%TO.C,C4*%
X163190000Y-48448752D02*
X163190000Y-47026248D01*
X165010000Y-48448752D02*
X165010000Y-47026248D01*
%TO.C,R4*%
X167927064Y-69510000D02*
X166472936Y-69510000D01*
X167927064Y-67690000D02*
X166472936Y-67690000D01*
%TO.C,R6*%
X166422936Y-74490000D02*
X167877064Y-74490000D01*
X166422936Y-76310000D02*
X167877064Y-76310000D01*
%TO.C,C8*%
X163648752Y-64410000D02*
X162226248Y-64410000D01*
X163648752Y-62590000D02*
X162226248Y-62590000D01*
%TO.C,C5*%
X159090000Y-48448752D02*
X159090000Y-47026248D01*
X160910000Y-48448752D02*
X160910000Y-47026248D01*
%TO.C,C7*%
X145648752Y-70510000D02*
X144226248Y-70510000D01*
X145648752Y-68690000D02*
X144226248Y-68690000D01*
%TD*%
D13*
%TO.C,J3*%
X175100000Y-73200000D03*
%TD*%
M02*
