%TF.GenerationSoftware,KiCad,Pcbnew,7.0.10*%
%TF.CreationDate,2024-05-28T16:22:07+05:30*%
%TF.ProjectId,pro1,70726f31-2e6b-4696-9361-645f70636258,rev?*%
%TF.SameCoordinates,Original*%
%TF.FileFunction,Copper,L2,Bot*%
%TF.FilePolarity,Positive*%
%FSLAX46Y46*%
G04 Gerber Fmt 4.6, Leading zero omitted, Abs format (unit mm)*
G04 Created by KiCad (PCBNEW 7.0.10) date 2024-05-28 16:22:07*
%MOMM*%
%LPD*%
G01*
G04 APERTURE LIST*
G04 Aperture macros list*
%AMRoundRect*
0 Rectangle with rounded corners*
0 $1 Rounding radius*
0 $2 $3 $4 $5 $6 $7 $8 $9 X,Y pos of 4 corners*
0 Add a 4 corners polygon primitive as box body*
4,1,4,$2,$3,$4,$5,$6,$7,$8,$9,$2,$3,0*
0 Add four circle primitives for the rounded corners*
1,1,$1+$1,$2,$3*
1,1,$1+$1,$4,$5*
1,1,$1+$1,$6,$7*
1,1,$1+$1,$8,$9*
0 Add four rect primitives between the rounded corners*
20,1,$1+$1,$2,$3,$4,$5,0*
20,1,$1+$1,$4,$5,$6,$7,0*
20,1,$1+$1,$6,$7,$8,$9,0*
20,1,$1+$1,$8,$9,$2,$3,0*%
G04 Aperture macros list end*
%TA.AperFunction,ComponentPad*%
%ADD10RoundRect,0.250000X0.725000X-0.600000X0.725000X0.600000X-0.725000X0.600000X-0.725000X-0.600000X0*%
%TD*%
%TA.AperFunction,ComponentPad*%
%ADD11O,1.950000X1.700000*%
%TD*%
%TA.AperFunction,ComponentPad*%
%ADD12R,3.000000X3.000000*%
%TD*%
%TA.AperFunction,ComponentPad*%
%ADD13C,3.000000*%
%TD*%
%TA.AperFunction,HeatsinkPad*%
%ADD14C,0.600000*%
%TD*%
%TA.AperFunction,SMDPad,CuDef*%
%ADD15RoundRect,0.250001X0.462499X0.624999X-0.462499X0.624999X-0.462499X-0.624999X0.462499X-0.624999X0*%
%TD*%
%TA.AperFunction,SMDPad,CuDef*%
%ADD16R,2.000000X1.500000*%
%TD*%
%TA.AperFunction,SMDPad,CuDef*%
%ADD17R,2.000000X3.800000*%
%TD*%
%TA.AperFunction,SMDPad,CuDef*%
%ADD18RoundRect,0.250000X0.412500X0.650000X-0.412500X0.650000X-0.412500X-0.650000X0.412500X-0.650000X0*%
%TD*%
%TA.AperFunction,SMDPad,CuDef*%
%ADD19RoundRect,0.100000X-0.712500X-0.100000X0.712500X-0.100000X0.712500X0.100000X-0.712500X0.100000X0*%
%TD*%
%TA.AperFunction,SMDPad,CuDef*%
%ADD20RoundRect,0.250000X-0.400000X-0.625000X0.400000X-0.625000X0.400000X0.625000X-0.400000X0.625000X0*%
%TD*%
%TA.AperFunction,SMDPad,CuDef*%
%ADD21RoundRect,0.250000X0.650000X-0.412500X0.650000X0.412500X-0.650000X0.412500X-0.650000X-0.412500X0*%
%TD*%
%TA.AperFunction,SMDPad,CuDef*%
%ADD22RoundRect,0.250000X0.400000X0.625000X-0.400000X0.625000X-0.400000X-0.625000X0.400000X-0.625000X0*%
%TD*%
%TA.AperFunction,ViaPad*%
%ADD23C,0.800000*%
%TD*%
%TA.AperFunction,Conductor*%
%ADD24C,0.250000*%
%TD*%
G04 APERTURE END LIST*
D10*
%TO.P,J3,1,Pin_1*%
%TO.N,+5V*%
X175100000Y-80700000D03*
D11*
%TO.P,J3,2,Pin_2*%
%TO.N,+3.3V*%
X175100000Y-78200000D03*
%TO.P,J3,3,Pin_3*%
%TO.N,/OUT*%
X175100000Y-75700000D03*
%TO.P,J3,4,Pin_4*%
%TO.N,GND*%
X175100000Y-73200000D03*
%TO.P,J3,5,Pin_5*%
%TO.N,/SDA*%
X175100000Y-70700000D03*
%TO.P,J3,6,Pin_6*%
%TO.N,/SCL*%
X175100000Y-68200000D03*
%TO.P,J3,7,Pin_7*%
%TO.N,/DIR*%
X175100000Y-65700000D03*
%TD*%
D12*
%TO.P,J5,1,Pin_1*%
%TO.N,+24V*%
X156060000Y-89200000D03*
D13*
%TO.P,J5,2,Pin_2*%
%TO.N,GND*%
X161140000Y-89200000D03*
%TD*%
D11*
%TO.P,J2,7,Pin_7*%
%TO.N,/TX*%
X175000000Y-40500000D03*
%TO.P,J2,6,Pin_6*%
%TO.N,/RX*%
X175000000Y-43000000D03*
%TO.P,J2,5,Pin_5*%
%TO.N,GND*%
X175000000Y-45500000D03*
%TO.P,J2,4,Pin_4*%
%TO.N,+3.3V*%
X175000000Y-48000000D03*
%TO.P,J2,3,Pin_3*%
%TO.N,/IO0*%
X175000000Y-50500000D03*
%TO.P,J2,2,Pin_2*%
%TO.N,+3.3V*%
X175000000Y-53000000D03*
D10*
%TO.P,J2,1,Pin_1*%
%TO.N,unconnected-(J2-Pin_1-Pad1)*%
X175000000Y-55500000D03*
%TD*%
D14*
%TO.P,U1,39,GND*%
%TO.N,GND*%
X134476200Y-51927200D03*
X134476200Y-53327200D03*
X135176200Y-51227200D03*
X135176200Y-52627200D03*
X135176200Y-54027200D03*
X135851200Y-51927200D03*
X135851200Y-53327200D03*
X136576200Y-51227200D03*
X136576200Y-52627200D03*
X136576200Y-54027200D03*
X137276200Y-51927200D03*
X137276200Y-53327200D03*
%TD*%
D15*
%TO.P,D2,1,K*%
%TO.N,Net-(D2-K)*%
X160400000Y-80100000D03*
%TO.P,D2,2,A*%
%TO.N,+24V*%
X157425000Y-80100000D03*
%TD*%
D16*
%TO.P,U2,1,GND*%
%TO.N,GND*%
X162900000Y-58200000D03*
%TO.P,U2,2,VO*%
%TO.N,+3.3V*%
X162900000Y-55900000D03*
D17*
X169200000Y-55900000D03*
D16*
%TO.P,U2,3,VI*%
%TO.N,+5V*%
X162900000Y-53600000D03*
%TD*%
D18*
%TO.P,C9,1*%
%TO.N,Net-(D3-A)*%
X146700000Y-66500000D03*
%TO.P,C9,2*%
%TO.N,GND*%
X143575000Y-66500000D03*
%TD*%
D19*
%TO.P,U4,8,DIR*%
%TO.N,/DIR*%
X159000000Y-71540000D03*
%TO.P,U4,7,SCL*%
%TO.N,/SCL*%
X159000000Y-70890000D03*
%TO.P,U4,6,SDA*%
%TO.N,/SDA*%
X159000000Y-70240000D03*
%TO.P,U4,5,GPO*%
%TO.N,/GPO*%
X159000000Y-69590000D03*
%TO.P,U4,4,GND*%
%TO.N,GND*%
X154775000Y-69590000D03*
%TO.P,U4,3,0UT*%
%TO.N,/OUT*%
X154775000Y-70240000D03*
%TO.P,U4,2,VCC_3.3V*%
%TO.N,Net-(U4-VCC_3.3V)*%
X154775000Y-70890000D03*
%TO.P,U4,1,VDD_5V*%
%TO.N,+5V*%
X154775000Y-71540000D03*
%TD*%
D20*
%TO.P,R7,2*%
%TO.N,Net-(U4-VCC_3.3V)*%
X146700000Y-73000000D03*
%TO.P,R7,1*%
%TO.N,+3.3V*%
X143600000Y-73000000D03*
%TD*%
D21*
%TO.P,C6,1*%
%TO.N,+3.3V*%
X168700000Y-49400000D03*
%TO.P,C6,2*%
%TO.N,GND*%
X168700000Y-46275000D03*
%TD*%
D22*
%TO.P,R5,1*%
%TO.N,+3.3V*%
X168800000Y-71700000D03*
%TO.P,R5,2*%
%TO.N,/SDA*%
X165700000Y-71700000D03*
%TD*%
D21*
%TO.P,C4,1*%
%TO.N,+3.3V*%
X164100000Y-49300000D03*
%TO.P,C4,2*%
%TO.N,GND*%
X164100000Y-46175000D03*
%TD*%
D22*
%TO.P,R4,1*%
%TO.N,+3.3V*%
X168750000Y-68600000D03*
%TO.P,R4,2*%
%TO.N,/SCL*%
X165650000Y-68600000D03*
%TD*%
D20*
%TO.P,R6,1*%
%TO.N,/GPO*%
X165600000Y-75400000D03*
%TO.P,R6,2*%
%TO.N,GND*%
X168700000Y-75400000D03*
%TD*%
D18*
%TO.P,C8,1*%
%TO.N,Net-(D2-K)*%
X164500000Y-63500000D03*
%TO.P,C8,2*%
%TO.N,GND*%
X161375000Y-63500000D03*
%TD*%
D21*
%TO.P,C5,1*%
%TO.N,+5V*%
X160000000Y-49300000D03*
%TO.P,C5,2*%
%TO.N,GND*%
X160000000Y-46175000D03*
%TD*%
D18*
%TO.P,C7,1*%
%TO.N,Net-(U4-VCC_3.3V)*%
X146500000Y-69600000D03*
%TO.P,C7,2*%
%TO.N,GND*%
X143375000Y-69600000D03*
%TD*%
D23*
%TO.N,GND*%
X156240000Y-69460000D03*
X153120000Y-71450000D03*
%TO.N,*%
X73760000Y-44830000D03*
X129953400Y-35910600D03*
X131583400Y-31340600D03*
X117480000Y-50180000D03*
X117480000Y-50180000D03*
%TO.N,GND*%
X178050000Y-48650000D03*
X172380000Y-48550000D03*
X131876800Y-61366400D03*
X152600000Y-58700000D03*
X145800000Y-77800000D03*
X156400000Y-78000000D03*
X166700000Y-73800000D03*
X166700000Y-78100000D03*
X151800000Y-74700000D03*
X158800000Y-46300000D03*
%TO.N,/DIR*%
X158309520Y-72675786D03*
X153700000Y-72700000D03*
X149000000Y-72700000D03*
X163900000Y-69300000D03*
X164500000Y-67100000D03*
%TO.N,/OUT*%
X170200000Y-77600000D03*
X159334798Y-72675815D03*
X156377347Y-70797347D03*
%TO.N,GND*%
X169000000Y-75200000D03*
X172500000Y-73200000D03*
%TO.N,+3.3V*%
X168800000Y-71700000D03*
X167500000Y-68800000D03*
X153100000Y-63000000D03*
X139700000Y-66100000D03*
X160600000Y-55800000D03*
%TO.N,+5V*%
X158500000Y-65600000D03*
X154800000Y-73700000D03*
X165700000Y-53900000D03*
%TO.N,Net-(D2-K)*%
X164400000Y-65300000D03*
X160000000Y-76400000D03*
X158737500Y-80300000D03*
%TO.N,Net-(D3-A)*%
X149800000Y-67800000D03*
%TO.N,/IO0*%
X153600000Y-60700000D03*
X155700000Y-61000000D03*
%TO.N,/RX*%
X152400000Y-48200000D03*
%TO.N,/TX*%
X150800000Y-47000000D03*
%TO.N,/SDA*%
X164600000Y-71100000D03*
X162275000Y-70200000D03*
X149100000Y-53100000D03*
%TO.N,/SCL*%
X147900000Y-48300000D03*
%TO.N,+24V*%
X157900000Y-82700000D03*
%TO.N,GND*%
X128800000Y-65700000D03*
X172500000Y-60800000D03*
X134300000Y-82200000D03*
X168700000Y-64900000D03*
X161700000Y-51900000D03*
X148900000Y-61000000D03*
X168600000Y-61900000D03*
X134500000Y-79600000D03*
X134400000Y-49300000D03*
X133300000Y-59700000D03*
X152000000Y-53200000D03*
X129000000Y-82700000D03*
X131000000Y-74400000D03*
X141700000Y-60100000D03*
X130000000Y-79300000D03*
X139100000Y-49300000D03*
X134300000Y-76400000D03*
%TD*%
D24*
%TO.N,/SDA*%
X158199695Y-64875000D02*
X159575000Y-64875000D01*
X156834695Y-64960000D02*
X158114695Y-64960000D01*
X149100000Y-57225305D02*
X156834695Y-64960000D01*
X149100000Y-53100000D02*
X149100000Y-57225305D01*
X158114695Y-64960000D02*
X158199695Y-64875000D01*
X159575000Y-64875000D02*
X161100000Y-66400000D01*
X161100000Y-66400000D02*
X161100000Y-69900000D01*
%TO.N,/OUT*%
X168270000Y-77600000D02*
X170300000Y-77600000D01*
X166875305Y-72950000D02*
X167425000Y-73499695D01*
X167425000Y-73499695D02*
X167425000Y-76755000D01*
X159608983Y-72950000D02*
X166875305Y-72950000D01*
X167425000Y-76755000D02*
X168270000Y-77600000D01*
X159334798Y-72675815D02*
X159608983Y-72950000D01*
%TO.N,/IO0*%
X153600000Y-60700000D02*
X153790000Y-60890000D01*
X153790000Y-60890000D02*
X155590000Y-60890000D01*
X155590000Y-60890000D02*
X155700000Y-61000000D01*
%TO.N,/GPO*%
X157070000Y-73120000D02*
X158040000Y-74090000D01*
X158040000Y-74090000D02*
X164290000Y-74090000D01*
X157070000Y-71766396D02*
X157070000Y-73120000D01*
X157862500Y-70973896D02*
X157070000Y-71766396D01*
X157862500Y-69961188D02*
X157862500Y-70973896D01*
X164290000Y-74090000D02*
X165600000Y-75400000D01*
X159000000Y-69600000D02*
X158223688Y-69600000D01*
X158223688Y-69600000D02*
X157862500Y-69961188D01*
%TO.N,/DIR*%
X163900000Y-70636396D02*
X163900000Y-69300000D01*
X162900000Y-71636396D02*
X163900000Y-70636396D01*
X162900000Y-71650000D02*
X162900000Y-71636396D01*
X159100000Y-71650000D02*
X162900000Y-71650000D01*
X158309520Y-72675786D02*
X159000000Y-71985306D01*
X159000000Y-71985306D02*
X159000000Y-71550000D01*
X159000000Y-71550000D02*
X159100000Y-71650000D01*
%TO.N,/OUT*%
X155830000Y-70250000D02*
X154775000Y-70250000D01*
X156377347Y-70797347D02*
X155830000Y-70250000D01*
%TO.N,+5V*%
X157412500Y-66687500D02*
X158500000Y-65600000D01*
X157412500Y-70787500D02*
X157412500Y-66687500D01*
X156000000Y-72200000D02*
X157412500Y-70787500D01*
X154775000Y-72200000D02*
X156000000Y-72200000D01*
X154775000Y-74375000D02*
X154775000Y-72200000D01*
X156000000Y-75600000D02*
X154775000Y-74375000D01*
X160850000Y-76224695D02*
X160225305Y-75600000D01*
X163900000Y-80700000D02*
X160850000Y-77650000D01*
X160850000Y-77650000D02*
X160850000Y-76224695D01*
X175100000Y-80700000D02*
X163900000Y-80700000D01*
X160225305Y-75600000D02*
X156000000Y-75600000D01*
%TO.N,+3.3V*%
X143600000Y-73000000D02*
X144800000Y-71800000D01*
X144800000Y-65600000D02*
X145300000Y-65100000D01*
X144800000Y-71800000D02*
X144800000Y-65600000D01*
%TO.N,/SDA*%
X174500000Y-70100000D02*
X175100000Y-70700000D01*
X166300000Y-70420000D02*
X166620000Y-70100000D01*
X166300000Y-71100000D02*
X166300000Y-70420000D01*
X165700000Y-71700000D02*
X166300000Y-71100000D01*
X166620000Y-70100000D02*
X174500000Y-70100000D01*
%TO.N,/RX*%
X171500000Y-43500000D02*
X172000000Y-43000000D01*
X171500000Y-47213299D02*
X171500000Y-43500000D01*
X172000000Y-43000000D02*
X175000000Y-43000000D01*
X171013299Y-47700000D02*
X171500000Y-47213299D01*
%TO.N,+3.3V*%
X145300000Y-65100000D02*
X151000000Y-65100000D01*
X140700000Y-65100000D02*
X145300000Y-65100000D01*
%TO.N,Net-(D3-A)*%
X148700000Y-66700000D02*
X147525000Y-66700000D01*
X147525000Y-66700000D02*
X146825000Y-66000000D01*
X149800000Y-67800000D02*
X148700000Y-66700000D01*
%TO.N,/TX*%
X171700000Y-40500000D02*
X175000000Y-40500000D01*
X152612500Y-45187500D02*
X167012500Y-45187500D01*
X167012500Y-45187500D02*
X171700000Y-40500000D01*
X150800000Y-47000000D02*
X152612500Y-45187500D01*
%TO.N,+3.3V*%
X172000000Y-75000000D02*
X175100000Y-78100000D01*
X170500000Y-75000000D02*
X172000000Y-75000000D01*
%TO.N,Net-(D2-K)*%
X158737500Y-80300000D02*
X158937500Y-80100000D01*
X158937500Y-80100000D02*
X160400000Y-80100000D01*
%TO.N,/SCL*%
X163600000Y-68100000D02*
X163600000Y-68500000D01*
X156000305Y-60275000D02*
X156425000Y-60699695D01*
X150500000Y-55000000D02*
X155775000Y-60275000D01*
X150500000Y-52900000D02*
X150500000Y-55000000D01*
X156425000Y-60699695D02*
X156425000Y-60925000D01*
X147900000Y-50300000D02*
X150500000Y-52900000D01*
X156425000Y-60925000D02*
X163600000Y-68100000D01*
X147900000Y-48300000D02*
X147900000Y-50300000D01*
X155775000Y-60275000D02*
X156000305Y-60275000D01*
X161949695Y-70900000D02*
X159000000Y-70900000D01*
X162975000Y-70925000D02*
X161974695Y-70925000D01*
X163100000Y-70800000D02*
X162975000Y-70925000D01*
X161974695Y-70925000D02*
X161949695Y-70900000D01*
X163100000Y-69000000D02*
X163100000Y-70800000D01*
X163600000Y-68500000D02*
X163100000Y-69000000D01*
X163700000Y-68400000D02*
X163600000Y-68500000D01*
X165450000Y-68400000D02*
X163700000Y-68400000D01*
%TO.N,/SDA*%
X160750000Y-70250000D02*
X159000000Y-70250000D01*
X161100000Y-69900000D02*
X160750000Y-70250000D01*
X161100000Y-69900000D02*
X161400000Y-70200000D01*
X162275000Y-70200000D02*
X161400000Y-70200000D01*
%TO.N,+3.3V*%
X170400000Y-73300000D02*
X168800000Y-71700000D01*
X170500000Y-75000000D02*
X170400000Y-74900000D01*
X170400000Y-74900000D02*
X170400000Y-73300000D01*
X139700000Y-66100000D02*
X140700000Y-65100000D01*
X151000000Y-65100000D02*
X153100000Y-63000000D01*
%TO.N,/DIR*%
X149000000Y-72700000D02*
X153700000Y-72700000D01*
%TO.N,/SDA*%
X164600000Y-71100000D02*
X165100000Y-71100000D01*
X165100000Y-71100000D02*
X165700000Y-71700000D01*
%TO.N,/DIR*%
X165400000Y-67000000D02*
X164500000Y-67100000D01*
X166375000Y-66025000D02*
X165400000Y-67000000D01*
X174775000Y-66025000D02*
X166375000Y-66025000D01*
%TO.N,+3.3V*%
X162900000Y-55900000D02*
X169200000Y-55900000D01*
X164100000Y-49300000D02*
X168600000Y-49300000D01*
X172100000Y-55900000D02*
X175000000Y-53000000D01*
X160600000Y-55800000D02*
X162800000Y-55800000D01*
X167500000Y-68800000D02*
X168550000Y-68800000D01*
X173600000Y-49400000D02*
X175000000Y-48000000D01*
X168700000Y-49400000D02*
X173600000Y-49400000D01*
X169200000Y-55900000D02*
X172100000Y-55900000D01*
%TO.N,+5V*%
X160000000Y-49300000D02*
X160000000Y-52700000D01*
X165700000Y-53900000D02*
X165400000Y-53600000D01*
X160000000Y-52700000D02*
X160900000Y-53600000D01*
X160900000Y-53600000D02*
X162900000Y-53600000D01*
X165400000Y-53600000D02*
X162900000Y-53600000D01*
X154800000Y-73700000D02*
X154800000Y-71575000D01*
%TO.N,Net-(U4-VCC_3.3V)*%
X154775000Y-70900000D02*
X154008688Y-70900000D01*
X146762500Y-69862500D02*
X146762500Y-72937500D01*
X154008688Y-70900000D02*
X152608688Y-69500000D01*
X152608688Y-69500000D02*
X146600000Y-69500000D01*
%TO.N,Net-(D2-K)*%
X164500000Y-63500000D02*
X164500000Y-65200000D01*
X160000000Y-76400000D02*
X160400000Y-76800000D01*
X164500000Y-65200000D02*
X164400000Y-65300000D01*
X160400000Y-76800000D02*
X160400000Y-80100000D01*
%TO.N,/RX*%
X152400000Y-48200000D02*
X152900000Y-47700000D01*
X152900000Y-47700000D02*
X171013299Y-47700000D01*
%TO.N,/SCL*%
X166850000Y-67400000D02*
X174300000Y-67400000D01*
X165650000Y-68600000D02*
X166850000Y-67400000D01*
X174300000Y-67400000D02*
X175100000Y-68200000D01*
%TO.N,+24V*%
X157425000Y-82225000D02*
X157900000Y-82700000D01*
X157425000Y-80100000D02*
X157425000Y-82225000D01*
%TD*%
%TA.AperFunction,Conductor*%
%TO.N,GND*%
G36*
X156391360Y-72779457D02*
G01*
X156435126Y-72833920D01*
X156444500Y-72881216D01*
X156444500Y-73037255D01*
X156442775Y-73052872D01*
X156443061Y-73052899D01*
X156442326Y-73060665D01*
X156444439Y-73127872D01*
X156444500Y-73131767D01*
X156444500Y-73159357D01*
X156445003Y-73163335D01*
X156445918Y-73174967D01*
X156447290Y-73218624D01*
X156447291Y-73218627D01*
X156452880Y-73237867D01*
X156456824Y-73256911D01*
X156457298Y-73260656D01*
X156459336Y-73276792D01*
X156475414Y-73317403D01*
X156479197Y-73328452D01*
X156490993Y-73369054D01*
X156491382Y-73370390D01*
X156492857Y-73372885D01*
X156501580Y-73387634D01*
X156510138Y-73405103D01*
X156517514Y-73423732D01*
X156543181Y-73459060D01*
X156549593Y-73468821D01*
X156571828Y-73506417D01*
X156571833Y-73506424D01*
X156585990Y-73520580D01*
X156598628Y-73535376D01*
X156610405Y-73551586D01*
X156610406Y-73551587D01*
X156644057Y-73579425D01*
X156652698Y-73587288D01*
X157539197Y-74473788D01*
X157549022Y-74486051D01*
X157549243Y-74485869D01*
X157554211Y-74491874D01*
X157554213Y-74491876D01*
X157554214Y-74491877D01*
X157590514Y-74525965D01*
X157603222Y-74537899D01*
X157606021Y-74540612D01*
X157625522Y-74560114D01*
X157625526Y-74560117D01*
X157625529Y-74560120D01*
X157628702Y-74562581D01*
X157637574Y-74570159D01*
X157669418Y-74600062D01*
X157686976Y-74609714D01*
X157703235Y-74620395D01*
X157719064Y-74632673D01*
X157759155Y-74650021D01*
X157769626Y-74655151D01*
X157792180Y-74667550D01*
X157807902Y-74676194D01*
X157807904Y-74676195D01*
X157807908Y-74676197D01*
X157827316Y-74681180D01*
X157845719Y-74687481D01*
X157864101Y-74695436D01*
X157864102Y-74695436D01*
X157864104Y-74695437D01*
X157907250Y-74702270D01*
X157918672Y-74704636D01*
X157960981Y-74715500D01*
X157981016Y-74715500D01*
X158000414Y-74717026D01*
X158020194Y-74720159D01*
X158020195Y-74720160D01*
X158020195Y-74720159D01*
X158020196Y-74720160D01*
X158063675Y-74716050D01*
X158075344Y-74715500D01*
X163979548Y-74715500D01*
X164046587Y-74735185D01*
X164067229Y-74751819D01*
X164413181Y-75097771D01*
X164446666Y-75159094D01*
X164449500Y-75185452D01*
X164449500Y-76075001D01*
X164449501Y-76075019D01*
X164460000Y-76177796D01*
X164460001Y-76177799D01*
X164495203Y-76284029D01*
X164515186Y-76344334D01*
X164607288Y-76493656D01*
X164731344Y-76617712D01*
X164880666Y-76709814D01*
X165047203Y-76764999D01*
X165149991Y-76775500D01*
X166050008Y-76775499D01*
X166050016Y-76775498D01*
X166050019Y-76775498D01*
X166110722Y-76769297D01*
X166152797Y-76764999D01*
X166319334Y-76709814D01*
X166468656Y-76617712D01*
X166587819Y-76498549D01*
X166649142Y-76465064D01*
X166718834Y-76470048D01*
X166774767Y-76511920D01*
X166799184Y-76577384D01*
X166799500Y-76586230D01*
X166799500Y-76672255D01*
X166797775Y-76687872D01*
X166798061Y-76687899D01*
X166797326Y-76695665D01*
X166799439Y-76762872D01*
X166799500Y-76766767D01*
X166799500Y-76794357D01*
X166800003Y-76798335D01*
X166800918Y-76809967D01*
X166802290Y-76853624D01*
X166802291Y-76853627D01*
X166807880Y-76872867D01*
X166811824Y-76891911D01*
X166814336Y-76911792D01*
X166830414Y-76952403D01*
X166834197Y-76963452D01*
X166846381Y-77005388D01*
X166856580Y-77022634D01*
X166865138Y-77040103D01*
X166872514Y-77058732D01*
X166898181Y-77094060D01*
X166904593Y-77103821D01*
X166926828Y-77141417D01*
X166926833Y-77141424D01*
X166940990Y-77155580D01*
X166953628Y-77170376D01*
X166965405Y-77186586D01*
X166965406Y-77186587D01*
X166999057Y-77214425D01*
X167007698Y-77222288D01*
X167769197Y-77983788D01*
X167779022Y-77996051D01*
X167779243Y-77995869D01*
X167784211Y-78001874D01*
X167833222Y-78047899D01*
X167836021Y-78050612D01*
X167855522Y-78070114D01*
X167855526Y-78070117D01*
X167855529Y-78070120D01*
X167858702Y-78072581D01*
X167867574Y-78080159D01*
X167899418Y-78110062D01*
X167916976Y-78119714D01*
X167933235Y-78130395D01*
X167949064Y-78142673D01*
X167989155Y-78160021D01*
X167999626Y-78165151D01*
X168022180Y-78177550D01*
X168037902Y-78186194D01*
X168037904Y-78186195D01*
X168037908Y-78186197D01*
X168057316Y-78191180D01*
X168075719Y-78197481D01*
X168094101Y-78205436D01*
X168094102Y-78205436D01*
X168094104Y-78205437D01*
X168137250Y-78212270D01*
X168148672Y-78214636D01*
X168190981Y-78225500D01*
X168211016Y-78225500D01*
X168230414Y-78227026D01*
X168250194Y-78230159D01*
X168250195Y-78230160D01*
X168250195Y-78230159D01*
X168250196Y-78230160D01*
X168293675Y-78226050D01*
X168305344Y-78225500D01*
X169496252Y-78225500D01*
X169563291Y-78245185D01*
X169588400Y-78266526D01*
X169594126Y-78272885D01*
X169594130Y-78272889D01*
X169747265Y-78384148D01*
X169747270Y-78384151D01*
X169920192Y-78461142D01*
X169920197Y-78461144D01*
X170105354Y-78500500D01*
X170105355Y-78500500D01*
X170294644Y-78500500D01*
X170294646Y-78500500D01*
X170479803Y-78461144D01*
X170652730Y-78384151D01*
X170805871Y-78272888D01*
X170932533Y-78132216D01*
X171027179Y-77968284D01*
X171085674Y-77788256D01*
X171105460Y-77600000D01*
X171085674Y-77411744D01*
X171027179Y-77231716D01*
X170932533Y-77067784D01*
X170805871Y-76927112D01*
X170805870Y-76927111D01*
X170652734Y-76815851D01*
X170652729Y-76815848D01*
X170479807Y-76738857D01*
X170479802Y-76738855D01*
X170334001Y-76707865D01*
X170294646Y-76699500D01*
X170105354Y-76699500D01*
X170072897Y-76706398D01*
X169920197Y-76738855D01*
X169920192Y-76738857D01*
X169747270Y-76815848D01*
X169747265Y-76815851D01*
X169594130Y-76927110D01*
X169594126Y-76927114D01*
X169588400Y-76933474D01*
X169528913Y-76970121D01*
X169496252Y-76974500D01*
X169387400Y-76974500D01*
X169320361Y-76954815D01*
X169274606Y-76902011D01*
X169264662Y-76832853D01*
X169293687Y-76769297D01*
X169348396Y-76732794D01*
X169419119Y-76709358D01*
X169419124Y-76709356D01*
X169568345Y-76617315D01*
X169692315Y-76493345D01*
X169784356Y-76344124D01*
X169784358Y-76344119D01*
X169839505Y-76177697D01*
X169839506Y-76177690D01*
X169849999Y-76074986D01*
X169849999Y-75534216D01*
X169869683Y-75467177D01*
X169922487Y-75421422D01*
X169991646Y-75411478D01*
X170055202Y-75440503D01*
X170058878Y-75443820D01*
X170063220Y-75447897D01*
X170066024Y-75450614D01*
X170085529Y-75470120D01*
X170088700Y-75472580D01*
X170097576Y-75480162D01*
X170129410Y-75510055D01*
X170129412Y-75510056D01*
X170129418Y-75510062D01*
X170146976Y-75519714D01*
X170163235Y-75530395D01*
X170179064Y-75542673D01*
X170219155Y-75560021D01*
X170229626Y-75565151D01*
X170251130Y-75576973D01*
X170267902Y-75586194D01*
X170267904Y-75586195D01*
X170267908Y-75586197D01*
X170287316Y-75591180D01*
X170305719Y-75597481D01*
X170324101Y-75605436D01*
X170324102Y-75605436D01*
X170324104Y-75605437D01*
X170367250Y-75612270D01*
X170378672Y-75614636D01*
X170420981Y-75625500D01*
X170441016Y-75625500D01*
X170460414Y-75627026D01*
X170480194Y-75630159D01*
X170480195Y-75630160D01*
X170480195Y-75630159D01*
X170480196Y-75630160D01*
X170523675Y-75626050D01*
X170535344Y-75625500D01*
X171689548Y-75625500D01*
X171756587Y-75645185D01*
X171777229Y-75661819D01*
X173687610Y-77572201D01*
X173721095Y-77633524D01*
X173716111Y-77703216D01*
X173712313Y-77712282D01*
X173701096Y-77736339D01*
X173639938Y-77964586D01*
X173639936Y-77964596D01*
X173619341Y-78199999D01*
X173619341Y-78200000D01*
X173639936Y-78435403D01*
X173639938Y-78435413D01*
X173701094Y-78663655D01*
X173701096Y-78663659D01*
X173701097Y-78663663D01*
X173746782Y-78761634D01*
X173800964Y-78877828D01*
X173800965Y-78877830D01*
X173936505Y-79071402D01*
X174083704Y-79218601D01*
X174117189Y-79279924D01*
X174112205Y-79349616D01*
X174070333Y-79405549D01*
X174061120Y-79411820D01*
X173906347Y-79507285D01*
X173906343Y-79507288D01*
X173782289Y-79631342D01*
X173690187Y-79780663D01*
X173690185Y-79780668D01*
X173635001Y-79947204D01*
X173635000Y-79947205D01*
X173633377Y-79963101D01*
X173606982Y-80027793D01*
X173549802Y-80067945D01*
X173510019Y-80074500D01*
X164210453Y-80074500D01*
X164143414Y-80054815D01*
X164122772Y-80038181D01*
X161511819Y-77427228D01*
X161478334Y-77365905D01*
X161475500Y-77339547D01*
X161475500Y-76307433D01*
X161477224Y-76291819D01*
X161476938Y-76291792D01*
X161477672Y-76284029D01*
X161475561Y-76216839D01*
X161475500Y-76212945D01*
X161475500Y-76185346D01*
X161475500Y-76185345D01*
X161474997Y-76181365D01*
X161474080Y-76169716D01*
X161473890Y-76163663D01*
X161472709Y-76126068D01*
X161467122Y-76106839D01*
X161463174Y-76087779D01*
X161462212Y-76080160D01*
X161460664Y-76067903D01*
X161444585Y-76027292D01*
X161440804Y-76016247D01*
X161428619Y-75974307D01*
X161418418Y-75957058D01*
X161409860Y-75939589D01*
X161402486Y-75920963D01*
X161402483Y-75920959D01*
X161402483Y-75920958D01*
X161376816Y-75885630D01*
X161370403Y-75875867D01*
X161348172Y-75838278D01*
X161348170Y-75838274D01*
X161348166Y-75838270D01*
X161348163Y-75838266D01*
X161334005Y-75824108D01*
X161321370Y-75809315D01*
X161309593Y-75793107D01*
X161275945Y-75765271D01*
X161267304Y-75757408D01*
X160726108Y-75216212D01*
X160716285Y-75203950D01*
X160716064Y-75204134D01*
X160711091Y-75198122D01*
X160662081Y-75152099D01*
X160659282Y-75149386D01*
X160639782Y-75129885D01*
X160639776Y-75129880D01*
X160636591Y-75127409D01*
X160627739Y-75119848D01*
X160595887Y-75089938D01*
X160595885Y-75089936D01*
X160595882Y-75089935D01*
X160578334Y-75080288D01*
X160562068Y-75069604D01*
X160546237Y-75057324D01*
X160506154Y-75039978D01*
X160495668Y-75034841D01*
X160457399Y-75013803D01*
X160457397Y-75013802D01*
X160437998Y-75008822D01*
X160419586Y-75002518D01*
X160401203Y-74994562D01*
X160401197Y-74994560D01*
X160358065Y-74987729D01*
X160346627Y-74985361D01*
X160304325Y-74974500D01*
X160304324Y-74974500D01*
X160284289Y-74974500D01*
X160264891Y-74972973D01*
X160257467Y-74971797D01*
X160245110Y-74969840D01*
X160245109Y-74969840D01*
X160201630Y-74973950D01*
X160189961Y-74974500D01*
X156310452Y-74974500D01*
X156243413Y-74954815D01*
X156222771Y-74938181D01*
X155594056Y-74309466D01*
X155560571Y-74248143D01*
X155565555Y-74178451D01*
X155574345Y-74159794D01*
X155627179Y-74068284D01*
X155685674Y-73888256D01*
X155705460Y-73700000D01*
X155685674Y-73511744D01*
X155627179Y-73331716D01*
X155532533Y-73167784D01*
X155524939Y-73159350D01*
X155457350Y-73084284D01*
X155427120Y-73021292D01*
X155425500Y-73001312D01*
X155425500Y-72949500D01*
X155445185Y-72882461D01*
X155497989Y-72836706D01*
X155549500Y-72825500D01*
X155917257Y-72825500D01*
X155932877Y-72827224D01*
X155932904Y-72826939D01*
X155940660Y-72827671D01*
X155940667Y-72827673D01*
X156007873Y-72825561D01*
X156011768Y-72825500D01*
X156039346Y-72825500D01*
X156039350Y-72825500D01*
X156043324Y-72824997D01*
X156054963Y-72824080D01*
X156098627Y-72822709D01*
X156117869Y-72817117D01*
X156136912Y-72813174D01*
X156156792Y-72810664D01*
X156197401Y-72794585D01*
X156208444Y-72790803D01*
X156250390Y-72778618D01*
X156257373Y-72774487D01*
X156325096Y-72757301D01*
X156391360Y-72779457D01*
G37*
%TD.AperFunction*%
%TA.AperFunction,Conductor*%
G36*
X168129110Y-73025866D02*
G01*
X168247203Y-73064999D01*
X168349991Y-73075500D01*
X169239547Y-73075499D01*
X169306586Y-73095183D01*
X169327228Y-73111818D01*
X169738181Y-73522771D01*
X169771666Y-73584094D01*
X169774500Y-73610452D01*
X169774500Y-74089564D01*
X169754815Y-74156603D01*
X169702011Y-74202358D01*
X169632853Y-74212302D01*
X169573591Y-74186832D01*
X169568345Y-74182684D01*
X169419124Y-74090643D01*
X169419119Y-74090641D01*
X169252697Y-74035494D01*
X169252690Y-74035493D01*
X169149986Y-74025000D01*
X168950000Y-74025000D01*
X168950000Y-75526000D01*
X168930315Y-75593039D01*
X168877511Y-75638794D01*
X168826000Y-75650000D01*
X168574000Y-75650000D01*
X168506961Y-75630315D01*
X168461206Y-75577511D01*
X168450000Y-75526000D01*
X168450000Y-74025000D01*
X168250029Y-74025000D01*
X168250010Y-74025001D01*
X168187101Y-74031428D01*
X168118408Y-74018658D01*
X168067524Y-73970777D01*
X168050500Y-73908070D01*
X168050500Y-73582433D01*
X168052224Y-73566819D01*
X168051938Y-73566792D01*
X168052672Y-73559029D01*
X168050561Y-73491839D01*
X168050500Y-73487945D01*
X168050500Y-73460346D01*
X168050500Y-73460345D01*
X168049997Y-73456365D01*
X168049080Y-73444716D01*
X168047709Y-73401068D01*
X168042122Y-73381839D01*
X168038174Y-73362779D01*
X168035952Y-73345185D01*
X168035664Y-73342903D01*
X168019585Y-73302292D01*
X168015804Y-73291247D01*
X168003619Y-73249307D01*
X168002392Y-73247233D01*
X167993418Y-73232058D01*
X167984860Y-73214589D01*
X167977486Y-73195963D01*
X167977483Y-73195960D01*
X167974815Y-73189219D01*
X167968439Y-73119641D01*
X168000692Y-73057661D01*
X168061334Y-73022958D01*
X168129110Y-73025866D01*
G37*
%TD.AperFunction*%
%TA.AperFunction,Conductor*%
G36*
X173574986Y-70745185D02*
G01*
X173620741Y-70797989D01*
X173631475Y-70838692D01*
X173639936Y-70935403D01*
X173639938Y-70935413D01*
X173701094Y-71163655D01*
X173701096Y-71163659D01*
X173701097Y-71163663D01*
X173730626Y-71226988D01*
X173800964Y-71377828D01*
X173800965Y-71377830D01*
X173936505Y-71571402D01*
X174103597Y-71738494D01*
X174261031Y-71848730D01*
X174304656Y-71903307D01*
X174311850Y-71972805D01*
X174280327Y-72035160D01*
X174261032Y-72051880D01*
X174103922Y-72161890D01*
X174103920Y-72161891D01*
X173936894Y-72328917D01*
X173801399Y-72522421D01*
X173701570Y-72736507D01*
X173701567Y-72736513D01*
X173644364Y-72949999D01*
X173644364Y-72950000D01*
X174696031Y-72950000D01*
X174663481Y-73000649D01*
X174625000Y-73131705D01*
X174625000Y-73268295D01*
X174663481Y-73399351D01*
X174696031Y-73450000D01*
X173644364Y-73450000D01*
X173701567Y-73663486D01*
X173701570Y-73663492D01*
X173801399Y-73877577D01*
X173801400Y-73877579D01*
X173936886Y-74071073D01*
X173936891Y-74071079D01*
X174103920Y-74238108D01*
X174103926Y-74238113D01*
X174261031Y-74348119D01*
X174304656Y-74402696D01*
X174311850Y-74472194D01*
X174280327Y-74534549D01*
X174261032Y-74551269D01*
X174103594Y-74661508D01*
X173936506Y-74828597D01*
X173936501Y-74828604D01*
X173800967Y-75022165D01*
X173800965Y-75022169D01*
X173701098Y-75236335D01*
X173701094Y-75236344D01*
X173639938Y-75464586D01*
X173639937Y-75464595D01*
X173639722Y-75467052D01*
X173639324Y-75468067D01*
X173638998Y-75469921D01*
X173638625Y-75469855D01*
X173614268Y-75532120D01*
X173557676Y-75573097D01*
X173487914Y-75576973D01*
X173428513Y-75543922D01*
X172500803Y-74616212D01*
X172490980Y-74603950D01*
X172490759Y-74604134D01*
X172485786Y-74598122D01*
X172436776Y-74552099D01*
X172433977Y-74549386D01*
X172414477Y-74529885D01*
X172414471Y-74529880D01*
X172411286Y-74527409D01*
X172402434Y-74519848D01*
X172370582Y-74489938D01*
X172370580Y-74489936D01*
X172370577Y-74489935D01*
X172353029Y-74480288D01*
X172336763Y-74469604D01*
X172320932Y-74457324D01*
X172280849Y-74439978D01*
X172270363Y-74434841D01*
X172232094Y-74413803D01*
X172232092Y-74413802D01*
X172212693Y-74408822D01*
X172194281Y-74402518D01*
X172175898Y-74394562D01*
X172175892Y-74394560D01*
X172132760Y-74387729D01*
X172121322Y-74385361D01*
X172079020Y-74374500D01*
X172079019Y-74374500D01*
X172058984Y-74374500D01*
X172039586Y-74372973D01*
X172032162Y-74371797D01*
X172019805Y-74369840D01*
X172019804Y-74369840D01*
X171976325Y-74373950D01*
X171964656Y-74374500D01*
X171149500Y-74374500D01*
X171082461Y-74354815D01*
X171036706Y-74302011D01*
X171025500Y-74250500D01*
X171025500Y-73382742D01*
X171027224Y-73367122D01*
X171026939Y-73367095D01*
X171027673Y-73359333D01*
X171025561Y-73292112D01*
X171025500Y-73288218D01*
X171025500Y-73260656D01*
X171025500Y-73260650D01*
X171024996Y-73256668D01*
X171024081Y-73245029D01*
X171023856Y-73237858D01*
X171022710Y-73201373D01*
X171017119Y-73182130D01*
X171013173Y-73163078D01*
X171010664Y-73143208D01*
X170994579Y-73102583D01*
X170990806Y-73091562D01*
X170978618Y-73049610D01*
X170978617Y-73049609D01*
X170978617Y-73049607D01*
X170978616Y-73049606D01*
X170968423Y-73032371D01*
X170959861Y-73014894D01*
X170952487Y-72996269D01*
X170926816Y-72960937D01*
X170920405Y-72951177D01*
X170898170Y-72913580D01*
X170898168Y-72913578D01*
X170898165Y-72913574D01*
X170884006Y-72899415D01*
X170871368Y-72884619D01*
X170868896Y-72881216D01*
X170859594Y-72868413D01*
X170825940Y-72840572D01*
X170817299Y-72832709D01*
X169986818Y-72002228D01*
X169953333Y-71940905D01*
X169950499Y-71914547D01*
X169950499Y-71024998D01*
X169950498Y-71024981D01*
X169939999Y-70922203D01*
X169939997Y-70922195D01*
X169928833Y-70888505D01*
X169926430Y-70818677D01*
X169962161Y-70758635D01*
X170024681Y-70727442D01*
X170046538Y-70725500D01*
X173507947Y-70725500D01*
X173574986Y-70745185D01*
G37*
%TD.AperFunction*%
%TA.AperFunction,Conductor*%
G36*
X166631892Y-73595185D02*
G01*
X166652534Y-73611819D01*
X166763181Y-73722466D01*
X166796666Y-73783789D01*
X166799500Y-73810147D01*
X166799500Y-74213770D01*
X166779815Y-74280809D01*
X166727011Y-74326564D01*
X166657853Y-74336508D01*
X166594297Y-74307483D01*
X166587819Y-74301451D01*
X166468657Y-74182289D01*
X166468656Y-74182288D01*
X166375888Y-74125069D01*
X166319336Y-74090187D01*
X166319331Y-74090185D01*
X166317457Y-74089564D01*
X166152797Y-74035001D01*
X166152795Y-74035000D01*
X166050016Y-74024500D01*
X165160453Y-74024500D01*
X165093414Y-74004815D01*
X165072772Y-73988181D01*
X164871772Y-73787181D01*
X164838287Y-73725858D01*
X164843271Y-73656166D01*
X164885143Y-73600233D01*
X164950607Y-73575816D01*
X164959453Y-73575500D01*
X166564853Y-73575500D01*
X166631892Y-73595185D01*
G37*
%TD.AperFunction*%
%TA.AperFunction,Conductor*%
G36*
X154143040Y-63162308D02*
G01*
X154176010Y-63185905D01*
X156333889Y-65343784D01*
X156343714Y-65356048D01*
X156343935Y-65355866D01*
X156348905Y-65361874D01*
X156397934Y-65407915D01*
X156400731Y-65410626D01*
X156420225Y-65430120D01*
X156423390Y-65432575D01*
X156432266Y-65440156D01*
X156464113Y-65470062D01*
X156468573Y-65472514D01*
X156481668Y-65479713D01*
X156497926Y-65490392D01*
X156513759Y-65502674D01*
X156547555Y-65517298D01*
X156553850Y-65520022D01*
X156564330Y-65525155D01*
X156602603Y-65546197D01*
X156622007Y-65551179D01*
X156640405Y-65557478D01*
X156658800Y-65565438D01*
X156701949Y-65572271D01*
X156713375Y-65574638D01*
X156755676Y-65585500D01*
X156775711Y-65585500D01*
X156795108Y-65587026D01*
X156814891Y-65590160D01*
X156858370Y-65586050D01*
X156870039Y-65585500D01*
X157330546Y-65585500D01*
X157397585Y-65605185D01*
X157443340Y-65657989D01*
X157453284Y-65727147D01*
X157424259Y-65790703D01*
X157418227Y-65797181D01*
X157028708Y-66186699D01*
X157016451Y-66196520D01*
X157016634Y-66196741D01*
X157010622Y-66201714D01*
X156964598Y-66250723D01*
X156961891Y-66253516D01*
X156942389Y-66273017D01*
X156942375Y-66273034D01*
X156939907Y-66276215D01*
X156932343Y-66285070D01*
X156902437Y-66316918D01*
X156902436Y-66316920D01*
X156892784Y-66334476D01*
X156882110Y-66350726D01*
X156869829Y-66366561D01*
X156869824Y-66366568D01*
X156852475Y-66406658D01*
X156847338Y-66417144D01*
X156826303Y-66455406D01*
X156821322Y-66474807D01*
X156815021Y-66493210D01*
X156807062Y-66511602D01*
X156807061Y-66511605D01*
X156800228Y-66554743D01*
X156797860Y-66566174D01*
X156787001Y-66608471D01*
X156787000Y-66608482D01*
X156787000Y-66628516D01*
X156785473Y-66647913D01*
X156784749Y-66652483D01*
X156782340Y-66667694D01*
X156782340Y-66667695D01*
X156786450Y-66711174D01*
X156787000Y-66722843D01*
X156787000Y-69810676D01*
X156767315Y-69877715D01*
X156714511Y-69923470D01*
X156645353Y-69933414D01*
X156637220Y-69931966D01*
X156471994Y-69896847D01*
X156471993Y-69896847D01*
X156414444Y-69896847D01*
X156347405Y-69877162D01*
X156318898Y-69851884D01*
X156315788Y-69848124D01*
X156266776Y-69802099D01*
X156263977Y-69799386D01*
X156244477Y-69779885D01*
X156244471Y-69779880D01*
X156241286Y-69777409D01*
X156232434Y-69769848D01*
X156200582Y-69739938D01*
X156200580Y-69739936D01*
X156200577Y-69739935D01*
X156183029Y-69730288D01*
X156166763Y-69719604D01*
X156150932Y-69707324D01*
X156110849Y-69689978D01*
X156100363Y-69684841D01*
X156062094Y-69663803D01*
X156062092Y-69663802D01*
X156042693Y-69658822D01*
X156024281Y-69652518D01*
X156005898Y-69644562D01*
X156005892Y-69644560D01*
X155962760Y-69637729D01*
X155951322Y-69635361D01*
X155946430Y-69634105D01*
X155886391Y-69598367D01*
X155855205Y-69535844D01*
X155862772Y-69466385D01*
X155906690Y-69412044D01*
X155973016Y-69390073D01*
X155977266Y-69390000D01*
X156079510Y-69390000D01*
X156079511Y-69389998D01*
X156072057Y-69333372D01*
X156072055Y-69333366D01*
X156011600Y-69187414D01*
X155915424Y-69062075D01*
X155790086Y-68965899D01*
X155644134Y-68905445D01*
X155644130Y-68905444D01*
X155526830Y-68890000D01*
X154975000Y-68890000D01*
X154975000Y-69415500D01*
X154955315Y-69482539D01*
X154902511Y-69528294D01*
X154851000Y-69539500D01*
X154699000Y-69539500D01*
X154631961Y-69519815D01*
X154586206Y-69467011D01*
X154575000Y-69415500D01*
X154575000Y-68890000D01*
X154023175Y-68890000D01*
X153905871Y-68905442D01*
X153905866Y-68905444D01*
X153759914Y-68965899D01*
X153634575Y-69062075D01*
X153538399Y-69187413D01*
X153504648Y-69268898D01*
X153460807Y-69323302D01*
X153394513Y-69345367D01*
X153326814Y-69328088D01*
X153302406Y-69309127D01*
X153109491Y-69116212D01*
X153099668Y-69103950D01*
X153099447Y-69104134D01*
X153094474Y-69098122D01*
X153045464Y-69052099D01*
X153042665Y-69049386D01*
X153023165Y-69029885D01*
X153023159Y-69029880D01*
X153019974Y-69027409D01*
X153011122Y-69019848D01*
X152979270Y-68989938D01*
X152979268Y-68989936D01*
X152979265Y-68989935D01*
X152961717Y-68980288D01*
X152945451Y-68969604D01*
X152929620Y-68957324D01*
X152889537Y-68939978D01*
X152879051Y-68934841D01*
X152840782Y-68913803D01*
X152840780Y-68913802D01*
X152821381Y-68908822D01*
X152802969Y-68902518D01*
X152784586Y-68894562D01*
X152784580Y-68894560D01*
X152741448Y-68887729D01*
X152730010Y-68885361D01*
X152687708Y-68874500D01*
X152687707Y-68874500D01*
X152667672Y-68874500D01*
X152648274Y-68872973D01*
X152640850Y-68871797D01*
X152628493Y-68869840D01*
X152628492Y-68869840D01*
X152585013Y-68873950D01*
X152573344Y-68874500D01*
X150183971Y-68874500D01*
X150116932Y-68854815D01*
X150071177Y-68802011D01*
X150061233Y-68732853D01*
X150090258Y-68669297D01*
X150133535Y-68637221D01*
X150183335Y-68615047D01*
X150252730Y-68584151D01*
X150405871Y-68472888D01*
X150532533Y-68332216D01*
X150627179Y-68168284D01*
X150685674Y-67988256D01*
X150705460Y-67800000D01*
X150685674Y-67611744D01*
X150627179Y-67431716D01*
X150532533Y-67267784D01*
X150405871Y-67127112D01*
X150405870Y-67127111D01*
X150252734Y-67015851D01*
X150252729Y-67015848D01*
X150079807Y-66938857D01*
X150079802Y-66938855D01*
X149934001Y-66907865D01*
X149894646Y-66899500D01*
X149894645Y-66899500D01*
X149835452Y-66899500D01*
X149768413Y-66879815D01*
X149747771Y-66863181D01*
X149200803Y-66316212D01*
X149190980Y-66303950D01*
X149190759Y-66304134D01*
X149185786Y-66298122D01*
X149136776Y-66252099D01*
X149133977Y-66249386D01*
X149114477Y-66229885D01*
X149114471Y-66229880D01*
X149111286Y-66227409D01*
X149102434Y-66219848D01*
X149070582Y-66189938D01*
X149070580Y-66189936D01*
X149070577Y-66189935D01*
X149053029Y-66180288D01*
X149036763Y-66169604D01*
X149029105Y-66163664D01*
X149020936Y-66157327D01*
X149020935Y-66157326D01*
X149020932Y-66157324D01*
X148980849Y-66139978D01*
X148970363Y-66134841D01*
X148932094Y-66113803D01*
X148932092Y-66113802D01*
X148912693Y-66108822D01*
X148894281Y-66102518D01*
X148875898Y-66094562D01*
X148875892Y-66094560D01*
X148832760Y-66087729D01*
X148821322Y-66085361D01*
X148779020Y-66074500D01*
X148779019Y-66074500D01*
X148758984Y-66074500D01*
X148739586Y-66072973D01*
X148732162Y-66071797D01*
X148719805Y-66069840D01*
X148719804Y-66069840D01*
X148676325Y-66073950D01*
X148664656Y-66074500D01*
X147986999Y-66074500D01*
X147919960Y-66054815D01*
X147874205Y-66002011D01*
X147862999Y-65950500D01*
X147862999Y-65849500D01*
X147882684Y-65782461D01*
X147935488Y-65736706D01*
X147986999Y-65725500D01*
X150917257Y-65725500D01*
X150932877Y-65727224D01*
X150932904Y-65726939D01*
X150940660Y-65727671D01*
X150940667Y-65727673D01*
X151007873Y-65725561D01*
X151011768Y-65725500D01*
X151039346Y-65725500D01*
X151039350Y-65725500D01*
X151043324Y-65724997D01*
X151054963Y-65724080D01*
X151098627Y-65722709D01*
X151117869Y-65717117D01*
X151136912Y-65713174D01*
X151156792Y-65710664D01*
X151197401Y-65694585D01*
X151208444Y-65690803D01*
X151250390Y-65678618D01*
X151267629Y-65668422D01*
X151285103Y-65659862D01*
X151303727Y-65652488D01*
X151303727Y-65652487D01*
X151303732Y-65652486D01*
X151339083Y-65626800D01*
X151348814Y-65620408D01*
X151386420Y-65598170D01*
X151400589Y-65583999D01*
X151415379Y-65571368D01*
X151431587Y-65559594D01*
X151459438Y-65525926D01*
X151467279Y-65517309D01*
X153047772Y-63936819D01*
X153109095Y-63903334D01*
X153135453Y-63900500D01*
X153194644Y-63900500D01*
X153194646Y-63900500D01*
X153379803Y-63861144D01*
X153552730Y-63784151D01*
X153705871Y-63672888D01*
X153832533Y-63532216D01*
X153927179Y-63368284D01*
X153970398Y-63235267D01*
X154009835Y-63177593D01*
X154074193Y-63150394D01*
X154143040Y-63162308D01*
G37*
%TD.AperFunction*%
%TA.AperFunction,Conductor*%
G36*
X149930703Y-55286075D02*
G01*
X149949816Y-55306901D01*
X149968077Y-55332035D01*
X149973181Y-55339060D01*
X149979593Y-55348821D01*
X150001828Y-55386417D01*
X150001833Y-55386424D01*
X150015990Y-55400580D01*
X150028628Y-55415376D01*
X150040405Y-55431586D01*
X150040406Y-55431587D01*
X150074057Y-55459425D01*
X150082698Y-55467288D01*
X154668229Y-60052819D01*
X154701714Y-60114142D01*
X154696730Y-60183834D01*
X154654858Y-60239767D01*
X154589394Y-60264184D01*
X154580548Y-60264500D01*
X154459963Y-60264500D01*
X154392924Y-60244815D01*
X154352576Y-60202500D01*
X154332533Y-60167784D01*
X154205871Y-60027112D01*
X154205870Y-60027111D01*
X154052734Y-59915851D01*
X154052729Y-59915848D01*
X153879807Y-59838857D01*
X153879802Y-59838855D01*
X153734001Y-59807865D01*
X153694646Y-59799500D01*
X153505354Y-59799500D01*
X153472897Y-59806398D01*
X153320197Y-59838855D01*
X153320192Y-59838857D01*
X153147270Y-59915848D01*
X153147265Y-59915851D01*
X152994131Y-60027110D01*
X152994128Y-60027112D01*
X152983140Y-60039316D01*
X152923653Y-60075964D01*
X152853796Y-60074633D01*
X152803310Y-60044024D01*
X149761819Y-57002533D01*
X149728334Y-56941210D01*
X149725500Y-56914852D01*
X149725500Y-55379788D01*
X149745185Y-55312749D01*
X149797989Y-55266994D01*
X149867147Y-55257050D01*
X149930703Y-55286075D01*
G37*
%TD.AperFunction*%
%TA.AperFunction,Conductor*%
G36*
X162759728Y-48345185D02*
G01*
X162805483Y-48397989D01*
X162815427Y-48467147D01*
X162798228Y-48514594D01*
X162795608Y-48518844D01*
X162765187Y-48568163D01*
X162765185Y-48568168D01*
X162753971Y-48602011D01*
X162710001Y-48734703D01*
X162710001Y-48734704D01*
X162710000Y-48734704D01*
X162699500Y-48837483D01*
X162699500Y-49762501D01*
X162699501Y-49762519D01*
X162710000Y-49865296D01*
X162710001Y-49865299D01*
X162743138Y-49965297D01*
X162765186Y-50031834D01*
X162857288Y-50181156D01*
X162981344Y-50305212D01*
X163130666Y-50397314D01*
X163297203Y-50452499D01*
X163399991Y-50463000D01*
X164800008Y-50462999D01*
X164902797Y-50452499D01*
X165069334Y-50397314D01*
X165218656Y-50305212D01*
X165342712Y-50181156D01*
X165434814Y-50031834D01*
X165436672Y-50026228D01*
X165441886Y-50010494D01*
X165481659Y-49953050D01*
X165546175Y-49926228D01*
X165559591Y-49925500D01*
X167207272Y-49925500D01*
X167274311Y-49945185D01*
X167320066Y-49997989D01*
X167324978Y-50010495D01*
X167330670Y-50027673D01*
X167365186Y-50131834D01*
X167457288Y-50281156D01*
X167581344Y-50405212D01*
X167730666Y-50497314D01*
X167897203Y-50552499D01*
X167999991Y-50563000D01*
X169400008Y-50562999D01*
X169502797Y-50552499D01*
X169669334Y-50497314D01*
X169818656Y-50405212D01*
X169942712Y-50281156D01*
X170034814Y-50131834D01*
X170034815Y-50131831D01*
X170041886Y-50110494D01*
X170081659Y-50053050D01*
X170146175Y-50026228D01*
X170159591Y-50025500D01*
X173442401Y-50025500D01*
X173509440Y-50045185D01*
X173555195Y-50097989D01*
X173565139Y-50167147D01*
X173562176Y-50181593D01*
X173539938Y-50264586D01*
X173539936Y-50264596D01*
X173519341Y-50499999D01*
X173519341Y-50500000D01*
X173539936Y-50735403D01*
X173539938Y-50735413D01*
X173601094Y-50963655D01*
X173601096Y-50963659D01*
X173601097Y-50963663D01*
X173643516Y-51054631D01*
X173700964Y-51177828D01*
X173700965Y-51177830D01*
X173836505Y-51371402D01*
X174003597Y-51538494D01*
X174160595Y-51648425D01*
X174204220Y-51703002D01*
X174211414Y-51772500D01*
X174179891Y-51834855D01*
X174160595Y-51851575D01*
X174003597Y-51961505D01*
X173836506Y-52128597D01*
X173836501Y-52128604D01*
X173700967Y-52322165D01*
X173700965Y-52322169D01*
X173601098Y-52536335D01*
X173601094Y-52536344D01*
X173539938Y-52764586D01*
X173539936Y-52764596D01*
X173519341Y-52999999D01*
X173519341Y-53000000D01*
X173539936Y-53235403D01*
X173539938Y-53235413D01*
X173593271Y-53434456D01*
X173591608Y-53504306D01*
X173561177Y-53554230D01*
X171877228Y-55238181D01*
X171815905Y-55271666D01*
X171789547Y-55274500D01*
X170824499Y-55274500D01*
X170757460Y-55254815D01*
X170711705Y-55202011D01*
X170700499Y-55150500D01*
X170700499Y-53952129D01*
X170700498Y-53952123D01*
X170700497Y-53952116D01*
X170694091Y-53892517D01*
X170686215Y-53871401D01*
X170643797Y-53757671D01*
X170643793Y-53757664D01*
X170557547Y-53642455D01*
X170557544Y-53642452D01*
X170442335Y-53556206D01*
X170442328Y-53556202D01*
X170307482Y-53505908D01*
X170307483Y-53505908D01*
X170247883Y-53499501D01*
X170247881Y-53499500D01*
X170247873Y-53499500D01*
X170247864Y-53499500D01*
X168152129Y-53499500D01*
X168152123Y-53499501D01*
X168092516Y-53505908D01*
X167957671Y-53556202D01*
X167957664Y-53556206D01*
X167842455Y-53642452D01*
X167842452Y-53642455D01*
X167756206Y-53757664D01*
X167756202Y-53757671D01*
X167705908Y-53892517D01*
X167705104Y-53900000D01*
X167699501Y-53952123D01*
X167699500Y-53952135D01*
X167699500Y-55150500D01*
X167679815Y-55217539D01*
X167627011Y-55263294D01*
X167575500Y-55274500D01*
X164524499Y-55274500D01*
X164457460Y-55254815D01*
X164411705Y-55202011D01*
X164400499Y-55150500D01*
X164400499Y-55102129D01*
X164400498Y-55102123D01*
X164400122Y-55098627D01*
X164394091Y-55042517D01*
X164384145Y-55015851D01*
X164343797Y-54907671D01*
X164343796Y-54907669D01*
X164281394Y-54824311D01*
X164256977Y-54758847D01*
X164271828Y-54690574D01*
X164281394Y-54675689D01*
X164343796Y-54592331D01*
X164394091Y-54457483D01*
X164400500Y-54397873D01*
X164400500Y-54349500D01*
X164420185Y-54282461D01*
X164472989Y-54236706D01*
X164524500Y-54225500D01*
X164776528Y-54225500D01*
X164843567Y-54245185D01*
X164883915Y-54287500D01*
X164967465Y-54432214D01*
X165094129Y-54572888D01*
X165247265Y-54684148D01*
X165247270Y-54684151D01*
X165420192Y-54761142D01*
X165420197Y-54761144D01*
X165605354Y-54800500D01*
X165605355Y-54800500D01*
X165794644Y-54800500D01*
X165794646Y-54800500D01*
X165979803Y-54761144D01*
X166152730Y-54684151D01*
X166305871Y-54572888D01*
X166432533Y-54432216D01*
X166527179Y-54268284D01*
X166585674Y-54088256D01*
X166605460Y-53900000D01*
X166585674Y-53711744D01*
X166527179Y-53531716D01*
X166432533Y-53367784D01*
X166305871Y-53227112D01*
X166305870Y-53227111D01*
X166152734Y-53115851D01*
X166152729Y-53115848D01*
X165979807Y-53038857D01*
X165979802Y-53038855D01*
X165806746Y-53002072D01*
X165794646Y-52999500D01*
X165610541Y-52999500D01*
X165583619Y-52995668D01*
X165583601Y-52995782D01*
X165576367Y-52994636D01*
X165575944Y-52994576D01*
X165575897Y-52994562D01*
X165575896Y-52994562D01*
X165575894Y-52994561D01*
X165575892Y-52994561D01*
X165532759Y-52987729D01*
X165521322Y-52985361D01*
X165479020Y-52974500D01*
X165479019Y-52974500D01*
X165458984Y-52974500D01*
X165439586Y-52972973D01*
X165432162Y-52971797D01*
X165419805Y-52969840D01*
X165419804Y-52969840D01*
X165376325Y-52973950D01*
X165364656Y-52974500D01*
X164524499Y-52974500D01*
X164457460Y-52954815D01*
X164411705Y-52902011D01*
X164400499Y-52850500D01*
X164400499Y-52802129D01*
X164400498Y-52802123D01*
X164400497Y-52802116D01*
X164394091Y-52742517D01*
X164392912Y-52739357D01*
X164343797Y-52607671D01*
X164343793Y-52607664D01*
X164257547Y-52492455D01*
X164257544Y-52492452D01*
X164142335Y-52406206D01*
X164142328Y-52406202D01*
X164007482Y-52355908D01*
X164007483Y-52355908D01*
X163947883Y-52349501D01*
X163947881Y-52349500D01*
X163947873Y-52349500D01*
X163947864Y-52349500D01*
X161852129Y-52349500D01*
X161852123Y-52349501D01*
X161792516Y-52355908D01*
X161657671Y-52406202D01*
X161657664Y-52406206D01*
X161542455Y-52492452D01*
X161542452Y-52492455D01*
X161456206Y-52607664D01*
X161456202Y-52607671D01*
X161405908Y-52742517D01*
X161399876Y-52798627D01*
X161399501Y-52802123D01*
X161399500Y-52802135D01*
X161399500Y-52850500D01*
X161379815Y-52917539D01*
X161327011Y-52963294D01*
X161275500Y-52974500D01*
X161210453Y-52974500D01*
X161143414Y-52954815D01*
X161122772Y-52938181D01*
X160661819Y-52477228D01*
X160628334Y-52415905D01*
X160625500Y-52389547D01*
X160625500Y-50582588D01*
X160645185Y-50515549D01*
X160697989Y-50469794D01*
X160736897Y-50459230D01*
X160802797Y-50452499D01*
X160969334Y-50397314D01*
X161118656Y-50305212D01*
X161242712Y-50181156D01*
X161334814Y-50031834D01*
X161389999Y-49865297D01*
X161400500Y-49762509D01*
X161400499Y-48837492D01*
X161392053Y-48754815D01*
X161389999Y-48734703D01*
X161389998Y-48734700D01*
X161371153Y-48677830D01*
X161334814Y-48568166D01*
X161301771Y-48514595D01*
X161283332Y-48447204D01*
X161304255Y-48380541D01*
X161357897Y-48335771D01*
X161407311Y-48325500D01*
X162692689Y-48325500D01*
X162759728Y-48345185D01*
G37*
%TD.AperFunction*%
%TA.AperFunction,Conductor*%
G36*
X173666812Y-43645185D02*
G01*
X173701348Y-43678377D01*
X173836505Y-43871402D01*
X174003597Y-44038494D01*
X174161031Y-44148730D01*
X174204656Y-44203307D01*
X174211850Y-44272805D01*
X174180327Y-44335160D01*
X174161032Y-44351880D01*
X174003922Y-44461890D01*
X174003920Y-44461891D01*
X173836894Y-44628917D01*
X173701399Y-44822421D01*
X173601570Y-45036507D01*
X173601567Y-45036513D01*
X173544364Y-45249999D01*
X173544364Y-45250000D01*
X174596031Y-45250000D01*
X174563481Y-45300649D01*
X174525000Y-45431705D01*
X174525000Y-45568295D01*
X174563481Y-45699351D01*
X174596031Y-45750000D01*
X173544364Y-45750000D01*
X173601567Y-45963486D01*
X173601570Y-45963492D01*
X173701399Y-46177577D01*
X173701400Y-46177579D01*
X173836886Y-46371073D01*
X173836891Y-46371079D01*
X174003920Y-46538108D01*
X174003926Y-46538113D01*
X174161031Y-46648119D01*
X174204656Y-46702696D01*
X174211850Y-46772194D01*
X174180327Y-46834549D01*
X174161032Y-46851269D01*
X174003594Y-46961508D01*
X173836506Y-47128597D01*
X173836501Y-47128604D01*
X173700967Y-47322165D01*
X173700965Y-47322169D01*
X173601098Y-47536335D01*
X173601094Y-47536344D01*
X173539938Y-47764586D01*
X173539936Y-47764596D01*
X173519341Y-47999999D01*
X173519341Y-48000000D01*
X173539936Y-48235403D01*
X173539938Y-48235413D01*
X173593271Y-48434457D01*
X173591608Y-48504307D01*
X173561177Y-48554231D01*
X173377228Y-48738181D01*
X173315905Y-48771666D01*
X173289547Y-48774500D01*
X170159591Y-48774500D01*
X170092552Y-48754815D01*
X170046797Y-48702011D01*
X170041886Y-48689506D01*
X170034815Y-48668168D01*
X170034813Y-48668165D01*
X170031208Y-48662321D01*
X169942712Y-48518844D01*
X169940092Y-48514596D01*
X169921652Y-48447204D01*
X169942575Y-48380541D01*
X169996217Y-48335771D01*
X170045631Y-48325500D01*
X170930556Y-48325500D01*
X170946176Y-48327224D01*
X170946203Y-48326939D01*
X170953959Y-48327671D01*
X170953966Y-48327673D01*
X171021172Y-48325561D01*
X171025067Y-48325500D01*
X171052645Y-48325500D01*
X171052649Y-48325500D01*
X171056623Y-48324997D01*
X171068262Y-48324080D01*
X171111926Y-48322709D01*
X171131168Y-48317117D01*
X171150211Y-48313174D01*
X171170091Y-48310664D01*
X171210700Y-48294585D01*
X171221743Y-48290803D01*
X171263689Y-48278618D01*
X171280928Y-48268422D01*
X171298402Y-48259862D01*
X171317026Y-48252488D01*
X171317026Y-48252487D01*
X171317031Y-48252486D01*
X171352382Y-48226800D01*
X171362113Y-48220408D01*
X171399719Y-48198170D01*
X171413888Y-48183999D01*
X171428678Y-48171368D01*
X171444886Y-48159594D01*
X171472737Y-48125926D01*
X171480578Y-48117309D01*
X171883785Y-47714102D01*
X171896041Y-47704286D01*
X171895858Y-47704064D01*
X171901870Y-47699089D01*
X171901877Y-47699085D01*
X171947949Y-47650021D01*
X171950566Y-47647322D01*
X171970120Y-47627770D01*
X171972576Y-47624602D01*
X171980156Y-47615726D01*
X172010062Y-47583881D01*
X172019713Y-47566323D01*
X172030396Y-47550060D01*
X172042673Y-47534235D01*
X172060021Y-47494143D01*
X172065151Y-47483670D01*
X172086197Y-47445391D01*
X172091180Y-47425979D01*
X172097481Y-47407579D01*
X172105437Y-47389195D01*
X172112270Y-47346047D01*
X172114633Y-47334637D01*
X172125500Y-47292318D01*
X172125500Y-47272282D01*
X172127027Y-47252881D01*
X172130160Y-47233103D01*
X172126050Y-47189623D01*
X172125500Y-47177954D01*
X172125500Y-43810452D01*
X172145185Y-43743413D01*
X172161819Y-43722771D01*
X172222771Y-43661819D01*
X172284094Y-43628334D01*
X172310452Y-43625500D01*
X173599773Y-43625500D01*
X173666812Y-43645185D01*
G37*
%TD.AperFunction*%
%TA.AperFunction,Conductor*%
G36*
X173666812Y-41145185D02*
G01*
X173701348Y-41178377D01*
X173836505Y-41371402D01*
X174003597Y-41538494D01*
X174160595Y-41648425D01*
X174204220Y-41703002D01*
X174211414Y-41772500D01*
X174179891Y-41834855D01*
X174160595Y-41851575D01*
X174003597Y-41961505D01*
X173836506Y-42128597D01*
X173836501Y-42128603D01*
X173701348Y-42321623D01*
X173646771Y-42365248D01*
X173599773Y-42374500D01*
X172082743Y-42374500D01*
X172067122Y-42372775D01*
X172067096Y-42373061D01*
X172059334Y-42372327D01*
X172059333Y-42372327D01*
X171997109Y-42374282D01*
X171992127Y-42374439D01*
X171988232Y-42374500D01*
X171960647Y-42374500D01*
X171956661Y-42375003D01*
X171945033Y-42375918D01*
X171901373Y-42377290D01*
X171882129Y-42382881D01*
X171863079Y-42386825D01*
X171843211Y-42389334D01*
X171843210Y-42389334D01*
X171802599Y-42405413D01*
X171791554Y-42409194D01*
X171749614Y-42421379D01*
X171749610Y-42421381D01*
X171732366Y-42431579D01*
X171714905Y-42440133D01*
X171696274Y-42447510D01*
X171696262Y-42447517D01*
X171660933Y-42473185D01*
X171651173Y-42479596D01*
X171613580Y-42501829D01*
X171599414Y-42515995D01*
X171584624Y-42528627D01*
X171568414Y-42540404D01*
X171568411Y-42540407D01*
X171540573Y-42574058D01*
X171532711Y-42582697D01*
X171116211Y-42999197D01*
X171103948Y-43009022D01*
X171104131Y-43009244D01*
X171098120Y-43014216D01*
X171052097Y-43063224D01*
X171049390Y-43066017D01*
X171029889Y-43085517D01*
X171029875Y-43085534D01*
X171027407Y-43088715D01*
X171019843Y-43097570D01*
X170989937Y-43129418D01*
X170989936Y-43129420D01*
X170980284Y-43146976D01*
X170969610Y-43163226D01*
X170957329Y-43179061D01*
X170957324Y-43179068D01*
X170939975Y-43219158D01*
X170934838Y-43229644D01*
X170913803Y-43267906D01*
X170908822Y-43287307D01*
X170902521Y-43305710D01*
X170894562Y-43324102D01*
X170894561Y-43324105D01*
X170887728Y-43367243D01*
X170885360Y-43378674D01*
X170874501Y-43420971D01*
X170874500Y-43420982D01*
X170874500Y-43441016D01*
X170872973Y-43460413D01*
X170872458Y-43463664D01*
X170869840Y-43480194D01*
X170869840Y-43480195D01*
X170873950Y-43523674D01*
X170874500Y-43535343D01*
X170874500Y-46902846D01*
X170854815Y-46969885D01*
X170838181Y-46990527D01*
X170790527Y-47038181D01*
X170729204Y-47071666D01*
X170702846Y-47074500D01*
X170183585Y-47074500D01*
X170116546Y-47054815D01*
X170070791Y-47002011D01*
X170060847Y-46932853D01*
X170065879Y-46911496D01*
X170089505Y-46840197D01*
X170089506Y-46840190D01*
X170099999Y-46737486D01*
X170100000Y-46737473D01*
X170100000Y-46525000D01*
X167300001Y-46525000D01*
X167300001Y-46737486D01*
X167310494Y-46840197D01*
X167334120Y-46911496D01*
X167336522Y-46981325D01*
X167300790Y-47041366D01*
X167238269Y-47072559D01*
X167216414Y-47074500D01*
X165550448Y-47074500D01*
X165483409Y-47054815D01*
X165437654Y-47002011D01*
X165427710Y-46932853D01*
X165432742Y-46911496D01*
X165489505Y-46740197D01*
X165489506Y-46740190D01*
X165499999Y-46637486D01*
X165500000Y-46637473D01*
X165500000Y-46425000D01*
X162700001Y-46425000D01*
X162700001Y-46637486D01*
X162710493Y-46740195D01*
X162767258Y-46911495D01*
X162769660Y-46981324D01*
X162733929Y-47041366D01*
X162671408Y-47072559D01*
X162649552Y-47074500D01*
X161450448Y-47074500D01*
X161383409Y-47054815D01*
X161337654Y-47002011D01*
X161327710Y-46932853D01*
X161332742Y-46911496D01*
X161389505Y-46740197D01*
X161389506Y-46740190D01*
X161399999Y-46637486D01*
X161400000Y-46637473D01*
X161400000Y-46425000D01*
X158600001Y-46425000D01*
X158600001Y-46637486D01*
X158610493Y-46740195D01*
X158667258Y-46911495D01*
X158669660Y-46981324D01*
X158633929Y-47041366D01*
X158571408Y-47072559D01*
X158549552Y-47074500D01*
X152982743Y-47074500D01*
X152967122Y-47072775D01*
X152967096Y-47073061D01*
X152959334Y-47072327D01*
X152959333Y-47072327D01*
X152897109Y-47074282D01*
X152892127Y-47074439D01*
X152888232Y-47074500D01*
X152860647Y-47074500D01*
X152856661Y-47075003D01*
X152845033Y-47075918D01*
X152801373Y-47077290D01*
X152782129Y-47082881D01*
X152763079Y-47086825D01*
X152743211Y-47089334D01*
X152743210Y-47089334D01*
X152702599Y-47105413D01*
X152691554Y-47109194D01*
X152649614Y-47121379D01*
X152649610Y-47121381D01*
X152632366Y-47131579D01*
X152614905Y-47140133D01*
X152596274Y-47147510D01*
X152596262Y-47147517D01*
X152560933Y-47173185D01*
X152551173Y-47179596D01*
X152513580Y-47201829D01*
X152499414Y-47215995D01*
X152484624Y-47228627D01*
X152468414Y-47240404D01*
X152468409Y-47240409D01*
X152456720Y-47254540D01*
X152398821Y-47293648D01*
X152361176Y-47299500D01*
X152305354Y-47299500D01*
X152272897Y-47306398D01*
X152120197Y-47338855D01*
X152120192Y-47338857D01*
X151947270Y-47415848D01*
X151947265Y-47415851D01*
X151816782Y-47510653D01*
X151750976Y-47534133D01*
X151682922Y-47518307D01*
X151634227Y-47468201D01*
X151620352Y-47399723D01*
X151625966Y-47372017D01*
X151642162Y-47322170D01*
X151685674Y-47188256D01*
X151703321Y-47020344D01*
X151729904Y-46955734D01*
X151738951Y-46945638D01*
X152835272Y-45849319D01*
X152896595Y-45815834D01*
X152922953Y-45813000D01*
X158476000Y-45813000D01*
X158543039Y-45832685D01*
X158588794Y-45885489D01*
X158596663Y-45921663D01*
X158600000Y-45925000D01*
X161399999Y-45925000D01*
X161404987Y-45920011D01*
X161419684Y-45869961D01*
X161472488Y-45824206D01*
X161523999Y-45813000D01*
X162576000Y-45813000D01*
X162643039Y-45832685D01*
X162688794Y-45885489D01*
X162696663Y-45921663D01*
X162700000Y-45925000D01*
X165499999Y-45925000D01*
X165504987Y-45920011D01*
X165519684Y-45869961D01*
X165572488Y-45824206D01*
X165623999Y-45813000D01*
X166929757Y-45813000D01*
X166945377Y-45814724D01*
X166945404Y-45814439D01*
X166953160Y-45815171D01*
X166953167Y-45815173D01*
X167020373Y-45813061D01*
X167024268Y-45813000D01*
X167051846Y-45813000D01*
X167051850Y-45813000D01*
X167055824Y-45812497D01*
X167067463Y-45811580D01*
X167111127Y-45810209D01*
X167130369Y-45804617D01*
X167149407Y-45800675D01*
X167160467Y-45799278D01*
X167229442Y-45810409D01*
X167281452Y-45857064D01*
X167300000Y-45922301D01*
X167300000Y-46025000D01*
X168450000Y-46025000D01*
X168450000Y-45112500D01*
X168950000Y-45112500D01*
X168950000Y-46025000D01*
X170099999Y-46025000D01*
X170099999Y-45812528D01*
X170099998Y-45812513D01*
X170089505Y-45709802D01*
X170034358Y-45543380D01*
X170034356Y-45543375D01*
X169942315Y-45394154D01*
X169818345Y-45270184D01*
X169669124Y-45178143D01*
X169669119Y-45178141D01*
X169502697Y-45122994D01*
X169502690Y-45122993D01*
X169399986Y-45112500D01*
X168950000Y-45112500D01*
X168450000Y-45112500D01*
X168271450Y-45112500D01*
X168204411Y-45092815D01*
X168158656Y-45040011D01*
X168148712Y-44970853D01*
X168177737Y-44907297D01*
X168183751Y-44900838D01*
X171922772Y-41161819D01*
X171984095Y-41128334D01*
X172010453Y-41125500D01*
X173599773Y-41125500D01*
X173666812Y-41145185D01*
G37*
%TD.AperFunction*%
%TA.AperFunction,Conductor*%
G36*
X179742539Y-27320185D02*
G01*
X179788294Y-27372989D01*
X179799500Y-27424500D01*
X179799500Y-93675731D01*
X179779815Y-93742770D01*
X179727011Y-93788525D01*
X179675731Y-93799731D01*
X126325105Y-93899265D01*
X126258029Y-93879705D01*
X126212176Y-93826987D01*
X126200875Y-93774893D01*
X126200972Y-93742770D01*
X126214614Y-89200000D01*
X126644495Y-89200000D01*
X126664505Y-89607311D01*
X126664505Y-89607316D01*
X126664506Y-89607320D01*
X126724341Y-90010695D01*
X126823430Y-90406279D01*
X126957190Y-90780116D01*
X126960814Y-90790243D01*
X127135172Y-91158891D01*
X127162874Y-91205109D01*
X127344822Y-91508672D01*
X127587755Y-91836229D01*
X127861613Y-92138386D01*
X127943109Y-92212249D01*
X128163776Y-92412249D01*
X128491325Y-92655176D01*
X128841109Y-92864828D01*
X129209757Y-93039186D01*
X129593721Y-93176570D01*
X129989301Y-93275658D01*
X130392689Y-93335495D01*
X130698121Y-93350500D01*
X130698135Y-93350500D01*
X130901865Y-93350500D01*
X130901879Y-93350500D01*
X131207311Y-93335495D01*
X131610699Y-93275658D01*
X132006279Y-93176570D01*
X132390243Y-93039186D01*
X132758891Y-92864828D01*
X133108675Y-92655176D01*
X133436224Y-92412249D01*
X133738386Y-92138386D01*
X134012249Y-91836224D01*
X134255176Y-91508675D01*
X134464828Y-91158891D01*
X134639186Y-90790243D01*
X134654347Y-90747870D01*
X154059500Y-90747870D01*
X154059501Y-90747876D01*
X154065908Y-90807483D01*
X154116202Y-90942328D01*
X154116206Y-90942335D01*
X154202452Y-91057544D01*
X154202455Y-91057547D01*
X154317664Y-91143793D01*
X154317671Y-91143797D01*
X154452517Y-91194091D01*
X154452516Y-91194091D01*
X154459444Y-91194835D01*
X154512127Y-91200500D01*
X157607872Y-91200499D01*
X157667483Y-91194091D01*
X157802331Y-91143796D01*
X157917546Y-91057546D01*
X158003796Y-90942331D01*
X158054091Y-90807483D01*
X158060500Y-90747873D01*
X158060500Y-89200001D01*
X159134891Y-89200001D01*
X159155300Y-89485362D01*
X159216109Y-89764895D01*
X159316091Y-90032958D01*
X159453191Y-90284038D01*
X159453196Y-90284046D01*
X159559882Y-90426561D01*
X159559883Y-90426562D01*
X160455195Y-89531250D01*
X160477340Y-89582587D01*
X160583433Y-89725094D01*
X160719530Y-89839294D01*
X160809216Y-89884335D01*
X159913436Y-90780115D01*
X160055960Y-90886807D01*
X160055961Y-90886808D01*
X160307042Y-91023908D01*
X160307041Y-91023908D01*
X160575104Y-91123890D01*
X160854637Y-91184699D01*
X161139999Y-91205109D01*
X161140001Y-91205109D01*
X161425362Y-91184699D01*
X161704895Y-91123890D01*
X161972958Y-91023908D01*
X162224047Y-90886803D01*
X162366561Y-90780116D01*
X162366562Y-90780115D01*
X161473748Y-89887300D01*
X161483409Y-89883784D01*
X161631844Y-89786157D01*
X161753764Y-89656930D01*
X161825768Y-89532215D01*
X162720115Y-90426562D01*
X162720116Y-90426561D01*
X162826803Y-90284047D01*
X162963908Y-90032958D01*
X163063890Y-89764895D01*
X163124699Y-89485362D01*
X163145109Y-89200001D01*
X163145109Y-89199998D01*
X163130804Y-89000000D01*
X170744495Y-89000000D01*
X170764505Y-89407311D01*
X170764505Y-89407316D01*
X170764506Y-89407320D01*
X170824341Y-89810695D01*
X170923430Y-90206279D01*
X170951252Y-90284038D01*
X171060814Y-90590243D01*
X171235172Y-90958891D01*
X171235174Y-90958894D01*
X171444822Y-91308672D01*
X171687755Y-91636229D01*
X171961613Y-91938386D01*
X172263770Y-92212244D01*
X172263776Y-92212249D01*
X172591325Y-92455176D01*
X172941109Y-92664828D01*
X173309757Y-92839186D01*
X173693721Y-92976570D01*
X174089301Y-93075658D01*
X174492689Y-93135495D01*
X174798121Y-93150500D01*
X174798135Y-93150500D01*
X175001865Y-93150500D01*
X175001879Y-93150500D01*
X175307311Y-93135495D01*
X175710699Y-93075658D01*
X176106279Y-92976570D01*
X176490243Y-92839186D01*
X176858891Y-92664828D01*
X177208675Y-92455176D01*
X177536224Y-92212249D01*
X177838386Y-91938386D01*
X178112249Y-91636224D01*
X178355176Y-91308675D01*
X178564828Y-90958891D01*
X178739186Y-90590243D01*
X178876570Y-90206279D01*
X178975658Y-89810699D01*
X179035495Y-89407311D01*
X179055505Y-89000000D01*
X179035495Y-88592689D01*
X178975658Y-88189301D01*
X178876570Y-87793721D01*
X178739186Y-87409757D01*
X178564828Y-87041109D01*
X178355176Y-86691325D01*
X178112249Y-86363776D01*
X178112244Y-86363770D01*
X177838386Y-86061613D01*
X177536229Y-85787755D01*
X177478343Y-85744824D01*
X177208675Y-85544824D01*
X176858891Y-85335172D01*
X176490243Y-85160814D01*
X176490241Y-85160813D01*
X176106279Y-85023430D01*
X175710695Y-84924341D01*
X175307320Y-84864506D01*
X175307316Y-84864505D01*
X175307311Y-84864505D01*
X175001879Y-84849500D01*
X174798121Y-84849500D01*
X174492689Y-84864505D01*
X174492683Y-84864505D01*
X174492679Y-84864506D01*
X174089304Y-84924341D01*
X173693720Y-85023430D01*
X173309758Y-85160813D01*
X173309756Y-85160814D01*
X172941105Y-85335174D01*
X172591327Y-85544822D01*
X172263770Y-85787755D01*
X171961613Y-86061613D01*
X171687755Y-86363770D01*
X171444822Y-86691327D01*
X171235174Y-87041105D01*
X171060814Y-87409756D01*
X171060813Y-87409758D01*
X170923430Y-87793720D01*
X170824341Y-88189304D01*
X170769249Y-88560706D01*
X170764505Y-88592689D01*
X170744495Y-89000000D01*
X163130804Y-89000000D01*
X163124699Y-88914637D01*
X163063890Y-88635104D01*
X162963908Y-88367041D01*
X162826808Y-88115961D01*
X162826807Y-88115960D01*
X162720115Y-87973436D01*
X161824803Y-88868747D01*
X161802660Y-88817413D01*
X161696567Y-88674906D01*
X161560470Y-88560706D01*
X161470782Y-88515663D01*
X162366562Y-87619883D01*
X162366561Y-87619882D01*
X162224046Y-87513196D01*
X162224038Y-87513191D01*
X161972957Y-87376091D01*
X161972958Y-87376091D01*
X161704895Y-87276109D01*
X161425362Y-87215300D01*
X161140001Y-87194891D01*
X161139999Y-87194891D01*
X160854637Y-87215300D01*
X160575104Y-87276109D01*
X160307041Y-87376091D01*
X160055961Y-87513191D01*
X160055953Y-87513196D01*
X159913437Y-87619882D01*
X159913436Y-87619883D01*
X160806252Y-88512699D01*
X160796591Y-88516216D01*
X160648156Y-88613843D01*
X160526236Y-88743070D01*
X160454231Y-88867784D01*
X159559883Y-87973436D01*
X159559882Y-87973437D01*
X159453196Y-88115953D01*
X159453191Y-88115961D01*
X159316091Y-88367041D01*
X159216109Y-88635104D01*
X159155300Y-88914637D01*
X159134891Y-89199998D01*
X159134891Y-89200001D01*
X158060500Y-89200001D01*
X158060499Y-87652128D01*
X158054091Y-87592517D01*
X158024506Y-87513196D01*
X158003797Y-87457671D01*
X158003793Y-87457664D01*
X157917547Y-87342455D01*
X157917544Y-87342452D01*
X157802335Y-87256206D01*
X157802328Y-87256202D01*
X157667482Y-87205908D01*
X157667483Y-87205908D01*
X157607883Y-87199501D01*
X157607881Y-87199500D01*
X157607873Y-87199500D01*
X157607864Y-87199500D01*
X154512129Y-87199500D01*
X154512123Y-87199501D01*
X154452516Y-87205908D01*
X154317671Y-87256202D01*
X154317664Y-87256206D01*
X154202455Y-87342452D01*
X154202452Y-87342455D01*
X154116206Y-87457664D01*
X154116202Y-87457671D01*
X154065908Y-87592517D01*
X154059501Y-87652116D01*
X154059501Y-87652123D01*
X154059500Y-87652135D01*
X154059500Y-90747870D01*
X134654347Y-90747870D01*
X134776570Y-90406279D01*
X134875658Y-90010699D01*
X134935495Y-89607311D01*
X134955505Y-89200000D01*
X134935495Y-88792689D01*
X134875658Y-88389301D01*
X134776570Y-87993721D01*
X134639186Y-87609757D01*
X134464828Y-87241109D01*
X134255176Y-86891325D01*
X134012249Y-86563776D01*
X134012244Y-86563770D01*
X133738386Y-86261613D01*
X133436229Y-85987755D01*
X133166560Y-85787755D01*
X133108675Y-85744824D01*
X132758891Y-85535172D01*
X132390243Y-85360814D01*
X132390241Y-85360813D01*
X132006279Y-85223430D01*
X131610695Y-85124341D01*
X131207320Y-85064506D01*
X131207316Y-85064505D01*
X131207311Y-85064505D01*
X130901879Y-85049500D01*
X130698121Y-85049500D01*
X130392689Y-85064505D01*
X130392683Y-85064505D01*
X130392679Y-85064506D01*
X129989304Y-85124341D01*
X129593720Y-85223430D01*
X129209758Y-85360813D01*
X129209756Y-85360814D01*
X128841105Y-85535174D01*
X128491327Y-85744822D01*
X128163770Y-85987755D01*
X127861613Y-86261613D01*
X127587755Y-86563770D01*
X127344822Y-86891327D01*
X127135174Y-87241105D01*
X126960814Y-87609756D01*
X126960813Y-87609758D01*
X126823430Y-87993720D01*
X126724341Y-88389304D01*
X126681976Y-88674906D01*
X126664505Y-88792689D01*
X126644495Y-89200000D01*
X126214614Y-89200000D01*
X126265657Y-72202414D01*
X126272721Y-69850000D01*
X142212501Y-69850000D01*
X142212501Y-70299986D01*
X142222994Y-70402697D01*
X142278141Y-70569119D01*
X142278143Y-70569124D01*
X142370184Y-70718345D01*
X142494154Y-70842315D01*
X142643375Y-70934356D01*
X142643380Y-70934358D01*
X142809802Y-70989505D01*
X142809809Y-70989506D01*
X142912519Y-70999999D01*
X143124999Y-70999999D01*
X143125000Y-70999998D01*
X143125000Y-69850000D01*
X142212501Y-69850000D01*
X126272721Y-69850000D01*
X126274223Y-69350000D01*
X142212500Y-69350000D01*
X143125000Y-69350000D01*
X143125000Y-68200000D01*
X142912529Y-68200000D01*
X142912512Y-68200001D01*
X142809802Y-68210494D01*
X142643380Y-68265641D01*
X142643375Y-68265643D01*
X142494154Y-68357684D01*
X142370184Y-68481654D01*
X142278143Y-68630875D01*
X142278141Y-68630880D01*
X142222994Y-68797302D01*
X142222993Y-68797309D01*
X142212500Y-68900013D01*
X142212500Y-69350000D01*
X126274223Y-69350000D01*
X126283983Y-66100000D01*
X138794540Y-66100000D01*
X138814326Y-66288256D01*
X138814327Y-66288259D01*
X138872818Y-66468277D01*
X138872821Y-66468284D01*
X138967467Y-66632216D01*
X139093625Y-66772328D01*
X139094129Y-66772888D01*
X139247265Y-66884148D01*
X139247270Y-66884151D01*
X139420192Y-66961142D01*
X139420197Y-66961144D01*
X139605354Y-67000500D01*
X139605355Y-67000500D01*
X139794644Y-67000500D01*
X139794646Y-67000500D01*
X139979803Y-66961144D01*
X140152730Y-66884151D01*
X140305871Y-66772888D01*
X140326480Y-66750000D01*
X142412501Y-66750000D01*
X142412501Y-67199986D01*
X142422994Y-67302697D01*
X142478141Y-67469119D01*
X142478143Y-67469124D01*
X142570184Y-67618345D01*
X142694154Y-67742315D01*
X142843375Y-67834356D01*
X142843380Y-67834358D01*
X143009802Y-67889505D01*
X143009809Y-67889506D01*
X143112519Y-67899999D01*
X143324999Y-67899999D01*
X143325000Y-67899998D01*
X143325000Y-66750000D01*
X142412501Y-66750000D01*
X140326480Y-66750000D01*
X140432533Y-66632216D01*
X140527179Y-66468284D01*
X140585674Y-66288256D01*
X140603321Y-66120346D01*
X140629905Y-66055733D01*
X140638961Y-66045628D01*
X140922771Y-65761819D01*
X140984094Y-65728334D01*
X141010452Y-65725500D01*
X142288500Y-65725500D01*
X142355539Y-65745185D01*
X142401294Y-65797989D01*
X142412500Y-65849500D01*
X142412500Y-66250000D01*
X143701000Y-66250000D01*
X143768039Y-66269685D01*
X143813794Y-66322489D01*
X143825000Y-66374000D01*
X143825000Y-67899999D01*
X144037472Y-67899999D01*
X144037488Y-67899998D01*
X144037891Y-67899957D01*
X144037978Y-67899973D01*
X144040634Y-67899838D01*
X144040666Y-67900472D01*
X144106584Y-67912722D01*
X144157472Y-67960600D01*
X144174500Y-68023314D01*
X144174500Y-68116414D01*
X144154815Y-68183453D01*
X144102011Y-68229208D01*
X144032853Y-68239152D01*
X144011497Y-68234120D01*
X143940201Y-68210495D01*
X143940190Y-68210493D01*
X143837486Y-68200000D01*
X143625000Y-68200000D01*
X143625000Y-70999999D01*
X143837472Y-70999999D01*
X143837486Y-70999998D01*
X143940195Y-70989506D01*
X144011495Y-70965879D01*
X144081323Y-70963477D01*
X144141366Y-70999208D01*
X144172559Y-71061728D01*
X144174500Y-71083585D01*
X144174500Y-71489545D01*
X144154815Y-71556584D01*
X144138181Y-71577226D01*
X144127226Y-71588181D01*
X144065903Y-71621666D01*
X144039545Y-71624500D01*
X143149998Y-71624500D01*
X143149980Y-71624501D01*
X143047203Y-71635000D01*
X143047200Y-71635001D01*
X142880668Y-71690185D01*
X142880663Y-71690187D01*
X142731342Y-71782289D01*
X142607289Y-71906342D01*
X142515187Y-72055663D01*
X142515185Y-72055668D01*
X142507158Y-72079893D01*
X142460001Y-72222203D01*
X142460001Y-72222204D01*
X142460000Y-72222204D01*
X142449500Y-72324983D01*
X142449500Y-73675001D01*
X142449501Y-73675018D01*
X142460000Y-73777796D01*
X142460001Y-73777799D01*
X142503169Y-73908070D01*
X142515186Y-73944334D01*
X142607288Y-74093656D01*
X142731344Y-74217712D01*
X142880666Y-74309814D01*
X143047203Y-74364999D01*
X143149991Y-74375500D01*
X144050008Y-74375499D01*
X144050016Y-74375498D01*
X144050019Y-74375498D01*
X144106302Y-74369748D01*
X144152797Y-74364999D01*
X144319334Y-74309814D01*
X144468656Y-74217712D01*
X144592712Y-74093656D01*
X144684814Y-73944334D01*
X144739999Y-73777797D01*
X144750500Y-73675009D01*
X144750499Y-72785451D01*
X144770183Y-72718413D01*
X144786813Y-72697776D01*
X145183788Y-72300801D01*
X145196042Y-72290986D01*
X145195859Y-72290764D01*
X145201868Y-72285791D01*
X145201877Y-72285786D01*
X145247949Y-72236722D01*
X145250566Y-72234023D01*
X145270120Y-72214471D01*
X145272576Y-72211303D01*
X145280156Y-72202427D01*
X145310062Y-72170582D01*
X145319713Y-72153024D01*
X145330389Y-72136770D01*
X145339844Y-72124582D01*
X145396486Y-72083680D01*
X145466252Y-72079893D01*
X145526992Y-72114426D01*
X145559419Y-72176315D01*
X145559152Y-72215312D01*
X145560689Y-72215469D01*
X145549500Y-72324983D01*
X145549500Y-73675001D01*
X145549501Y-73675018D01*
X145560000Y-73777796D01*
X145560001Y-73777799D01*
X145603169Y-73908070D01*
X145615186Y-73944334D01*
X145707288Y-74093656D01*
X145831344Y-74217712D01*
X145980666Y-74309814D01*
X146147203Y-74364999D01*
X146249991Y-74375500D01*
X147150008Y-74375499D01*
X147150016Y-74375498D01*
X147150019Y-74375498D01*
X147206302Y-74369748D01*
X147252797Y-74364999D01*
X147419334Y-74309814D01*
X147568656Y-74217712D01*
X147692712Y-74093656D01*
X147784814Y-73944334D01*
X147839999Y-73777797D01*
X147850500Y-73675009D01*
X147850499Y-72744166D01*
X147863490Y-72699921D01*
X147852522Y-72678139D01*
X147850499Y-72655832D01*
X147850499Y-72324998D01*
X147850498Y-72324981D01*
X147839999Y-72222203D01*
X147839998Y-72222200D01*
X147833465Y-72202486D01*
X147784814Y-72055666D01*
X147692712Y-71906344D01*
X147568656Y-71782288D01*
X147446902Y-71707190D01*
X147400179Y-71655243D01*
X147388000Y-71601652D01*
X147388000Y-70887230D01*
X147407685Y-70820191D01*
X147424319Y-70799549D01*
X147441407Y-70782461D01*
X147505212Y-70718656D01*
X147597314Y-70569334D01*
X147652499Y-70402797D01*
X147663000Y-70300009D01*
X147663000Y-70249500D01*
X147682685Y-70182461D01*
X147735489Y-70136706D01*
X147787000Y-70125500D01*
X152298236Y-70125500D01*
X152365275Y-70145185D01*
X152385917Y-70161819D01*
X153437692Y-71213595D01*
X153471177Y-71274918D01*
X153472950Y-71317461D01*
X153462000Y-71400637D01*
X153462000Y-71679358D01*
X153467435Y-71720644D01*
X153456667Y-71789679D01*
X153410285Y-71841933D01*
X153394932Y-71850104D01*
X153247267Y-71915850D01*
X153247265Y-71915851D01*
X153094130Y-72027110D01*
X153094126Y-72027114D01*
X153088400Y-72033474D01*
X153028913Y-72070121D01*
X152996252Y-72074500D01*
X149703748Y-72074500D01*
X149636709Y-72054815D01*
X149611600Y-72033474D01*
X149605873Y-72027114D01*
X149605869Y-72027110D01*
X149452734Y-71915851D01*
X149452729Y-71915848D01*
X149279807Y-71838857D01*
X149279802Y-71838855D01*
X149134001Y-71807865D01*
X149094646Y-71799500D01*
X148905354Y-71799500D01*
X148872897Y-71806398D01*
X148720197Y-71838855D01*
X148720192Y-71838857D01*
X148547270Y-71915848D01*
X148547265Y-71915851D01*
X148394129Y-72027111D01*
X148267466Y-72167785D01*
X148172821Y-72331715D01*
X148172818Y-72331722D01*
X148117460Y-72502099D01*
X148114326Y-72511744D01*
X148097920Y-72667843D01*
X148097820Y-72668794D01*
X148085980Y-72697569D01*
X148093476Y-72709233D01*
X148097819Y-72731203D01*
X148114326Y-72888256D01*
X148114327Y-72888259D01*
X148172818Y-73068277D01*
X148172820Y-73068281D01*
X148172821Y-73068284D01*
X148267467Y-73232216D01*
X148357063Y-73331722D01*
X148394129Y-73372888D01*
X148547265Y-73484148D01*
X148547270Y-73484151D01*
X148720192Y-73561142D01*
X148720197Y-73561144D01*
X148905354Y-73600500D01*
X148905355Y-73600500D01*
X149094644Y-73600500D01*
X149094646Y-73600500D01*
X149279803Y-73561144D01*
X149452730Y-73484151D01*
X149605871Y-73372888D01*
X149611063Y-73367122D01*
X149611600Y-73366526D01*
X149671087Y-73329879D01*
X149703748Y-73325500D01*
X152996252Y-73325500D01*
X153063291Y-73345185D01*
X153088400Y-73366526D01*
X153094126Y-73372885D01*
X153094130Y-73372889D01*
X153247265Y-73484148D01*
X153247270Y-73484151D01*
X153420192Y-73561142D01*
X153420197Y-73561144D01*
X153605354Y-73600500D01*
X153605355Y-73600500D01*
X153772432Y-73600500D01*
X153839471Y-73620185D01*
X153885226Y-73672989D01*
X153895752Y-73711535D01*
X153914326Y-73888256D01*
X153914327Y-73888259D01*
X153972818Y-74068277D01*
X153972821Y-74068284D01*
X154067467Y-74232216D01*
X154072777Y-74238113D01*
X154117133Y-74287376D01*
X154147363Y-74350368D01*
X154148922Y-74366446D01*
X154149439Y-74382867D01*
X154149500Y-74386769D01*
X154149500Y-74414357D01*
X154150003Y-74418335D01*
X154150918Y-74429967D01*
X154152290Y-74473624D01*
X154152291Y-74473627D01*
X154157880Y-74492867D01*
X154161824Y-74511911D01*
X154164095Y-74529885D01*
X154164336Y-74531792D01*
X154180414Y-74572403D01*
X154184197Y-74583452D01*
X154191826Y-74609711D01*
X154196382Y-74625390D01*
X154200688Y-74632672D01*
X154206580Y-74642634D01*
X154215136Y-74660100D01*
X154215694Y-74661508D01*
X154222514Y-74678732D01*
X154248181Y-74714060D01*
X154254593Y-74723821D01*
X154276828Y-74761417D01*
X154276833Y-74761424D01*
X154290990Y-74775580D01*
X154303628Y-74790376D01*
X154315405Y-74806586D01*
X154315406Y-74806587D01*
X154349057Y-74834425D01*
X154357698Y-74842288D01*
X155499194Y-75983784D01*
X155509019Y-75996048D01*
X155509240Y-75995866D01*
X155514210Y-76001874D01*
X155563239Y-76047915D01*
X155566036Y-76050626D01*
X155585530Y-76070120D01*
X155588695Y-76072575D01*
X155597571Y-76080156D01*
X155629418Y-76110062D01*
X155629422Y-76110064D01*
X155646973Y-76119713D01*
X155663231Y-76130392D01*
X155679064Y-76142674D01*
X155714410Y-76157968D01*
X155719155Y-76160022D01*
X155729635Y-76165155D01*
X155767908Y-76186197D01*
X155787312Y-76191179D01*
X155805710Y-76197478D01*
X155824105Y-76205438D01*
X155867254Y-76212271D01*
X155878680Y-76214638D01*
X155920981Y-76225500D01*
X155941016Y-76225500D01*
X155960413Y-76227026D01*
X155980196Y-76230160D01*
X156023675Y-76226050D01*
X156035344Y-76225500D01*
X158975165Y-76225500D01*
X159042204Y-76245185D01*
X159087959Y-76297989D01*
X159098485Y-76362459D01*
X159094540Y-76400000D01*
X159114326Y-76588256D01*
X159114327Y-76588259D01*
X159172818Y-76768277D01*
X159172821Y-76768284D01*
X159267467Y-76932216D01*
X159348880Y-77022634D01*
X159394129Y-77072888D01*
X159547265Y-77184148D01*
X159547266Y-77184148D01*
X159547270Y-77184151D01*
X159700936Y-77252568D01*
X159754173Y-77297818D01*
X159774494Y-77364667D01*
X159774500Y-77365847D01*
X159774500Y-78648840D01*
X159754815Y-78715879D01*
X159702011Y-78761634D01*
X159689505Y-78766545D01*
X159618173Y-78790182D01*
X159618160Y-78790188D01*
X159468845Y-78882288D01*
X159344789Y-79006344D01*
X159344786Y-79006348D01*
X159252687Y-79155662D01*
X159252686Y-79155664D01*
X159197501Y-79322203D01*
X159197500Y-79322204D01*
X159195661Y-79340212D01*
X159169264Y-79404903D01*
X159112083Y-79445054D01*
X159042272Y-79447916D01*
X159021871Y-79440889D01*
X159017307Y-79438857D01*
X159017302Y-79438855D01*
X158871501Y-79407865D01*
X158832146Y-79399500D01*
X158742653Y-79399500D01*
X158675614Y-79379815D01*
X158629859Y-79327011D01*
X158624952Y-79314517D01*
X158572314Y-79155666D01*
X158520338Y-79071401D01*
X158480213Y-79006348D01*
X158480210Y-79006344D01*
X158356155Y-78882289D01*
X158356151Y-78882286D01*
X158206837Y-78790187D01*
X158206835Y-78790186D01*
X158120670Y-78761634D01*
X158040297Y-78735001D01*
X158040295Y-78735000D01*
X157937515Y-78724500D01*
X157937508Y-78724500D01*
X156912492Y-78724500D01*
X156912484Y-78724500D01*
X156809704Y-78735000D01*
X156809703Y-78735001D01*
X156643164Y-78790186D01*
X156643162Y-78790187D01*
X156493848Y-78882286D01*
X156493844Y-78882289D01*
X156369789Y-79006344D01*
X156369786Y-79006348D01*
X156277687Y-79155662D01*
X156277686Y-79155664D01*
X156222501Y-79322203D01*
X156222500Y-79322204D01*
X156212000Y-79424984D01*
X156212000Y-80775015D01*
X156222500Y-80877795D01*
X156222501Y-80877796D01*
X156277686Y-81044335D01*
X156277687Y-81044337D01*
X156369786Y-81193651D01*
X156369789Y-81193655D01*
X156493844Y-81317710D01*
X156493848Y-81317713D01*
X156643157Y-81409809D01*
X156643160Y-81409810D01*
X156643166Y-81409814D01*
X156714505Y-81433453D01*
X156771948Y-81473224D01*
X156798772Y-81537740D01*
X156799500Y-81551158D01*
X156799500Y-82142255D01*
X156797775Y-82157872D01*
X156798061Y-82157899D01*
X156797326Y-82165665D01*
X156799439Y-82232872D01*
X156799500Y-82236767D01*
X156799500Y-82264357D01*
X156800003Y-82268335D01*
X156800918Y-82279967D01*
X156802290Y-82323624D01*
X156802291Y-82323627D01*
X156807880Y-82342867D01*
X156811824Y-82361911D01*
X156814336Y-82381792D01*
X156830414Y-82422403D01*
X156834197Y-82433452D01*
X156846381Y-82475388D01*
X156856580Y-82492634D01*
X156865136Y-82510100D01*
X156872514Y-82528732D01*
X156898181Y-82564060D01*
X156904593Y-82573821D01*
X156926828Y-82611417D01*
X156926833Y-82611424D01*
X156940990Y-82625580D01*
X156953628Y-82640376D01*
X156969991Y-82662897D01*
X156968669Y-82663857D01*
X156996049Y-82717971D01*
X156997434Y-82727542D01*
X157014326Y-82888256D01*
X157014327Y-82888259D01*
X157072818Y-83068277D01*
X157072821Y-83068284D01*
X157167467Y-83232216D01*
X157294129Y-83372888D01*
X157447265Y-83484148D01*
X157447270Y-83484151D01*
X157620192Y-83561142D01*
X157620197Y-83561144D01*
X157805354Y-83600500D01*
X157805355Y-83600500D01*
X157994644Y-83600500D01*
X157994646Y-83600500D01*
X158179803Y-83561144D01*
X158352730Y-83484151D01*
X158505871Y-83372888D01*
X158632533Y-83232216D01*
X158727179Y-83068284D01*
X158785674Y-82888256D01*
X158805460Y-82700000D01*
X158785674Y-82511744D01*
X158727179Y-82331716D01*
X158632533Y-82167784D01*
X158505871Y-82027112D01*
X158447653Y-81984814D01*
X158352734Y-81915851D01*
X158352729Y-81915848D01*
X158179807Y-81838857D01*
X158179805Y-81838856D01*
X158148717Y-81832248D01*
X158087236Y-81799054D01*
X158053460Y-81737890D01*
X158050500Y-81710958D01*
X158050500Y-81551158D01*
X158070185Y-81484119D01*
X158122989Y-81438364D01*
X158135484Y-81433456D01*
X158206834Y-81409814D01*
X158356155Y-81317711D01*
X158455472Y-81218393D01*
X158516791Y-81184911D01*
X158568929Y-81184787D01*
X158642854Y-81200500D01*
X158642855Y-81200500D01*
X158832144Y-81200500D01*
X158832146Y-81200500D01*
X159017303Y-81161144D01*
X159159447Y-81097856D01*
X159228693Y-81088571D01*
X159291970Y-81118199D01*
X159315418Y-81146038D01*
X159344788Y-81193654D01*
X159468844Y-81317710D01*
X159468848Y-81317713D01*
X159618162Y-81409812D01*
X159618164Y-81409813D01*
X159618166Y-81409814D01*
X159784703Y-81464999D01*
X159887492Y-81475500D01*
X159887497Y-81475500D01*
X160912503Y-81475500D01*
X160912508Y-81475500D01*
X161015297Y-81464999D01*
X161181834Y-81409814D01*
X161331155Y-81317711D01*
X161455211Y-81193655D01*
X161547314Y-81044334D01*
X161602499Y-80877797D01*
X161613000Y-80775008D01*
X161613000Y-79596952D01*
X161632685Y-79529913D01*
X161685489Y-79484158D01*
X161754647Y-79474214D01*
X161818203Y-79503239D01*
X161824681Y-79509271D01*
X163399197Y-81083788D01*
X163409022Y-81096051D01*
X163409243Y-81095869D01*
X163414211Y-81101874D01*
X163463222Y-81147899D01*
X163466021Y-81150612D01*
X163485522Y-81170114D01*
X163485526Y-81170117D01*
X163485529Y-81170120D01*
X163488702Y-81172581D01*
X163497574Y-81180159D01*
X163529418Y-81210062D01*
X163546976Y-81219714D01*
X163563235Y-81230395D01*
X163579064Y-81242673D01*
X163619155Y-81260021D01*
X163629626Y-81265151D01*
X163652180Y-81277550D01*
X163667902Y-81286194D01*
X163667904Y-81286195D01*
X163667908Y-81286197D01*
X163687316Y-81291180D01*
X163705719Y-81297481D01*
X163724101Y-81305436D01*
X163724102Y-81305436D01*
X163724104Y-81305437D01*
X163767250Y-81312270D01*
X163778672Y-81314636D01*
X163820981Y-81325500D01*
X163841016Y-81325500D01*
X163860414Y-81327026D01*
X163880194Y-81330159D01*
X163880195Y-81330160D01*
X163880195Y-81330159D01*
X163880196Y-81330160D01*
X163923675Y-81326050D01*
X163935344Y-81325500D01*
X173510019Y-81325500D01*
X173577058Y-81345185D01*
X173622813Y-81397989D01*
X173633377Y-81436899D01*
X173635000Y-81452796D01*
X173635001Y-81452799D01*
X173690185Y-81619331D01*
X173690186Y-81619334D01*
X173782288Y-81768656D01*
X173906344Y-81892712D01*
X174055666Y-81984814D01*
X174222203Y-82039999D01*
X174324991Y-82050500D01*
X175875008Y-82050499D01*
X175977797Y-82039999D01*
X176144334Y-81984814D01*
X176293656Y-81892712D01*
X176417712Y-81768656D01*
X176509814Y-81619334D01*
X176564999Y-81452797D01*
X176575500Y-81350009D01*
X176575499Y-80049992D01*
X176574292Y-80038181D01*
X176564999Y-79947203D01*
X176564998Y-79947200D01*
X176509814Y-79780666D01*
X176417712Y-79631344D01*
X176293656Y-79507288D01*
X176192758Y-79445054D01*
X176138879Y-79411821D01*
X176092155Y-79359873D01*
X176080932Y-79290910D01*
X176108776Y-79226828D01*
X176116295Y-79218601D01*
X176179234Y-79155662D01*
X176263495Y-79071401D01*
X176399035Y-78877830D01*
X176498903Y-78663663D01*
X176560063Y-78435408D01*
X176580659Y-78200000D01*
X176560063Y-77964592D01*
X176498903Y-77736337D01*
X176399035Y-77522171D01*
X176332556Y-77427228D01*
X176263494Y-77328597D01*
X176096403Y-77161506D01*
X175962554Y-77067785D01*
X175939401Y-77051573D01*
X175895778Y-76996999D01*
X175888584Y-76927500D01*
X175920106Y-76865145D01*
X175939398Y-76848428D01*
X176096401Y-76738495D01*
X176263495Y-76571401D01*
X176399035Y-76377830D01*
X176498903Y-76163663D01*
X176560063Y-75935408D01*
X176580659Y-75700000D01*
X176560063Y-75464592D01*
X176498903Y-75236337D01*
X176399035Y-75022171D01*
X176399034Y-75022169D01*
X176263494Y-74828597D01*
X176096403Y-74661506D01*
X175938967Y-74551269D01*
X175895342Y-74496692D01*
X175888148Y-74427194D01*
X175919671Y-74364839D01*
X175938967Y-74348119D01*
X176096073Y-74238113D01*
X176096079Y-74238108D01*
X176263105Y-74071082D01*
X176398600Y-73877578D01*
X176498429Y-73663492D01*
X176498432Y-73663486D01*
X176555636Y-73450000D01*
X175503969Y-73450000D01*
X175536519Y-73399351D01*
X175575000Y-73268295D01*
X175575000Y-73131705D01*
X175536519Y-73000649D01*
X175503969Y-72950000D01*
X176555636Y-72950000D01*
X176555635Y-72949999D01*
X176498432Y-72736513D01*
X176498429Y-72736507D01*
X176398600Y-72522422D01*
X176398599Y-72522420D01*
X176263113Y-72328926D01*
X176263108Y-72328920D01*
X176096079Y-72161891D01*
X176096073Y-72161886D01*
X175938967Y-72051880D01*
X175895342Y-71997303D01*
X175888148Y-71927805D01*
X175919671Y-71865450D01*
X175938960Y-71848735D01*
X176096401Y-71738495D01*
X176263495Y-71571401D01*
X176399035Y-71377830D01*
X176498903Y-71163663D01*
X176560063Y-70935408D01*
X176580659Y-70700000D01*
X176560063Y-70464592D01*
X176498903Y-70236337D01*
X176399035Y-70022171D01*
X176387383Y-70005529D01*
X176263494Y-69828597D01*
X176096403Y-69661506D01*
X176006230Y-69598367D01*
X175939401Y-69551573D01*
X175895778Y-69496999D01*
X175888584Y-69427500D01*
X175920106Y-69365145D01*
X175939398Y-69348428D01*
X176096401Y-69238495D01*
X176263495Y-69071401D01*
X176399035Y-68877830D01*
X176498903Y-68663663D01*
X176560063Y-68435408D01*
X176580659Y-68200000D01*
X176560063Y-67964592D01*
X176498903Y-67736337D01*
X176399035Y-67522171D01*
X176362039Y-67469334D01*
X176263494Y-67328597D01*
X176096403Y-67161506D01*
X176008562Y-67100000D01*
X175939401Y-67051573D01*
X175895778Y-66996999D01*
X175888584Y-66927500D01*
X175920106Y-66865145D01*
X175939398Y-66848428D01*
X176096401Y-66738495D01*
X176263495Y-66571401D01*
X176399035Y-66377830D01*
X176498903Y-66163663D01*
X176560063Y-65935408D01*
X176580659Y-65700000D01*
X176560063Y-65464592D01*
X176498903Y-65236337D01*
X176399035Y-65022171D01*
X176399034Y-65022169D01*
X176263494Y-64828597D01*
X176096402Y-64661505D01*
X175902830Y-64525965D01*
X175902828Y-64525964D01*
X175789377Y-64473061D01*
X175688663Y-64426097D01*
X175688659Y-64426096D01*
X175688655Y-64426094D01*
X175460413Y-64364938D01*
X175460403Y-64364936D01*
X175283967Y-64349500D01*
X175283966Y-64349500D01*
X174916034Y-64349500D01*
X174916033Y-64349500D01*
X174739596Y-64364936D01*
X174739586Y-64364938D01*
X174511344Y-64426094D01*
X174511335Y-64426098D01*
X174297171Y-64525964D01*
X174297169Y-64525965D01*
X174103597Y-64661505D01*
X173936506Y-64828597D01*
X173936501Y-64828604D01*
X173800967Y-65022165D01*
X173800965Y-65022169D01*
X173701098Y-65236335D01*
X173701094Y-65236344D01*
X173682004Y-65307593D01*
X173645639Y-65367254D01*
X173582792Y-65397783D01*
X173562229Y-65399500D01*
X166457737Y-65399500D01*
X166442120Y-65397776D01*
X166442093Y-65398062D01*
X166434331Y-65397327D01*
X166367144Y-65399439D01*
X166363250Y-65399500D01*
X166335650Y-65399500D01*
X166331962Y-65399965D01*
X166331649Y-65400005D01*
X166320031Y-65400918D01*
X166276373Y-65402290D01*
X166276372Y-65402290D01*
X166257129Y-65407881D01*
X166238079Y-65411825D01*
X166218211Y-65414334D01*
X166218210Y-65414335D01*
X166177600Y-65430413D01*
X166166553Y-65434195D01*
X166124610Y-65446381D01*
X166124609Y-65446382D01*
X166107367Y-65456579D01*
X166089899Y-65465137D01*
X166071269Y-65472513D01*
X166071266Y-65472515D01*
X166035939Y-65498181D01*
X166026180Y-65504592D01*
X165988579Y-65526830D01*
X165974408Y-65541000D01*
X165959623Y-65553628D01*
X165943412Y-65565407D01*
X165915571Y-65599059D01*
X165907711Y-65607696D01*
X165170578Y-66344829D01*
X165109255Y-66378314D01*
X165039563Y-66373330D01*
X165010012Y-66357466D01*
X164952734Y-66315851D01*
X164952732Y-66315850D01*
X164890762Y-66288259D01*
X164889196Y-66287561D01*
X164835961Y-66242311D01*
X164815640Y-66175462D01*
X164834686Y-66108239D01*
X164866744Y-66073969D01*
X165005871Y-65972888D01*
X165132533Y-65832216D01*
X165227179Y-65668284D01*
X165285674Y-65488256D01*
X165305460Y-65300000D01*
X165285674Y-65111744D01*
X165231843Y-64946073D01*
X165229849Y-64876234D01*
X165265929Y-64816401D01*
X165284670Y-64802224D01*
X165381156Y-64742712D01*
X165505212Y-64618656D01*
X165597314Y-64469334D01*
X165652499Y-64302797D01*
X165663000Y-64200009D01*
X165662999Y-62799992D01*
X165652499Y-62697203D01*
X165597314Y-62530666D01*
X165505212Y-62381344D01*
X165381156Y-62257288D01*
X165231834Y-62165186D01*
X165065297Y-62110001D01*
X165065295Y-62110000D01*
X164962510Y-62099500D01*
X164037498Y-62099500D01*
X164037480Y-62099501D01*
X163934703Y-62110000D01*
X163934700Y-62110001D01*
X163768168Y-62165185D01*
X163768163Y-62165187D01*
X163618842Y-62257289D01*
X163494789Y-62381342D01*
X163402687Y-62530663D01*
X163402685Y-62530668D01*
X163402615Y-62530880D01*
X163347501Y-62697203D01*
X163347501Y-62697204D01*
X163347500Y-62697204D01*
X163337000Y-62799983D01*
X163337000Y-64200001D01*
X163337001Y-64200018D01*
X163347500Y-64302796D01*
X163347501Y-64302799D01*
X163402685Y-64469331D01*
X163402687Y-64469336D01*
X163426267Y-64507565D01*
X163494596Y-64618345D01*
X163494789Y-64618657D01*
X163591566Y-64715434D01*
X163625051Y-64776757D01*
X163620067Y-64846449D01*
X163611272Y-64865115D01*
X163572821Y-64931714D01*
X163514327Y-65111740D01*
X163514326Y-65111744D01*
X163494540Y-65300000D01*
X163514326Y-65488256D01*
X163514327Y-65488259D01*
X163572818Y-65668277D01*
X163572821Y-65668284D01*
X163667467Y-65832216D01*
X163683030Y-65849500D01*
X163794129Y-65972888D01*
X163947265Y-66084148D01*
X163947266Y-66084148D01*
X163947270Y-66084151D01*
X164010801Y-66112437D01*
X164064038Y-66157687D01*
X164084359Y-66224536D01*
X164065314Y-66291760D01*
X164033251Y-66326034D01*
X163894127Y-66427113D01*
X163767466Y-66567785D01*
X163672821Y-66731715D01*
X163672818Y-66731722D01*
X163614326Y-66911742D01*
X163614325Y-66911746D01*
X163611256Y-66940947D01*
X163584671Y-67005561D01*
X163527373Y-67045545D01*
X163457554Y-67048203D01*
X163400255Y-67015664D01*
X161496271Y-65111680D01*
X161462786Y-65050357D01*
X161467770Y-64980665D01*
X161509642Y-64924732D01*
X161575106Y-64900315D01*
X161583952Y-64899999D01*
X161837472Y-64899999D01*
X161837486Y-64899998D01*
X161940197Y-64889505D01*
X162106619Y-64834358D01*
X162106624Y-64834356D01*
X162255845Y-64742315D01*
X162379815Y-64618345D01*
X162471856Y-64469124D01*
X162471858Y-64469119D01*
X162527005Y-64302697D01*
X162527006Y-64302690D01*
X162537499Y-64199986D01*
X162537500Y-64199973D01*
X162537500Y-63750000D01*
X160185953Y-63750000D01*
X160118914Y-63730315D01*
X160098272Y-63713681D01*
X159634591Y-63250000D01*
X160212500Y-63250000D01*
X161125000Y-63250000D01*
X161125000Y-62100000D01*
X161625000Y-62100000D01*
X161625000Y-63250000D01*
X162537499Y-63250000D01*
X162537499Y-62800028D01*
X162537498Y-62800013D01*
X162527005Y-62697302D01*
X162471858Y-62530880D01*
X162471856Y-62530875D01*
X162379815Y-62381654D01*
X162255845Y-62257684D01*
X162106624Y-62165643D01*
X162106619Y-62165641D01*
X161940197Y-62110494D01*
X161940190Y-62110493D01*
X161837486Y-62100000D01*
X161625000Y-62100000D01*
X161125000Y-62100000D01*
X160912529Y-62100000D01*
X160912512Y-62100001D01*
X160809802Y-62110494D01*
X160643380Y-62165641D01*
X160643375Y-62165643D01*
X160494154Y-62257684D01*
X160370184Y-62381654D01*
X160278143Y-62530875D01*
X160278141Y-62530880D01*
X160222994Y-62697302D01*
X160222993Y-62697309D01*
X160212500Y-62800013D01*
X160212500Y-63250000D01*
X159634591Y-63250000D01*
X157084438Y-60699847D01*
X157050953Y-60638524D01*
X157048180Y-60616059D01*
X157047709Y-60601069D01*
X157047709Y-60601067D01*
X157042120Y-60581832D01*
X157038174Y-60562779D01*
X157035664Y-60542903D01*
X157019578Y-60502276D01*
X157015803Y-60491249D01*
X157003617Y-60449305D01*
X156993421Y-60432064D01*
X156984860Y-60414588D01*
X156977486Y-60395964D01*
X156977485Y-60395962D01*
X156951809Y-60360621D01*
X156945412Y-60350885D01*
X156923170Y-60313274D01*
X156923167Y-60313271D01*
X156923165Y-60313268D01*
X156909005Y-60299108D01*
X156896370Y-60284315D01*
X156884593Y-60268107D01*
X156850945Y-60240271D01*
X156842304Y-60232408D01*
X156501108Y-59891212D01*
X156491285Y-59878950D01*
X156491064Y-59879134D01*
X156486091Y-59873122D01*
X156437081Y-59827099D01*
X156434282Y-59824386D01*
X156414782Y-59804885D01*
X156414776Y-59804880D01*
X156411591Y-59802409D01*
X156402739Y-59794848D01*
X156370887Y-59764938D01*
X156370885Y-59764936D01*
X156370882Y-59764935D01*
X156353334Y-59755288D01*
X156337068Y-59744604D01*
X156321237Y-59732324D01*
X156281154Y-59714978D01*
X156270668Y-59709841D01*
X156232399Y-59688803D01*
X156232397Y-59688802D01*
X156212998Y-59683822D01*
X156194586Y-59677518D01*
X156176203Y-59669562D01*
X156176197Y-59669560D01*
X156133065Y-59662729D01*
X156121627Y-59660361D01*
X156079325Y-59649500D01*
X156071587Y-59648523D01*
X156071963Y-59645539D01*
X156018413Y-59629815D01*
X155997771Y-59613181D01*
X154834590Y-58450000D01*
X161400000Y-58450000D01*
X161400000Y-58997844D01*
X161406401Y-59057372D01*
X161406403Y-59057379D01*
X161456645Y-59192086D01*
X161456649Y-59192093D01*
X161542809Y-59307187D01*
X161542812Y-59307190D01*
X161657906Y-59393350D01*
X161657913Y-59393354D01*
X161792620Y-59443596D01*
X161792627Y-59443598D01*
X161852155Y-59449999D01*
X161852172Y-59450000D01*
X162650000Y-59450000D01*
X162650000Y-58450000D01*
X163150000Y-58450000D01*
X163150000Y-59450000D01*
X163947828Y-59450000D01*
X163947844Y-59449999D01*
X164007372Y-59443598D01*
X164007379Y-59443596D01*
X164142086Y-59393354D01*
X164142093Y-59393350D01*
X164257187Y-59307190D01*
X164257190Y-59307187D01*
X164343350Y-59192093D01*
X164343354Y-59192086D01*
X164393596Y-59057379D01*
X164393598Y-59057372D01*
X164399999Y-58997844D01*
X164400000Y-58997827D01*
X164400000Y-58450000D01*
X163150000Y-58450000D01*
X162650000Y-58450000D01*
X161400000Y-58450000D01*
X154834590Y-58450000D01*
X151161819Y-54777228D01*
X151128334Y-54715905D01*
X151125500Y-54689547D01*
X151125500Y-52982737D01*
X151127224Y-52967123D01*
X151126938Y-52967096D01*
X151127672Y-52959333D01*
X151125561Y-52892144D01*
X151125500Y-52888250D01*
X151125500Y-52860651D01*
X151125500Y-52860650D01*
X151124997Y-52856670D01*
X151124080Y-52845021D01*
X151122709Y-52801373D01*
X151117122Y-52782144D01*
X151113174Y-52763084D01*
X151112149Y-52754967D01*
X151110664Y-52743208D01*
X151094585Y-52702597D01*
X151090804Y-52691552D01*
X151078619Y-52649612D01*
X151068418Y-52632363D01*
X151059860Y-52614894D01*
X151052486Y-52596268D01*
X151052483Y-52596264D01*
X151052483Y-52596263D01*
X151026816Y-52560935D01*
X151020403Y-52551172D01*
X150998172Y-52513583D01*
X150998170Y-52513579D01*
X150998166Y-52513575D01*
X150998163Y-52513571D01*
X150984005Y-52499413D01*
X150971370Y-52484620D01*
X150959593Y-52468412D01*
X150925945Y-52440576D01*
X150917304Y-52432713D01*
X148561819Y-50077228D01*
X148528334Y-50015905D01*
X148525500Y-49989547D01*
X148525500Y-48998687D01*
X148545185Y-48931648D01*
X148557350Y-48915715D01*
X148597250Y-48871401D01*
X148632533Y-48832216D01*
X148727179Y-48668284D01*
X148785674Y-48488256D01*
X148805460Y-48300000D01*
X148785674Y-48111744D01*
X148727179Y-47931716D01*
X148632533Y-47767784D01*
X148505871Y-47627112D01*
X148502433Y-47624614D01*
X148352734Y-47515851D01*
X148352729Y-47515848D01*
X148179807Y-47438857D01*
X148179802Y-47438855D01*
X148032617Y-47407571D01*
X147994646Y-47399500D01*
X147805354Y-47399500D01*
X147772897Y-47406398D01*
X147620197Y-47438855D01*
X147620192Y-47438857D01*
X147447270Y-47515848D01*
X147447265Y-47515851D01*
X147294129Y-47627111D01*
X147167466Y-47767785D01*
X147072821Y-47931715D01*
X147072818Y-47931722D01*
X147014327Y-48111740D01*
X147014326Y-48111744D01*
X146994540Y-48300000D01*
X147014326Y-48488256D01*
X147014327Y-48488259D01*
X147072818Y-48668277D01*
X147072821Y-48668284D01*
X147167467Y-48832216D01*
X147202744Y-48871395D01*
X147242650Y-48915715D01*
X147272880Y-48978706D01*
X147274500Y-48998687D01*
X147274500Y-50217255D01*
X147272775Y-50232872D01*
X147273061Y-50232899D01*
X147272326Y-50240665D01*
X147274439Y-50307872D01*
X147274500Y-50311767D01*
X147274500Y-50339357D01*
X147275003Y-50343335D01*
X147275918Y-50354967D01*
X147277290Y-50398624D01*
X147277291Y-50398627D01*
X147282880Y-50417867D01*
X147286824Y-50436911D01*
X147288794Y-50452498D01*
X147289336Y-50456792D01*
X147305414Y-50497403D01*
X147309197Y-50508452D01*
X147319178Y-50542807D01*
X147321382Y-50550390D01*
X147328839Y-50563000D01*
X147331580Y-50567634D01*
X147340138Y-50585103D01*
X147347514Y-50603732D01*
X147373181Y-50639060D01*
X147379593Y-50648821D01*
X147401828Y-50686417D01*
X147401833Y-50686424D01*
X147415990Y-50700580D01*
X147428628Y-50715376D01*
X147440405Y-50731586D01*
X147440406Y-50731587D01*
X147474057Y-50759425D01*
X147482698Y-50767288D01*
X148785386Y-52069977D01*
X148818871Y-52131300D01*
X148813887Y-52200992D01*
X148772015Y-52256925D01*
X148748142Y-52270937D01*
X148647267Y-52315850D01*
X148647265Y-52315851D01*
X148494129Y-52427111D01*
X148367466Y-52567785D01*
X148272821Y-52731715D01*
X148272818Y-52731722D01*
X148214327Y-52911740D01*
X148214326Y-52911744D01*
X148194540Y-53100000D01*
X148214326Y-53288256D01*
X148214327Y-53288259D01*
X148272818Y-53468277D01*
X148272821Y-53468284D01*
X148367467Y-53632216D01*
X148407345Y-53676505D01*
X148442650Y-53715715D01*
X148472880Y-53778706D01*
X148474500Y-53798687D01*
X148474500Y-57142560D01*
X148472775Y-57158177D01*
X148473061Y-57158204D01*
X148472326Y-57165970D01*
X148474439Y-57233177D01*
X148474500Y-57237072D01*
X148474500Y-57264662D01*
X148475003Y-57268640D01*
X148475918Y-57280272D01*
X148477290Y-57323929D01*
X148477291Y-57323932D01*
X148482880Y-57343172D01*
X148486824Y-57362216D01*
X148489336Y-57382097D01*
X148505414Y-57422708D01*
X148509197Y-57433757D01*
X148521381Y-57475693D01*
X148531580Y-57492939D01*
X148540138Y-57510408D01*
X148547514Y-57529037D01*
X148573181Y-57564365D01*
X148579593Y-57574126D01*
X148601828Y-57611722D01*
X148601833Y-57611729D01*
X148615990Y-57625885D01*
X148628628Y-57640681D01*
X148640405Y-57656891D01*
X148640406Y-57656892D01*
X148674057Y-57684730D01*
X148682698Y-57692593D01*
X152913347Y-61923242D01*
X152946832Y-61984565D01*
X152941848Y-62054257D01*
X152899976Y-62110190D01*
X152851448Y-62132213D01*
X152820196Y-62138856D01*
X152820192Y-62138857D01*
X152647270Y-62215848D01*
X152647265Y-62215851D01*
X152494129Y-62327111D01*
X152367466Y-62467785D01*
X152272821Y-62631715D01*
X152272818Y-62631722D01*
X152214327Y-62811740D01*
X152214326Y-62811744D01*
X152196679Y-62979649D01*
X152170094Y-63044263D01*
X152161039Y-63054368D01*
X150777228Y-64438181D01*
X150715905Y-64471666D01*
X150689547Y-64474500D01*
X145382743Y-64474500D01*
X145367122Y-64472775D01*
X145367096Y-64473061D01*
X145359334Y-64472327D01*
X145359333Y-64472327D01*
X145297109Y-64474282D01*
X145292127Y-64474439D01*
X145288232Y-64474500D01*
X140782743Y-64474500D01*
X140767122Y-64472775D01*
X140767095Y-64473061D01*
X140759333Y-64472326D01*
X140692113Y-64474439D01*
X140688219Y-64474500D01*
X140660650Y-64474500D01*
X140656673Y-64475002D01*
X140645042Y-64475917D01*
X140601374Y-64477289D01*
X140601368Y-64477290D01*
X140582126Y-64482880D01*
X140563087Y-64486823D01*
X140543217Y-64489334D01*
X140543203Y-64489337D01*
X140502598Y-64505413D01*
X140491554Y-64509194D01*
X140449614Y-64521379D01*
X140449610Y-64521381D01*
X140432366Y-64531579D01*
X140414905Y-64540133D01*
X140396274Y-64547510D01*
X140396262Y-64547517D01*
X140360933Y-64573185D01*
X140351173Y-64579596D01*
X140313580Y-64601829D01*
X140299414Y-64615995D01*
X140284624Y-64628627D01*
X140268414Y-64640404D01*
X140268411Y-64640407D01*
X140240573Y-64674058D01*
X140232711Y-64682697D01*
X139752228Y-65163181D01*
X139690905Y-65196666D01*
X139664547Y-65199500D01*
X139605354Y-65199500D01*
X139572897Y-65206398D01*
X139420197Y-65238855D01*
X139420192Y-65238857D01*
X139247270Y-65315848D01*
X139247265Y-65315851D01*
X139094129Y-65427111D01*
X138967466Y-65567785D01*
X138872821Y-65731715D01*
X138872818Y-65731722D01*
X138840166Y-65832216D01*
X138814326Y-65911744D01*
X138794540Y-66100000D01*
X126283983Y-66100000D01*
X126318086Y-54743861D01*
X134813092Y-54743861D01*
X134826892Y-54752533D01*
X134826891Y-54752533D01*
X134997061Y-54812078D01*
X135176197Y-54832262D01*
X135176203Y-54832262D01*
X135355338Y-54812078D01*
X135355341Y-54812077D01*
X135525505Y-54752534D01*
X135525506Y-54752534D01*
X135539306Y-54743861D01*
X136213092Y-54743861D01*
X136226892Y-54752533D01*
X136226891Y-54752533D01*
X136397061Y-54812078D01*
X136576197Y-54832262D01*
X136576203Y-54832262D01*
X136755338Y-54812078D01*
X136755341Y-54812077D01*
X136925505Y-54752534D01*
X136925506Y-54752534D01*
X136939306Y-54743861D01*
X136939306Y-54743860D01*
X136576201Y-54380753D01*
X136576200Y-54380753D01*
X136213092Y-54743860D01*
X136213092Y-54743861D01*
X135539306Y-54743861D01*
X135539306Y-54743860D01*
X135176201Y-54380753D01*
X135176200Y-54380753D01*
X134813092Y-54743860D01*
X134813092Y-54743861D01*
X126318086Y-54743861D01*
X126320188Y-54043861D01*
X134113092Y-54043861D01*
X134126892Y-54052533D01*
X134126891Y-54052533D01*
X134297062Y-54112078D01*
X134297844Y-54112257D01*
X134298297Y-54112510D01*
X134303631Y-54114377D01*
X134303304Y-54115311D01*
X134358823Y-54146366D01*
X134388152Y-54200074D01*
X134389022Y-54199770D01*
X134390870Y-54205052D01*
X134391140Y-54205546D01*
X134391321Y-54206342D01*
X134450863Y-54376500D01*
X134450863Y-54376501D01*
X134459538Y-54390307D01*
X134790154Y-54059692D01*
X135076200Y-54059692D01*
X135114397Y-54112265D01*
X135160362Y-54127200D01*
X135192038Y-54127200D01*
X135238003Y-54112265D01*
X135276200Y-54059692D01*
X135276200Y-54027200D01*
X135529753Y-54027200D01*
X135876200Y-54373646D01*
X135876201Y-54373646D01*
X136190155Y-54059692D01*
X136476200Y-54059692D01*
X136514397Y-54112265D01*
X136560362Y-54127200D01*
X136592038Y-54127200D01*
X136638003Y-54112265D01*
X136676200Y-54059692D01*
X136676200Y-54027200D01*
X136929753Y-54027200D01*
X137292860Y-54390306D01*
X137292861Y-54390306D01*
X137301534Y-54376506D01*
X137301534Y-54376505D01*
X137361076Y-54206344D01*
X137361256Y-54205558D01*
X137361511Y-54205101D01*
X137363377Y-54199770D01*
X137364310Y-54200096D01*
X137395364Y-54144579D01*
X137449075Y-54115249D01*
X137448770Y-54114377D01*
X137454070Y-54112522D01*
X137454558Y-54112256D01*
X137455344Y-54112076D01*
X137625505Y-54052534D01*
X137625506Y-54052534D01*
X137639306Y-54043861D01*
X137639306Y-54043860D01*
X137276200Y-53680753D01*
X137210440Y-53746514D01*
X137210439Y-53746514D01*
X136929753Y-54027199D01*
X136929753Y-54027200D01*
X136676200Y-54027200D01*
X136676200Y-53994708D01*
X136638003Y-53942135D01*
X136592038Y-53927200D01*
X136560362Y-53927200D01*
X136514397Y-53942135D01*
X136476200Y-53994708D01*
X136476200Y-54059692D01*
X136190155Y-54059692D01*
X136210146Y-54039701D01*
X136210146Y-54039699D01*
X135863701Y-53693253D01*
X135863700Y-53693253D01*
X135529753Y-54027200D01*
X135276200Y-54027200D01*
X135276200Y-53994708D01*
X135238003Y-53942135D01*
X135192038Y-53927200D01*
X135160362Y-53927200D01*
X135114397Y-53942135D01*
X135076200Y-53994708D01*
X135076200Y-54059692D01*
X134790154Y-54059692D01*
X134822646Y-54027200D01*
X134476199Y-53680753D01*
X134476198Y-53680753D01*
X134113092Y-54043860D01*
X134113092Y-54043861D01*
X126320188Y-54043861D01*
X126322340Y-53327202D01*
X133671138Y-53327202D01*
X133691321Y-53506338D01*
X133750865Y-53676504D01*
X133759538Y-53690307D01*
X134090154Y-53359692D01*
X134376200Y-53359692D01*
X134414397Y-53412265D01*
X134460362Y-53427200D01*
X134492038Y-53427200D01*
X134538003Y-53412265D01*
X134576200Y-53359692D01*
X134576200Y-53327199D01*
X134829753Y-53327199D01*
X134870338Y-53367783D01*
X134870339Y-53367785D01*
X135163700Y-53661146D01*
X135465154Y-53359692D01*
X135751200Y-53359692D01*
X135789397Y-53412265D01*
X135835362Y-53427200D01*
X135867038Y-53427200D01*
X135913003Y-53412265D01*
X135951200Y-53359692D01*
X135951200Y-53327200D01*
X136229753Y-53327200D01*
X136576198Y-53673646D01*
X136576199Y-53673646D01*
X136882062Y-53367784D01*
X136890154Y-53359692D01*
X137176200Y-53359692D01*
X137214397Y-53412265D01*
X137260362Y-53427200D01*
X137292038Y-53427200D01*
X137338003Y-53412265D01*
X137376200Y-53359692D01*
X137376200Y-53327200D01*
X137629753Y-53327200D01*
X137992860Y-53690306D01*
X137992861Y-53690306D01*
X138001534Y-53676506D01*
X138001534Y-53676505D01*
X138061077Y-53506341D01*
X138061078Y-53506338D01*
X138081262Y-53327202D01*
X138081262Y-53327197D01*
X138061078Y-53148061D01*
X138001533Y-52977892D01*
X137992861Y-52964092D01*
X137992860Y-52964092D01*
X137629753Y-53327200D01*
X137376200Y-53327200D01*
X137376200Y-53294708D01*
X137338003Y-53242135D01*
X137292038Y-53227200D01*
X137260362Y-53227200D01*
X137214397Y-53242135D01*
X137176200Y-53294708D01*
X137176200Y-53359692D01*
X136890154Y-53359692D01*
X136922646Y-53327200D01*
X136576199Y-52980753D01*
X136576198Y-52980753D01*
X136229753Y-53327199D01*
X136229753Y-53327200D01*
X135951200Y-53327200D01*
X135951200Y-53294708D01*
X135913003Y-53242135D01*
X135867038Y-53227200D01*
X135835362Y-53227200D01*
X135789397Y-53242135D01*
X135751200Y-53294708D01*
X135751200Y-53359692D01*
X135465154Y-53359692D01*
X135497646Y-53327200D01*
X135497646Y-53327199D01*
X135163700Y-52993253D01*
X135118100Y-53038855D01*
X135118098Y-53038856D01*
X134829753Y-53327199D01*
X134576200Y-53327199D01*
X134576200Y-53294708D01*
X134538003Y-53242135D01*
X134492038Y-53227200D01*
X134460362Y-53227200D01*
X134414397Y-53242135D01*
X134376200Y-53294708D01*
X134376200Y-53359692D01*
X134090154Y-53359692D01*
X134122646Y-53327200D01*
X134122646Y-53327199D01*
X133759538Y-52964091D01*
X133759537Y-52964091D01*
X133750867Y-52977891D01*
X133750862Y-52977901D01*
X133691322Y-53148058D01*
X133691321Y-53148061D01*
X133671138Y-53327197D01*
X133671138Y-53327202D01*
X126322340Y-53327202D01*
X126324442Y-52627200D01*
X134129753Y-52627200D01*
X134476198Y-52973646D01*
X134476199Y-52973646D01*
X134752684Y-52697162D01*
X134790154Y-52659692D01*
X135076200Y-52659692D01*
X135114397Y-52712265D01*
X135160362Y-52727200D01*
X135192038Y-52727200D01*
X135238003Y-52712265D01*
X135276200Y-52659692D01*
X135276200Y-52627200D01*
X135529753Y-52627200D01*
X135863700Y-52961146D01*
X135863701Y-52961146D01*
X136165155Y-52659692D01*
X136476200Y-52659692D01*
X136514397Y-52712265D01*
X136560362Y-52727200D01*
X136592038Y-52727200D01*
X136638003Y-52712265D01*
X136676200Y-52659692D01*
X136676200Y-52627199D01*
X136929753Y-52627199D01*
X137276200Y-52973646D01*
X137622646Y-52627200D01*
X137622646Y-52627199D01*
X137276200Y-52280753D01*
X137241107Y-52315847D01*
X137241105Y-52315849D01*
X136929753Y-52627199D01*
X136676200Y-52627199D01*
X136676200Y-52594708D01*
X136638003Y-52542135D01*
X136592038Y-52527200D01*
X136560362Y-52527200D01*
X136514397Y-52542135D01*
X136476200Y-52594708D01*
X136476200Y-52659692D01*
X136165155Y-52659692D01*
X136197646Y-52627201D01*
X136197646Y-52627199D01*
X135863701Y-52293253D01*
X135863700Y-52293253D01*
X135529753Y-52627200D01*
X135276200Y-52627200D01*
X135276200Y-52594708D01*
X135238003Y-52542135D01*
X135192038Y-52527200D01*
X135160362Y-52527200D01*
X135114397Y-52542135D01*
X135076200Y-52594708D01*
X135076200Y-52659692D01*
X134790154Y-52659692D01*
X134822646Y-52627200D01*
X134476199Y-52280753D01*
X134476198Y-52280753D01*
X134129753Y-52627199D01*
X134129753Y-52627200D01*
X126324442Y-52627200D01*
X126326544Y-51927202D01*
X133671138Y-51927202D01*
X133691321Y-52106338D01*
X133750865Y-52276504D01*
X133759538Y-52290307D01*
X134090154Y-51959692D01*
X134376200Y-51959692D01*
X134414397Y-52012265D01*
X134460362Y-52027200D01*
X134492038Y-52027200D01*
X134538003Y-52012265D01*
X134576200Y-51959692D01*
X134576200Y-51927200D01*
X134829753Y-51927200D01*
X134864045Y-51961492D01*
X134864060Y-51961506D01*
X135163700Y-52261146D01*
X135465154Y-51959692D01*
X135751200Y-51959692D01*
X135789397Y-52012265D01*
X135835362Y-52027200D01*
X135867038Y-52027200D01*
X135913003Y-52012265D01*
X135951200Y-51959692D01*
X135951200Y-51927200D01*
X136229753Y-51927200D01*
X136576198Y-52273646D01*
X136576199Y-52273646D01*
X136888341Y-51961505D01*
X136890154Y-51959692D01*
X137176200Y-51959692D01*
X137214397Y-52012265D01*
X137260362Y-52027200D01*
X137292038Y-52027200D01*
X137338003Y-52012265D01*
X137376200Y-51959692D01*
X137376200Y-51927200D01*
X137629753Y-51927200D01*
X137992860Y-52290306D01*
X137992861Y-52290306D01*
X138001534Y-52276506D01*
X138001534Y-52276505D01*
X138061077Y-52106341D01*
X138061078Y-52106338D01*
X138081262Y-51927202D01*
X138081262Y-51927197D01*
X138061078Y-51748061D01*
X138001533Y-51577892D01*
X137992861Y-51564092D01*
X137992860Y-51564092D01*
X137629753Y-51927200D01*
X137376200Y-51927200D01*
X137376200Y-51894708D01*
X137338003Y-51842135D01*
X137292038Y-51827200D01*
X137260362Y-51827200D01*
X137214397Y-51842135D01*
X137176200Y-51894708D01*
X137176200Y-51959692D01*
X136890154Y-51959692D01*
X136922646Y-51927200D01*
X136576199Y-51580753D01*
X136576198Y-51580753D01*
X136229753Y-51927199D01*
X136229753Y-51927200D01*
X135951200Y-51927200D01*
X135951200Y-51894708D01*
X135913003Y-51842135D01*
X135867038Y-51827200D01*
X135835362Y-51827200D01*
X135789397Y-51842135D01*
X135751200Y-51894708D01*
X135751200Y-51959692D01*
X135465154Y-51959692D01*
X135497646Y-51927200D01*
X135497646Y-51927199D01*
X135163700Y-51593253D01*
X135110441Y-51646513D01*
X135110440Y-51646514D01*
X134829753Y-51927200D01*
X134576200Y-51927200D01*
X134576200Y-51894708D01*
X134538003Y-51842135D01*
X134492038Y-51827200D01*
X134460362Y-51827200D01*
X134414397Y-51842135D01*
X134376200Y-51894708D01*
X134376200Y-51959692D01*
X134090154Y-51959692D01*
X134122646Y-51927200D01*
X134122646Y-51927199D01*
X133759538Y-51564091D01*
X133759537Y-51564091D01*
X133750867Y-51577891D01*
X133750862Y-51577901D01*
X133691322Y-51748058D01*
X133691321Y-51748061D01*
X133671138Y-51927197D01*
X133671138Y-51927202D01*
X126326544Y-51927202D01*
X126328696Y-51210538D01*
X134113091Y-51210538D01*
X134476198Y-51573646D01*
X134476199Y-51573646D01*
X134752068Y-51297777D01*
X134790152Y-51259692D01*
X135076200Y-51259692D01*
X135114397Y-51312265D01*
X135160362Y-51327200D01*
X135192038Y-51327200D01*
X135238003Y-51312265D01*
X135276200Y-51259692D01*
X135276200Y-51227200D01*
X135529753Y-51227200D01*
X135863700Y-51561146D01*
X135863701Y-51561146D01*
X136165153Y-51259692D01*
X136476200Y-51259692D01*
X136514397Y-51312265D01*
X136560362Y-51327200D01*
X136592038Y-51327200D01*
X136638003Y-51312265D01*
X136676200Y-51259692D01*
X136676200Y-51227199D01*
X136929753Y-51227199D01*
X137276200Y-51573646D01*
X137276201Y-51573646D01*
X137639307Y-51210538D01*
X137625501Y-51201863D01*
X137455342Y-51142321D01*
X137454546Y-51142140D01*
X137454083Y-51141881D01*
X137448770Y-51140022D01*
X137449095Y-51139090D01*
X137393570Y-51108027D01*
X137364249Y-51054325D01*
X137363377Y-51054631D01*
X137361521Y-51049328D01*
X137361257Y-51048844D01*
X137361078Y-51048062D01*
X137301533Y-50877892D01*
X137292861Y-50864092D01*
X137292860Y-50864092D01*
X136929753Y-51227198D01*
X136929753Y-51227199D01*
X136676200Y-51227199D01*
X136676200Y-51194708D01*
X136638003Y-51142135D01*
X136592038Y-51127200D01*
X136560362Y-51127200D01*
X136514397Y-51142135D01*
X136476200Y-51194708D01*
X136476200Y-51259692D01*
X136165153Y-51259692D01*
X136210146Y-51214699D01*
X136210146Y-51214698D01*
X135876200Y-50880753D01*
X135529753Y-51227200D01*
X135276200Y-51227200D01*
X135276200Y-51194708D01*
X135238003Y-51142135D01*
X135192038Y-51127200D01*
X135160362Y-51127200D01*
X135114397Y-51142135D01*
X135076200Y-51194708D01*
X135076200Y-51259692D01*
X134790152Y-51259692D01*
X134822646Y-51227198D01*
X134459538Y-50864091D01*
X134459537Y-50864091D01*
X134450867Y-50877891D01*
X134450862Y-50877901D01*
X134391319Y-51048066D01*
X134391139Y-51048856D01*
X134390882Y-51049313D01*
X134389023Y-51054629D01*
X134388091Y-51054303D01*
X134357024Y-51109831D01*
X134303324Y-51139152D01*
X134303629Y-51140023D01*
X134298345Y-51141871D01*
X134297856Y-51142139D01*
X134297066Y-51142319D01*
X134126901Y-51201862D01*
X134126891Y-51201867D01*
X134113091Y-51210537D01*
X134113091Y-51210538D01*
X126328696Y-51210538D01*
X126330798Y-50510538D01*
X134813091Y-50510538D01*
X135176200Y-50873646D01*
X135176201Y-50873646D01*
X135539307Y-50510538D01*
X136213091Y-50510538D01*
X136576200Y-50873646D01*
X136576201Y-50873646D01*
X136939307Y-50510538D01*
X136925504Y-50501865D01*
X136755338Y-50442321D01*
X136576203Y-50422138D01*
X136576197Y-50422138D01*
X136397061Y-50442321D01*
X136397058Y-50442322D01*
X136226901Y-50501862D01*
X136226891Y-50501867D01*
X136213091Y-50510537D01*
X136213091Y-50510538D01*
X135539307Y-50510538D01*
X135525504Y-50501865D01*
X135355338Y-50442321D01*
X135176203Y-50422138D01*
X135176197Y-50422138D01*
X134997061Y-50442321D01*
X134997058Y-50442322D01*
X134826901Y-50501862D01*
X134826891Y-50501867D01*
X134813091Y-50510537D01*
X134813091Y-50510538D01*
X126330798Y-50510538D01*
X126341340Y-47000000D01*
X149894540Y-47000000D01*
X149914326Y-47188256D01*
X149914327Y-47188259D01*
X149972818Y-47368277D01*
X149972821Y-47368284D01*
X150067467Y-47532216D01*
X150153508Y-47627774D01*
X150194129Y-47672888D01*
X150347265Y-47784148D01*
X150347270Y-47784151D01*
X150520192Y-47861142D01*
X150520197Y-47861144D01*
X150705354Y-47900500D01*
X150705355Y-47900500D01*
X150894644Y-47900500D01*
X150894646Y-47900500D01*
X151079803Y-47861144D01*
X151252730Y-47784151D01*
X151383220Y-47689344D01*
X151449022Y-47665866D01*
X151517076Y-47681691D01*
X151565771Y-47731797D01*
X151579647Y-47800275D01*
X151574033Y-47827982D01*
X151518142Y-47999999D01*
X151514326Y-48011744D01*
X151494540Y-48200000D01*
X151514326Y-48388256D01*
X151514327Y-48388259D01*
X151572818Y-48568277D01*
X151572821Y-48568284D01*
X151667467Y-48732216D01*
X151762258Y-48837492D01*
X151794129Y-48872888D01*
X151947265Y-48984148D01*
X151947270Y-48984151D01*
X152120192Y-49061142D01*
X152120197Y-49061144D01*
X152305354Y-49100500D01*
X152305355Y-49100500D01*
X152494644Y-49100500D01*
X152494646Y-49100500D01*
X152679803Y-49061144D01*
X152852730Y-48984151D01*
X153005871Y-48872888D01*
X153132533Y-48732216D01*
X153227179Y-48568284D01*
X153278225Y-48411182D01*
X153317663Y-48353506D01*
X153382021Y-48326308D01*
X153396156Y-48325500D01*
X158592689Y-48325500D01*
X158659728Y-48345185D01*
X158705483Y-48397989D01*
X158715427Y-48467147D01*
X158698228Y-48514594D01*
X158695608Y-48518844D01*
X158665187Y-48568163D01*
X158665185Y-48568168D01*
X158653971Y-48602011D01*
X158610001Y-48734703D01*
X158610001Y-48734704D01*
X158610000Y-48734704D01*
X158599500Y-48837483D01*
X158599500Y-49762501D01*
X158599501Y-49762519D01*
X158610000Y-49865296D01*
X158610001Y-49865299D01*
X158643138Y-49965297D01*
X158665186Y-50031834D01*
X158757288Y-50181156D01*
X158881344Y-50305212D01*
X159030666Y-50397314D01*
X159197203Y-50452499D01*
X159263103Y-50459231D01*
X159327794Y-50485627D01*
X159367945Y-50542807D01*
X159374500Y-50582589D01*
X159374500Y-52617255D01*
X159372775Y-52632872D01*
X159373061Y-52632899D01*
X159372326Y-52640665D01*
X159374439Y-52707872D01*
X159374500Y-52711767D01*
X159374500Y-52739357D01*
X159375003Y-52743335D01*
X159375918Y-52754967D01*
X159377290Y-52798624D01*
X159377291Y-52798627D01*
X159382880Y-52817867D01*
X159386824Y-52836911D01*
X159389322Y-52856680D01*
X159389336Y-52856792D01*
X159405414Y-52897403D01*
X159409197Y-52908452D01*
X159417834Y-52938181D01*
X159421382Y-52950390D01*
X159431277Y-52967123D01*
X159431580Y-52967634D01*
X159440136Y-52985100D01*
X159444321Y-52995668D01*
X159447514Y-53003732D01*
X159473181Y-53039060D01*
X159479593Y-53048821D01*
X159501828Y-53086417D01*
X159501833Y-53086424D01*
X159515990Y-53100580D01*
X159528628Y-53115376D01*
X159540405Y-53131586D01*
X159540406Y-53131587D01*
X159574057Y-53159425D01*
X159582698Y-53167288D01*
X160399197Y-53983788D01*
X160409022Y-53996051D01*
X160409243Y-53995869D01*
X160414211Y-54001874D01*
X160463222Y-54047899D01*
X160466021Y-54050612D01*
X160485522Y-54070114D01*
X160485526Y-54070117D01*
X160485529Y-54070120D01*
X160488702Y-54072581D01*
X160497574Y-54080159D01*
X160529418Y-54110062D01*
X160546976Y-54119714D01*
X160563235Y-54130395D01*
X160579064Y-54142673D01*
X160619155Y-54160021D01*
X160629626Y-54165151D01*
X160652180Y-54177550D01*
X160667902Y-54186194D01*
X160667904Y-54186195D01*
X160667908Y-54186197D01*
X160687316Y-54191180D01*
X160705719Y-54197481D01*
X160724101Y-54205436D01*
X160724102Y-54205436D01*
X160724104Y-54205437D01*
X160767250Y-54212270D01*
X160778672Y-54214636D01*
X160820981Y-54225500D01*
X160841016Y-54225500D01*
X160860414Y-54227026D01*
X160880194Y-54230159D01*
X160880195Y-54230160D01*
X160880195Y-54230159D01*
X160880196Y-54230160D01*
X160923675Y-54226050D01*
X160935344Y-54225500D01*
X161275501Y-54225500D01*
X161342540Y-54245185D01*
X161388295Y-54297989D01*
X161399501Y-54349500D01*
X161399501Y-54397876D01*
X161405908Y-54457483D01*
X161456202Y-54592328D01*
X161456203Y-54592330D01*
X161518606Y-54675689D01*
X161543023Y-54741153D01*
X161528172Y-54809426D01*
X161518606Y-54824311D01*
X161456203Y-54907669D01*
X161456202Y-54907671D01*
X161405908Y-55042517D01*
X161405908Y-55042519D01*
X161405873Y-55042846D01*
X161405775Y-55043082D01*
X161404126Y-55050062D01*
X161402993Y-55049794D01*
X161379127Y-55107394D01*
X161321730Y-55147235D01*
X161251904Y-55149720D01*
X161209700Y-55129894D01*
X161052734Y-55015851D01*
X161052729Y-55015848D01*
X160879807Y-54938857D01*
X160879802Y-54938855D01*
X160733078Y-54907669D01*
X160694646Y-54899500D01*
X160505354Y-54899500D01*
X160472897Y-54906398D01*
X160320197Y-54938855D01*
X160320192Y-54938857D01*
X160147270Y-55015848D01*
X160147265Y-55015851D01*
X159994129Y-55127111D01*
X159867466Y-55267785D01*
X159772821Y-55431715D01*
X159772818Y-55431722D01*
X159722970Y-55585140D01*
X159714326Y-55611744D01*
X159694540Y-55800000D01*
X159714326Y-55988256D01*
X159714327Y-55988259D01*
X159772818Y-56168277D01*
X159772821Y-56168284D01*
X159867467Y-56332216D01*
X159975117Y-56451773D01*
X159994129Y-56472888D01*
X160147265Y-56584148D01*
X160147270Y-56584151D01*
X160320192Y-56661142D01*
X160320197Y-56661144D01*
X160505354Y-56700500D01*
X160505355Y-56700500D01*
X160694644Y-56700500D01*
X160694646Y-56700500D01*
X160879803Y-56661144D01*
X161052730Y-56584151D01*
X161202616Y-56475253D01*
X161268422Y-56451773D01*
X161336476Y-56467598D01*
X161385171Y-56517704D01*
X161399501Y-56575571D01*
X161399501Y-56697876D01*
X161405908Y-56757483D01*
X161456202Y-56892328D01*
X161456204Y-56892331D01*
X161518917Y-56976104D01*
X161543335Y-57041569D01*
X161528484Y-57109842D01*
X161518918Y-57124727D01*
X161456647Y-57207910D01*
X161456645Y-57207913D01*
X161406403Y-57342620D01*
X161406401Y-57342627D01*
X161400000Y-57402155D01*
X161400000Y-57950000D01*
X164400000Y-57950000D01*
X164400000Y-57402172D01*
X164399999Y-57402155D01*
X164393598Y-57342627D01*
X164393596Y-57342620D01*
X164343354Y-57207913D01*
X164343352Y-57207910D01*
X164281082Y-57124727D01*
X164256665Y-57059262D01*
X164271517Y-56990989D01*
X164281083Y-56976104D01*
X164288487Y-56966214D01*
X164343796Y-56892331D01*
X164394091Y-56757483D01*
X164400500Y-56697873D01*
X164400500Y-56649500D01*
X164420185Y-56582461D01*
X164472989Y-56536706D01*
X164524500Y-56525500D01*
X167575501Y-56525500D01*
X167642540Y-56545185D01*
X167688295Y-56597989D01*
X167699501Y-56649500D01*
X167699501Y-57847876D01*
X167705908Y-57907483D01*
X167756202Y-58042328D01*
X167756206Y-58042335D01*
X167842452Y-58157544D01*
X167842455Y-58157547D01*
X167957664Y-58243793D01*
X167957671Y-58243797D01*
X168092517Y-58294091D01*
X168092516Y-58294091D01*
X168099444Y-58294835D01*
X168152127Y-58300500D01*
X170247872Y-58300499D01*
X170307483Y-58294091D01*
X170442331Y-58243796D01*
X170557546Y-58157546D01*
X170643796Y-58042331D01*
X170694091Y-57907483D01*
X170700500Y-57847873D01*
X170700500Y-56649500D01*
X170720185Y-56582461D01*
X170772989Y-56536706D01*
X170824500Y-56525500D01*
X172017257Y-56525500D01*
X172032877Y-56527224D01*
X172032904Y-56526939D01*
X172040660Y-56527671D01*
X172040667Y-56527673D01*
X172107873Y-56525561D01*
X172111768Y-56525500D01*
X172139346Y-56525500D01*
X172139350Y-56525500D01*
X172143324Y-56524997D01*
X172154963Y-56524080D01*
X172198627Y-56522709D01*
X172217869Y-56517117D01*
X172236912Y-56513174D01*
X172256792Y-56510664D01*
X172297401Y-56494585D01*
X172308444Y-56490803D01*
X172350390Y-56478618D01*
X172367629Y-56468422D01*
X172385103Y-56459862D01*
X172403727Y-56452488D01*
X172403727Y-56452487D01*
X172403732Y-56452486D01*
X172439083Y-56426800D01*
X172448814Y-56420408D01*
X172486420Y-56398170D01*
X172500589Y-56383999D01*
X172515379Y-56371368D01*
X172531587Y-56359594D01*
X172559438Y-56325926D01*
X172567279Y-56317309D01*
X173312821Y-55571767D01*
X173374142Y-55538284D01*
X173443834Y-55543268D01*
X173499767Y-55585140D01*
X173524184Y-55650604D01*
X173524500Y-55659450D01*
X173524500Y-56150001D01*
X173524501Y-56150019D01*
X173535000Y-56252796D01*
X173535001Y-56252799D01*
X173590185Y-56419331D01*
X173590187Y-56419336D01*
X173610194Y-56451773D01*
X173682288Y-56568656D01*
X173806344Y-56692712D01*
X173955666Y-56784814D01*
X174122203Y-56839999D01*
X174224991Y-56850500D01*
X175775008Y-56850499D01*
X175877797Y-56839999D01*
X176044334Y-56784814D01*
X176193656Y-56692712D01*
X176317712Y-56568656D01*
X176409814Y-56419334D01*
X176464999Y-56252797D01*
X176475500Y-56150009D01*
X176475499Y-54849992D01*
X176464999Y-54747203D01*
X176409814Y-54580666D01*
X176317712Y-54431344D01*
X176193656Y-54307288D01*
X176112658Y-54257328D01*
X176038879Y-54211821D01*
X175992155Y-54159873D01*
X175980932Y-54090910D01*
X176008776Y-54026828D01*
X176016295Y-54018601D01*
X176082780Y-53952116D01*
X176163495Y-53871401D01*
X176299035Y-53677830D01*
X176398903Y-53463663D01*
X176460063Y-53235408D01*
X176480659Y-53000000D01*
X176480184Y-52994576D01*
X176471683Y-52897403D01*
X176460063Y-52764592D01*
X176398903Y-52536337D01*
X176299035Y-52322171D01*
X176299034Y-52322169D01*
X176163494Y-52128597D01*
X175996402Y-51961505D01*
X175918880Y-51907224D01*
X175839401Y-51851573D01*
X175795778Y-51796999D01*
X175788584Y-51727500D01*
X175820106Y-51665145D01*
X175839398Y-51648428D01*
X175996401Y-51538495D01*
X176163495Y-51371401D01*
X176299035Y-51177830D01*
X176398903Y-50963663D01*
X176460063Y-50735408D01*
X176480659Y-50500000D01*
X176479401Y-50485627D01*
X176471790Y-50398627D01*
X176460063Y-50264592D01*
X176398903Y-50036337D01*
X176299035Y-49822171D01*
X176257267Y-49762519D01*
X176163494Y-49628597D01*
X175996403Y-49461506D01*
X175940187Y-49422144D01*
X175839401Y-49351573D01*
X175795778Y-49296999D01*
X175788584Y-49227500D01*
X175820106Y-49165145D01*
X175839398Y-49148428D01*
X175996401Y-49038495D01*
X176163495Y-48871401D01*
X176299035Y-48677830D01*
X176398903Y-48463663D01*
X176460063Y-48235408D01*
X176480659Y-48000000D01*
X176460063Y-47764592D01*
X176413626Y-47591285D01*
X176398905Y-47536344D01*
X176398904Y-47536343D01*
X176398903Y-47536337D01*
X176299035Y-47322171D01*
X176299034Y-47322169D01*
X176163494Y-47128597D01*
X175996403Y-46961506D01*
X175838967Y-46851269D01*
X175795342Y-46796692D01*
X175788148Y-46727194D01*
X175819671Y-46664839D01*
X175838967Y-46648119D01*
X175996073Y-46538113D01*
X175996079Y-46538108D01*
X176163105Y-46371082D01*
X176298600Y-46177578D01*
X176398429Y-45963492D01*
X176398432Y-45963486D01*
X176455636Y-45750000D01*
X175403969Y-45750000D01*
X175436519Y-45699351D01*
X175475000Y-45568295D01*
X175475000Y-45431705D01*
X175436519Y-45300649D01*
X175403969Y-45250000D01*
X176455636Y-45250000D01*
X176455635Y-45249999D01*
X176398432Y-45036513D01*
X176398429Y-45036507D01*
X176298600Y-44822422D01*
X176298599Y-44822420D01*
X176163113Y-44628926D01*
X176163108Y-44628920D01*
X175996079Y-44461891D01*
X175996073Y-44461886D01*
X175838967Y-44351880D01*
X175795342Y-44297303D01*
X175788148Y-44227805D01*
X175819671Y-44165450D01*
X175838960Y-44148735D01*
X175996401Y-44038495D01*
X176163495Y-43871401D01*
X176299035Y-43677830D01*
X176398903Y-43463663D01*
X176460063Y-43235408D01*
X176480659Y-43000000D01*
X176460063Y-42764592D01*
X176398903Y-42536337D01*
X176299035Y-42322171D01*
X176299034Y-42322169D01*
X176163494Y-42128597D01*
X175996403Y-41961506D01*
X175940187Y-41922144D01*
X175839401Y-41851573D01*
X175795778Y-41796999D01*
X175788584Y-41727500D01*
X175820106Y-41665145D01*
X175839398Y-41648428D01*
X175996401Y-41538495D01*
X176163495Y-41371401D01*
X176299035Y-41177830D01*
X176398903Y-40963663D01*
X176460063Y-40735408D01*
X176480659Y-40500000D01*
X176460063Y-40264592D01*
X176398903Y-40036337D01*
X176299035Y-39822171D01*
X176299034Y-39822169D01*
X176163494Y-39628597D01*
X175996402Y-39461505D01*
X175802830Y-39325965D01*
X175802828Y-39325964D01*
X175695746Y-39276031D01*
X175588663Y-39226097D01*
X175588659Y-39226096D01*
X175588655Y-39226094D01*
X175360413Y-39164938D01*
X175360403Y-39164936D01*
X175183967Y-39149500D01*
X175183966Y-39149500D01*
X174816034Y-39149500D01*
X174816033Y-39149500D01*
X174639596Y-39164936D01*
X174639586Y-39164938D01*
X174411344Y-39226094D01*
X174411335Y-39226098D01*
X174197171Y-39325964D01*
X174197169Y-39325965D01*
X174003597Y-39461505D01*
X173836506Y-39628597D01*
X173836501Y-39628603D01*
X173701348Y-39821623D01*
X173646771Y-39865248D01*
X173599773Y-39874500D01*
X171782738Y-39874500D01*
X171767121Y-39872776D01*
X171767094Y-39873062D01*
X171759332Y-39872327D01*
X171692145Y-39874439D01*
X171688251Y-39874500D01*
X171660650Y-39874500D01*
X171656962Y-39874965D01*
X171656649Y-39875005D01*
X171645031Y-39875918D01*
X171601373Y-39877290D01*
X171601372Y-39877290D01*
X171582129Y-39882881D01*
X171563079Y-39886825D01*
X171543211Y-39889334D01*
X171543210Y-39889334D01*
X171502599Y-39905413D01*
X171491554Y-39909194D01*
X171449614Y-39921379D01*
X171449610Y-39921381D01*
X171432366Y-39931579D01*
X171414905Y-39940133D01*
X171396274Y-39947510D01*
X171396262Y-39947517D01*
X171360933Y-39973185D01*
X171351173Y-39979596D01*
X171313580Y-40001829D01*
X171299414Y-40015995D01*
X171284624Y-40028627D01*
X171268414Y-40040404D01*
X171268411Y-40040407D01*
X171240573Y-40074058D01*
X171232711Y-40082697D01*
X166789728Y-44525681D01*
X166728405Y-44559166D01*
X166702047Y-44562000D01*
X152695238Y-44562000D01*
X152679621Y-44560276D01*
X152679594Y-44560562D01*
X152671832Y-44559827D01*
X152604645Y-44561939D01*
X152600751Y-44562000D01*
X152573150Y-44562000D01*
X152569462Y-44562465D01*
X152569149Y-44562505D01*
X152557531Y-44563418D01*
X152513873Y-44564790D01*
X152513872Y-44564790D01*
X152494629Y-44570381D01*
X152475579Y-44574325D01*
X152455711Y-44576834D01*
X152455710Y-44576834D01*
X152415099Y-44592913D01*
X152404054Y-44596694D01*
X152362114Y-44608879D01*
X152362110Y-44608881D01*
X152344866Y-44619079D01*
X152327405Y-44627633D01*
X152308774Y-44635010D01*
X152308762Y-44635017D01*
X152273433Y-44660685D01*
X152263673Y-44667096D01*
X152226080Y-44689329D01*
X152211914Y-44703495D01*
X152197124Y-44716127D01*
X152180914Y-44727904D01*
X152180911Y-44727907D01*
X152153073Y-44761558D01*
X152145211Y-44770197D01*
X150852228Y-46063181D01*
X150790905Y-46096666D01*
X150764547Y-46099500D01*
X150705354Y-46099500D01*
X150672897Y-46106398D01*
X150520197Y-46138855D01*
X150520192Y-46138857D01*
X150347270Y-46215848D01*
X150347265Y-46215851D01*
X150194129Y-46327111D01*
X150067466Y-46467785D01*
X149972821Y-46631715D01*
X149972818Y-46631722D01*
X149914327Y-46811740D01*
X149914326Y-46811744D01*
X149894540Y-47000000D01*
X126341340Y-47000000D01*
X126351158Y-43730828D01*
X126371043Y-43663848D01*
X126423984Y-43618251D01*
X126475157Y-43607200D01*
X161376200Y-43607200D01*
X161376200Y-32000000D01*
X171044495Y-32000000D01*
X171064505Y-32407311D01*
X171124342Y-32810699D01*
X171223430Y-33206279D01*
X171360814Y-33590243D01*
X171535172Y-33958891D01*
X171535174Y-33958894D01*
X171744822Y-34308672D01*
X171987755Y-34636229D01*
X172261613Y-34938386D01*
X172563770Y-35212244D01*
X172563776Y-35212249D01*
X172891325Y-35455176D01*
X173241109Y-35664828D01*
X173609757Y-35839186D01*
X173993721Y-35976570D01*
X174389301Y-36075658D01*
X174792689Y-36135495D01*
X175098121Y-36150500D01*
X175098135Y-36150500D01*
X175301865Y-36150500D01*
X175301879Y-36150500D01*
X175607311Y-36135495D01*
X176010699Y-36075658D01*
X176406279Y-35976570D01*
X176790243Y-35839186D01*
X177158891Y-35664828D01*
X177508675Y-35455176D01*
X177836224Y-35212249D01*
X178138386Y-34938386D01*
X178412249Y-34636224D01*
X178655176Y-34308675D01*
X178864828Y-33958891D01*
X179039186Y-33590243D01*
X179176570Y-33206279D01*
X179275658Y-32810699D01*
X179335495Y-32407311D01*
X179355505Y-32000000D01*
X179335495Y-31592689D01*
X179275658Y-31189301D01*
X179176570Y-30793721D01*
X179039186Y-30409757D01*
X178864828Y-30041109D01*
X178655176Y-29691325D01*
X178412249Y-29363776D01*
X178412244Y-29363770D01*
X178138386Y-29061613D01*
X177836229Y-28787755D01*
X177508672Y-28544822D01*
X177158894Y-28335174D01*
X177158895Y-28335174D01*
X177158891Y-28335172D01*
X176790243Y-28160814D01*
X176790241Y-28160813D01*
X176406279Y-28023430D01*
X176010695Y-27924341D01*
X175607320Y-27864506D01*
X175607316Y-27864505D01*
X175607311Y-27864505D01*
X175301879Y-27849500D01*
X175098121Y-27849500D01*
X174792689Y-27864505D01*
X174792683Y-27864505D01*
X174792679Y-27864506D01*
X174389304Y-27924341D01*
X173993720Y-28023430D01*
X173609758Y-28160813D01*
X173609756Y-28160814D01*
X173241105Y-28335174D01*
X172891327Y-28544822D01*
X172563770Y-28787755D01*
X172261613Y-29061613D01*
X171987755Y-29363770D01*
X171744822Y-29691327D01*
X171535174Y-30041105D01*
X171360814Y-30409756D01*
X171360813Y-30409758D01*
X171223430Y-30793720D01*
X171124341Y-31189304D01*
X171064506Y-31592679D01*
X171064505Y-31592689D01*
X171044495Y-32000000D01*
X161376200Y-32000000D01*
X161376200Y-27424500D01*
X161395885Y-27357461D01*
X161448689Y-27311706D01*
X161500200Y-27300500D01*
X179675500Y-27300500D01*
X179742539Y-27320185D01*
G37*
%TD.AperFunction*%
%TD*%
%TA.AperFunction,NonConductor*%
G36*
X167421408Y-48345185D02*
G01*
X167467163Y-48397989D01*
X167477107Y-48467147D01*
X167459908Y-48514597D01*
X167457289Y-48518842D01*
X167457288Y-48518844D01*
X167397611Y-48615597D01*
X167345663Y-48662321D01*
X167292072Y-48674500D01*
X165559591Y-48674500D01*
X165492552Y-48654815D01*
X165446797Y-48602011D01*
X165441886Y-48589506D01*
X165434815Y-48568168D01*
X165404392Y-48518844D01*
X165401771Y-48514595D01*
X165383332Y-48447204D01*
X165404255Y-48380541D01*
X165457897Y-48335771D01*
X165507311Y-48325500D01*
X167354369Y-48325500D01*
X167421408Y-48345185D01*
G37*
%TD.AperFunction*%
%TA.AperFunction,NonConductor*%
G36*
X154964247Y-61535185D02*
G01*
X154989358Y-61556528D01*
X155094129Y-61672888D01*
X155247265Y-61784148D01*
X155247270Y-61784151D01*
X155420192Y-61861142D01*
X155420197Y-61861144D01*
X155605354Y-61900500D01*
X155605355Y-61900500D01*
X155794644Y-61900500D01*
X155794646Y-61900500D01*
X155979803Y-61861144D01*
X156152730Y-61784151D01*
X156210012Y-61742533D01*
X156275818Y-61719052D01*
X156343872Y-61734877D01*
X156370579Y-61755169D01*
X158653229Y-64037819D01*
X158686714Y-64099142D01*
X158681730Y-64168834D01*
X158639858Y-64224767D01*
X158574394Y-64249184D01*
X158565548Y-64249500D01*
X158282433Y-64249500D01*
X158266816Y-64247776D01*
X158266789Y-64248062D01*
X158259027Y-64247327D01*
X158191840Y-64249439D01*
X158187946Y-64249500D01*
X158160345Y-64249500D01*
X158156657Y-64249965D01*
X158156344Y-64250005D01*
X158144726Y-64250918D01*
X158101068Y-64252290D01*
X158101067Y-64252290D01*
X158081824Y-64257881D01*
X158062774Y-64261825D01*
X158042906Y-64264334D01*
X158042905Y-64264335D01*
X158002295Y-64280413D01*
X157991248Y-64284195D01*
X157949305Y-64296381D01*
X157949304Y-64296382D01*
X157932062Y-64306579D01*
X157914593Y-64315137D01*
X157888711Y-64325385D01*
X157887703Y-64322841D01*
X157842323Y-64334500D01*
X157145147Y-64334500D01*
X157078108Y-64314815D01*
X157057466Y-64298181D01*
X154486466Y-61727181D01*
X154452981Y-61665858D01*
X154457965Y-61596166D01*
X154499837Y-61540233D01*
X154565301Y-61515816D01*
X154574147Y-61515500D01*
X154897208Y-61515500D01*
X154964247Y-61535185D01*
G37*
%TD.AperFunction*%
%TA.AperFunction,NonConductor*%
G36*
X148456587Y-67345185D02*
G01*
X148477229Y-67361819D01*
X148861038Y-67745629D01*
X148894523Y-67806952D01*
X148896678Y-67820348D01*
X148898199Y-67834814D01*
X148914326Y-67988256D01*
X148914327Y-67988259D01*
X148972818Y-68168277D01*
X148972821Y-68168284D01*
X149067467Y-68332216D01*
X149160377Y-68435403D01*
X149194129Y-68472888D01*
X149347265Y-68584148D01*
X149347270Y-68584151D01*
X149466465Y-68637221D01*
X149519702Y-68682471D01*
X149540023Y-68749320D01*
X149520977Y-68816544D01*
X149468611Y-68862799D01*
X149416029Y-68874500D01*
X147767654Y-68874500D01*
X147700615Y-68854815D01*
X147654860Y-68802011D01*
X147649948Y-68789504D01*
X147626637Y-68719158D01*
X147597314Y-68630666D01*
X147505212Y-68481344D01*
X147381156Y-68357288D01*
X147231834Y-68265186D01*
X147065297Y-68210001D01*
X147065295Y-68210000D01*
X146962510Y-68199500D01*
X146037498Y-68199500D01*
X146037480Y-68199501D01*
X145934703Y-68210000D01*
X145934700Y-68210001D01*
X145768168Y-68265185D01*
X145768159Y-68265189D01*
X145614596Y-68359908D01*
X145547204Y-68378348D01*
X145480541Y-68357425D01*
X145435771Y-68303783D01*
X145425500Y-68254369D01*
X145425500Y-67619308D01*
X145445185Y-67552269D01*
X145497989Y-67506514D01*
X145567147Y-67496570D01*
X145630703Y-67525595D01*
X145655039Y-67554212D01*
X145690524Y-67611744D01*
X145694788Y-67618656D01*
X145818844Y-67742712D01*
X145968166Y-67834814D01*
X146134703Y-67889999D01*
X146237491Y-67900500D01*
X147162508Y-67900499D01*
X147162516Y-67900498D01*
X147162519Y-67900498D01*
X147218802Y-67894748D01*
X147265297Y-67889999D01*
X147431834Y-67834814D01*
X147581156Y-67742712D01*
X147705212Y-67618656D01*
X147797314Y-67469334D01*
X147816811Y-67410493D01*
X147856584Y-67353051D01*
X147921100Y-67326228D01*
X147934517Y-67325500D01*
X148389548Y-67325500D01*
X148456587Y-67345185D01*
G37*
%TD.AperFunction*%
%TA.AperFunction,NonConductor*%
G36*
X159549246Y-65743209D02*
G01*
X159582216Y-65766806D01*
X160438181Y-66622771D01*
X160471666Y-66684094D01*
X160474500Y-66710452D01*
X160474500Y-69137057D01*
X160454815Y-69204096D01*
X160402011Y-69249851D01*
X160332853Y-69259795D01*
X160269297Y-69230770D01*
X160242386Y-69193452D01*
X160241099Y-69194196D01*
X160237039Y-69187163D01*
X160198591Y-69137057D01*
X160140782Y-69061718D01*
X160015341Y-68965464D01*
X159995689Y-68957324D01*
X159869262Y-68904956D01*
X159869260Y-68904955D01*
X159751870Y-68889501D01*
X159751867Y-68889500D01*
X159751861Y-68889500D01*
X159751854Y-68889500D01*
X158248144Y-68889500D01*
X158178183Y-68898710D01*
X158109148Y-68887942D01*
X158056893Y-68841561D01*
X158038000Y-68775770D01*
X158038000Y-66997952D01*
X158057685Y-66930913D01*
X158074319Y-66910271D01*
X158447772Y-66536819D01*
X158509095Y-66503334D01*
X158535453Y-66500500D01*
X158594644Y-66500500D01*
X158594646Y-66500500D01*
X158779803Y-66461144D01*
X158952730Y-66384151D01*
X159105871Y-66272888D01*
X159232533Y-66132216D01*
X159327179Y-65968284D01*
X159376604Y-65816167D01*
X159416041Y-65758494D01*
X159480400Y-65731295D01*
X159549246Y-65743209D01*
G37*
%TD.AperFunction*%
%TA.AperFunction,NonConductor*%
G36*
X161930703Y-67315739D02*
G01*
X161937178Y-67321768D01*
X162827729Y-68212320D01*
X162861213Y-68273641D01*
X162856229Y-68343333D01*
X162827728Y-68387680D01*
X162716211Y-68499197D01*
X162703948Y-68509022D01*
X162704131Y-68509244D01*
X162698120Y-68514216D01*
X162652097Y-68563224D01*
X162649390Y-68566017D01*
X162629889Y-68585517D01*
X162629875Y-68585534D01*
X162627407Y-68588715D01*
X162619843Y-68597570D01*
X162589937Y-68629418D01*
X162589936Y-68629420D01*
X162580284Y-68646976D01*
X162569610Y-68663226D01*
X162557329Y-68679061D01*
X162557324Y-68679068D01*
X162539975Y-68719158D01*
X162534838Y-68729644D01*
X162513803Y-68767906D01*
X162508822Y-68787307D01*
X162502521Y-68805710D01*
X162494562Y-68824102D01*
X162494561Y-68824105D01*
X162487728Y-68867243D01*
X162485360Y-68878674D01*
X162474501Y-68920971D01*
X162474500Y-68920982D01*
X162474500Y-68941016D01*
X162472973Y-68960415D01*
X162469840Y-68980194D01*
X162469840Y-68980195D01*
X162473950Y-69023674D01*
X162474500Y-69035343D01*
X162474500Y-69175500D01*
X162454815Y-69242539D01*
X162402011Y-69288294D01*
X162350500Y-69299500D01*
X162180354Y-69299500D01*
X162169576Y-69301791D01*
X161995197Y-69338855D01*
X161995192Y-69338857D01*
X161899936Y-69381269D01*
X161830686Y-69390554D01*
X161767409Y-69360926D01*
X161730196Y-69301791D01*
X161725500Y-69267990D01*
X161725500Y-67409452D01*
X161745185Y-67342413D01*
X161797989Y-67296658D01*
X161867147Y-67286714D01*
X161930703Y-67315739D01*
G37*
%TD.AperFunction*%
%TA.AperFunction,NonConductor*%
G36*
X173566325Y-68045185D02*
G01*
X173612080Y-68097989D01*
X173622813Y-68160307D01*
X173622116Y-68168284D01*
X173619341Y-68200000D01*
X173639936Y-68435403D01*
X173639938Y-68435413D01*
X173701094Y-68663655D01*
X173701096Y-68663659D01*
X173701097Y-68663663D01*
X173718275Y-68700500D01*
X173800964Y-68877828D01*
X173800965Y-68877830D01*
X173936505Y-69071402D01*
X174103597Y-69238494D01*
X174118494Y-69248925D01*
X174162119Y-69303502D01*
X174169313Y-69373000D01*
X174137790Y-69435355D01*
X174077560Y-69470769D01*
X174047371Y-69474500D01*
X170017433Y-69474500D01*
X169950394Y-69454815D01*
X169904639Y-69402011D01*
X169894075Y-69337897D01*
X169900500Y-69275009D01*
X169900499Y-68149499D01*
X169920184Y-68082461D01*
X169972987Y-68036706D01*
X170024499Y-68025500D01*
X173499286Y-68025500D01*
X173566325Y-68045185D01*
G37*
%TD.AperFunction*%
%TA.AperFunction,NonConductor*%
G36*
X164754196Y-69805426D02*
G01*
X164782099Y-69818178D01*
X164930659Y-69909810D01*
X164930660Y-69909810D01*
X164930666Y-69909814D01*
X165097203Y-69964999D01*
X165199991Y-69975500D01*
X165620903Y-69975499D01*
X165687941Y-69995183D01*
X165733696Y-70047987D01*
X165743640Y-70117146D01*
X165729566Y-70159234D01*
X165713803Y-70187908D01*
X165708822Y-70207307D01*
X165702520Y-70225713D01*
X165692120Y-70249746D01*
X165647429Y-70303454D01*
X165580797Y-70324475D01*
X165578318Y-70324500D01*
X165249999Y-70324500D01*
X165249980Y-70324501D01*
X165140468Y-70335689D01*
X165140301Y-70334058D01*
X165078996Y-70329464D01*
X165058696Y-70318523D01*
X165058363Y-70319101D01*
X165052729Y-70315848D01*
X164879807Y-70238857D01*
X164879802Y-70238855D01*
X164731375Y-70207307D01*
X164694646Y-70199500D01*
X164694645Y-70199500D01*
X164649500Y-70199500D01*
X164582461Y-70179815D01*
X164536706Y-70127011D01*
X164525500Y-70075500D01*
X164525500Y-69998687D01*
X164545185Y-69931648D01*
X164557350Y-69915715D01*
X164610640Y-69856530D01*
X164624853Y-69840744D01*
X164684339Y-69804096D01*
X164754196Y-69805426D01*
G37*
%TD.AperFunction*%
%TA.AperFunction,NonConductor*%
G36*
X145614597Y-70840091D02*
G01*
X145618840Y-70842708D01*
X145618844Y-70842712D01*
X145768166Y-70934814D01*
X145934703Y-70989999D01*
X146025603Y-70999285D01*
X146090294Y-71025681D01*
X146130445Y-71082861D01*
X146137000Y-71122643D01*
X146137000Y-71548840D01*
X146117315Y-71615879D01*
X146064511Y-71661634D01*
X146052005Y-71666545D01*
X145980670Y-71690183D01*
X145980669Y-71690184D01*
X145831342Y-71782289D01*
X145707289Y-71906342D01*
X145641282Y-72013357D01*
X145589334Y-72060082D01*
X145520371Y-72071303D01*
X145456289Y-72043460D01*
X145417433Y-71985391D01*
X145415639Y-71917422D01*
X145425500Y-71879019D01*
X145425500Y-71858983D01*
X145427027Y-71839582D01*
X145427142Y-71838856D01*
X145430160Y-71819804D01*
X145426050Y-71776324D01*
X145425500Y-71764655D01*
X145425500Y-70945630D01*
X145445185Y-70878591D01*
X145497989Y-70832836D01*
X145567147Y-70822892D01*
X145614597Y-70840091D01*
G37*
%TD.AperFunction*%
%TA.AperFunction,NonConductor*%
G36*
X163868798Y-71654700D02*
G01*
X163917614Y-71687910D01*
X163994129Y-71772888D01*
X164147265Y-71884148D01*
X164147270Y-71884151D01*
X164320191Y-71961142D01*
X164320193Y-71961142D01*
X164320197Y-71961144D01*
X164451285Y-71989007D01*
X164512763Y-72022198D01*
X164546540Y-72083360D01*
X164549501Y-72110296D01*
X164549501Y-72200500D01*
X164529816Y-72267539D01*
X164477012Y-72313294D01*
X164425501Y-72324500D01*
X163415923Y-72324500D01*
X163348884Y-72304815D01*
X163303129Y-72252011D01*
X163293185Y-72182853D01*
X163322210Y-72119297D01*
X163331040Y-72110107D01*
X163331582Y-72109597D01*
X163331587Y-72109594D01*
X163366954Y-72066840D01*
X163372078Y-72061029D01*
X163410062Y-72020582D01*
X163413349Y-72014601D01*
X163434331Y-71986653D01*
X163737785Y-71683199D01*
X163799106Y-71649716D01*
X163868798Y-71654700D01*
G37*
%TD.AperFunction*%
%TA.AperFunction,NonConductor*%
G36*
X167620501Y-70745185D02*
G01*
X167666256Y-70797989D01*
X167676200Y-70867147D01*
X167671168Y-70888501D01*
X167660004Y-70922195D01*
X167660001Y-70922203D01*
X167660000Y-70922204D01*
X167649500Y-71024983D01*
X167649500Y-72375001D01*
X167649501Y-72375018D01*
X167660000Y-72477796D01*
X167660001Y-72477799D01*
X167679941Y-72537973D01*
X167682343Y-72607802D01*
X167646611Y-72667843D01*
X167584091Y-72699036D01*
X167514631Y-72691475D01*
X167474554Y-72664658D01*
X167376108Y-72566212D01*
X167366285Y-72553950D01*
X167366064Y-72554134D01*
X167361091Y-72548122D01*
X167312081Y-72502099D01*
X167309282Y-72499386D01*
X167289782Y-72479885D01*
X167287093Y-72477799D01*
X167286591Y-72477409D01*
X167277739Y-72469848D01*
X167245887Y-72439938D01*
X167245885Y-72439936D01*
X167245882Y-72439935D01*
X167228334Y-72430288D01*
X167212068Y-72419604D01*
X167196237Y-72407324D01*
X167156154Y-72389978D01*
X167145668Y-72384841D01*
X167107399Y-72363803D01*
X167107397Y-72363802D01*
X167087998Y-72358822D01*
X167069586Y-72352518D01*
X167051203Y-72344562D01*
X167051197Y-72344560D01*
X167008065Y-72337729D01*
X166996627Y-72335361D01*
X166946768Y-72322560D01*
X166947411Y-72320054D01*
X166894891Y-72297134D01*
X166856129Y-72239002D01*
X166850499Y-72202062D01*
X166850499Y-71428862D01*
X166865837Y-71369124D01*
X166886197Y-71332092D01*
X166891180Y-71312680D01*
X166897481Y-71294280D01*
X166905437Y-71275896D01*
X166912270Y-71232748D01*
X166914633Y-71221338D01*
X166925500Y-71179019D01*
X166925500Y-71158983D01*
X166927027Y-71139582D01*
X166930160Y-71119804D01*
X166926050Y-71076324D01*
X166925500Y-71064655D01*
X166925500Y-70849500D01*
X166945185Y-70782461D01*
X166997989Y-70736706D01*
X167049500Y-70725500D01*
X167553462Y-70725500D01*
X167620501Y-70745185D01*
G37*
%TD.AperFunction*%
M02*
